<?xml version="1.0" encoding="UTF-8"?>
<svg version="1.1" xmlns="http://www.w3.org/2000/svg" width="500" height="187">
<path d="M0 0 C9.9 0 19.8 0 30 0 C30.33 15.84 30.66 31.68 31 48 C34.96 47.01 38.92 46.02 43 45 C46.36206198 44.70958064 49.46762089 44.51943434 52.8125 44.5625 C53.66779297 44.57079834 54.52308594 44.57909668 55.40429688 44.58764648 C70.10475906 44.97327287 83.56923216 49.62075528 94.375 59.875 C104.38381875 70.7369613 107.70638137 81.46938075 107.34375 96.26171875 C106.28797906 107.74322776 101.86395876 118.55735206 93.3359375 126.47265625 C83.74287978 134.05344988 73.40304976 139.88024642 61 140 C59.74574219 140.06058594 58.49148437 140.12117187 57.19921875 140.18359375 C46.59749531 140.57153702 37.18513262 138.85540639 27 136 C27 135.34 27 134.68 27 134 C26.14148437 133.82984375 26.14148437 133.82984375 25.265625 133.65625 C16.10760789 131.00358298 8.92162332 122.89689473 4.203125 114.98828125 C-2.76863218 101.22736053 -1.0890813 85.66136958 -0.87890625 70.60546875 C-0.85455513 68.56139202 -0.83071424 66.51730916 -0.80735779 64.47322083 C-0.74501284 59.13529381 -0.67581013 53.79747768 -0.60510254 48.45965576 C-0.53396652 42.99594096 -0.46942201 37.53214854 -0.40429688 32.06835938 C-0.27592532 21.37881834 -0.13968723 10.68939916 0 0 Z M37.125 77.8125 C32.93694719 84.09457922 30.89394798 89.49644254 32 97 C33.84272765 103.63601327 37.12849848 108.35348853 43 112 C49.97799289 114.74135435 56.24794663 114.81237488 63.14453125 111.984375 C67.81848189 109.50472119 72.02942069 104.74129473 73.80078125 99.73828125 C75.39456717 92.18300603 75.0749363 85.96421889 71 79.25 C67.18073653 74.43098815 61.64923723 71.69683927 55.66796875 70.5546875 C48.71223166 70.18923721 41.82776833 72.56060603 37.125 77.8125 Z " fill="#364679" transform="translate(1,4)"/>
<path d="M0 0 C4.87429768 -0.24810442 9.74489484 -0.42902231 14.62402344 -0.54931641 C16.28125016 -0.59946677 17.9380373 -0.6676137 19.59375 -0.75439453 C33.3567135 -1.45743053 33.3567135 -1.45743053 37.359375 2.0925293 C38.92612326 4.69083271 39.97884262 7.14876737 41 10 C41.89317471 11.70005087 42.80666394 13.38976239 43.75 15.0625 C44.13671875 15.79597656 44.5234375 16.52945313 44.921875 17.28515625 C45.89639991 19.16452523 45.89639991 19.16452523 48 20 C48.92498003 21.90470966 49.76752185 23.84997186 50.5625 25.8125 C50.99691406 26.87082031 51.43132812 27.92914063 51.87890625 29.01953125 C52.75742045 31.35509339 53.47579202 33.56743939 54 36 C54.66 36 55.32 36 56 36 C57.32 38.64 58.64 41.28 60 44 C60.81674796 42.25197854 61.62823451 40.50149811 62.4375 38.75 C62.88996094 37.77546875 63.34242188 36.8009375 63.80859375 35.796875 C65.03040878 33.1629561 65.03040878 33.1629561 65.47265625 30.890625 C66 29 66 29 67.36645508 27.23217773 C69.20179152 24.72425948 70.39245057 22.22938994 71.6640625 19.39453125 C72.14617187 18.32912109 72.62828125 17.26371094 73.125 16.16601562 C73.62 15.05935547 74.115 13.95269531 74.625 12.8125 C75.61525879 10.60980898 76.6073457 8.4079386 77.6015625 6.20703125 C78.25632568 4.74487183 78.25632568 4.74487183 78.92431641 3.25317383 C80 1 80 1 81 0 C83.59359322 -0.08851529 86.16039691 -0.11525945 88.75390625 -0.09765625 C89.52935287 -0.0962413 90.3047995 -0.09482635 91.10374451 -0.09336853 C93.59003494 -0.08775345 96.0762366 -0.07519846 98.5625 -0.0625 C100.24413933 -0.05748694 101.92578006 -0.0529237 103.60742188 -0.04882812 C107.73831566 -0.03777913 111.86914276 -0.02050445 116 0 C114.82179741 3.68026559 113.54055305 7.18733145 111.87109375 10.671875 C111.27844727 11.91517578 111.27844727 11.91517578 110.67382812 13.18359375 C110.26583984 14.03050781 109.85785156 14.87742187 109.4375 15.75 C109.02564453 16.61238281 108.61378906 17.47476563 108.18945312 18.36328125 C105.3765346 24.2469308 105.3765346 24.2469308 104 27 C103.69489502 27.62986816 103.38979004 28.25973633 103.07543945 28.90869141 C102.07691622 30.85042808 100.98659434 32.63473836 99.79296875 34.4609375 C96.29619699 40.00187712 93.32515983 45.81121479 90.3125 51.625 C89.73177734 52.73101562 89.15105469 53.83703125 88.55273438 54.9765625 C87.99521484 56.0490625 87.43769531 57.1215625 86.86328125 58.2265625 C86.10978394 59.67409912 86.10978394 59.67409912 85.34106445 61.15087891 C83.97674539 64.04940493 82.95088923 66.94346935 82 70 C81.34 70 80.68 70 80 70 C79.71842041 70.72687012 79.43684082 71.45374023 79.14672852 72.20263672 C78.08497302 74.7927143 76.91827026 77.2624839 75.65234375 79.7578125 C75.21212891 80.63050781 74.77191406 81.50320312 74.31835938 82.40234375 C73.86267578 83.30082031 73.40699219 84.19929688 72.9375 85.125 C72.02808222 86.91832594 71.12044961 88.71255858 70.21484375 90.5078125 C69.81386475 91.29816895 69.41288574 92.08852539 68.99975586 92.90283203 C67.89564845 95.10840931 67.89564845 95.10840931 67 98 C66.56558594 98.56074219 66.13117188 99.12148437 65.68359375 99.69921875 C63.36733117 102.86459847 61.76985805 106.29046424 60.0625 109.8125 C58.07331077 113.8943623 56.07478782 117.92878821 53.77734375 121.84765625 C51.89412225 124.79545885 51.89412225 124.79545885 51.5 127.625 C50.77690331 131.05970926 49.53639899 132.56899362 47 135 C44.04335206 135.44649301 41.67737454 135.58732562 38.734375 135.48828125 C37.94097717 135.48120651 37.14757935 135.47413177 36.33013916 135.46684265 C33.80245635 135.43891048 31.27701012 135.37617989 28.75 135.3125 C27.03388622 135.28741535 25.31773762 135.26460246 23.6015625 135.24414062 C19.40018329 135.18908839 15.20047048 135.10282863 11 135 C12.8392516 130.33473018 14.88459577 125.79505329 17 121.25 C17.35578125 120.47011719 17.7115625 119.69023437 18.078125 118.88671875 C18.42359375 118.14550781 18.7690625 117.40429688 19.125 116.640625 C19.43695313 115.96547852 19.74890625 115.29033203 20.0703125 114.59472656 C21 113 21 113 23 112 C23.71074419 110.35164782 24.37023602 108.68095793 25 107 C25.82523851 105.2826479 26.67003655 103.57459649 27.53125 101.875 C28.01207031 100.92109375 28.49289062 99.9671875 28.98828125 98.984375 C29.99609375 96.99479167 31.00390625 95.00520833 32.01171875 93.015625 C32.49253906 92.06171875 32.97335937 91.1078125 33.46875 90.125 C33.90638672 89.26132813 34.34402344 88.39765625 34.79492188 87.5078125 C35.98005816 85.04149972 37.01448107 82.55183092 38 80 C38.66 80 39.32 80 40 80 C40.9435943 76.9334916 41.16503986 75.41847434 39.97119141 72.39135742 C39.43671387 71.47201416 38.90223633 70.5526709 38.3515625 69.60546875 C37.76213867 68.57429932 37.17271484 67.54312988 36.56542969 66.48071289 C35.92508789 65.39395264 35.28474609 64.30719238 34.625 63.1875 C33.33072534 60.94010637 32.03645451 58.69271053 30.7421875 56.4453125 C30.1037793 55.34864258 29.46537109 54.25197266 28.80761719 53.12207031 C26.02606366 48.31784198 23.34581749 43.45820037 20.66650391 38.59643555 C19.27151868 36.09991191 18.03381101 34.03381101 16 32 C14.46326443 29.04250891 13.00816449 26.0588532 11.56640625 23.0546875 C10.24357055 20.34088722 9.15117275 18.15117275 7 16 C6 13.66666667 5 11.33333333 4 9 C3.34 8.34 2.68 7.68 2 7 C1.28072705 4.68234271 0.6090107 2.34904126 0 0 Z " fill="#364679" transform="translate(383,52)"/>
<path d="M0 0 C0 0.66 0 1.32 0 2 C0.99 1.67 1.98 1.34 3 1 C3 1.66 3 2.32 3 3 C3.66 3 4.32 3 5 3 C3.51991304 8.00113594 1.3681664 12.32915597 -1.125 16.875 C-1.49753906 17.56335938 -1.87007813 18.25171875 -2.25390625 18.9609375 C-3.16499526 20.64294798 -4.08190315 22.32180436 -5 24 C-6.07765625 23.69191406 -7.1553125 23.38382813 -8.265625 23.06640625 C-10.7596815 22.35419137 -13.25447846 21.64456444 -15.75 20.9375 C-17.84569226 20.33297339 -19.93078744 19.68973752 -22 19 C-27.03415457 18.62709966 -29.89042374 19.01121727 -34 22 C-34.2113453 24.3912295 -34.2113453 24.3912295 -33 27 C-28.93486288 29.58937464 -24.25635577 30.93835797 -19.6875 32.375 C-10.23661686 35.47012285 -1.4407131 39.32985777 4 48 C8.07335458 56.1027521 8.12365508 64.29904255 5.3125 72.8125 C3.57268304 77.1774118 1.67100645 79.97141968 -2 83 C-2.598125 83.70125 -3.19625 84.4025 -3.8125 85.125 C-12.85310509 92.87409007 -28.66127972 92.83612788 -39.90039062 92.20849609 C-48.83281359 91.32148572 -57.75430349 88.43570688 -66 85 C-66 84.34 -66 83.68 -66 83 C-67.32 82.34 -68.64 81.68 -70 81 C-69.33042717 77.14065661 -67.51125822 74.26349464 -65.5 70.9375 C-62.89857559 66.63135264 -62.89857559 66.63135264 -61 62 C-60.34 62 -59.68 62 -59 62 C-58.67 61.01 -58.34 60.02 -58 59 C-56.87464844 59.72316406 -56.87464844 59.72316406 -55.7265625 60.4609375 C-47.38669813 65.60770519 -39.94621376 68.74596603 -30 68 C-29.34 67.67 -28.68 67.34 -28 67 C-27.59270772 64.67843403 -27.25561323 62.3431213 -27 60 C-30.45050025 57.45752613 -33.67523124 55.64799835 -37.6875 54.125 C-47.60416219 50.28677382 -58.38696227 45.52540778 -62.9375 35.25 C-65.33779057 27.47905928 -64.72286879 19.66370995 -61.38671875 12.2890625 C-57.18745185 5.35731488 -50.48310339 1.58530829 -43 -1 C-42.360625 -1.22558594 -41.72125 -1.45117188 -41.0625 -1.68359375 C-27.82718824 -5.4318754 -13.11539367 -3.00188847 0 0 Z " fill="#364678" transform="translate(285,52)"/>
<path d="M0 0 C-0.61632946 4.95998472 -2.79835629 8.93671966 -5.0625 13.3125 C-5.43955078 14.05306641 -5.81660156 14.79363281 -6.20507812 15.55664062 C-7.13128157 17.37387522 -8.06490629 19.18732404 -9 21 C-9.60851807 20.79012451 -10.21703613 20.58024902 -10.84399414 20.36401367 C-23.49376181 15.64628489 -23.49376181 15.64628489 -36.5 17 C-36.995 17.33 -37.49 17.66 -38 18 C-38 19.98 -38 21.96 -38 24 C-31.79485825 26.62740236 -25.59049376 29.15343909 -19.25 31.4375 C-10.16460824 34.90844607 -3.59870094 39.70978738 0.75 48.5625 C3.33182344 56.08099684 2.90538902 64.60492817 0.03125 71.9765625 C-1.79775487 75.56529175 -4.05083245 78.27267249 -7 81 C-7.60328125 81.55945313 -8.2065625 82.11890625 -8.828125 82.6953125 C-15.71354976 88.13532366 -23.57000945 88.52170266 -32 89 C-33.25554687 89.0825 -34.51109375 89.165 -35.8046875 89.25 C-45.45550012 89.57645455 -53.82556511 87.65323378 -63 85 C-64.33144467 84.65920097 -65.66373517 84.32138015 -67 84 C-67 83.34 -67 82.68 -67 82 C-67.763125 81.71125 -68.52625 81.4225 -69.3125 81.125 C-72 80 -72 80 -75 78 C-73.50787224 72.56316666 -70.8990817 68.30936185 -67.875 63.625 C-67.40707031 62.88894531 -66.93914062 62.15289062 -66.45703125 61.39453125 C-65.31041087 59.59269922 -64.15598924 57.79583569 -63 56 C-62.28714844 56.39832031 -61.57429688 56.79664063 -60.83984375 57.20703125 C-57.90615906 58.82983665 -54.95738754 60.42085149 -52 62 C-51.360625 62.35191406 -50.72125 62.70382813 -50.0625 63.06640625 C-45.26828339 65.45199 -40.23984559 65.70536383 -35 65 C-31.94313252 63.37124805 -31.94313252 63.37124805 -31.25 61.125 C-30.95442933 58.61264926 -30.8583035 57.283393 -32 55 C-36.17010973 53.12345062 -40.6680871 52.40230192 -45.14453125 51.5625 C-46.06298828 51.2840625 -46.06298828 51.2840625 -47 51 C-47.33 50.34 -47.66 49.68 -48 49 C-49.90444758 47.75278971 -49.90444758 47.75278971 -52.1875 46.5625 C-53.32251953 45.94568359 -53.32251953 45.94568359 -54.48046875 45.31640625 C-57.05604861 43.92295562 -57.05604861 43.92295562 -60.08984375 42.72265625 C-65.46478393 39.54098025 -67.06130696 33.70948432 -69 28 C-70.36940878 20.86348758 -68.35304199 13.380007 -64.95703125 7.05859375 C-60.17596119 0.48278354 -50.8922994 -3.83900165 -43.15234375 -5.67578125 C-27.86029453 -7.24856946 -14.25294309 -5.91430536 0 0 Z " fill="#364679" transform="translate(375,55)"/>
<path d="M0 0 C10.23 0 20.46 0 31 0 C31 45.54 31 91.08 31 138 C20.77 137.67 10.54 137.34 0 137 C0 91.79 0 46.58 0 0 Z " fill="#36467A" transform="translate(122,4)"/>
<path d="M0 0 C10.23 0 20.46 0 31 0 C31 29.37 31 58.74 31 89 C20.77 89 10.54 89 0 89 C0 59.63 0 30.26 0 0 Z " fill="#364779" transform="translate(172,52)"/>
<path d="M0 0 C3.31172733 1.79739047 5.84400256 3.96138319 7.703125 7.2421875 C7.703125 7.9021875 7.703125 8.5621875 7.703125 9.2421875 C8.363125 9.2421875 9.023125 9.2421875 9.703125 9.2421875 C11.37461032 15.88071075 9.83099879 23.17043249 6.703125 29.2421875 C3.19501098 33.23100519 -1.35325696 34.80455225 -6.50390625 35.5703125 C-12.35296525 35.85713151 -17.46950757 34.63099943 -22.296875 31.2421875 C-26.9117877 26.19307602 -26.89186993 19.77394205 -26.6953125 13.2421875 C-26.14772551 9.1191796 -25.04479063 7.31338733 -22.296875 4.2421875 C-21.636875 3.2521875 -20.976875 2.2621875 -20.296875 1.2421875 C-14.34630559 -1.86881195 -6.34790424 -2.09437657 0 0 Z " fill="#364678" transform="translate(196.296875,1.7578125)"/>
<path d="" fill="#000000" transform="translate(0,0)"/>
<path d="" fill="#000000" transform="translate(0,0)"/>
<path d="" fill="#000008" transform="translate(0,0)"/>
<path d="" fill="#000002" transform="translate(0,0)"/>
<path d="M0 0 C2 1 2 1 2 1 Z " fill="#000002" transform="translate(204,8)"/>
<path d="" fill="#000000" transform="translate(0,0)"/>
<path d="" fill="#000002" transform="translate(0,0)"/>
<path d="" fill="#000102" transform="translate(0,0)"/>
<path d="" fill="#00010E" transform="translate(0,0)"/>
<path d="" fill="#00000E" transform="translate(0,0)"/>
<path d="" fill="#000002" transform="translate(0,0)"/>
<path d="" fill="#000002" transform="translate(0,0)"/>
<path d="" fill="#00000E" transform="translate(0,0)"/>
</svg>
