<?xml version="1.0" encoding="UTF-8"?>
<svg version="1.1" xmlns="http://www.w3.org/2000/svg" width="2880" height="1520">
<path d="M0 0 C950.4 0 1900.8 0 2880 0 C2880 501.6 2880 1003.2 2880 1520 C1929.6 1520 979.2 1520 0 1520 C0 1018.4 0 516.8 0 0 Z " fill="#CFF9CB" transform="translate(0,0)"/>
<path d="M0 0 C0.84256348 0.19754883 1.68512695 0.39509766 2.55322266 0.59863281 C13.47602181 3.23650589 23.22125084 7.50785871 33 13 C33.99580078 13.55083252 33.99580078 13.55083252 35.01171875 14.11279297 C65.28447058 31.10095956 85.05334481 59.78437435 94.39697266 92.75488281 C99.10509621 110.28358897 100.20354658 135.72253124 92.90625 152.76171875 C91.90607605 155.23197597 91.11000706 157.74666902 90.31079102 160.2878418 C81.92486815 186.68723941 63.27626131 211.20127818 39 225 C38.34 225 37.68 225 37 225 C37 225.66 37 226.32 37 227 C38.03125 226.938125 39.0625 226.87625 40.125 226.8125 C46.58808721 226.82389874 52.75857654 228.45649463 59 230 C60.00804687 230.24363281 61.01609375 230.48726562 62.0546875 230.73828125 C77.57558519 234.99141036 92.81865899 242.46879499 105 253 C105.87785156 253.7528125 106.75570313 254.505625 107.66015625 255.28125 C110.15234018 257.47647687 112.58277408 259.72278376 115 262 C115.66386719 262.59941406 116.32773437 263.19882812 117.01171875 263.81640625 C138.96321069 284.4321076 151.37463821 315.32263013 152.34375 345.13671875 C153.01109111 369.88440166 150.05895074 392.90505976 138 415 C137.40751903 416.20707683 136.82041154 417.41680374 136.23828125 418.62890625 C119.65962946 452.47292577 86.69217922 480.46384078 51.2421875 492.95703125 C50.17226563 493.30121094 49.10234375 493.64539063 48 494 C47.38157227 494.20286621 46.76314453 494.40573242 46.12597656 494.61474609 C34.61125299 498.35237685 22.91513084 500.91103255 11 503 C10.35569031 503.12172577 9.71138062 503.24345154 9.04754639 503.36886597 C-3.91815668 505.80542947 -16.45084272 506.44661067 -29.625 506.3125 C-31.56892858 506.30248344 -33.51285763 506.29255588 -35.45678711 506.28271484 C-52.21584017 506.15630894 -68.83235187 505.58638633 -85.33227539 502.45947266 C-89.35006369 501.76747324 -93.37686023 501.45268612 -97.4375 501.125 C-105.16119989 500.42535788 -112.63490883 499.20396454 -120.21875 497.60424805 C-137.64303678 493.9387319 -155.33687107 491.23790047 -173 489 C-173.65068451 488.91634186 -174.30136902 488.83268372 -174.97177124 488.74649048 C-180.36576656 488.09359365 -185.6785007 487.82733515 -191.109375 487.796875 C-191.95030197 487.78986069 -192.79122894 487.78284637 -193.65763855 487.77561951 C-196.35514747 487.75821783 -199.05243702 487.75176791 -201.75 487.75 C-202.6704007 487.74932526 -203.59080139 487.74865051 -204.53909302 487.74795532 C-222.36481979 487.76875093 -238.96979207 489.00243464 -256.05834961 494.3737793 C-260.49215878 495.74761345 -264.29742714 496.31871657 -269 496 C-270.70794051 494.29205949 -270.12442193 492.13708207 -270.13293558 489.85875416 C-270.13059442 489.11404204 -270.12825325 488.36932993 -270.12584114 487.60205078 C-270.12729458 486.8144144 -270.12874802 486.02677801 -270.13024551 485.21527386 C-270.13393231 482.54193462 -270.13040678 479.86865144 -270.12698364 477.1953125 C-270.12813441 475.27300487 -270.12972162 473.35069745 -270.13171089 471.4283905 C-270.13591038 466.11944116 -270.13381074 460.81050964 -270.13072467 455.50156021 C-270.1284733 449.78643926 -270.13194886 444.0713215 -270.13470459 438.35620117 C-270.13916411 427.14977718 -270.13818501 415.94335987 -270.13529195 404.73693562 C-270.13303863 395.63370521 -270.13272508 386.53047669 -270.13381577 377.42724609 C-270.133969 376.13435197 -270.13412223 374.84145784 -270.13428011 373.50938511 C-270.13459982 370.88335037 -270.13492403 368.25731564 -270.1352527 365.6312809 C-270.13802654 341.67857483 -270.13514416 317.72587238 -270.1299101 293.77316689 C-270.12516418 271.88783847 -270.1255888 250.00251587 -270.13037109 228.1171875 C-270.1357209 203.55238243 -270.13783333 178.98758088 -270.13475883 154.42277527 C-270.13444026 151.80610148 -270.13412589 149.18942769 -270.13381577 146.57275391 C-270.13366149 145.28511422 -270.13350721 143.99747454 -270.13334826 142.67081547 C-270.13248284 133.5726978 -270.13394654 124.47458219 -270.13629532 115.37646484 C-270.13909252 104.29726242 -270.13835676 93.21806708 -270.13301457 82.13886547 C-270.13037647 76.48013608 -270.12937433 70.82141853 -270.13266373 65.16268921 C-270.13562446 59.99135328 -270.13403763 54.82004026 -270.12868617 49.64870644 C-270.12756103 47.7691888 -270.1281553 45.88966925 -270.13056196 44.01015282 C-270.13356401 41.47272334 -270.1305235 38.93537435 -270.12584114 36.39794922 C-270.12818231 35.6532371 -270.13052347 34.90852499 -270.13293558 34.14124584 C-270.11415034 29.11415034 -270.11415034 29.11415034 -269 28 C-263.59238969 27.63949265 -258.57326769 28.48720553 -253.2578125 29.46484375 C-223.86786763 34.29268841 -195.3503429 29.21276317 -167.24121094 20.67089844 C-163.27815467 19.48457179 -159.29374794 18.37342523 -155.3125 17.25 C-149.15520601 15.51067093 -143.0214844 13.71049105 -136.90625 11.828125 C-91.86396328 -2.01348208 -46.65529764 -11.19600813 0 0 Z " fill="#01592F" transform="translate(706,487)"/>
<path d="M0 0 C0.669104 0.00243713 1.33820801 0.00487427 2.02758789 0.00738525 C15.73449178 0.06567261 29.68868839 0.17057462 42.875 4.25 C44.45517864 4.70763439 46.03595264 5.16321604 47.6171875 5.6171875 C49.32829368 6.11921712 51.03922828 6.62183185 52.75 7.125 C54.02037109 7.49044922 54.02037109 7.49044922 55.31640625 7.86328125 C83.0532973 16.06116788 105.51381855 34.2170961 119.42407227 59.4375 C119.77912842 60.0975 120.13418457 60.7575 120.5 61.4375 C120.84281006 62.07300781 121.18562012 62.70851563 121.53881836 63.36328125 C123.01219812 66.19879887 123.875 68.00768532 123.875 71.25 C126.65111514 69.86194243 127.10197466 68.13199969 128.5 65.375 C136.74944361 49.96678441 148.72714514 35.54618123 162.875 25.25 C163.40367676 24.85361328 163.93235352 24.45722656 164.47705078 24.04882812 C188.17096198 6.4244625 215.74502227 0.06161466 244.81396484 0.06469727 C247.10663625 0.06251746 249.39881987 0.04431934 251.69140625 0.02539062 C260.92142608 -0.01062745 269.76494983 0.60186113 278.875 2.25 C279.77138184 2.41105225 280.66776367 2.57210449 281.59130859 2.73803711 C306.20662512 7.49757377 327.72164002 17.85790996 345.875 35.25 C345.875 35.91 345.875 36.57 345.875 37.25 C346.535 37.25 347.195 37.25 347.875 37.25 C357.6269696 48.47892765 364.98892283 61.2444214 369.875 75.25 C370.22175781 76.12914062 370.56851563 77.00828125 370.92578125 77.9140625 C379.7394357 100.44162715 382.0154687 124.83659038 382.04858398 148.78540039 C382.05489764 150.76239668 382.06166433 152.73939157 382.06884766 154.71638489 C382.08345846 158.95818346 382.09520673 163.19997677 382.10479546 167.44178963 C382.12031113 174.15347455 382.14425838 180.86511326 382.16969299 187.57676697 C382.24073384 206.65669837 382.30071058 225.73665545 382.35180664 244.81665039 C382.38013245 255.36621557 382.41551955 265.91573392 382.45846039 276.46524996 C382.48517822 283.13299701 382.50311626 289.8006912 382.51449764 296.46848118 C382.52364179 300.61964583 382.54101132 304.77074621 382.56067657 308.92187309 C382.56813082 310.84187176 382.57223185 312.76188693 382.57267189 314.68190002 C382.57376039 317.3101597 382.58706113 319.93809549 382.60325623 322.56629944 C382.60063937 323.31923422 382.59802252 324.07216901 382.59532636 324.84792 C382.68130084 333.82847925 384.59428783 342.8328165 389.875 350.25 C392.35690234 352.15150202 394.96918074 353.14278266 397.875 354.25 C399.69674388 355.1055878 401.50924572 355.98110109 403.3125 356.875 C404.15683594 357.27976562 405.00117188 357.68453125 405.87109375 358.1015625 C407.875 359.25 407.875 359.25 408.875 361.25 C409.45500827 368.44210257 409.45500827 368.44210257 407.3588562 371.36184692 C403.90662455 373.98613001 400.85558635 373.70392625 396.70751953 373.53076172 C395.90976168 373.51361555 395.11200382 373.49646938 394.29007149 373.47880363 C391.81744681 373.42146164 389.34673925 373.33694443 386.875 373.25 C385.43866644 373.21235618 384.00228498 373.1764861 382.56585693 373.14263916 C378.99216927 373.0541753 375.41947048 372.94396536 371.84653091 372.82958603 C351.13681685 372.1810211 330.43514688 372.094446 309.71679688 372.11962891 C304.8946504 372.12541544 300.07255854 372.12196696 295.25041389 372.11605644 C291.45134071 372.11241943 287.65228023 372.11360224 283.85320663 372.11618423 C282.0745531 372.11684019 280.29589832 372.11607309 278.51724625 372.11370468 C267.58880304 372.10229628 256.77600899 372.46171332 245.875 373.25 C243.12023764 373.40648754 240.38469538 373.50475307 237.625 373.5625 C236.42359375 373.59988281 235.2221875 373.63726563 233.984375 373.67578125 C230.875 373.25 230.875 373.25 228.4921875 371.5078125 C226.22075436 368.3365846 226.17094613 366.23314463 226.3828125 362.42578125 C227.02911716 359.56870432 228.37594551 358.02380182 230.76171875 356.35546875 C234.35883046 354.47380033 238.14367782 353.08936719 241.97265625 351.75390625 C246.82040856 349.24194846 249.33129663 345.89705777 251.00644207 340.82248688 C252.83485023 330.32394966 253.29796946 320.16516392 253.24731445 309.52148438 C253.24974931 307.70274142 253.25347532 305.88399982 253.25837708 304.06526184 C253.26769474 299.17472202 253.25843825 294.28438556 253.24504495 289.39386177 C253.23362893 284.24576967 253.23784573 279.09768611 253.23979187 273.94958496 C253.24067166 265.30864183 253.2296606 256.66777763 253.21118164 248.02685547 C253.19001894 238.07479516 253.18650611 228.12285033 253.1927436 218.17077208 C253.19846299 208.54818434 253.19276138 198.92563675 253.18157005 189.30305481 C253.17695805 185.23012032 253.17603534 181.15721066 253.1781559 177.08427429 C253.18005699 172.27750186 253.17179687 167.47084485 253.1560955 162.66409874 C253.15189844 160.91312322 253.15097068 159.16213589 253.15378571 157.41115761 C253.18818023 132.16439506 250.49303636 103.58365399 232.8125 83.9609375 C227.46517398 78.86188019 221.71195322 75.92262717 214.875 73.25 C214.11026367 72.90686768 213.34552734 72.56373535 212.55761719 72.21020508 C202.62631505 68.65543521 187.22661896 69.74715218 177.375 73.3125 C171.93901247 75.89933052 167.32609475 79.22031067 162.875 83.25 C161.97201172 83.99830078 161.97201172 83.99830078 161.05078125 84.76171875 C152.67111785 92.23750835 147.47604593 103.80372263 143.875 114.25 C143.52695313 115.16265625 143.17890625 116.0753125 142.8203125 117.015625 C140.48719201 123.65735485 139.40670891 130.00672144 138.77398682 136.99200439 C138.68916809 137.91290776 138.60434937 138.83381114 138.51696038 139.78262067 C137.71945409 149.05043872 137.59229439 158.26928729 137.61621094 167.56542969 C137.61349012 169.38641498 137.60992317 171.20739917 137.60559082 173.02838135 C137.59660175 177.89951585 137.5999522 182.7705641 137.60634899 187.64169979 C137.61147059 192.77035158 137.60670151 197.89899679 137.60357666 203.02764893 C137.59995869 211.62098498 137.60468284 220.21428641 137.61425781 228.80761719 C137.62517989 238.72413024 137.62158092 248.64056127 137.610605 258.5570724 C137.60151964 267.11043903 137.60025172 275.66378103 137.60548234 284.21715093 C137.60858982 289.30940042 137.60904424 294.40161136 137.60240936 299.49385834 C137.59661683 304.27111908 137.6006676 309.04827402 137.61219788 313.82552338 C137.61483247 315.57299626 137.61409999 317.32047812 137.60967255 319.06794739 C137.17726775 335.1130924 137.17726775 335.1130924 143.875 349.25 C147.78063102 352.60884268 152.23558152 354.06657025 157 355.87109375 C160.03275627 357.32566299 161.79618989 358.61585763 163.875 361.25 C164.58382303 364.15784881 164.21471789 366.192539 163.875 369.25 C162.06336733 371.92431489 160.99738923 372.20920359 157.875 373.25 C150.90266255 373.58155171 143.95712354 373.29052121 137.00512695 372.75048828 C125.3452694 371.95125633 113.66136608 372.10592414 101.98046875 372.1171875 C99.49620047 372.11651238 97.01193225 372.11554062 94.52766418 372.11428833 C89.34957239 372.11282253 84.17149796 372.11493064 78.9934082 372.11962891 C72.37877879 372.12534049 65.76418983 372.12203103 59.14956188 372.11605644 C54.03043821 372.11243329 48.91132405 372.11359722 43.79220009 372.11618423 C41.35350858 372.11684787 38.91481619 372.11604492 36.47612572 372.11370468 C33.065034 372.11114757 29.65400687 372.11506095 26.24291992 372.12060547 C25.25097122 372.11858124 24.25902252 372.11655701 23.23701477 372.11447144 C17.56648608 372.13143148 11.99545666 372.43023381 6.35385609 373.00909615 C2.40396678 373.39296012 -1.53377126 373.54938732 -5.5 373.625 C-6.26699219 373.66238281 -7.03398437 373.69976563 -7.82421875 373.73828125 C-12.0598064 373.8041194 -13.64694075 373.61725906 -17.125 370.9453125 C-19.125 368.25 -19.125 368.25 -19.75 364.75 C-18.95385889 360.29160979 -17.54923484 359.15275433 -14.125 356.25 C-10.75 354.73046875 -10.75 354.73046875 -7.125 353.4375 C-1.9348529 351.40905104 1.45823293 349.52990693 4.078125 344.47265625 C6.1791157 338.61254003 7.16707741 333.32672433 7.12896729 327.1129303 C7.13208727 326.32194567 7.13520725 325.53096104 7.13842177 324.71600717 C7.14636334 322.08020701 7.14009296 319.44463954 7.13378906 316.80883789 C7.13650083 314.91260646 7.1400628 313.01637609 7.14440918 311.12014771 C7.15351895 305.97706364 7.14999323 300.83405993 7.14365101 295.69097447 C7.13857708 290.29458609 7.14328695 284.89820446 7.14642334 279.5018158 C7.15006173 270.43047863 7.14527014 261.35917402 7.13574219 252.2878418 C7.12488742 241.83326214 7.12836203 231.37876067 7.139395 220.92418295 C7.14850684 211.92683182 7.14973329 202.92950409 7.14451766 193.93214983 C7.1414155 188.56839656 7.14093939 183.20467988 7.14759064 177.84092903 C7.15341927 172.78723294 7.14926751 167.73363621 7.13780212 162.67995071 C7.1351835 160.83706387 7.13587199 158.99416849 7.14032745 157.15128517 C7.19620729 131.66388377 4.77533234 102.6806435 -13.5 83.0625 C-26.55873107 71.302805 -40.77191175 70.38542353 -57.52392578 71.05908203 C-62.62625546 71.43359131 -66.70042227 72.74594015 -71.125 75.25 C-72.05183594 75.75917969 -72.97867187 76.26835938 -73.93359375 76.79296875 C-90.74785239 86.76288873 -99.85047323 102.99131798 -104.71302724 121.48663306 C-107.71107447 134.09938844 -108.69829069 146.15228072 -108.61083984 159.07861328 C-108.61299339 160.96679446 -108.6168824 162.8549743 -108.62234497 164.7431488 C-108.63191553 169.80252673 -108.61689585 174.86154364 -108.59643888 179.92087793 C-108.57868545 185.24525095 -108.58239633 190.56961585 -108.5831604 195.89401245 C-108.58129687 204.81872496 -108.56405379 213.74330009 -108.53662109 222.66796875 C-108.50508394 232.96560096 -108.49462879 243.2630836 -108.4960922 253.56076062 C-108.49744517 264.5712788 -108.48356354 275.58173991 -108.46519899 286.59224081 C-108.46094996 289.74855996 -108.45951856 292.90486982 -108.45872116 296.06119156 C-108.45670488 301.02395359 -108.44443515 305.9865913 -108.42438889 310.94931221 C-108.41857487 312.76408565 -108.41608081 314.5788734 -108.41724396 316.39365578 C-108.96470766 334.53673681 -108.96470766 334.53673681 -101.125 350.25 C-98.60449195 351.98460354 -95.94570455 353.0876752 -93.125 354.25 C-91.30528489 355.10989428 -89.49280205 355.98524399 -87.6875 356.875 C-86.84316406 357.27976562 -85.99882813 357.68453125 -85.12890625 358.1015625 C-83.125 359.25 -83.125 359.25 -82.125 361.25 C-81.66059088 368.56444368 -81.66059088 368.56444368 -83.4375 371.1875 C-87.43883563 373.70685947 -91.51520468 373.39903857 -96.0625 373.375 C-96.75923828 373.37886719 -97.45597656 373.38273437 -98.17382812 373.38671875 C-102.37877989 373.37913543 -106.51222801 373.145399 -110.69876099 372.74978638 C-116.7220338 372.23658367 -122.68762858 372.10838469 -128.72998047 372.12060547 C-129.82115173 372.11885315 -130.912323 372.11710083 -132.03656006 372.11529541 C-135.60511924 372.11093298 -139.17362791 372.11379541 -142.7421875 372.1171875 C-145.2474061 372.11651275 -147.75262464 372.1155413 -150.25784302 372.11428833 C-156.16232164 372.11263141 -162.06678229 372.11610557 -167.97125828 372.1214391 C-172.65483702 372.12518965 -177.33839471 372.12386725 -182.02197266 372.11962891 C-188.51973195 372.11380187 -195.01747106 372.11293766 -201.51523209 372.11618423 C-203.97656382 372.1168468 -206.43789643 372.11604875 -208.89922714 372.11370468 C-221.02275531 372.104692 -233.0451358 372.12668902 -245.125 373.25 C-247.81748131 373.4345614 -250.48816867 373.54863154 -253.1875 373.625 C-254.39535156 373.67398437 -255.60320312 373.72296875 -256.84765625 373.7734375 C-261.08372311 373.09687855 -262.50553565 371.57058492 -265.125 368.25 C-265.82009032 364.54285164 -265.49337701 362.89465976 -263.625 359.625 C-259.95373217 356.13729556 -255.73138397 354.21479407 -251.00390625 352.46484375 C-245.61054543 350.2728351 -243.60739933 347.4821832 -241.1328125 342.2734375 C-238.42524736 334.15074207 -237.83303169 326.23892764 -237.86430359 317.72610474 C-237.86047804 316.60713393 -237.85665249 315.48816313 -237.85271102 314.33528411 C-237.8424406 310.60775149 -237.84636186 306.88037461 -237.8503418 303.15283203 C-237.84599204 300.47134903 -237.84087199 297.78987721 -237.83485413 295.10839844 C-237.82214039 288.59389017 -237.82030926 282.07942318 -237.82265439 275.56490459 C-237.8244414 270.26680506 -237.82267971 264.968718 -237.81842995 259.67061996 C-237.81783476 258.91499056 -237.81723957 258.15936115 -237.81662634 257.38083389 C-237.81541452 255.8455 -237.81420039 254.31016612 -237.81298397 252.77483223 C-237.80212129 238.39418541 -237.80426492 224.01356207 -237.81036881 209.63291393 C-237.81553711 196.49517857 -237.80428256 183.35751737 -237.78527059 170.21979667 C-237.76586957 156.70898687 -237.75764014 143.19821212 -237.76139385 129.6873883 C-237.76330242 122.11049767 -237.76085191 114.53367015 -237.74667931 106.95679092 C-237.73473564 100.50661437 -237.73339397 94.05653979 -237.74546947 87.60636176 C-237.75133726 84.31974673 -237.75087266 81.03335535 -237.74046707 77.74674606 C-237.72997282 74.17361405 -237.73812235 70.60097717 -237.7507782 67.02786255 C-237.74340391 66.00351801 -237.73602963 64.97917347 -237.72843188 63.92378819 C-237.80063748 54.18311896 -239.0859077 42.58832497 -246.125 35.25 C-249.61923065 32.43913885 -253.31397548 29.93454697 -257.04296875 27.44921875 C-260.125 25.25 -260.125 25.25 -262.125 22.25 C-262.52205712 18.61030977 -262.72288168 16.23481 -260.79405212 13.05770874 C-256.49707676 10.14743215 -252.11616482 10.71082499 -247.04516602 10.76416016 C-245.91454239 10.76036346 -244.78391876 10.75656677 -243.61903381 10.75265503 C-239.87204444 10.74523211 -236.1258271 10.7666693 -232.37890625 10.7890625 C-229.77017813 10.79144747 -227.16144827 10.79235214 -224.55271912 10.7918396 C-219.07582012 10.79371309 -213.59914259 10.81106906 -208.12231445 10.83837891 C-201.82062747 10.86968905 -195.51918412 10.8803799 -189.21742493 10.8789078 C-183.13162126 10.8776788 -177.04590852 10.88819367 -170.96012688 10.90449142 C-168.3835389 10.91082488 -165.80694392 10.91479017 -163.23034859 10.91627884 C-159.60990785 10.9206573 -155.98976131 10.9382593 -152.36938477 10.95947266 C-151.31902039 10.95856628 -150.26865601 10.95765991 -149.1864624 10.95672607 C-137.43722378 11.05645205 -125.27228538 11.51861269 -116.3125 19.95703125 C-108.63223753 28.431167 -108.97485181 38.29735638 -108.5625 49.1875 C-108.51931641 50.25291016 -108.47613281 51.31832031 -108.43164062 52.41601562 C-108.32625511 55.02723443 -108.22412912 57.63853746 -108.125 60.25 C-107.61453125 59.40179687 -107.1040625 58.55359375 -106.578125 57.6796875 C-90.17857154 30.98622501 -66.3189965 10.97963949 -35.4375 3.4375 C-23.57594946 1.12204691 -12.0927561 -0.08663739 0 0 Z " fill="#01592F" transform="translate(2094.125,604.75)"/>
<path d="M0 0 C1.29345337 0.36907471 1.29345337 0.36907471 2.61303711 0.74560547 C10.4856835 3.01829051 17.68143671 6.36332798 25 10 C25.69609375 10.34337402 26.3921875 10.68674805 27.109375 11.04052734 C50.66609357 22.7597799 70.77337761 39.26890938 87 60 C87.42152344 60.52384277 87.84304688 61.04768555 88.27734375 61.58740234 C100.25212583 76.53367151 109.2564383 93.74367888 115 112 C115.51084888 113.31641826 116.03043708 114.62951198 116.5625 115.9375 C118.87415078 122.15817823 120.49669458 128.54665231 122 135 C122.18771973 135.77150391 122.37543945 136.54300781 122.56884766 137.33789062 C125.94562115 151.76149647 126.40000044 166.00631853 126.4375 180.75 C126.44662415 182.10285095 126.44662415 182.10285095 126.45593262 183.48303223 C126.66526613 230.96721107 110.95154759 279.1546853 78 314 C76.87015459 315.3292299 75.74495361 316.66242507 74.625 318 C43.79633645 353.03257221 -3.90775337 368.97365434 -49.09716797 372.82128906 C-54.7913217 373.17184588 -60.48414303 373.19124359 -66.1875 373.1875 C-67.46455811 373.18669434 -68.74161621 373.18588867 -70.05737305 373.18505859 C-82.07609537 373.10713895 -93.36432348 372.10284707 -105 369 C-106.81105051 368.72215258 -108.62376692 368.45507286 -110.4375 368.1953125 C-117.14002998 367.09411015 -123.35857752 365.13954545 -129.75 362.875 C-130.88598633 362.47611572 -132.02197266 362.07723145 -133.19238281 361.66625977 C-141.544158 358.66710522 -149.48955141 355.27520617 -157.24707031 350.97070312 C-159.0143911 349.99203078 -160.79792587 349.0496141 -162.5859375 348.109375 C-175.41972603 341.22406858 -186.43032825 331.95431415 -197 322 C-198.06734375 321.02933594 -198.06734375 321.02933594 -199.15625 320.0390625 C-218.47810689 301.76730652 -232.64940859 277.06657275 -241 252 C-241.37890381 250.91332031 -241.75780762 249.82664062 -242.14819336 248.70703125 C-256.83469335 206.02841106 -258.49198645 151.89828164 -240 110 C-239.56118126 108.67379225 -239.14113794 107.34104437 -238.75 106 C-232.47487279 87.11123324 -221.29813277 68.74839124 -208 54 C-207.25105469 53.1440625 -206.50210937 52.288125 -205.73046875 51.40625 C-203.51949748 48.90525354 -201.27266217 46.44495785 -199 44 C-198.38898438 43.33484375 -197.77796875 42.6696875 -197.1484375 41.984375 C-183.52489971 27.7231397 -166.47878238 17.2500295 -148.78662109 8.85058594 C-147.2426364 8.11551588 -145.70823817 7.36037243 -144.17578125 6.6015625 C-99.94724341 -14.66606519 -46.16011841 -13.8080058 0 0 Z " fill="#01592F" transform="translate(1699,614)"/>
<path d="M0 0 C2.27961399 0.54810917 4.56481309 1.03171239 6.86181641 1.50097656 C19.13903112 4.08651644 31.20347785 7.83424838 42.37548828 13.58886719 C44.15059791 14.47552639 45.97777501 15.25588103 47.80712891 16.02441406 C64.6275849 23.3751596 79.066059 35.03819871 92.31103516 47.55566406 C93.18115234 48.36132812 94.05126953 49.16699219 94.94775391 49.99707031 C106.38848975 60.94818836 115.44996603 73.85257936 123.31103516 87.55566406 C124.27589844 89.18761719 124.27589844 89.18761719 125.26025391 90.85253906 C147.76452314 129.99955196 152.51765126 177.94171752 145.71240234 221.93115234 C145.35144461 224.29142953 145.03176548 226.65270941 144.72509766 229.02050781 C139.69071209 265.07621691 119.75528753 298.34821971 95.31103516 324.55566406 C94.52470703 325.41933594 93.73837891 326.28300781 92.92822266 327.17285156 C70.83025331 350.48722289 38.37928678 366.58048288 7.31103516 373.55566406 C6.4012793 373.76449219 5.49152344 373.97332031 4.55419922 374.18847656 C-44.83450705 384.96295442 -103.08082456 378.17421618 -146.19677734 350.78222656 C-154.07697428 345.54862439 -161.55422764 339.76435868 -168.68896484 333.55566406 C-169.68669922 332.69199219 -170.68443359 331.82832031 -171.71240234 330.93847656 C-178.42916131 325.01833431 -184.26189784 318.68917996 -189.68896484 311.55566406 C-190.11532227 311.00958496 -190.54167969 310.46350586 -190.98095703 309.90087891 C-198.68324564 300.02209766 -204.86328504 289.62920109 -210.68896484 278.55566406 C-211.46046875 277.13447266 -211.46046875 277.13447266 -212.24755859 275.68457031 C-236.31482251 230.02424718 -235.72291882 171.22490457 -221.36083984 122.91113281 C-220.22400664 119.417889 -219.00639007 115.98440268 -217.68896484 112.55566406 C-217.32416016 111.57726562 -216.95935547 110.59886719 -216.58349609 109.59082031 C-208.17131822 88.20149432 -195.38200057 69.25286725 -179.68896484 52.55566406 C-179.19009766 52.02279785 -178.69123047 51.48993164 -178.17724609 50.94091797 C-158.68215087 30.28343359 -135.37431552 16.1204719 -108.68896484 6.55566406 C-107.72772705 6.19118164 -107.72772705 6.19118164 -106.74707031 5.81933594 C-74.59839715 -6.34362206 -33.30066839 -8.02147749 0 0 Z " fill="#01592F" transform="translate(1279.68896484375,608.4443359375)"/>
<path d="M0 0 C3 2 3 2 4 5 C4.09733037 7.41540367 4.13861471 9.80183937 4.13307858 12.21729755 C4.1353216 12.96113753 4.13756463 13.70497751 4.13987562 14.47135809 C4.14623253 16.98379393 4.14545051 19.49617813 4.14476013 22.00862122 C4.14789254 23.82027044 4.15146703 25.63191894 4.15544754 27.4435665 C4.16516792 32.43785501 4.16869969 37.43213208 4.17129052 42.42642868 C4.17517796 47.80706766 4.18481586 53.18769648 4.19384766 58.56832886 C4.2088028 67.89910997 4.22034024 77.22989026 4.22979546 86.56067848 C4.24365954 100.06679146 4.26484697 113.57288567 4.28822399 127.07898518 C4.32616767 149.01025326 4.36112382 170.94152475 4.39282227 192.87280273 C4.39472276 194.186295 4.39662325 195.49978726 4.39858133 196.85308232 C4.4253896 215.47636621 4.44926806 234.09965272 4.47196633 252.72294202 C4.47356363 254.03309918 4.47516094 255.34325634 4.47680664 256.69311523 C4.47840011 258.00167647 4.47999357 259.3102377 4.48163532 260.65845231 C4.5084216 282.49272825 4.54283115 304.32698431 4.58346039 326.16123885 C4.60821369 339.62826643 4.62655256 353.09527265 4.636616 366.56231936 C4.64401875 375.79836155 4.65856284 385.03437506 4.67868023 394.27039824 C4.69004831 399.59659029 4.69820723 404.92273615 4.69767189 410.24894142 C4.69724216 415.13163024 4.70602676 420.01421532 4.72192169 424.89687749 C4.72605418 426.65677827 4.72688752 428.4166908 4.72395759 430.176594 C4.31929518 451.07698392 4.31929518 451.07698392 12 470 C15.40436235 473.00850626 18.94099472 474.39029459 23.125 476 C29.8863157 478.63732043 29.8863157 478.63732043 32 482 C32.46918683 485.75349462 32.53136381 488.03848453 30.6875 491.375 C27.45338359 494.48933432 24.00875341 494.13472318 19.75 494.125 C18.65171875 494.12757813 17.5534375 494.13015625 16.421875 494.1328125 C12.8806787 494.07247172 9.37909092 493.78740743 5.84960938 493.5 C-5.75252247 492.6659149 -17.39085614 492.85610598 -29.015625 492.8671875 C-31.52374277 492.86651252 -34.03186048 492.86554087 -36.53997803 492.86428833 C-42.43730592 492.86263481 -48.33461574 492.86609756 -54.23194098 492.8714391 C-58.91732988 492.87520013 -63.60269781 492.87385741 -68.28808594 492.86962891 C-74.7892899 492.86381442 -81.2904737 492.86293106 -87.79167938 492.86618423 C-90.25549067 492.86684801 -92.71930283 492.86604443 -95.1831131 492.86370468 C-98.6302363 492.86114778 -102.07729558 492.86506081 -105.52441406 492.87060547 C-107.02871979 492.86756912 -107.02871979 492.86756912 -108.56341553 492.86447144 C-114.26029715 492.88133395 -119.85714219 493.17689095 -125.52492905 493.75909615 C-129.47351364 494.14342018 -133.41003448 494.2994114 -137.375 494.375 C-138.14199219 494.41238281 -138.90898438 494.44976563 -139.69921875 494.48828125 C-143.95689726 494.55446278 -145.5199013 494.37334073 -149.00390625 491.6640625 C-151 489 -151 489 -151.5625 486 C-150.84275752 482.16137345 -149.83659679 480.69476695 -147 478 C-143.25122284 475.72308545 -139.23741294 474.09350254 -135.1875 472.4375 C-130.36884784 470.26438236 -128.65950431 468.13329684 -126.68819064 463.17954689 C-123.68629817 453.67234782 -123.71069416 443.76896033 -123.73930359 433.90150452 C-123.73627706 432.40723319 -123.73238508 430.91296342 -123.72771102 429.41869634 C-123.71748707 425.3435097 -123.71959843 421.26841159 -123.72389162 417.19321787 C-123.72636905 412.78617649 -123.71733217 408.37915586 -123.70985413 403.97212219 C-123.69713383 395.35066471 -123.69531005 386.72923842 -123.69765439 378.10777313 C-123.69944049 371.09777437 -123.69768165 364.08778504 -123.69342995 357.0777874 C-123.69283476 356.07848591 -123.69223957 355.07918441 -123.69162634 354.04960106 C-123.69041454 352.01925997 -123.68920041 349.98891889 -123.68798397 347.9585778 C-123.67711897 328.93772472 -123.67926615 309.91688938 -123.68536881 290.89603531 C-123.69053854 273.51060202 -123.67927919 256.12522475 -123.66027059 238.73980255 C-123.64088089 220.86820846 -123.63263809 202.99664086 -123.63639385 185.12503618 C-123.63830398 175.09954925 -123.63583653 165.07411 -123.62167931 155.04863167 C-123.60975021 146.51502749 -123.60837787 137.98150038 -123.62046947 129.44789512 C-123.62634705 125.09790373 -123.62748866 120.74805319 -123.61546707 116.39807129 C-123.60457104 112.40888492 -123.60775546 108.41995639 -123.62172876 104.43078189 C-123.62436546 102.99484891 -123.62204174 101.55889547 -123.61399289 100.12298263 C-123.48132447 83.40821171 -123.48132447 83.40821171 -130.1484375 68.484375 C-133.63047234 65.69287027 -137.7345871 64.12277836 -141.84375 62.45703125 C-145.6359912 60.70640505 -149.08457733 58.83084535 -151 55 C-151.3753136 51.02167581 -151.43073701 48.72893955 -149.375 45.25 C-143.72700278 39.89926579 -137.21394758 39.12911547 -129.8125 38 C-122.88759638 36.92269133 -116.18501276 35.63198398 -109.44873047 33.67749023 C-107.0806758 33.02232057 -104.72658607 32.51498936 -102.3125 32.0625 C-80.14878116 27.77497873 -58.42689914 20.87582935 -37.34863281 12.88720703 C-35.25556864 12.09654225 -33.15729195 11.32342569 -31.0546875 10.55859375 C-25.37423463 8.4564308 -20.15728365 6.10510692 -14.91796875 3.0703125 C-9.97429741 0.31152238 -5.62689466 -0.4246713 0 0 Z " fill="#01592E" transform="translate(1013,484)"/>
<path d="M0 0 C1.07338623 0.00845947 1.07338623 0.00845947 2.16845703 0.01708984 C7.50323641 0.14002225 11.54575655 0.73485098 16.1875 3.3125 C16.93773437 3.67988281 17.68796875 4.04726563 18.4609375 4.42578125 C40.62407878 16.27641988 54.67772882 44.34616655 62.46533203 67.22265625 C63.3937709 69.90941645 64.36935199 72.57814722 65.33984375 75.25 C69.58624435 87.06932223 73.35190086 98.68747209 75.72167969 111.02832031 C76.29422211 113.83581868 76.9476178 116.62050111 77.6015625 119.41015625 C84.02335254 147.038186 88.47929852 174.91307172 89.1875 203.3125 C89.21473145 204.27365723 89.24196289 205.23481445 89.27001953 206.22509766 C89.90728568 231.72776761 88.67172906 260.50988326 70.44140625 280.296875 C63.08662375 286.8741155 54.91279117 288.6472733 45.34375 288.51953125 C31.72718829 287.62636569 21.95638116 279.13675092 13.1875 269.3125 C1.96552086 256.39815776 -5.75896168 240.21160441 -11.8125 224.3125 C-12.20566406 223.3534375 -12.59882812 222.394375 -13.00390625 221.40625 C-19.784139 204.57256869 -24.07844193 187.03064693 -27.8125 169.3125 C-28.05500488 168.17490234 -28.29750977 167.03730469 -28.54736328 165.86523438 C-32.16911936 148.76594661 -35.20122425 131.66179535 -37.421875 114.32324219 C-37.75772161 111.73470446 -38.12286009 109.15304739 -38.5 106.5703125 C-42.42743107 77.76807557 -43.93102448 39.1984607 -26.8125 14.3125 C-19.27537351 5.52362459 -11.87796601 -0.09711021 0 0 Z " fill="#CEF9CB" transform="translate(1611.8125,651.6875)"/>
<path d="M0 0 C13.40771428 10.54518575 21.37699778 23.83920644 29.2734375 38.66796875 C29.68577637 39.43931152 30.09811523 40.2106543 30.52294922 41.00537109 C39.25146749 57.67985083 44.83418179 76.23374373 49.8984375 94.29296875 C50.18436768 95.31140869 50.47029785 96.32984863 50.76489258 97.37915039 C52.23044407 102.72174773 53.5078735 108.05549993 54.54492188 113.49731445 C55.03720563 116.0519155 55.58321848 118.59082001 56.13671875 121.1328125 C65.12382704 163.69919528 77.64262499 225.81198472 53.0234375 264.98046875 C47.00812673 272.80899204 40.70935711 278.35355036 31.0234375 280.98046875 C18.20109983 282.51779777 8.20405315 278.56602551 -1.9765625 270.98046875 C-18.03330078 257.79206125 -27.71664497 236.95181023 -34.9765625 217.98046875 C-35.21914795 217.34786133 -35.4617334 216.71525391 -35.71166992 216.06347656 C-45.44591638 190.39486792 -53.35113653 163.61436048 -56.68212891 136.30371094 C-57.09694961 133.03054854 -57.59798218 129.771863 -58.09130859 126.50976562 C-58.62069053 122.94834697 -59.1069575 119.38165873 -59.58837891 115.81347656 C-59.84948862 113.90786832 -60.12016864 112.00354945 -60.39990234 110.10058594 C-62.60950543 94.90550756 -63.31015027 79.87555027 -63.4140625 64.54296875 C-63.42609711 63.66975983 -63.43813171 62.7965509 -63.45053101 61.8968811 C-63.56568902 52.15382554 -63.06701771 42.82063121 -61.1875 33.2421875 C-61.03071274 32.44099991 -60.87392548 31.63981232 -60.71238708 30.81434631 C-58.05616452 18.54623859 -51.92338308 5.56172413 -41.45703125 -1.7890625 C-28.13168029 -10.1198456 -12.98408482 -8.80941188 0 0 Z " fill="#CFF9CB" transform="translate(1237.9765625,659.01953125)"/>
<path d="M0 0 C0.9056218 -0.00807175 1.81124359 -0.01614349 2.74430847 -0.02445984 C4.66146968 -0.03825547 6.57865499 -0.04899773 8.49584961 -0.05688477 C10.42431014 -0.06832438 12.35274106 -0.08864646 14.28100586 -0.1184082 C27.0485878 -0.31500151 38.31874463 0.7741448 50.60546875 4.23828125 C52.43670392 4.64371051 54.26957683 5.04198962 56.10546875 5.42578125 C69.70432843 9.29638515 80.92223822 17.18261878 90.60546875 27.23828125 C91.415 28.04007813 92.22453125 28.841875 93.05859375 29.66796875 C99.30378234 36.14682086 103.43634608 43.34740752 107.60546875 51.23828125 C108.00507812 51.94597656 108.4046875 52.65367187 108.81640625 53.3828125 C122.84681743 79.14264742 122.61461468 111.77408309 114.60546875 139.23828125 C107.53987842 159.26966959 96.42804323 175.45238522 78.60546875 187.23828125 C77.99445313 187.66496094 77.3834375 188.09164062 76.75390625 188.53125 C68.97177548 193.53404835 58.78481068 195.90375713 49.60546875 196.23828125 C47.62933594 196.33302734 47.62933594 196.33302734 45.61328125 196.4296875 C31.90701572 196.88536779 18.11765753 195.35307597 6.60546875 187.23828125 C5.7753125 186.66207031 4.94515625 186.08585938 4.08984375 185.4921875 C-2.11246845 180.87759294 -6.42384833 175.84898927 -10.39453125 169.23828125 C-10.97654297 168.26955078 -10.97654297 168.26955078 -11.5703125 167.28125 C-18.78506918 154.04955339 -20.69256606 138.8571212 -20.70092773 124.04345703 C-20.70925125 122.77216446 -20.71757477 121.50087189 -20.72615051 120.1910553 C-20.74787969 116.7389925 -20.7568627 113.28701807 -20.76197696 109.83489466 C-20.76564057 107.67441313 -20.77189022 105.51395413 -20.77897835 103.35348129 C-20.80337926 95.80693305 -20.81650833 88.26045285 -20.82006836 80.71386719 C-20.82371598 73.69090404 -20.85372216 66.66837451 -20.89547294 59.64554417 C-20.93015669 53.59857001 -20.94561631 47.55174013 -20.94631439 41.50466716 C-20.94710663 37.90005517 -20.95582344 34.29588821 -20.98431206 30.69137955 C-21.01532288 26.67951824 -21.00644273 22.66869975 -20.99389648 18.65673828 C-21.00873077 17.46704941 -21.02356506 16.27736053 -21.03884888 15.05162048 C-20.95891404 6.10135106 -20.95891404 6.10135106 -18.02740479 3.01197815 C-12.66124831 -0.6030588 -6.26255405 0.05402595 0 0 Z " fill="#CFF9CB" transform="translate(587.39453125,741.76171875)"/>
<path d="M0 0 C7.22427479 5.59440792 13.46598251 11.3780921 18.5625 18.984375 C18.97886719 19.53867187 19.39523437 20.09296875 19.82421875 20.6640625 C23.05391933 25.24881096 24.92796824 30.24259737 26.8125 35.484375 C27.07095703 36.19650146 27.32941406 36.90862793 27.59570312 37.64233398 C30.80933743 46.95865983 30.74485263 56.08965782 30.75 65.859375 C30.76224609 67.07496094 30.77449219 68.29054688 30.78710938 69.54296875 C30.82644177 93.85039027 21.59082776 114.88147062 4.5625 131.984375 C3.91667969 132.665 3.27085937 133.345625 2.60546875 134.046875 C-11.79320434 148.10048185 -35.04980968 151.17182026 -54.12255859 151.16967773 C-56.29935334 151.17186181 -58.47563855 151.19004581 -60.65234375 151.20898438 C-74.38461498 151.26748075 -74.38461498 151.26748075 -80.4375 148.984375 C-82.51051973 145.8748454 -82.6879809 145.21019699 -82.69146729 141.68692017 C-82.69710693 140.80968292 -82.70274658 139.93244568 -82.70855713 139.02862549 C-82.70450867 138.06865662 -82.70046021 137.10868774 -82.69628906 136.11962891 C-82.6997937 135.10619415 -82.70329834 134.0927594 -82.70690918 133.0486145 C-82.71573581 129.68598647 -82.70986961 126.32356782 -82.703125 122.9609375 C-82.70447243 120.61982177 -82.70641361 118.27870632 -82.70892334 115.93759155 C-82.71187673 111.01972807 -82.70757391 106.1019371 -82.69824219 101.18408203 C-82.68691039 94.9088944 -82.69336579 88.63387904 -82.70538712 82.35869789 C-82.71265372 77.51653779 -82.71029476 72.6744177 -82.70513153 67.83225632 C-82.703805 65.52081659 -82.7054075 63.20937314 -82.71009064 60.89793777 C-82.77231335 21.51279401 -82.77231335 21.51279401 -69.4375 5.984375 C-50.37331283 -11.48602161 -21.85239493 -15.21863218 0 0 Z " fill="#CFF9CB" transform="translate(649.4375,554.015625)"/>
<path d="M0 0 C19.36189717 -0.64493722 38.90889691 3.29474818 57 10 C58.14984375 10.40089844 59.2996875 10.80179687 60.484375 11.21484375 C90.37841283 22.04231843 115.71021298 41.50493392 129.73046875 70.58984375 C137.02728021 87.18333352 140.22594259 103.76527712 140.375 121.875 C140.38877686 122.80795898 140.40255371 123.74091797 140.41674805 124.70214844 C140.38331308 129.56849641 140.33998591 133.18085999 137 137 C131.47463506 142.3251046 125.26944818 141.56177031 117.9375 141.4375 C116.78572266 141.44458984 115.63394531 141.45167969 114.44726562 141.45898438 C106.26703023 141.3993416 98.88273331 140.12229968 91 138 C90.22309814 137.80672119 89.44619629 137.61344238 88.64575195 137.41430664 C77.65893262 134.6575667 67.89431122 130.46980089 58 125 C57.04867187 124.50242187 56.09734375 124.00484375 55.1171875 123.4921875 C40.42720264 115.1167036 29.6099225 101.22868191 21 87 C20.44183594 86.18917969 19.88367188 85.37835938 19.30859375 84.54296875 C3.4588791 60.91323751 -0.27587909 27.58790922 0 0 Z " fill="#01592F" transform="translate(353,363)"/>
<path d="M0 0 C1.8253125 0.0309375 1.8253125 0.0309375 3.6875 0.0625 C9.52140142 11.73030284 4.4158245 36.29840414 1.125 48.5 C-3.14120954 61.20382397 -9.60700504 72.76637565 -19.3125 82.0625 C-19.97378906 82.75472656 -20.63507812 83.44695312 -21.31640625 84.16015625 C-31.32919248 94.02094572 -44.90013755 98.8544079 -58.3125 102.0625 C-59.01890625 102.25199219 -59.7253125 102.44148438 -60.453125 102.63671875 C-63.77876107 103.39826146 -66.9395144 103.65936577 -70.3125 103.0625 C-75.08090368 99.04700216 -76.02370435 93.22434297 -76.56787109 87.26660156 C-77.63997863 65.66484907 -74.49566739 47.59745106 -60 30.9375 C-58.45392166 29.29686811 -56.89189008 27.67108889 -55.3125 26.0625 C-54.65894531 25.38445312 -54.00539063 24.70640625 -53.33203125 24.0078125 C-40.38696445 11.53848317 -18.3593622 -0.31117563 0 0 Z " fill="#02592F" transform="translate(582.3125,395.9375)"/>
<path d="M0 0 C0.66 0.33 1.32 0.66 2 1 C1.57847656 1.39832031 1.15695312 1.79664063 0.72265625 2.20703125 C0.17480469 2.73683594 -0.37304688 3.26664063 -0.9375 3.8125 C-1.75541016 4.59560547 -1.75541016 4.59560547 -2.58984375 5.39453125 C-4.23519092 7.05812198 -4.23519092 7.05812198 -5 10 C-7.31 10 -9.62 10 -12 10 C-12 9.34 -12 8.68 -12 8 C-10.23596271 6.74163402 -8.41220501 5.5661735 -6.5625 4.4375 C-3.09563564 2.46466077 -3.09563564 2.46466077 0 0 Z " fill="#BBE9BB" transform="translate(755,704)"/>
<path d="M0 0 C0.67578125 1.7421875 0.67578125 1.7421875 1 4 C-0.14453125 6.0703125 -0.14453125 6.0703125 -1.8125 8.125 C-2.35519531 8.80820312 -2.89789062 9.49140625 -3.45703125 10.1953125 C-5 12 -5 12 -7 14 C-7.99 13.67 -8.98 13.34 -10 13 C-9.36191406 12.22914063 -8.72382812 11.45828125 -8.06640625 10.6640625 C-6.82697266 9.15972656 -6.82697266 9.15972656 -5.5625 7.625 C-4.73878906 6.62726562 -3.91507813 5.62953125 -3.06640625 4.6015625 C-1.01584166 2.20344705 -1.01584166 2.20344705 0 0 Z " fill="#B9E7B9" transform="translate(782,675)"/>
<path d="M0 0 C0 0.33 0 0.66 0 1 C-1.22976562 1.09087891 -1.22976562 1.09087891 -2.484375 1.18359375 C-4.10085937 1.30927734 -4.10085937 1.30927734 -5.75 1.4375 C-6.81734375 1.51871094 -7.8846875 1.59992187 -8.984375 1.68359375 C-11.85788741 1.89930786 -11.85788741 1.89930786 -14 2.5625 C-16.82977092 3.18151239 -19.37651192 2.84360209 -22.25 2.5625 C-23.32765625 2.46066406 -24.4053125 2.35882812 -25.515625 2.25390625 C-26.33546875 2.17011719 -27.1553125 2.08632813 -28 2 C-28 1.67 -28 1.34 -28 1 C-18.64087671 0.00736571 -9.39605802 -0.10731538 0 0 Z " fill="#A0D3A5" transform="translate(2356,977)"/>
<path d="M0 0 C0.66 0.33 1.32 0.66 2 1 C-4.64206642 10.12177122 -4.64206642 10.12177122 -8 13 C-8.66 13 -9.32 13 -10 13 C-8.48446596 9.52224821 -6.4226544 7.0442016 -3.875 4.25 C-3.15054688 3.45078125 -2.42609375 2.6515625 -1.6796875 1.828125 C-0.84824219 0.92320312 -0.84824219 0.92320312 0 0 Z " fill="#116034" transform="translate(2246,639)"/>
<path d="M0 0 C0.66 0 1.32 0 2 0 C1.52797514 4.24822374 -0.96655518 6.19989709 -4 9 C-4.99 8.67 -5.98 8.34 -7 8 C-5.88200014 6.66079162 -4.75538103 5.32877444 -3.625 4 C-2.68527344 2.88625 -2.68527344 2.88625 -1.7265625 1.75 C-1.15679688 1.1725 -0.58703125 0.595 0 0 Z " fill="#BEEABD" transform="translate(583,557)"/>
<path d="M0 0 C0.66 0.33 1.32 0.66 2 1 C-0.97 4.3 -3.94 7.6 -7 11 C-7.33 10.01 -7.66 9.02 -8 8 C-5.36 5.36 -2.72 2.72 0 0 Z " fill="#C4EDC2" transform="translate(2013,685)"/>
<path d="M0 0 C0.99 0.33 1.98 0.66 3 1 C0.03 3.64 -2.94 6.28 -6 9 C-6.66 8.67 -7.32 8.34 -8 8 C-7.04578192 6.85073734 -6.08647955 5.70569459 -5.125 4.5625 C-4.59132813 3.92441406 -4.05765625 3.28632812 -3.5078125 2.62890625 C-2 1 -2 1 0 0 Z " fill="#C3EEC1" transform="translate(1196,658)"/>
<path d="M0 0 C0.99 0.33 1.98 0.66 3 1 C2.34 2.32 1.68 3.64 1 5 C0.34 5 -0.32 5 -1 5 C-1.66 6.32 -2.32 7.64 -3 9 C-3.66 8.67 -4.32 8.34 -5 8 C-3.35 5.36 -1.7 2.72 0 0 Z " fill="#C4F0C3" transform="translate(837,913)"/>
<path d="M0 0 C0.33 0.66 0.66 1.32 1 2 C-0.98 4.31 -2.96 6.62 -5 9 C-5.66 8.34 -6.32 7.68 -7 7 C-4.69 4.69 -2.38 2.38 0 0 Z " fill="#BEE9BE" transform="translate(682,912)"/>
<path d="M0 0 C0.99 0.33 1.98 0.66 3 1 C2.360625 1.721875 1.72125 2.44375 1.0625 3.1875 C-0.98673535 5.98191184 -1.61332946 7.61663274 -2 11 C-2.33 11 -2.66 11 -3 11 C-3.36923077 4.6 -3.36923077 4.6 -1.5 1.5625 C-1.005 1.046875 -0.51 0.53125 0 0 Z " fill="#226D41" transform="translate(865,528)"/>
<path d="M0 0 C0.8353125 0.37125 0.8353125 0.37125 1.6875 0.75 C-1.125 2.8125 -1.125 2.8125 -4.3125 4.75 C-5.3025 4.42 -6.2925 4.09 -7.3125 3.75 C-2.88173077 -0.31153846 -2.88173077 -0.31153846 0 0 Z " fill="#C1ECC0" transform="translate(1742.3125,958.25)"/>
<path d="M0 0 C0 0.33 0 0.66 0 1 C-1.65 1 -3.3 1 -5 1 C-5 1.66 -5 2.32 -5 3 C-7.64 2.67 -10.28 2.34 -13 2 C-13 1.67 -13 1.34 -13 1 C-8.59085217 -0.10228696 -4.51617599 -0.07654536 0 0 Z " fill="#9BCDA1" transform="translate(1679,983)"/>
<path d="M0 0 C0.66 0.33 1.32 0.66 2 1 C1.1875 3.9375 1.1875 3.9375 0 7 C-0.99 7.33 -1.98 7.66 -3 8 C-1.125 2.25 -1.125 2.25 0 0 Z " fill="#B6E3B7" transform="translate(845,898)"/>
<path d="M0 0 C-0.33 0.99 -0.66 1.98 -1 3 C-2.98 3 -4.96 3 -7 3 C-7 2.34 -7 1.68 -7 1 C-3.375 -1.125 -3.375 -1.125 0 0 Z " fill="#B3E1B4" transform="translate(750,711)"/>
<path d="M0 0 C0 0.66 0 1.32 0 2 C-4.15267176 5.11450382 -4.15267176 5.11450382 -7.3125 4.6875 C-7.869375 4.460625 -8.42625 4.23375 -9 4 C-2.25 0 -2.25 0 0 0 Z " fill="#226C40" transform="translate(2278,618)"/>
</svg>
