<svg width="225" height="225" version="1.1" xmlns="http://www.w3.org/2000/svg" desc="Created with imagetracer.js version 1.2.6" ><path fill="rgb(237,237,241)" stroke="rgb(237,237,241)" stroke-width="1" opacity="1" d="M 112.5 74 L 114 74.5 L 111.5 76 L 112.5 74 Z " /><path fill="rgb(237,237,241)" stroke="rgb(237,237,241)" stroke-width="1" opacity="1" d="M 132.5 74 L 135 75.5 L 134.5 78 L 134 75 L 131.5 76 L 132.5 74 Z " /><path fill="rgb(237,237,241)" stroke="rgb(237,237,241)" stroke-width="1" opacity="1" d="M 156.5 74 L 159 75.5 L 157.5 75 L 156.5 74 Z " /><path fill="rgb(237,237,241)" stroke="rgb(237,237,241)" stroke-width="1" opacity="1" d="M 21.5 75 L 22 101.5 L 21 101.5 L 21.5 75 Z " /><path fill="rgb(237,237,241)" stroke="rgb(237,237,241)" stroke-width="1" opacity="1" d="M 53.5 75 L 54 101.5 L 53 101.5 L 53.5 75 Z " /><path fill="rgb(237,237,241)" stroke="rgb(237,237,241)" stroke-width="1" opacity="1" d="M 71.5 75 L 72 80.5 L 71 80.5 L 71.5 75 Z " /><path fill="rgb(237,237,241)" stroke="rgb(237,237,241)" stroke-width="1" opacity="1" d="M 95.5 75 L 101 79.5 L 96.5 76 L 95.5 75 Z " /><path fill="rgb(237,237,241)" stroke="rgb(237,237,241)" stroke-width="1" opacity="1" d="M 79.5 76 L 80 101.5 L 81 102.5 L 79 101.5 L 79.5 76 Z " /><path fill="rgb(237,237,241)" stroke="rgb(237,237,241)" stroke-width="1" opacity="1" d="M 204.5 76 L 205 79.5 L 204 79.5 L 204.5 76 Z " /><path fill="rgb(237,237,241)" stroke="rgb(237,237,241)" stroke-width="1" opacity="1" d="M 40.5 77 L 43.5 81 L 40.5 77 Z " /><path fill="rgb(237,237,241)" stroke="rgb(237,237,241)" stroke-width="1" opacity="1" d="M 130.5 77 L 130 78.5 L 129.5 80 L 129 78.5 L 130.5 77 Z " /><path fill="rgb(237,237,241)" stroke="rgb(237,237,241)" stroke-width="1" opacity="1" d="M 160.5 79 L 162 82.5 L 161 82.5 L 160.5 79 Z " /><path fill="rgb(237,237,241)" stroke="rgb(237,237,241)" stroke-width="1" opacity="1" d="M 28.5 81 L 29 96 L 33 96.5 L 28 97 L 28.5 81 Z " /><path fill="rgb(237,237,241)" stroke="rgb(237,237,241)" stroke-width="1" opacity="1" d="M 86.5 81 L 87 86 L 93 86.5 L 86 87 L 86.5 81 Z " /><path fill="rgb(237,237,241)" stroke="rgb(237,237,241)" stroke-width="1" opacity="1" d="M 93.5 81 L 95 84.5 L 94 84.5 L 93.5 81 Z " /><path fill="rgb(237,237,241)" stroke="rgb(237,237,241)" stroke-width="1" opacity="1" d="M 101.5 82 L 102 85.5 L 101 85.5 L 101.5 82 Z " /><path fill="rgb(237,237,241)" stroke="rgb(237,237,241)" stroke-width="1" opacity="1" d="M 60.5 85 L 70 85.5 L 60.5 86 L 60.5 85 Z " /><path fill="rgb(237,237,241)" stroke="rgb(237,237,241)" stroke-width="1" opacity="1" d="M 109.5 85 L 110 87.5 L 109 87.5 L 109.5 85 Z " /><path fill="rgb(237,237,241)" stroke="rgb(237,237,241)" stroke-width="1" opacity="1" d="M 193.5 85 L 201.5 85 L 203 86.5 L 202.5 92 L 202 86 L 193.5 86 L 193.5 85 Z " /><path fill="rgb(237,237,241)" stroke="rgb(237,237,241)" stroke-width="1" opacity="1" d="M 100.5 87 L 99.5 89 L 100.5 87 Z " /><path fill="rgb(237,237,241)" stroke="rgb(237,237,241)" stroke-width="1" opacity="1" d="M 120.5 87 L 121.5 89 L 120.5 87 Z " /><path fill="rgb(237,237,241)" stroke="rgb(237,237,241)" stroke-width="1" opacity="1" d="M 136.5 87 L 137 89.5 L 136 89.5 L 136.5 87 Z " /><path fill="rgb(237,237,241)" stroke="rgb(237,237,241)" stroke-width="1" opacity="1" d="M 108.5 90 L 109 93.5 L 108 93.5 L 108.5 90 Z " /><path fill="rgb(237,237,241)" stroke="rgb(237,237,241)" stroke-width="1" opacity="1" d="M 155.5 90 L 156 91.5 L 154 92.5 L 155.5 90 Z " /><path fill="rgb(237,237,241)" stroke="rgb(237,237,241)" stroke-width="1" opacity="1" d="M 130.5 91 L 131 93.5 L 130 93.5 L 130.5 91 Z " /><path fill="rgb(237,237,241)" stroke="rgb(237,237,241)" stroke-width="1" opacity="1" d="M 38.5 92 L 35.5 96 L 38.5 92 Z " /><path fill="rgb(237,237,241)" stroke="rgb(237,237,241)" stroke-width="1" opacity="1" d="M 86 92 L 88 92.5 L 87 93.5 L 86.5 103 L 86 92 Z " /><path fill="rgb(237,237,241)" stroke="rgb(237,237,241)" stroke-width="1" opacity="1" d="M 137.5 92 L 138 95.5 L 137 95.5 L 137.5 92 Z " /><path fill="rgb(237,237,241)" stroke="rgb(237,237,241)" stroke-width="1" opacity="1" d="M 96.5 93 L 97.5 95 L 96.5 93 Z " /><path fill="rgb(237,237,241)" stroke="rgb(237,237,241)" stroke-width="1" opacity="1" d="M 117.5 94 L 119 96.5 L 117 95.5 L 117.5 94 Z " /><path fill="rgb(237,237,241)" stroke="rgb(237,237,241)" stroke-width="1" opacity="1" d="M 60.5 96 L 72 96 L 72 102.5 L 71 102.5 L 71 97 L 60.5 97 L 60.5 96 Z " /><path fill="rgb(237,237,241)" stroke="rgb(237,237,241)" stroke-width="1" opacity="1" d="M 193.5 96 L 203.5 96 L 205 97.5 L 204.5 102 L 204 97 L 193.5 97 L 193.5 96 Z " /><path fill="rgb(237,237,241)" stroke="rgb(237,237,241)" stroke-width="1" opacity="1" d="M 161.5 98 L 162.5 100 L 161.5 98 Z " /><path fill="rgb(237,237,241)" stroke="rgb(237,237,241)" stroke-width="1" opacity="1" d="M 39.5 100 L 38.5 102 L 39.5 100 Z " /><path fill="rgb(237,237,241)" stroke="rgb(237,237,241)" stroke-width="1" opacity="1" d="M 138.5 100 L 139 102.5 L 138 102.5 L 138.5 100 Z " /><path fill="rgb(237,237,241)" stroke="rgb(237,237,241)" stroke-width="1" opacity="1" d="M 150.5 101 L 149.5 103 L 150.5 101 Z " /><path fill="rgb(237,237,241)" stroke="rgb(237,237,241)" stroke-width="1" opacity="1" d="M 163.5 101 L 164.5 103 L 163.5 101 Z " /><path fill="rgb(237,237,241)" stroke="rgb(237,237,241)" stroke-width="1" opacity="1" d="M 103.5 126 L 106 127.5 L 104.5 127 L 103.5 126 Z " /><path fill="rgb(237,237,241)" stroke="rgb(237,237,241)" stroke-width="1" opacity="1" d="M 121.5 126 L 123 126.5 L 120.5 128 L 121.5 126 Z " /><path fill="rgb(237,237,241)" stroke="rgb(237,237,241)" stroke-width="1" opacity="1" d="M 99.5 129 L 100 132.5 L 99 132.5 L 99.5 129 Z " /><path fill="rgb(237,237,241)" stroke="rgb(237,237,241)" stroke-width="1" opacity="1" d="M 108.5 129 L 110.5 132 L 108.5 129 Z " /><path fill="rgb(237,237,241)" stroke="rgb(237,237,241)" stroke-width="1" opacity="1" d="M 117.5 129 L 114.5 133 L 117.5 129 Z " /><path fill="rgb(237,237,241)" stroke="rgb(237,237,241)" stroke-width="1" opacity="1" d="M 126.5 134 L 127 136.5 L 126 136.5 L 126.5 134 Z " /><path fill="rgb(237,237,241)" stroke="rgb(237,237,241)" stroke-width="1" opacity="1" d="M 99.5 135 L 100 138.5 L 99 138.5 L 99.5 135 Z " /><path fill="rgb(237,237,241)" stroke="rgb(237,237,241)" stroke-width="1" opacity="1" d="M 93.5 138 L 98 138.5 L 93.5 139 L 93.5 138 Z " /><path fill="rgb(237,237,241)" stroke="rgb(237,237,241)" stroke-width="1" opacity="1" d="M 128.5 138 L 132 138.5 L 128.5 139 L 128.5 138 Z " /><path fill="rgb(237,237,241)" stroke="rgb(237,237,241)" stroke-width="1" opacity="1" d="M 101 140 L 103 140.5 L 101 141.5 L 101 140 Z " /><path fill="rgb(237,237,241)" stroke="rgb(237,237,241)" stroke-width="1" opacity="1" d="M 114.5 140 L 116 147.5 L 114 148 L 114.5 140 Z " /><path fill="rgb(237,237,241)" stroke="rgb(237,237,241)" stroke-width="1" opacity="1" d="M 123.5 140 L 124.5 142 L 123.5 140 Z " /><path fill="rgb(237,237,241)" stroke="rgb(237,237,241)" stroke-width="1" opacity="1" d="M 102.5 143 L 103.5 145 L 102.5 143 Z " /><path fill="rgb(237,237,241)" stroke="rgb(237,237,241)" stroke-width="1" opacity="1" d="M 107.5 143 L 109.5 146 L 107.5 143 Z " /><path fill="rgb(237,237,241)" stroke="rgb(237,237,241)" stroke-width="1" opacity="1" d="M 118.5 143 L 116.5 146 L 118.5 143 Z " /><path fill="rgb(237,237,241)" stroke="rgb(237,237,241)" stroke-width="1" opacity="1" d="M 107.5 148 L 108.5 150 L 107.5 148 Z " /><path fill="rgb(237,237,241)" stroke="rgb(237,237,241)" stroke-width="1" opacity="1" d="M 118.5 148 L 117.5 150 L 118.5 148 Z " /><path fill="rgb(237,237,241)" stroke="rgb(237,237,241)" stroke-width="1" opacity="1" d="M 114.5 150 L 116 150.5 L 114 151.5 L 114.5 153 L 111 152.5 L 114.5 150 Z " /><path fill="rgb(237,237,241)" stroke="rgb(237,237,241)" stroke-width="1" opacity="1" d="M 132.5 150 L 131.5 152 L 132.5 150 Z " /><path fill="rgb(255,255,255)" stroke="rgb(255,255,255)" stroke-width="1" opacity="1" d="M 0 0 L 225 0 L 225 225 L 0 225 L 0 0 Z M 113 74 L 111 76 L 111 81 L 109 86 L 108 98 L 107 99 L 107 103 L 114 103 L 116 92 L 121 102 Q 120 104 124 103 L 126 101 L 130 92 L 132 100 L 132 103 L 139 103 Q 137 100 138 93 L 135 82 L 135 76 L 133 74 L 124 89 Q 125 91 122 90 L 114 76 Q 115 73 113 74 Z M 156 74 L 144 100 Q 142 106 150 103 L 151 101 L 153 99 L 162 99 L 163 102 L 165 103 L 171 103 L 159 76 L 156 74 Z M 21 75 L 21 102 L 23 103 L 36 103 L 44 98 L 47 90 L 44 81 L 38 75 L 21 75 Z M 53 75 L 53 102 L 55 103 L 72 103 L 72 96 L 60 96 L 60 92 L 70 92 L 70 85 L 60 85 L 60 81 L 72 81 L 72 76 L 72 75 L 53 75 Z M 81 75 L 79 77 L 79 102 Q 81 105 87 103 L 87 94 L 89 92 L 93 102 Q 95 105 101 103 L 101 101 L 96 93 Q 95 90 98 91 L 102 86 L 101 80 L 97 75 L 81 75 Z M 186 75 L 186 103 L 204 103 Q 206 102 205 98 L 204 96 L 193 96 L 193 92 L 203 92 L 203 87 L 202 85 L 193 85 L 193 81 L 204 81 Q 206 80 205 77 L 204 75 L 186 75 Z M 174 86 L 173 89 L 176 92 L 179 91 L 180 89 Q 179 85 174 86 Z M 102 126 Q 97 129 99 139 L 98 138 Q 90 138 87 142 L 88 146 Q 92 152 100 154 L 109 154 L 110 153 Q 116 151 118 154 Q 127 155 132 152 L 140 142 L 132 138 L 126 139 L 127 137 Q 128 129 125 126 L 122 126 L 114 133 Q 115 135 113 134 L 111 132 L 105 126 L 102 126 Z " /><path fill="rgb(255,255,255)" stroke="rgb(255,255,255)" stroke-width="1" opacity="1" d="M 29 81 Q 35.7 79.9 38 84.5 L 39 91.5 Q 37.1 97.5 29 96 L 29 81 Z " /><path fill="rgb(255,255,255)" stroke="rgb(255,255,255)" stroke-width="1" opacity="1" d="M 87 81 Q 92.4 79.5 94 82.5 L 94 86 L 87 86 L 87 81 Z " /><path fill="rgb(255,255,255)" stroke="rgb(255,255,255)" stroke-width="1" opacity="1" d="M 156 89 Q 158.7 87.9 158 90.5 L 159 93 L 155 92.5 L 156 89 Z " /><path fill="rgb(255,255,255)" stroke="rgb(255,255,255)" stroke-width="1" opacity="1" d="M 112 138 L 114 138 L 114 147.5 L 116 148 L 120.5 142 L 124.5 140 L 124 141.5 L 123 145 Q 120.3 143.9 121 146.5 Q 118.1 150.6 111.5 151 L 104 145.5 L 102 141 Q 108.5 142 111.5 148 L 112 146.5 L 111 141.5 L 112 138 Z " /><path fill="rgb(189,190,207)" stroke="rgb(189,190,207)" stroke-width="1" opacity="1" d="M 37.5 76 L 40 77.5 L 38.5 77 L 37.5 76 Z " /><path fill="rgb(189,190,207)" stroke="rgb(189,190,207)" stroke-width="1" opacity="1" d="M 186.5 76 L 187 102 L 204 102.5 L 187.5 103 L 186 101.5 L 186.5 76 Z " /><path fill="rgb(189,190,207)" stroke="rgb(189,190,207)" stroke-width="1" opacity="1" d="M 86.5 80 L 93 80.5 L 86.5 81 L 86.5 80 Z " /><path fill="rgb(189,190,207)" stroke="rgb(189,190,207)" stroke-width="1" opacity="1" d="M 35.5 81 L 38.5 85 L 35.5 81 Z " /><path fill="rgb(189,190,207)" stroke="rgb(189,190,207)" stroke-width="1" opacity="1" d="M 192.5 81 L 193 85.5 L 192 85.5 L 192.5 81 Z " /><path fill="rgb(189,190,207)" stroke="rgb(189,190,207)" stroke-width="1" opacity="1" d="M 110.5 82 L 111 84.5 L 110 84.5 L 110.5 82 Z " /><path fill="rgb(189,190,207)" stroke="rgb(189,190,207)" stroke-width="1" opacity="1" d="M 135.5 84 L 136 86.5 L 135 86.5 L 135.5 84 Z " /><path fill="rgb(189,190,207)" stroke="rgb(189,190,207)" stroke-width="1" opacity="1" d="M 94.5 85 L 93.5 87 L 94.5 85 Z " /><path fill="rgb(189,190,207)" stroke="rgb(189,190,207)" stroke-width="1" opacity="1" d="M 69.5 86 L 70 90.5 L 68.5 92 L 60.5 92 L 60.5 91 L 69 91 L 69.5 86 Z " /><path fill="rgb(189,190,207)" stroke="rgb(189,190,207)" stroke-width="1" opacity="1" d="M 177.5 86 L 179 89.5 L 177 90.5 L 178 87.5 L 177.5 86 Z " /><path fill="rgb(189,190,207)" stroke="rgb(189,190,207)" stroke-width="1" opacity="1" d="M 39.5 87 L 40 90.5 L 39 90.5 L 39.5 87 Z " /><path fill="rgb(189,190,207)" stroke="rgb(189,190,207)" stroke-width="1" opacity="1" d="M 109.5 88 L 110 90.5 L 109 90.5 L 109.5 88 Z " /><path fill="rgb(189,190,207)" stroke="rgb(189,190,207)" stroke-width="1" opacity="1" d="M 96.5 90 L 96 91.5 L 95.5 93 L 95 91.5 L 96.5 90 Z " /><path fill="rgb(189,190,207)" stroke="rgb(189,190,207)" stroke-width="1" opacity="1" d="M 130.5 90 L 129.5 92 L 130.5 90 Z " /><path fill="rgb(189,190,207)" stroke="rgb(189,190,207)" stroke-width="1" opacity="1" d="M 136.5 90 L 137 92.5 L 136 92.5 L 136.5 90 Z " /><path fill="rgb(189,190,207)" stroke="rgb(189,190,207)" stroke-width="1" opacity="1" d="M 86.5 91 L 90 92.5 L 88.5 92 Q 85.5 92.5 86.5 91 Z " /><path fill="rgb(189,190,207)" stroke="rgb(189,190,207)" stroke-width="1" opacity="1" d="M 192 91 L 202 91.5 L 193 92 L 192.5 97 L 192 91 Z " /><path fill="rgb(189,190,207)" stroke="rgb(189,190,207)" stroke-width="1" opacity="1" d="M 114.5 92 L 115 94.5 L 114 94.5 L 114.5 92 Z " /><path fill="rgb(189,190,207)" stroke="rgb(189,190,207)" stroke-width="1" opacity="1" d="M 131.5 94 L 132 96.5 L 131 96.5 L 131.5 94 Z " /><path fill="rgb(189,190,207)" stroke="rgb(189,190,207)" stroke-width="1" opacity="1" d="M 43.5 96 L 42.5 98 L 43.5 96 Z " /><path fill="rgb(189,190,207)" stroke="rgb(189,190,207)" stroke-width="1" opacity="1" d="M 151.5 98 L 161 98.5 L 151.5 99 L 151.5 98 Z " /><path fill="rgb(189,190,207)" stroke="rgb(189,190,207)" stroke-width="1" opacity="1" d="M 113.5 99 L 114 101.5 Q 113 104 108.5 103 L 107 100.5 L 108 100.5 L 108 102 L 113 102 L 113.5 99 Z " /><path fill="rgb(189,190,207)" stroke="rgb(189,190,207)" stroke-width="1" opacity="1" d="M 124.5 100 L 125 101.5 L 123 102.5 L 124.5 100 Z " /><path fill="rgb(189,190,207)" stroke="rgb(189,190,207)" stroke-width="1" opacity="1" d="M 100.5 101 L 99.5 103 L 94 102.5 L 100.5 101 Z " /><path fill="rgb(189,190,207)" stroke="rgb(189,190,207)" stroke-width="1" opacity="1" d="M 22.5 102 L 34 102.5 L 22.5 103 L 22.5 102 Z " /><path fill="rgb(189,190,207)" stroke="rgb(189,190,207)" stroke-width="1" opacity="1" d="M 54.5 102 L 71 102.5 L 54.5 103 L 54.5 102 Z " /><path fill="rgb(189,190,207)" stroke="rgb(189,190,207)" stroke-width="1" opacity="1" d="M 81.5 102 L 86 102.5 L 81.5 103 L 81.5 102 Z " /><path fill="rgb(189,190,207)" stroke="rgb(189,190,207)" stroke-width="1" opacity="1" d="M 133.5 102 L 138 102.5 L 133.5 103 L 133.5 102 Z " /><path fill="rgb(189,190,207)" stroke="rgb(189,190,207)" stroke-width="1" opacity="1" d="M 144.5 102 L 149 102.5 L 144.5 103 L 144.5 102 Z " /><path fill="rgb(189,190,207)" stroke="rgb(189,190,207)" stroke-width="1" opacity="1" d="M 165.5 102 L 170 102.5 L 165.5 103 L 165.5 102 Z " /><path fill="rgb(189,190,207)" stroke="rgb(189,190,207)" stroke-width="1" opacity="1" d="M 91.5 139 L 100.5 139 L 101 140.5 L 99.5 140 L 91.5 140 L 91.5 139 Z " /><path fill="rgb(189,190,207)" stroke="rgb(189,190,207)" stroke-width="1" opacity="1" d="M 125 139 L 135 139.5 L 126.5 140 L 125.5 141 L 125 139 Z " /><path fill="rgb(189,190,207)" stroke="rgb(189,190,207)" stroke-width="1" opacity="1" d="M 120.5 141 L 119.5 143 L 120.5 141 Z " /><path fill="rgb(189,190,207)" stroke="rgb(189,190,207)" stroke-width="1" opacity="1" d="M 103.5 145 L 106.5 149 L 103.5 145 Z " /><path fill="rgb(189,190,207)" stroke="rgb(189,190,207)" stroke-width="1" opacity="1" d="M 122.5 145 L 119.5 149 L 122.5 145 Z " /><path fill="rgb(189,190,207)" stroke="rgb(189,190,207)" stroke-width="1" opacity="1" d="M 89.5 146 L 93.5 151 L 89.5 146 Z " /><path fill="rgb(189,190,207)" stroke="rgb(189,190,207)" stroke-width="1" opacity="1" d="M 136.5 146 L 133.5 150 L 136.5 146 Z " /><path fill="rgb(189,190,207)" stroke="rgb(189,190,207)" stroke-width="1" opacity="1" d="M 111.5 151 L 110.5 153 L 111.5 151 Z " /><path fill="rgb(189,190,207)" stroke="rgb(189,190,207)" stroke-width="1" opacity="1" d="M 100.5 153 L 108 153.5 L 100.5 154 L 100.5 153 Z " /><path fill="rgb(189,190,207)" stroke="rgb(189,190,207)" stroke-width="1" opacity="1" d="M 118.5 153 L 126 153.5 L 118.5 154 L 118.5 153 Z " /><path fill="rgb(130,132,170)" stroke="rgb(130,132,170)" stroke-width="1" opacity="1" d="M 23.5 75 L 34 75.5 L 33.5 77 L 36.5 76 L 37.5 78 L 39 77.5 L 39.5 79 Q 41.2 76.3 43 80.5 L 43 82.5 L 43.5 84 L 45 83.5 L 43 94.5 L 43.5 96 L 41 97.5 L 41.5 99 L 40 98.5 L 38.5 101 L 36.5 100 L 36.5 102 L 35.5 101 L 23.5 101 L 22 101.5 L 22 76.5 L 23.5 75 Z M 29 79 L 29 80 L 33 80 L 29 79 Z M 34 80 L 33 81 Q 28 80 28 82 L 28 98 L 37 97 L 36 96 L 38 96 Q 40 95 38 94 L 40 94 L 40 93 L 40 91 Q 43 92 41 87 L 40 87 L 40 86 L 39 83 Q 36 84 37 82 L 34 80 Z " /><path fill="rgb(130,132,170)" stroke="rgb(130,132,170)" stroke-width="1" opacity="1" d="M 54.5 75 L 71 75.5 L 70 79 L 60 79.5 L 71 80.5 L 60 81 L 60 86 L 68.5 86 L 68 87.5 L 68 90 L 60 90 L 60 97 L 70 97 L 70 101 L 55 101 L 55 76.5 L 54.5 75 Z M 59 81 L 58 86 L 59 86 L 59 81 Z M 59 92 L 58 97 L 59 97 L 59 92 Z " /><path fill="rgb(130,132,170)" stroke="rgb(130,132,170)" stroke-width="1" opacity="1" d="M 81.5 75 L 94 75.5 L 93.5 77 L 96.5 78 L 98 77.5 L 98.5 80 L 100 79.5 L 99 82 Q 102.3 80.9 101 85 Q 98.3 83.9 99 86.5 L 99.5 88 L 98 87.5 L 94 92.5 L 95.5 95 L 97 94.5 L 98 96.5 L 97.5 98 L 99 98.5 L 98.5 100 L 100 100.5 L 95.5 101 L 94 98 L 92 97.5 L 92 95.5 L 91 92 L 86 90 L 86 101 L 81.5 101 L 80 101.5 L 80 76.5 L 81.5 75 Z M 86 79 L 86 88 L 94 88 L 94 86 L 96 86 L 95 83 L 95 81 Q 92 78 86 79 Z " /><path fill="rgb(130,132,170)" stroke="rgb(130,132,170)" stroke-width="1" opacity="1" d="M 133.5 75 L 134 76.5 L 133 80.5 L 135 80.5 L 134 87 Q 137 85.8 136 89.5 L 135 93 Q 137.7 91.9 137 94.5 L 136 98.5 L 138 98.5 L 137 101 L 132.5 102 L 132 100.5 Q 134.5 99 133 93.5 L 131 93.5 L 130.5 90 L 128 91 L 127 93.5 L 127.5 95 L 126 95.5 L 126.5 97 L 125 96.5 L 126 98.5 L 124 98.5 L 122.5 101 L 121 100.5 L 121 98.5 Q 121.8 96.3 119.5 97 L 119 94.5 L 118.5 93 L 117 93.5 L 118 91.5 L 116 91.5 L 115.5 90 L 114.5 92 L 113 91.5 Q 111.5 97 114 98.5 L 112 98.5 Q 113.1 102.7 109 101 L 108 96.5 L 110 96.5 L 109 91 Q 112 92.3 111 88.5 L 110 85 Q 113.7 86.3 112 80.5 L 111 78.5 L 115 77.5 L 114.5 79 L 116 79.5 L 116 81.5 Q 115.3 83.8 117.5 83 L 117.5 85 L 120 86.5 L 119 88.5 L 121 88.5 L 122 90.5 L 121.5 92 Q 125.9 93.5 125 90.5 L 125.5 88 Q 127.8 88.8 127 86.5 L 127.5 84 L 129 83.5 L 128.5 82 L 130 81.5 L 129.5 80 L 131 80.5 L 132 78.5 L 131.5 77 Q 134 77.7 133.5 75 Z " /><path fill="rgb(130,132,170)" stroke="rgb(130,132,170)" stroke-width="1" opacity="1" d="M 187.5 75 L 204 75.5 L 203 79 L 193 79.5 L 204 80.5 L 191 81 L 191 86 L 202 86 L 202 90.5 L 200.5 90 Q 193.7 89.1 191 91 L 191 97 L 203.5 97 L 203 98.5 L 202.5 101 L 188 101 L 188 76.5 L 187.5 75 Z " /><path fill="rgb(130,132,170)" stroke="rgb(130,132,170)" stroke-width="1" opacity="1" d="M 155.5 77 L 157.5 78 L 159 77.5 L 158 79.5 L 160 79.5 L 159 81.5 L 161 86 L 163 86.5 L 162.5 88 L 164 88.5 L 164 90.5 L 164.5 93 L 166 92.5 L 165 94.5 L 166.5 97 L 168 96.5 L 167 99 L 169 99.5 L 164.5 102 L 164.5 100 L 163 99.5 Q 165.3 98.3 162.5 97 L 151.5 97 L 150 98.5 L 150.5 100 L 146.5 101 L 145.5 99 L 147 98.5 L 146.5 97 Q 148.8 97.8 148 95.5 L 147.5 94 L 149 94.5 L 150 92.5 L 149 90 L 151 89.5 L 150.5 88 L 152 87.5 L 151.5 86 L 153 85.5 L 152.5 84 Q 154.8 84.8 154 82.5 L 153.5 81 L 155 81.5 L 156 79.5 L 155.5 77 Z M 155 87 L 155 89 L 155 91 L 153 92 Q 154 94 160 93 Q 162 92 160 91 Q 161 88 159 89 L 159 88 L 155 87 Z " /><path fill="rgb(130,132,170)" stroke="rgb(130,132,170)" stroke-width="1" opacity="1" d="M 45.5 87 L 46 89.5 L 45 89.5 L 45.5 87 Z " /><path fill="rgb(130,132,170)" stroke="rgb(130,132,170)" stroke-width="1" opacity="1" d="M 175 88 L 178 88.5 L 177 91 Q 173.7 92.1 175 88 Z " /><path fill="rgb(130,132,170)" stroke="rgb(130,132,170)" stroke-width="1" opacity="1" d="M 101.5 127 L 104 127.5 L 104.5 129 L 106 128.5 L 106.5 130 L 107.5 129 L 111 132.5 L 111 134.5 L 112 137.5 L 110 138 L 109.5 143 L 106.5 142 L 105 141.5 L 105.5 140 L 102.5 139 Q 101.2 141.3 100 138.5 L 101 132.5 L 100 130 Q 102.7 131.1 102 128.5 L 101.5 127 Z " /><path fill="rgb(130,132,170)" stroke="rgb(130,132,170)" stroke-width="1" opacity="1" d="M 122.5 127 L 125 127.5 L 124 129.5 L 126 129.5 Q 123.3 131.3 125 137.5 Q 127.3 138.8 124.5 140 L 122.5 139 L 118 141.5 L 119 142.5 L 115.5 146 L 115 141.5 L 116 138.5 L 114 138.5 L 115 134.5 L 114 133.5 L 118.5 129 L 120 129.5 L 120.5 128 L 122 128.5 L 122.5 127 Z " /><path fill="rgb(130,132,170)" stroke="rgb(130,132,170)" stroke-width="1" opacity="1" d="M 90 140 Q 93.4 142 101 141.5 L 101 143.5 L 101.5 145 L 103 144.5 L 102 145.5 L 106.5 150 L 108 149.5 L 107.5 151 L 109 151.5 L 99.5 152 L 98.5 153 L 98.5 151 L 96.5 152 L 95.5 150 L 94 150.5 L 90.5 146 L 89 145.5 L 89 143.5 L 90 140 Z " /><path fill="rgb(130,132,170)" stroke="rgb(130,132,170)" stroke-width="1" opacity="1" d="M 129.5 140 L 133.5 141 L 136 140 L 137 143.5 L 136.5 146 L 132 149.5 L 131.5 151 L 130 150.5 L 129.5 152 L 127.5 151 L 127.5 153 L 126.5 152 L 117 151.5 L 118.5 149 L 119.5 150 L 124 145.5 L 123.5 144 L 125 144.5 L 126 142.5 L 125.5 141 L 129.5 140 Z " /><path fill="rgb(121,123,164)" stroke="rgb(121,123,164)" stroke-width="1" opacity="1" d="M 112.5 75 L 115 78.5 L 112 78.5 L 112.5 75 Z " /><path fill="rgb(121,123,164)" stroke="rgb(121,123,164)" stroke-width="1" opacity="1" d="M 132.5 75 L 134 80.5 L 133 80.5 L 132.5 75 Z " /><path fill="rgb(121,123,164)" stroke="rgb(121,123,164)" stroke-width="1" opacity="1" d="M 156.5 75 L 159 79.5 L 158 79.5 Q 158.7 76.9 156 78 L 156.5 75 Z " /><path fill="rgb(121,123,164)" stroke="rgb(121,123,164)" stroke-width="1" opacity="1" d="M 33.5 76 L 36 76.5 L 33.5 77 L 33.5 76 Z " /><path fill="rgb(121,123,164)" stroke="rgb(121,123,164)" stroke-width="1" opacity="1" d="M 54.5 76 L 55 101 L 69.5 101 L 70 97.5 L 71 97.5 Q 71.5 102 70.5 102 L 54 102 L 54.5 76 Z " /><path fill="rgb(121,123,164)" stroke="rgb(121,123,164)" stroke-width="1" opacity="1" d="M 70.5 76 L 71 80 L 60 79.5 L 70 79 L 70.5 76 Z " /><path fill="rgb(121,123,164)" stroke="rgb(121,123,164)" stroke-width="1" opacity="1" d="M 93.5 76 L 97 77.5 L 95.5 77 Q 92.5 77.5 93.5 76 Z " /><path fill="rgb(121,123,164)" stroke="rgb(121,123,164)" stroke-width="1" opacity="1" d="M 187.5 76 L 188 101 L 202.5 101 L 203 98.5 L 204 98.5 L 203.5 102 L 187 102 L 187.5 76 Z " /><path fill="rgb(121,123,164)" stroke="rgb(121,123,164)" stroke-width="1" opacity="1" d="M 203.5 76 L 204 80 L 193 79.5 L 203 79 L 203.5 76 Z " /><path fill="rgb(121,123,164)" stroke="rgb(121,123,164)" stroke-width="1" opacity="1" d="M 39.5 78 Q 47.1 80.9 45 93.5 L 43 94.5 Q 45.3 91.3 44 84.5 L 39.5 78 Z " /><path fill="rgb(121,123,164)" stroke="rgb(121,123,164)" stroke-width="1" opacity="1" d="M 98.5 78 L 100 81.5 L 99 81.5 L 98.5 78 Z " /><path fill="rgb(121,123,164)" stroke="rgb(121,123,164)" stroke-width="1" opacity="1" d="M 131.5 78 L 131 79.5 L 129.5 82 L 130 80.5 L 131.5 78 Z " /><path fill="rgb(121,123,164)" stroke="rgb(121,123,164)" stroke-width="1" opacity="1" d="M 28.5 79 Q 34.7 78.3 37 81.5 L 35.5 81 L 28.5 80 L 28.5 79 Z " /><path fill="rgb(121,123,164)" stroke="rgb(121,123,164)" stroke-width="1" opacity="1" d="M 86.5 79 Q 93.8 77.8 96 81.5 L 94.5 81 L 86.5 80 L 86.5 79 Z " /><path fill="rgb(121,123,164)" stroke="rgb(121,123,164)" stroke-width="1" opacity="1" d="M 155.5 79 L 155 80.5 L 153.5 84 L 153 82.5 L 155.5 79 Z " /><path fill="rgb(121,123,164)" stroke="rgb(121,123,164)" stroke-width="1" opacity="1" d="M 111.5 80 L 112 84.5 L 111 84.5 L 111.5 80 Z " /><path fill="rgb(121,123,164)" stroke="rgb(121,123,164)" stroke-width="1" opacity="1" d="M 115.5 80 L 117 82.5 L 116 82.5 L 115.5 80 Z " /><path fill="rgb(121,123,164)" stroke="rgb(121,123,164)" stroke-width="1" opacity="1" d="M 58.5 81 L 59 85.5 L 58 85.5 L 58.5 81 Z " /><path fill="rgb(121,123,164)" stroke="rgb(121,123,164)" stroke-width="1" opacity="1" d="M 159.5 81 L 162 85.5 L 161 85.5 L 159.5 81 Z " /><path fill="rgb(121,123,164)" stroke="rgb(121,123,164)" stroke-width="1" opacity="1" d="M 191.5 81 L 192 85.5 L 191 85.5 L 191.5 81 Z " /><path fill="rgb(121,123,164)" stroke="rgb(121,123,164)" stroke-width="1" opacity="1" d="M 134.5 82 L 135 86.5 L 134 86.5 L 134.5 82 Z " /><path fill="rgb(121,123,164)" stroke="rgb(121,123,164)" stroke-width="1" opacity="1" d="M 38.5 83 Q 41.8 84.7 41 90.5 L 40 90.5 Q 40.5 84.7 38.5 83 Z " /><path fill="rgb(121,123,164)" stroke="rgb(121,123,164)" stroke-width="1" opacity="1" d="M 99.5 85 L 100 86.5 L 97.5 90 L 96 89.5 L 98 89 L 99.5 85 Z " /><path fill="rgb(121,123,164)" stroke="rgb(121,123,164)" stroke-width="1" opacity="1" d="M 127.5 85 L 127 86.5 L 126.5 88 L 126 86.5 L 127.5 85 Z " /><path fill="rgb(121,123,164)" stroke="rgb(121,123,164)" stroke-width="1" opacity="1" d="M 118.5 86 L 120 88.5 L 119 88.5 L 118.5 86 Z " /><path fill="rgb(121,123,164)" stroke="rgb(121,123,164)" stroke-width="1" opacity="1" d="M 68.5 87 L 69 91 L 60 90.5 L 68 90 L 68.5 87 Z " /><path fill="rgb(121,123,164)" stroke="rgb(121,123,164)" stroke-width="1" opacity="1" d="M 86.5 87 L 94 87.5 L 86.5 88 L 86.5 87 Z " /><path fill="rgb(121,123,164)" stroke="rgb(121,123,164)" stroke-width="1" opacity="1" d="M 155.5 87 L 156 88.5 L 154 89.5 L 155.5 87 Z " /><path fill="rgb(121,123,164)" stroke="rgb(121,123,164)" stroke-width="1" opacity="1" d="M 174 87 L 178 87.5 L 175 88 L 174.5 90 L 174 87 Z " /><path fill="rgb(121,123,164)" stroke="rgb(121,123,164)" stroke-width="1" opacity="1" d="M 110.5 88 L 111 90.5 L 110 90.5 L 110.5 88 Z " /><path fill="rgb(121,123,164)" stroke="rgb(121,123,164)" stroke-width="1" opacity="1" d="M 125.5 89 L 125 90.5 L 124.5 92 L 124 90.5 L 125.5 89 Z " /><path fill="rgb(121,123,164)" stroke="rgb(121,123,164)" stroke-width="1" opacity="1" d="M 159.5 89 L 161 91.5 L 159 90.5 L 159.5 89 Z " /><path fill="rgb(121,123,164)" stroke="rgb(121,123,164)" stroke-width="1" opacity="1" d="M 163.5 89 L 168 98.5 L 167 98.5 L 163.5 89 Z " /><path fill="rgb(121,123,164)" stroke="rgb(121,123,164)" stroke-width="1" opacity="1" d="M 135.5 90 L 136 92.5 L 135 92.5 L 135.5 90 Z " /><path fill="rgb(121,123,164)" stroke="rgb(121,123,164)" stroke-width="1" opacity="1" d="M 193.5 90 L 201 90.5 L 193.5 91 L 193.5 90 Z " /><path fill="rgb(121,123,164)" stroke="rgb(121,123,164)" stroke-width="1" opacity="1" d="M 94.5 91 L 96 94.5 L 95 94.5 L 94.5 91 Z " /><path fill="rgb(121,123,164)" stroke="rgb(121,123,164)" stroke-width="1" opacity="1" d="M 113.5 91 L 114 97.5 L 113 102 L 108 102 L 108 98.5 L 109 98.5 Q 107.9 102.7 112 101 L 113.5 91 Z " /><path fill="rgb(121,123,164)" stroke="rgb(121,123,164)" stroke-width="1" opacity="1" d="M 117.5 91 L 120 95.5 L 118 94.5 L 117.5 91 Z " /><path fill="rgb(121,123,164)" stroke="rgb(121,123,164)" stroke-width="1" opacity="1" d="M 128.5 91 L 129 92.5 L 127 93.5 L 128.5 91 Z " /><path fill="rgb(121,123,164)" stroke="rgb(121,123,164)" stroke-width="1" opacity="1" d="M 191.5 91 L 192 96.5 L 191 96.5 L 191.5 91 Z " /><path fill="rgb(121,123,164)" stroke="rgb(121,123,164)" stroke-width="1" opacity="1" d="M 39.5 92 L 40 93.5 Q 37.9 99.3 28.5 98 L 28.5 97 Q 36.8 98.3 39 93.5 L 39.5 92 Z " /><path fill="rgb(121,123,164)" stroke="rgb(121,123,164)" stroke-width="1" opacity="1" d="M 58.5 92 L 59 96.5 L 58 96.5 L 58.5 92 Z " /><path fill="rgb(121,123,164)" stroke="rgb(121,123,164)" stroke-width="1" opacity="1" d="M 90.5 92 L 93 96.5 L 91 95.5 L 90.5 92 Z " /><path fill="rgb(121,123,164)" stroke="rgb(121,123,164)" stroke-width="1" opacity="1" d="M 149.5 92 L 149 93.5 L 147.5 97 L 147 95.5 L 149.5 92 Z " /><path fill="rgb(121,123,164)" stroke="rgb(121,123,164)" stroke-width="1" opacity="1" d="M 109.5 93 L 110 96.5 L 109 96.5 L 109.5 93 Z " /><path fill="rgb(121,123,164)" stroke="rgb(121,123,164)" stroke-width="1" opacity="1" d="M 132.5 93 L 133 99.5 L 132 99.5 L 132.5 93 Z " /><path fill="rgb(121,123,164)" stroke="rgb(121,123,164)" stroke-width="1" opacity="1" d="M 126.5 95 L 126 96.5 L 124 102 L 122 101.5 L 126.5 95 Z " /><path fill="rgb(121,123,164)" stroke="rgb(121,123,164)" stroke-width="1" opacity="1" d="M 136.5 95 L 138 102 L 133 101.5 L 137 101 L 136.5 95 Z " /><path fill="rgb(121,123,164)" stroke="rgb(121,123,164)" stroke-width="1" opacity="1" d="M 42.5 96 L 40.5 99 L 42.5 96 Z " /><path fill="rgb(121,123,164)" stroke="rgb(121,123,164)" stroke-width="1" opacity="1" d="M 96.5 96 L 97.5 98 L 96.5 96 Z " /><path fill="rgb(121,123,164)" stroke="rgb(121,123,164)" stroke-width="1" opacity="1" d="M 120.5 97 L 122 99.5 L 120 98.5 L 120.5 97 Z " /><path fill="rgb(121,123,164)" stroke="rgb(121,123,164)" stroke-width="1" opacity="1" d="M 151.5 97 L 162.5 97 L 164 98.5 L 162.5 98 L 151.5 98 L 150.5 99 L 151.5 97 Z " /><path fill="rgb(121,123,164)" stroke="rgb(121,123,164)" stroke-width="1" opacity="1" d="M 93.5 98 L 95.5 101 L 100 101.5 L 94 102 L 93.5 98 Z " /><path fill="rgb(121,123,164)" stroke="rgb(121,123,164)" stroke-width="1" opacity="1" d="M 36.5 100 L 38 100.5 L 35.5 102 L 23.5 102 L 23.5 101 L 35.5 101 L 36.5 100 Z " /><path fill="rgb(121,123,164)" stroke="rgb(121,123,164)" stroke-width="1" opacity="1" d="M 145.5 100 L 148.5 101 L 150 100.5 Q 150.6 103.3 144.5 102 L 145.5 100 Z " /><path fill="rgb(121,123,164)" stroke="rgb(121,123,164)" stroke-width="1" opacity="1" d="M 164.5 100 L 167.5 101 L 169 100.5 Q 169.9 103.5 165.5 102 L 164.5 100 Z " /><path fill="rgb(121,123,164)" stroke="rgb(121,123,164)" stroke-width="1" opacity="1" d="M 81.5 101 L 86 101.5 L 81.5 102 L 81.5 101 Z " /><path fill="rgb(121,123,164)" stroke="rgb(121,123,164)" stroke-width="1" opacity="1" d="M 102.5 127 L 102 128.5 L 101.5 130 L 101 128.5 L 102.5 127 Z " /><path fill="rgb(121,123,164)" stroke="rgb(121,123,164)" stroke-width="1" opacity="1" d="M 123.5 127 Q 127.5 129.5 126 137.5 L 116.5 144 L 118.5 141 L 125 137.5 Q 125.9 129.5 123.5 127 Z " /><path fill="rgb(121,123,164)" stroke="rgb(121,123,164)" stroke-width="1" opacity="1" d="M 106.5 129 L 112 134.5 L 112 136.5 L 111 136.5 L 111 134.5 L 106.5 129 Z " /><path fill="rgb(121,123,164)" stroke="rgb(121,123,164)" stroke-width="1" opacity="1" d="M 119.5 129 L 115 134.5 L 116 140.5 L 115 140.5 L 114 134.5 L 119.5 129 Z " /><path fill="rgb(121,123,164)" stroke="rgb(121,123,164)" stroke-width="1" opacity="1" d="M 100.5 132 L 101 136.5 L 100 136.5 L 100.5 132 Z " /><path fill="rgb(121,123,164)" stroke="rgb(121,123,164)" stroke-width="1" opacity="1" d="M 101.5 138 L 106 140.5 L 104.5 141 L 101.5 138 Z " /><path fill="rgb(121,123,164)" stroke="rgb(121,123,164)" stroke-width="1" opacity="1" d="M 110.5 138 L 111 145.5 L 110 145.5 L 108 142.5 L 110 142.5 L 110.5 138 Z " /><path fill="rgb(121,123,164)" stroke="rgb(121,123,164)" stroke-width="1" opacity="1" d="M 92.5 140 L 100 140.5 L 92.5 141 L 92.5 140 Z " /><path fill="rgb(121,123,164)" stroke="rgb(121,123,164)" stroke-width="1" opacity="1" d="M 126.5 140 L 129 140.5 L 126.5 141 L 126.5 140 Z " /><path fill="rgb(121,123,164)" stroke="rgb(121,123,164)" stroke-width="1" opacity="1" d="M 131.5 140 L 134 140.5 L 131.5 141 L 131.5 140 Z " /><path fill="rgb(121,123,164)" stroke="rgb(121,123,164)" stroke-width="1" opacity="1" d="M 87.5 141 L 90 141.5 L 89 143.5 L 89.5 145 L 87.5 141 Z " /><path fill="rgb(121,123,164)" stroke="rgb(121,123,164)" stroke-width="1" opacity="1" d="M 136.5 141 Q 139.1 140.2 138 143.5 L 136 144.5 L 137 142.5 L 136.5 141 Z " /><path fill="rgb(121,123,164)" stroke="rgb(121,123,164)" stroke-width="1" opacity="1" d="M 100.5 142 L 107.5 150 L 111 151.5 L 109.5 153 L 99.5 153 L 97 151.5 L 98.5 151 L 99.5 152 L 108.5 152 L 108.5 151 L 101 144.5 L 100.5 142 Z " /><path fill="rgb(121,123,164)" stroke="rgb(121,123,164)" stroke-width="1" opacity="1" d="M 125.5 142 L 125 143.5 L 119.5 150 L 124 144.5 L 125.5 142 Z " /><path fill="rgb(121,123,164)" stroke="rgb(121,123,164)" stroke-width="1" opacity="1" d="M 90.5 146 L 93.5 150 L 90.5 146 Z " /><path fill="rgb(121,123,164)" stroke="rgb(121,123,164)" stroke-width="1" opacity="1" d="M 135.5 146 L 132.5 150 L 135.5 146 Z " /><path fill="rgb(121,123,164)" stroke="rgb(121,123,164)" stroke-width="1" opacity="1" d="M 117.5 150 L 117.5 152 Q 125 153.5 128.5 151 L 128.5 152 Q 124.7 154.7 116.5 153 L 115.5 151 L 117.5 150 Z " /></svg>