<svg xmlns="http://www.w3.org/2000/svg" width="267" height="189" version="1.1" desc="Created with imagetracer.js version 1.2.6" viewBox="0 0 267 189"><path fill="rgb(151,182,90)" stroke="rgb(151,182,90)" stroke-width="1" opacity="1" d="M 59.5 39 L 68 56.5 L 65.5 60 L 59.5 39 Z "/><path fill="rgb(151,182,90)" stroke="rgb(151,182,90)" stroke-width="1" opacity="1" d="M 99.5 44 L 100 45.5 L 94 62.5 L 93 70.5 L 91.5 72 L 87.5 75 L 87 73.5 Q 91.5 57 99.5 44 Z "/><path fill="rgb(151,182,90)" stroke="rgb(151,182,90)" stroke-width="1" opacity="1" d="M 22.5 45 L 33 64.5 L 36 75.5 L 39.5 80 L 50 89.5 L 51 94.5 L 49.5 100 L 39.5 86 L 39 88.5 L 41 96.5 L 41 121.5 L 38.5 135 L 37 102.5 L 36 101.5 L 34 83.5 L 30.5 78 L 17 71.5 L 19.5 71 L 31.5 75 L 31 73.5 L 29 63.5 L 22 46.5 L 22.5 45 Z "/><path fill="rgb(151,182,90)" stroke="rgb(151,182,90)" stroke-width="1" opacity="1" d="M 40.5 50 Q 51.1 60.4 58 74.5 L 56.5 77 L 40.5 50 Z "/><path fill="rgb(151,182,90)" stroke="rgb(151,182,90)" stroke-width="1" opacity="1" d="M 79.5 52 Q 85.9 52.1 88 56.5 L 89 63.5 L 84.5 69 L 78.5 70 L 73 66.5 L 72 57.5 L 79.5 52 Z "/><path fill="rgb(151,182,90)" stroke="rgb(151,182,90)" stroke-width="1" opacity="1" d="M 54.5 55 Q 59.8 53.8 61 56.5 Q 62.3 61.8 59.5 63 Q 54.3 64.3 53 61.5 Q 51.8 56.3 54.5 55 Z "/><path fill="rgb(151,182,90)" stroke="rgb(151,182,90)" stroke-width="1" opacity="1" d="M 68.5 59 L 72 68.5 L 76 87.5 L 72.5 93 L 66 62.5 L 68.5 59 Z "/><path fill="rgb(151,182,90)" stroke="rgb(151,182,90)" stroke-width="1" opacity="1" d="M 43.5 67 Q 48.3 67.3 50 70.5 L 51 74.5 L 47.5 79 Q 40.3 80.3 39 75.5 Q 37.8 69.3 41.5 68 L 43.5 67 Z "/><path fill="rgb(151,182,90)" stroke="rgb(151,182,90)" stroke-width="1" opacity="1" d="M 91.5 74 L 92 75.5 L 89 89.5 L 89 98.5 L 88 99.5 L 88 123.5 L 89 126.5 L 88 126.5 L 84 108.5 L 84 90.5 L 86 80.5 L 91.5 74 Z "/><path fill="rgb(151,182,90)" stroke="rgb(151,182,90)" stroke-width="1" opacity="1" d="M 96.5 74 Q 101 73 102 75.5 L 103 78.5 L 100.5 82 Q 95 83 94 79.5 Q 93.3 74.8 96.5 74 Z "/><path fill="rgb(151,182,90)" stroke="rgb(151,182,90)" stroke-width="1" opacity="1" d="M 59.5 78 L 63 83.5 L 69 101.5 L 66.5 106 Q 64 92 58 81.5 L 59.5 78 Z "/><path fill="rgb(151,182,90)" stroke="rgb(151,182,90)" stroke-width="1" opacity="1" d="M 76.5 94 L 78 98.5 L 79 123.5 L 78 124.5 L 77.5 139 L 75 110.5 L 73 100.5 L 76.5 94 Z "/><path fill="rgb(151,182,90)" stroke="rgb(151,182,90)" stroke-width="1" opacity="1" d="M 105 94 L 109 94 L 109 103.5 L 110.5 103 L 115.5 101 L 121 103 L 122 105.5 L 122 121 L 119 120.5 L 119 108.5 L 116.5 104 Q 111.3 102.8 110 105.5 L 109 107.5 L 109 121 L 105 120.5 L 105 94 Z "/><path fill="rgb(151,182,90)" stroke="rgb(151,182,90)" stroke-width="1" opacity="1" d="M 164 94 L 168 94.5 L 168 121 L 164 120.5 L 164 94 Z "/><path fill="rgb(151,182,90)" stroke="rgb(151,182,90)" stroke-width="1" opacity="1" d="M 175 94 L 179 94 L 179 101.5 L 180.5 101 L 183 102.5 L 179 104 L 179 120.5 L 175 121 L 175 104.5 L 171 104 L 171 102.5 L 173.5 101 L 175 101.5 L 175 94 Z "/><path fill="rgb(151,182,90)" stroke="rgb(151,182,90)" stroke-width="1" opacity="1" d="M 186 94 L 189 94.5 L 189 104.5 L 192.5 102 L 195.5 101 L 199.5 102 L 202 104.5 L 203 107.5 L 203 121 L 199 120.5 L 199 106.5 Q 198 103 192.5 104 L 189 109.5 L 189 121 L 186 120.5 L 186 94 Z "/><path fill="rgb(151,182,90)" stroke="rgb(151,182,90)" stroke-width="1" opacity="1" d="M 243.5 94 Q 248 93 249 95.5 Q 250 100 247.5 101 Q 243 102 242 99.5 Q 241 95 243.5 94 Z M 244 95 L 243 99 L 244 99 L 244 95 Z M 248 95 L 246 98 L 248 99 L 248 95 Z "/><path fill="rgb(151,182,90)" stroke="rgb(151,182,90)" stroke-width="1" opacity="1" d="M 53 98 Q 55.7 96.9 55 99.5 L 58 106.5 L 60 116.5 L 60 136.5 L 58.5 143 L 57 123.5 L 52 107.5 L 52 102.5 L 53 98 Z "/><path fill="rgb(151,182,90)" stroke="rgb(151,182,90)" stroke-width="1" opacity="1" d="M 214.5 101 Q 220.9 101.7 223 106.5 L 223 111 L 209.5 111 L 209 114.5 L 211.5 118 L 218.5 119 L 221.5 117 L 222 118.5 Q 219.4 121.9 212.5 121 L 207 117.5 Q 204.3 115.2 205 109.5 L 210.5 102 L 214.5 101 Z M 214 103 L 212 104 L 209 110 L 219 110 L 220 109 L 219 106 Q 218 102 214 103 Z "/><path fill="rgb(151,182,90)" stroke="rgb(151,182,90)" stroke-width="1" opacity="1" d="M 234.5 101 Q 240.4 101.6 243 105.5 L 244 111 L 230 111 L 230 115.5 Q 231.6 119.9 238.5 119 L 243 117 Q 244.1 119.7 241.5 119 Q 239.2 122.2 232.5 121 L 227 116.5 L 226 107.5 L 229.5 103 L 234.5 101 Z M 234 103 L 230 107 L 230 110 L 240 110 L 239 105 Q 238 102 234 103 Z "/><path fill="rgb(151,182,90)" stroke="rgb(151,182,90)" stroke-width="1" opacity="1" d="M 130.5 102 Q 138.5 100.5 141 104.5 L 143 111 L 129 111 L 129 115.5 Q 130.2 120.3 137.5 119 L 142 117 Q 143.1 119.7 140.5 119 Q 138.2 122.2 131.5 121 L 126 116.5 L 125 107.5 L 128.5 103 L 130.5 102 Z M 133 103 L 129 107 L 129 110 L 139 110 L 138 104 L 133 103 Z "/><path fill="rgb(151,182,90)" stroke="rgb(151,182,90)" stroke-width="1" opacity="1" d="M 149.5 102 Q 158.3 100.3 160 105.5 L 160 118.5 Q 162.8 117.9 162 121 Q 157.5 121.8 155.5 119 Q 153.8 121.8 148.5 121 L 145 118.5 Q 143.8 113.3 146.5 112 L 156 110 Q 157.3 105.4 154.5 104 L 151.5 103 L 146 106 L 147.5 103 L 149.5 102 Z M 155 111 L 151 112 L 148 115 Q 148 119 151 119 Q 155 120 156 117 Q 157 110 155 111 Z "/><path fill="rgb(151,182,90)" stroke="rgb(151,182,90)" stroke-width="1" opacity="1" d="M 70.5 109 L 73 122.5 L 73 144.5 L 72 144.5 L 71 125.5 L 68 114.5 L 70.5 109 Z "/><path fill="rgb(151,182,90)" stroke="rgb(151,182,90)" stroke-width="1" opacity="1" d="M 160.5 130 L 161 138.5 L 163.5 142 Q 167.3 142.8 168 140.5 L 169.5 130 L 170 139.5 L 169 142 L 162.5 143 L 160 140.5 L 160.5 130 Z "/><path fill="rgb(151,182,90)" stroke="rgb(151,182,90)" stroke-width="1" opacity="1" d="M 176.5 130 Q 181.9 128.1 181 131.5 L 179.5 131 Q 174.9 129.8 177 135 L 182 137.5 Q 182.8 142.3 179.5 143 Q 175.8 143.8 175 141.5 L 175.5 140 L 178.5 142 L 180 138.5 L 175 134.5 Q 174.3 130.8 176.5 130 Z "/><path fill="rgb(151,182,90)" stroke="rgb(151,182,90)" stroke-width="1" opacity="1" d="M 190.5 130 L 196 143 Q 193 144.3 194 140.5 L 193 138 L 188 138 L 188 139.5 L 185.5 143 L 185 141.5 L 190.5 130 Z M 191 133 L 189 136 Q 188 139 192 137 L 191 133 Z "/><path fill="rgb(254,254,254)" stroke="rgb(254,254,254)" stroke-width="1" opacity="1" d="M 57.5 36 Q 59.8 35.3 59 37.5 L 59.5 39 Q 57.3 39.8 58 37.5 L 57.5 36 Z "/><path fill="rgb(254,254,254)" stroke="rgb(254,254,254)" stroke-width="1" opacity="1" d="M 60.5 40 L 59.5 42 L 60.5 40 Z "/><path fill="rgb(254,254,254)" stroke="rgb(254,254,254)" stroke-width="1" opacity="1" d="M 100.5 42 L 101 44 L 99 43.5 L 100.5 42 Z "/><path fill="rgb(254,254,254)" stroke="rgb(254,254,254)" stroke-width="1" opacity="1" d="M 21.5 43 L 22 45.5 L 21 45.5 L 21.5 43 Z "/><path fill="rgb(254,254,254)" stroke="rgb(254,254,254)" stroke-width="1" opacity="1" d="M 76.5 45 L 76 46.5 L 67 60.5 L 60 77.5 L 60.5 79 L 59 78.5 L 58 81.5 L 58 83.5 L 55 92.5 L 55 98 Q 51.7 96.7 53 101.5 Q 50.8 102.8 52 107.5 L 52 109.5 L 50 119.5 L 50 141.5 L 52 151.5 L 50 150.5 L 47 133.5 L 47 109.5 L 49 100.5 L 48.5 99 L 50 99.5 L 51 91.5 Q 48.5 90 52 88.5 L 56 77.5 L 55.5 76 L 57 76.5 L 58 73.5 L 56.5 71 L 59 72 L 65 60.5 L 64 58.5 L 65 58.5 L 65.5 60 L 68 56.5 L 67.5 55 Q 69.8 55.8 69 53.5 L 76.5 45 Z "/><path fill="rgb(254,254,254)" stroke="rgb(254,254,254)" stroke-width="1" opacity="1" d="M 98.5 45 L 99.5 47 L 98.5 45 Z "/><path fill="rgb(254,254,254)" stroke="rgb(254,254,254)" stroke-width="1" opacity="1" d="M 23.5 46 L 22.5 48 L 23.5 46 Z "/><path fill="rgb(254,254,254)" stroke="rgb(254,254,254)" stroke-width="1" opacity="1" d="M 37.5 47 L 41 51.5 L 38 49.5 L 37.5 47 Z "/><path fill="rgb(254,254,254)" stroke="rgb(254,254,254)" stroke-width="1" opacity="1" d="M 43.5 53 L 46.5 57 Q 44.7 53.9 43 55.5 L 43.5 53 Z "/><path fill="rgb(254,254,254)" stroke="rgb(254,254,254)" stroke-width="1" opacity="1" d="M 75.5 53 L 72.5 57 L 75.5 53 Z "/><path fill="rgb(254,254,254)" stroke="rgb(254,254,254)" stroke-width="1" opacity="1" d="M 85.5 53 L 87.5 56 L 85.5 53 Z "/><path fill="rgb(254,254,254)" stroke="rgb(254,254,254)" stroke-width="1" opacity="1" d="M 55.5 54 L 59 54.5 L 55.5 55 L 55.5 54 Z "/><path fill="rgb(254,254,254)" stroke="rgb(254,254,254)" stroke-width="1" opacity="1" d="M 52.5 57 L 53 60.5 L 52 60.5 L 52.5 57 Z "/><path fill="rgb(254,254,254)" stroke="rgb(254,254,254)" stroke-width="1" opacity="1" d="M 61.5 57 L 62 60.5 L 61 60.5 L 61.5 57 Z "/><path fill="rgb(254,254,254)" stroke="rgb(254,254,254)" stroke-width="1" opacity="1" d="M 71.5 58 L 72 63.5 L 70 64.5 L 71.5 58 Z "/><path fill="rgb(254,254,254)" stroke="rgb(254,254,254)" stroke-width="1" opacity="1" d="M 48.5 59 L 49.5 61 L 48.5 59 Z "/><path fill="rgb(254,254,254)" stroke="rgb(254,254,254)" stroke-width="1" opacity="1" d="M 94.5 62 L 95 64.5 L 94 64.5 L 94.5 62 Z "/><path fill="rgb(254,254,254)" stroke="rgb(254,254,254)" stroke-width="1" opacity="1" d="M 23.5 63 L 27 64 L 28 67.5 L 27 70 L 18.5 73 L 18.5 72 L 23 70.5 Q 20.3 69.8 21 65.5 L 23.5 63 Z "/><path fill="rgb(254,254,254)" stroke="rgb(254,254,254)" stroke-width="1" opacity="1" d="M 48.5 63 L 49.5 65 L 48.5 63 Z "/><path fill="rgb(254,254,254)" stroke="rgb(254,254,254)" stroke-width="1" opacity="1" d="M 51.5 63 L 52.5 65 L 51.5 63 Z "/><path fill="rgb(254,254,254)" stroke="rgb(254,254,254)" stroke-width="1" opacity="1" d="M 55.5 63 L 59 63.5 L 55.5 64 L 55.5 63 Z "/><path fill="rgb(254,254,254)" stroke="rgb(254,254,254)" stroke-width="1" opacity="1" d="M 103.5 63 L 105 63.5 L 87 78.5 L 86 83 L 82 85.5 L 77 93.5 L 78 97.5 L 77 97.5 L 76.5 94 L 73 101.5 L 74 105.5 L 73 105.5 L 72.5 103 L 68 114.5 L 68 116.5 L 66.5 133 L 65 125.5 L 65 113.5 Q 67.5 112 66 106.5 L 69 100.5 Q 66.5 99 70 97.5 L 72 93.5 L 71 90.5 L 72 90.5 L 72.5 93 Q 77.4 81.9 86.5 75 L 94 69.5 L 93 67.5 L 94 67.5 L 94.5 69 L 103.5 63 Z "/><path fill="rgb(254,254,254)" stroke="rgb(254,254,254)" stroke-width="1" opacity="1" d="M 88.5 64 L 90 66.5 L 89 66.5 L 88.5 64 Z "/><path fill="rgb(254,254,254)" stroke="rgb(254,254,254)" stroke-width="1" opacity="1" d="M 53.5 66 L 54.5 68 L 53.5 66 Z "/><path fill="rgb(254,254,254)" stroke="rgb(254,254,254)" stroke-width="1" opacity="1" d="M 87.5 66 L 85.5 69 L 87.5 66 Z "/><path fill="rgb(254,254,254)" stroke="rgb(254,254,254)" stroke-width="1" opacity="1" d="M 46.5 67 L 51 70.5 L 50.5 72 L 47.5 68 L 46.5 67 Z "/><path fill="rgb(254,254,254)" stroke="rgb(254,254,254)" stroke-width="1" opacity="1" d="M 40.5 68 L 39.5 70 L 40.5 68 Z "/><path fill="rgb(254,254,254)" stroke="rgb(254,254,254)" stroke-width="1" opacity="1" d="M 12.5 70 L 18 70.5 L 15.5 72 L 12.5 71 L 12.5 70 Z "/><path fill="rgb(254,254,254)" stroke="rgb(254,254,254)" stroke-width="1" opacity="1" d="M 38.5 71 L 39 74.5 L 38 74.5 L 38.5 71 Z "/><path fill="rgb(254,254,254)" stroke="rgb(254,254,254)" stroke-width="1" opacity="1" d="M 96.5 73 L 100 73.5 Q 95.8 73.3 94.5 76 L 96.5 73 Z "/><path fill="rgb(254,254,254)" stroke="rgb(254,254,254)" stroke-width="1" opacity="1" d="M 68.5 74 L 69 76.5 L 68 76.5 L 68.5 74 Z "/><path fill="rgb(254,254,254)" stroke="rgb(254,254,254)" stroke-width="1" opacity="1" d="M 39.5 76 L 41.5 79 L 39.5 76 Z "/><path fill="rgb(254,254,254)" stroke="rgb(254,254,254)" stroke-width="1" opacity="1" d="M 91.5 76 L 92 78.5 L 91 78.5 L 91.5 76 Z "/><path fill="rgb(254,254,254)" stroke="rgb(254,254,254)" stroke-width="1" opacity="1" d="M 63 77 Q 66.8 76 68 78.5 Q 69.5 82.9 66.5 82 L 64.5 83 L 62 82.5 L 62.5 81 L 61 80.5 L 63 77 Z "/><path fill="rgb(254,254,254)" stroke="rgb(254,254,254)" stroke-width="1" opacity="1" d="M 30.5 78 L 32.5 81 L 30.5 78 Z "/><path fill="rgb(254,254,254)" stroke="rgb(254,254,254)" stroke-width="1" opacity="1" d="M 38.5 78 L 39.5 80 L 38.5 78 Z "/><path fill="rgb(254,254,254)" stroke="rgb(254,254,254)" stroke-width="1" opacity="1" d="M 43.5 79 L 46 79.5 L 43.5 80 L 43.5 79 Z "/><path fill="rgb(254,254,254)" stroke="rgb(254,254,254)" stroke-width="1" opacity="1" d="M 69.5 79 L 70 81.5 L 69 81.5 L 69.5 79 Z "/><path fill="rgb(254,254,254)" stroke="rgb(254,254,254)" stroke-width="1" opacity="1" d="M 94.5 80 Q 95.8 82.8 100 82.5 L 96.5 83 L 94.5 80 Z "/><path fill="rgb(254,254,254)" stroke="rgb(254,254,254)" stroke-width="1" opacity="1" d="M 42.5 81 L 48.5 88 L 42.5 81 Z "/><path fill="rgb(254,254,254)" stroke="rgb(254,254,254)" stroke-width="1" opacity="1" d="M 75.5 82 L 76 84.5 L 75 84.5 L 75.5 82 Z "/><path fill="rgb(254,254,254)" stroke="rgb(254,254,254)" stroke-width="1" opacity="1" d="M 90.5 82 L 91 84.5 L 90 84.5 L 90.5 82 Z "/><path fill="rgb(254,254,254)" stroke="rgb(254,254,254)" stroke-width="1" opacity="1" d="M 33.5 83 L 34 85.5 L 33 85.5 L 33.5 83 Z "/><path fill="rgb(254,254,254)" stroke="rgb(254,254,254)" stroke-width="1" opacity="1" d="M 70.5 84 L 71 86.5 L 70 86.5 L 70.5 84 Z "/><path fill="rgb(254,254,254)" stroke="rgb(254,254,254)" stroke-width="1" opacity="1" d="M 39.5 86 L 41.5 89 L 39 88.5 L 39.5 86 Z "/><path fill="rgb(254,254,254)" stroke="rgb(254,254,254)" stroke-width="1" opacity="1" d="M 84.5 86 L 85 89.5 L 84 89.5 L 84.5 86 Z "/><path fill="rgb(254,254,254)" stroke="rgb(254,254,254)" stroke-width="1" opacity="1" d="M 89.5 89 L 90 92.5 L 89 92.5 L 89.5 89 Z "/><path fill="rgb(254,254,254)" stroke="rgb(254,254,254)" stroke-width="1" opacity="1" d="M 43.5 91 L 44.5 93 L 43.5 91 Z "/><path fill="rgb(254,254,254)" stroke="rgb(254,254,254)" stroke-width="1" opacity="1" d="M 40.5 92 L 41 95.5 L 40 95.5 L 40.5 92 Z "/><path fill="rgb(254,254,254)" stroke="rgb(254,254,254)" stroke-width="1" opacity="1" d="M 244.5 93 L 247 93.5 L 244.5 94 L 244.5 93 Z "/><path fill="rgb(254,254,254)" stroke="rgb(254,254,254)" stroke-width="1" opacity="1" d="M 45.5 94 L 46.5 96 L 45.5 94 Z "/><path fill="rgb(254,254,254)" stroke="rgb(254,254,254)" stroke-width="1" opacity="1" d="M 189.5 94 L 190 102.5 L 191 103.5 L 189 104.5 L 189.5 94 Z "/><path fill="rgb(254,254,254)" stroke="rgb(254,254,254)" stroke-width="1" opacity="1" d="M 35.5 95 L 36 97.5 L 35 97.5 L 35.5 95 Z "/><path fill="rgb(254,254,254)" stroke="rgb(254,254,254)" stroke-width="1" opacity="1" d="M 246.5 97 L 245.5 99 L 246.5 97 Z "/><path fill="rgb(254,254,254)" stroke="rgb(254,254,254)" stroke-width="1" opacity="1" d="M 88.5 99 L 89 123.5 L 87.5 126 L 87 124.5 L 88 123.5 L 88.5 99 Z "/><path fill="rgb(254,254,254)" stroke="rgb(254,254,254)" stroke-width="1" opacity="1" d="M 132.5 101 L 136 101.5 L 132.5 102 L 132.5 101 Z "/><path fill="rgb(254,254,254)" stroke="rgb(254,254,254)" stroke-width="1" opacity="1" d="M 151.5 101 L 155 101.5 L 151.5 102 L 151.5 101 Z "/><path fill="rgb(254,254,254)" stroke="rgb(254,254,254)" stroke-width="1" opacity="1" d="M 36.5 102 L 37 106.5 L 36 106.5 L 36.5 102 Z "/><path fill="rgb(254,254,254)" stroke="rgb(254,254,254)" stroke-width="1" opacity="1" d="M 157.5 102 L 158.5 104 L 157.5 102 Z "/><path fill="rgb(254,254,254)" stroke="rgb(254,254,254)" stroke-width="1" opacity="1" d="M 219.5 102 L 221.5 105 L 219.5 102 Z "/><path fill="rgb(254,254,254)" stroke="rgb(254,254,254)" stroke-width="1" opacity="1" d="M 41.5 103 L 42 114.5 L 41 114.5 L 41.5 103 Z "/><path fill="rgb(254,254,254)" stroke="rgb(254,254,254)" stroke-width="1" opacity="1" d="M 78.5 103 L 79 112.5 L 78 112.5 L 78.5 103 Z "/><path fill="rgb(254,254,254)" stroke="rgb(254,254,254)" stroke-width="1" opacity="1" d="M 208.5 103 L 206.5 106 L 208.5 103 Z "/><path fill="rgb(254,254,254)" stroke="rgb(254,254,254)" stroke-width="1" opacity="1" d="M 237.5 103 L 238.5 105 L 237.5 103 Z "/><path fill="rgb(254,254,254)" stroke="rgb(254,254,254)" stroke-width="1" opacity="1" d="M 116.5 104 L 117.5 106 L 116.5 104 Z "/><path fill="rgb(254,254,254)" stroke="rgb(254,254,254)" stroke-width="1" opacity="1" d="M 211.5 104 L 210.5 106 L 211.5 104 Z "/><path fill="rgb(254,254,254)" stroke="rgb(254,254,254)" stroke-width="1" opacity="1" d="M 58.5 107 L 59 109.5 L 58 109.5 L 58.5 107 Z "/><path fill="rgb(254,254,254)" stroke="rgb(254,254,254)" stroke-width="1" opacity="1" d="M 219.5 107 L 220 108.5 L 218.5 110 L 209 110 L 209.5 108 L 210.5 109 L 219 109 L 219.5 107 Z "/><path fill="rgb(254,254,254)" stroke="rgb(254,254,254)" stroke-width="1" opacity="1" d="M 118.5 108 L 119 120.5 L 118 120.5 L 118.5 108 Z "/><path fill="rgb(254,254,254)" stroke="rgb(254,254,254)" stroke-width="1" opacity="1" d="M 84.5 109 L 85 112.5 L 84 112.5 L 84.5 109 Z "/><path fill="rgb(254,254,254)" stroke="rgb(254,254,254)" stroke-width="1" opacity="1" d="M 129.5 109 L 139 109.5 L 129.5 110 L 129.5 109 Z "/><path fill="rgb(254,254,254)" stroke="rgb(254,254,254)" stroke-width="1" opacity="1" d="M 189.5 109 L 190 120.5 L 189 120.5 L 189.5 109 Z "/><path fill="rgb(254,254,254)" stroke="rgb(254,254,254)" stroke-width="1" opacity="1" d="M 223.5 109 L 224 110.5 L 222.5 112 L 209.5 112 L 209.5 111 L 222.5 111 L 223.5 109 Z "/><path fill="rgb(254,254,254)" stroke="rgb(254,254,254)" stroke-width="1" opacity="1" d="M 225.5 109 L 226 112.5 L 225 112.5 L 225.5 109 Z "/><path fill="rgb(254,254,254)" stroke="rgb(254,254,254)" stroke-width="1" opacity="1" d="M 230.5 109 L 240 109.5 L 230.5 110 L 230.5 109 Z "/><path fill="rgb(254,254,254)" stroke="rgb(254,254,254)" stroke-width="1" opacity="1" d="M 74.5 110 L 75 113.5 L 74 113.5 L 74.5 110 Z "/><path fill="rgb(254,254,254)" stroke="rgb(254,254,254)" stroke-width="1" opacity="1" d="M 71.5 111 L 72 113.5 L 71 113.5 L 71.5 111 Z "/><path fill="rgb(254,254,254)" stroke="rgb(254,254,254)" stroke-width="1" opacity="1" d="M 129.5 111 L 143 111.5 L 129.5 112 L 129.5 111 Z "/><path fill="rgb(254,254,254)" stroke="rgb(254,254,254)" stroke-width="1" opacity="1" d="M 230.5 111 L 244 111.5 L 230.5 112 L 230.5 111 Z "/><path fill="rgb(254,254,254)" stroke="rgb(254,254,254)" stroke-width="1" opacity="1" d="M 59.5 112 L 60 115.5 L 59 115.5 L 59.5 112 Z "/><path fill="rgb(254,254,254)" stroke="rgb(254,254,254)" stroke-width="1" opacity="1" d="M 37.5 113 L 38 134.5 L 39 136.5 L 37.5 139 L 37.5 113 Z "/><path fill="rgb(254,254,254)" stroke="rgb(254,254,254)" stroke-width="1" opacity="1" d="M 148.5 114 L 149 116.5 L 148 116.5 L 148.5 114 Z "/><path fill="rgb(254,254,254)" stroke="rgb(254,254,254)" stroke-width="1" opacity="1" d="M 210.5 116 L 211.5 118 L 210.5 116 Z "/><path fill="rgb(254,254,254)" stroke="rgb(254,254,254)" stroke-width="1" opacity="1" d="M 221.5 116 Q 223.8 115.3 223 117.5 L 220 117.5 L 221.5 116 Z "/><path fill="rgb(254,254,254)" stroke="rgb(254,254,254)" stroke-width="1" opacity="1" d="M 126.5 117 L 128.5 120 L 126.5 117 Z "/><path fill="rgb(254,254,254)" stroke="rgb(254,254,254)" stroke-width="1" opacity="1" d="M 227.5 117 L 229.5 120 L 227.5 117 Z "/><path fill="rgb(254,254,254)" stroke="rgb(254,254,254)" stroke-width="1" opacity="1" d="M 72.5 118 L 73 121.5 L 72 121.5 L 72.5 118 Z "/><path fill="rgb(254,254,254)" stroke="rgb(254,254,254)" stroke-width="1" opacity="1" d="M 75.5 119 L 76 124.5 L 75 124.5 L 75.5 119 Z "/><path fill="rgb(254,254,254)" stroke="rgb(254,254,254)" stroke-width="1" opacity="1" d="M 40.5 122 L 41 125.5 L 40 125.5 L 40.5 122 Z "/><path fill="rgb(254,254,254)" stroke="rgb(254,254,254)" stroke-width="1" opacity="1" d="M 60.5 122 L 61 130.5 L 60 130.5 L 60.5 122 Z "/><path fill="rgb(254,254,254)" stroke="rgb(254,254,254)" stroke-width="1" opacity="1" d="M 56.5 123 L 57 125.5 L 56 125.5 L 56.5 123 Z "/><path fill="rgb(254,254,254)" stroke="rgb(254,254,254)" stroke-width="1" opacity="1" d="M 78.5 124 L 79 132.5 L 78 132.5 L 78.5 124 Z "/><path fill="rgb(254,254,254)" stroke="rgb(254,254,254)" stroke-width="1" opacity="1" d="M 70.5 125 L 71 127.5 L 70 127.5 L 70.5 125 Z "/><path fill="rgb(254,254,254)" stroke="rgb(254,254,254)" stroke-width="1" opacity="1" d="M 88.5 127 L 89.5 129 Q 86.7 129.7 88.5 127 Z "/><path fill="rgb(254,254,254)" stroke="rgb(254,254,254)" stroke-width="1" opacity="1" d="M 39.5 129 L 40 131.5 L 39 131.5 L 39.5 129 Z "/><path fill="rgb(254,254,254)" stroke="rgb(254,254,254)" stroke-width="1" opacity="1" d="M 57.5 130 L 58 134.5 L 57 134.5 L 57.5 130 Z "/><path fill="rgb(254,254,254)" stroke="rgb(254,254,254)" stroke-width="1" opacity="1" d="M 159.5 130 L 160 139.5 L 159 139.5 L 159.5 130 Z "/><path fill="rgb(254,254,254)" stroke="rgb(254,254,254)" stroke-width="1" opacity="1" d="M 161.5 130 L 162 138.5 L 161 138.5 L 161.5 130 Z "/><path fill="rgb(254,254,254)" stroke="rgb(254,254,254)" stroke-width="1" opacity="1" d="M 181.5 130 L 182 131.5 L 180 132.5 L 181.5 130 Z "/><path fill="rgb(254,254,254)" stroke="rgb(254,254,254)" stroke-width="1" opacity="1" d="M 76.5 131 L 78 142 L 76 141.5 L 76.5 131 Z "/><path fill="rgb(254,254,254)" stroke="rgb(254,254,254)" stroke-width="1" opacity="1" d="M 71.5 133 L 72 138.5 L 71 138.5 L 71.5 133 Z "/><path fill="rgb(254,254,254)" stroke="rgb(254,254,254)" stroke-width="1" opacity="1" d="M 175.5 135 L 176.5 137 L 175.5 135 Z "/><path fill="rgb(254,254,254)" stroke="rgb(254,254,254)" stroke-width="1" opacity="1" d="M 189.5 135 L 192 135.5 Q 192.7 138.5 189 137 L 189.5 135 Z "/><path fill="rgb(254,254,254)" stroke="rgb(254,254,254)" stroke-width="1" opacity="1" d="M 59.5 137 L 60 141.5 L 59 141.5 L 59.5 137 Z "/><path fill="rgb(254,254,254)" stroke="rgb(254,254,254)" stroke-width="1" opacity="1" d="M 163.5 141 Q 167.3 140.3 168 142.5 L 166.5 142 Q 162.5 142.8 163.5 141 Z "/><path fill="rgb(254,254,254)" stroke="rgb(254,254,254)" stroke-width="1" opacity="1" d="M 174.5 141 L 175.5 143 L 174.5 141 Z "/><path fill="rgb(254,254,254)" stroke="rgb(254,254,254)" stroke-width="1" opacity="1" d="M 58.5 143 L 59 145.5 L 58 145.5 L 58.5 143 Z "/><path fill="rgb(254,254,254)" stroke="rgb(254,254,254)" stroke-width="1" opacity="1" d="M 72.5 145 L 73 147.5 L 72 147.5 L 72.5 145 Z "/><path fill="rgb(255,255,255)" stroke="rgb(255,255,255)" stroke-width="1" opacity="1" d="M 0 0 L 267 0 L 267 189 L 0 189 L 0 0 Z M 58 36 L 65 61 L 59 71 Q 60 73 58 72 L 47 57 L 38 49 Q 49 61 56 78 L 51 90 L 49 88 Q 44 81 37 78 Q 33 58 22 44 L 21 44 L 31 74 L 18 70 L 12 71 L 29 77 L 33 82 L 35 92 L 36 107 L 37 108 L 38 139 L 40 132 L 41 116 L 42 115 L 42 104 L 41 103 L 41 93 L 40 92 L 41 88 L 49 101 L 47 110 L 47 134 L 50 151 L 52 152 L 50 142 L 50 120 Q 53 118 51 112 L 53 109 L 57 127 L 59 146 Q 61 141 60 132 L 61 131 L 60 113 L 55 99 L 55 93 L 59 83 L 66 104 L 66 113 L 65 114 L 65 126 L 67 133 L 69 116 L 71 129 L 72 148 L 73 148 L 73 119 L 71 111 L 73 103 L 74 107 L 75 125 L 76 126 L 76 142 L 78 142 L 78 134 L 79 133 L 79 104 L 77 94 L 82 86 L 85 84 L 84 87 L 84 113 L 88 127 Q 87 130 90 129 L 89 128 L 89 94 L 90 93 L 92 75 L 100 68 L 102 65 L 96 68 L 93 70 L 101 44 L 101 42 Q 91 55 87 75 L 77 86 L 71 67 L 72 64 L 72 66 L 78 70 L 86 69 L 90 62 L 88 56 L 84 52 L 76 53 Q 70 55 71 63 L 69 60 L 76 48 L 76 46 L 69 54 Q 70 56 67 55 L 67 53 L 59 38 Q 60 35 58 36 Z M 56 54 Q 51 55 52 61 Q 53 65 59 64 Q 63 63 62 58 Q 61 53 56 54 Z M 24 63 L 21 66 Q 20 70 24 71 L 27 70 L 28 68 L 27 64 L 24 63 Z M 104 63 L 103 65 L 105 64 L 104 63 Z M 43 67 L 41 68 L 38 72 L 39 77 L 44 80 L 50 78 Q 52 76 51 71 Q 50 66 43 67 Z M 97 73 L 93 78 L 97 83 L 102 82 L 103 80 L 102 74 L 97 73 Z M 176 93 L 175 101 L 171 101 L 171 104 L 175 105 L 175 121 L 179 121 L 179 104 L 183 104 Q 185 99 179 101 L 179 94 L 178 94 L 176 93 Z M 245 93 L 241 97 L 242 100 Q 243 102 248 101 L 250 98 L 249 96 Q 249 93 245 93 Z M 105 94 L 105 121 L 109 121 L 109 108 L 110 105 L 116 104 L 118 107 L 118 121 L 122 121 L 122 105 L 118 101 L 112 102 L 109 104 L 109 94 L 105 94 Z M 164 94 L 164 121 L 168 121 L 168 95 L 164 94 Z M 186 94 L 186 121 L 190 121 L 190 107 Q 191 103 197 104 L 199 108 L 199 121 L 203 121 L 203 107 L 202 105 L 198 101 Q 193 100 192 103 L 190 103 L 190 94 L 186 94 Z M 133 101 L 130 102 L 125 107 L 124 111 L 126 118 L 131 121 Q 139 123 142 119 L 142 116 L 137 119 L 132 118 L 129 115 L 130 112 L 143 112 L 142 106 Q 140 101 133 101 Z M 152 101 L 148 103 Q 144 102 146 106 L 150 104 L 155 104 Q 157 105 156 109 L 155 110 L 148 111 L 144 116 L 148 121 L 156 120 Q 157 118 159 121 Q 162 122 163 120 L 160 119 L 160 106 L 159 104 Q 157 100 152 101 Z M 213 101 L 209 103 L 205 109 L 206 117 L 212 121 L 221 120 L 223 116 L 218 119 L 213 118 L 209 113 L 223 112 L 224 111 L 222 105 Q 220 100 213 101 Z M 233 101 L 231 102 L 225 110 L 227 118 L 232 121 Q 240 123 243 119 L 243 116 L 238 119 L 233 118 L 230 115 L 231 112 L 244 112 L 243 106 Q 241 100 233 101 Z M 179 129 L 177 130 Q 174 131 175 136 L 179 138 Q 181 137 180 141 L 178 142 Q 176 138 174 142 Q 175 144 180 143 Q 183 142 182 138 L 177 134 Q 176 129 180 131 L 181 133 L 182 130 L 179 129 Z M 159 130 Q 158 138 160 142 Q 162 144 168 143 L 170 141 L 170 132 L 171 131 L 169 130 L 169 132 L 168 141 L 162 141 L 162 131 L 159 130 Z M 191 130 L 185 142 Q 184 144 187 143 L 188 141 Q 187 136 192 138 L 194 143 L 197 143 L 192 133 Q 193 129 191 130 Z "/><path fill="rgb(255,255,255)" stroke="rgb(255,255,255)" stroke-width="1" opacity="1" d="M 65.5 65 L 72 93.5 L 68.5 99 Q 66.8 88.8 62 81.5 L 64.5 83 L 68 82 Q 69 78.2 66.5 77 Q 62.1 75.5 63 78.5 L 61 79.5 L 60 77.5 L 65.5 65 Z "/><path fill="rgb(255,255,255)" stroke="rgb(255,255,255)" stroke-width="1" opacity="1" d="M 243.5 96 L 244 98.5 L 243 98.5 L 243.5 96 Z "/><path fill="rgb(255,255,255)" stroke="rgb(255,255,255)" stroke-width="1" opacity="1" d="M 247.5 96 L 248 98.5 L 247 98.5 L 247.5 96 Z "/><path fill="rgb(255,255,255)" stroke="rgb(255,255,255)" stroke-width="1" opacity="1" d="M 133.5 103 L 138 105.5 L 139 109 L 129.5 109 L 129 107.5 L 131.5 104 L 133.5 103 Z "/><path fill="rgb(255,255,255)" stroke="rgb(255,255,255)" stroke-width="1" opacity="1" d="M 213.5 103 L 219 105.5 L 219 109 L 210 109 Q 209.3 104.3 213.5 103 Z "/><path fill="rgb(255,255,255)" stroke="rgb(255,255,255)" stroke-width="1" opacity="1" d="M 234.5 103 Q 238.5 102.5 239 105.5 L 240 109 L 230.5 109 L 230 107.5 L 232.5 104 L 234.5 103 Z "/><path fill="rgb(255,255,255)" stroke="rgb(255,255,255)" stroke-width="1" opacity="1" d="M 155.5 111 L 156 116.5 L 150.5 119 Q 147.8 117.6 149 113 L 155.5 111 Z "/></svg>