<?xml version="1.0" encoding="UTF-8"?><svg xmlns="http://www.w3.org/2000/svg" version="1.1" width="606" height="306" viewBox="245 152 606 306">
<path d="M0 0 C3.31248187 -0.02888146 6.62493167 -0.04675799 9.9375 -0.0625 C10.88302734 -0.07087891 11.82855469 -0.07925781 12.80273438 -0.08789062 C14.15141602 -0.09272461 14.15141602 -0.09272461 15.52734375 -0.09765625 C16.77632446 -0.10551147 16.77632446 -0.10551147 18.05053711 -0.11352539 C20 0 20 0 21 1 C21.10161714 2.47210816 21.13567763 3.94896222 21.1418457 5.42456055 C21.14888016 6.36611496 21.15591461 7.30766937 21.16316223 8.27775574 C21.16732651 9.30371353 21.17149078 10.32967133 21.17578125 11.38671875 C21.19898741 13.54362947 21.22310506 15.70053053 21.24804688 17.85742188 C21.28312529 21.2698402 21.31247795 24.681906 21.32592773 28.09448242 C21.34142355 31.37983395 21.38165648 34.66414316 21.42578125 37.94921875 C21.42387283 38.96505539 21.42196442 39.98089203 21.41999817 41.0275116 C21.52246593 46.97586682 22.03078275 50.46820553 26 55 C29.82263826 57.20688394 33.48330375 57.08611604 37.75 56.375 C41.06765074 54.97137853 42.78604537 53.81001933 45 51 C45.94734875 48.15795374 46.14463654 46.31307821 46.18945312 43.36083984 C46.21452942 41.95455826 46.21452942 41.95455826 46.2401123 40.51986694 C46.25368774 39.51042023 46.26726318 38.50097351 46.28125 37.4609375 C46.29965942 36.4243399 46.31806885 35.38774231 46.33703613 34.31973267 C46.41583516 29.87699848 46.48364718 25.43411252 46.55224609 20.99121094 C46.60382188 17.75187324 46.66111652 14.51267214 46.71875 11.2734375 C46.73232544 10.25994232 46.74590088 9.24644714 46.7598877 8.20223999 C46.78496399 6.80541489 46.78496399 6.80541489 46.81054688 5.38037109 C46.82933899 4.14485001 46.82933899 4.14485001 46.84851074 2.8843689 C47 1 47 1 48 0 C54.6 0 61.2 0 68 0 C68 24.42 68 48.84 68 74 C61.4 74 54.8 74 48 74 C47.67 70.37 47.34 66.74 47 63 C45.5459375 64.85625 45.5459375 64.85625 44.0625 66.75 C39.43114868 71.97416429 35.03264683 74.42780011 28.109375 75.41015625 C20.68604689 75.78132266 15.11335291 74.23318728 9 70 C3.34926238 64.84063087 0.52085786 57.51508758 -0.34924316 49.9725647 C-0.45867018 46.7515061 -0.45096311 43.5543367 -0.390625 40.33203125 C-0.38496521 39.17120529 -0.37930542 38.01037933 -0.37347412 36.81437683 C-0.35127982 33.14664539 -0.30111402 29.47993069 -0.25 25.8125 C-0.22991316 23.30925901 -0.21166625 20.80600254 -0.1953125 18.30273438 C-0.15147074 12.20148244 -0.08473019 6.10081389 0 0 Z " fill="#2764E7" transform="translate(580,279)"/>
<path d="M0 0 C6.6 0 13.2 0 20 0 C20.03738281 3.21621094 20.07476562 6.43242187 20.11328125 9.74609375 C20.15957968 12.88377426 20.21078311 16.0213394 20.26245117 19.15893555 C20.29556998 21.32845973 20.32364193 23.49806738 20.34643555 25.66772461 C20.38022212 28.79837389 20.43254978 31.92826726 20.48828125 35.05859375 C20.49467117 36.01833603 20.5010611 36.97807831 20.50764465 37.96690369 C20.63170061 43.73454317 20.91164808 49.95198347 24 55 C28.68382145 56.75327521 34.09059255 56.52444709 39 56 C43.20600983 53.68240275 44.49771446 51.44684782 46 47 C46.32024906 44.60133665 46.32024906 44.60133665 46.31884766 42.11791992 C46.33871735 41.17732224 46.35858704 40.23672455 46.37905884 39.2676239 C46.39061005 38.2653627 46.40216125 37.2631015 46.4140625 36.23046875 C46.43342865 35.19432938 46.4527948 34.15819 46.4727478 33.09065247 C46.53240357 29.78968471 46.57887331 26.48868181 46.625 23.1875 C46.66319263 20.94594855 46.70224511 18.70441158 46.7421875 16.46289062 C46.83809377 10.97537833 46.92217685 5.48779734 47 0 C53.6 0 60.2 0 67 0 C67.92242233 16.29128576 68.12139669 32.49811575 68.0625 48.8125 C68.05746876 51.27018137 68.05290876 53.72786375 68.04882812 56.18554688 C68.0379655 62.12372356 68.02079296 68.06185013 68 74 C61.4 74 54.8 74 48 74 C47.67 70.04 47.34 66.08 47 62 C46.443125 62.9075 45.88625 63.815 45.3125 64.75 C41.66177906 69.88074294 37.17763384 73.43589963 31 75 C23.35437443 75.88505847 16.46702315 75.43133832 10 71 C4.60005913 66.14742156 0.43218535 60.59851949 -0.26226807 53.20942688 C-0.34655711 49.82451217 -0.33706646 46.45209183 -0.29296875 43.06640625 C-0.28872391 41.83333237 -0.28447906 40.60025848 -0.28010559 39.32981873 C-0.26336737 35.40715326 -0.22572265 31.48500914 -0.1875 27.5625 C-0.17075097 24.89649189 -0.15875969 22.23048868 -0.14648438 19.56445312 C-0.11347951 13.04276911 -0.06172939 6.52147283 0 0 Z " fill="#2763E4" transform="translate(433,279)"/>
<path d="M0 0 C4.64147968 3.97841115 8.94839509 8.21422234 10.625 14.25 C10.625 15.24 10.625 16.23 10.625 17.25 C7.31505287 18.90497356 3.63377 18.35084335 0 18.3125 C-0.80179688 18.30798828 -1.60359375 18.30347656 -2.4296875 18.29882812 C-4.41149006 18.28703168 -6.39325433 18.26909605 -8.375 18.25 C-8.65214844 17.45207031 -8.92929687 16.65414063 -9.21484375 15.83203125 C-10.15175659 13.02738154 -10.15175659 13.02738154 -12.9375 11.9375 C-17.85124038 10.95475192 -22.79952908 10.33728925 -27.6015625 12.0390625 C-29.81199997 13.24742369 -29.81199997 13.24742369 -30.125 16.875 C-30.2075 17.98875 -30.29 19.1025 -30.375 20.25 C-26.85139725 22.56822295 -23.85796336 23.799754 -19.734375 24.64453125 C-18.66316406 24.87849609 -17.59195313 25.11246094 -16.48828125 25.35351562 C-14.26340456 25.82252273 -12.03683852 26.28359288 -9.80859375 26.73632812 C-2.18769578 28.42022714 5.27445751 30.69150316 10.09448242 37.24926758 C13.17543379 42.53650219 13.33873991 47.3623954 12.2578125 53.25 C10.18449482 60.52081267 4.5914595 64.84853812 -1.671875 68.640625 C-11.97161213 73.2984679 -27.09618217 73.13692333 -37.75 69.625 C-44.82991929 66.416035 -49.33723891 62.25194633 -52.74609375 55.27734375 C-53.4959595 52.86007467 -53.48402439 50.766283 -53.375 48.25 C-50.12568073 48.07544979 -46.87756552 47.96908247 -43.625 47.875 C-42.70460938 47.82472656 -41.78421875 47.77445312 -40.8359375 47.72265625 C-38.22150187 47.66582069 -35.92907103 47.67964583 -33.375 48.25 C-30.9609375 51.1796875 -30.9609375 51.1796875 -29.375 54.25 C-23.27665428 56.7734534 -17.58266785 56.6153753 -11.375 54.25 C-9.12878427 51.50394157 -9.12878427 51.50394157 -9.4375 48.75 C-10.74451517 45.26462621 -12.00222505 44.86656215 -15.375 43.25 C-19.86749566 42.04118912 -24.44130176 41.19896362 -29.0078125 40.3203125 C-36.96456244 38.66356457 -44.46731482 36.35099067 -49.375 29.5 C-52.54213359 23.63860346 -53.11855118 18.04344779 -51.375 11.625 C-49.05383316 5.68737232 -45.44848873 1.71760202 -39.68359375 -1.03515625 C-26.5601745 -6.01669907 -12.73779297 -6.60478154 0 0 Z " fill="#2764E6" transform="translate(711.375,282.75)"/>
<path d="M0 0 C6.6 0 13.2 0 20 0 C20.13611338 9.83227241 20.24595097 19.6639086 20.31087303 29.49691391 C20.34204875 34.06389408 20.38426573 38.63019055 20.45263672 43.19677734 C20.51832602 47.61240506 20.55380923 52.02737953 20.56926346 56.44345856 C20.58026175 58.11946126 20.60173703 59.79543239 20.63438034 61.47115326 C20.82847323 71.85764239 20.30832019 80.20478588 14 89 C6.97041378 96.11048557 -1.07356486 99.32243514 -11.0402832 99.46801758 C-11.83136475 99.45794678 -12.62244629 99.44787598 -13.4375 99.4375 C-14.68309692 99.42722778 -14.68309692 99.42722778 -15.95385742 99.41674805 C-25.158118 99.17593104 -32.49689647 96.80557346 -39 90 C-43.77966195 83.57083515 -44.69929941 77.91844877 -45 70 C-38.07 70 -31.14 70 -24 70 C-23.01 73.3 -22.02 76.6 -21 80 C-14.04014267 82.00652788 -14.04014267 82.00652788 -7.0625 81.0625 C-3.39637413 78.59347645 -2.24308611 76.10167952 -1 72 C-0.53580655 68.39011652 -0.53580655 68.39011652 -0.56762695 64.59594727 C-0.5574353 63.892668 -0.54724365 63.18938873 -0.53674316 62.46479797 C-0.50680981 60.16525097 -0.49737791 57.86612181 -0.48828125 55.56640625 C-0.47141989 53.96213925 -0.45326769 52.35788535 -0.43388367 50.75364685 C-0.38653548 46.55010063 -0.35662829 42.34660752 -0.33044434 38.1428833 C-0.30056183 33.84579993 -0.25405806 29.54889925 -0.20898438 25.25195312 C-0.12312401 16.83471037 -0.0572403 8.41748608 0 0 Z " fill="#2563E9" transform="translate(399,255)"/>
<path d="M0 0 C6.93 0 13.86 0 21 0 C21 32.34 21 64.68 21 98 C14.07 98 7.14 98 0 98 C0 65.66 0 33.32 0 0 Z " fill="#2563E9" transform="translate(513,255)"/>
<path d="M0 0 C6.6 0 13.2 0 20 0 C20 24.42 20 48.84 20 74 C13.4 74 6.8 74 0 74 C0 49.58 0 25.16 0 0 Z " fill="#2463E9" transform="translate(547,279)"/>
<path d="M0 0 C6.93 0 13.86 0 21 0 C21 32.34 21 64.68 21 98 C14.07 98 7.14 98 0 98 C0 65.66 0 33.32 0 0 Z M2 1 C2 32.35 2 63.7 2 96 C7.61 96 13.22 96 19 96 C19 64.65 19 33.3 19 1 C13.39 1 7.78 1 2 1 Z " fill="#4470C9" transform="translate(513,255)"/>
<path d="M0 0 C6.6 0 13.2 0 20 0 C20.13611338 9.83227241 20.24595097 19.6639086 20.31087303 29.49691391 C20.34204875 34.06389408 20.38426573 38.63019055 20.45263672 43.19677734 C20.51832602 47.61240506 20.55380923 52.02737953 20.56926346 56.44345856 C20.58026175 58.11946126 20.60173703 59.79543239 20.63438034 61.47115326 C20.835567 72.23725159 20.01417358 79.72834441 14 89 C13.01 89 12.02 89 11 89 C11.25 86.625 11.25 86.625 12 84 C13.33333333 83.33333333 14.66666667 82.66666667 16 82 C17.1928513 77.91438245 17.16974918 73.77109487 17.20532227 69.54760742 C17.21522186 68.8153595 17.22512146 68.08311157 17.23532104 67.32867432 C17.26677625 64.92097143 17.29162989 62.51324884 17.31640625 60.10546875 C17.3369896 58.43109133 17.35798643 56.75671895 17.37937927 55.08235168 C17.43445738 50.68478484 17.48392929 46.28717221 17.53222656 41.88952637 C17.58254599 37.39831488 17.63817745 32.90716953 17.69335938 28.41601562 C17.80076643 19.61073159 17.90175869 10.80539108 18 2 C12.72 2 7.44 2 2 2 C2 25.76 2 49.52 2 74 C1.34 74 0.68 74 0 74 C0 49.58 0 25.16 0 0 Z " fill="#2D62CA" transform="translate(399,255)"/>
<path d="M0 0 C2.61854734 1.79798873 3.34165855 3.11127618 5 6 C5.8063677 10.51565913 5.34922928 12.39166513 3.0625 16.375 C0.17288655 19.44572882 -2.7326661 19.98029842 -6.8515625 20.171875 C-10.89591363 19.84832691 -12.99777443 17.96766607 -15.8125 15.25 C-17.54568109 11.96607794 -17.44932633 9.65880015 -17 6 C-12.75251259 -0.82631905 -7.51968055 -2.27463646 0 0 Z " fill="#2663E7" transform="translate(563,250)"/>
<path d="M0 0 C6.6 0 13.2 0 20 0 C20 24.42 20 48.84 20 74 C13.4 74 6.8 74 0 74 C0 49.58 0 25.16 0 0 Z M2 2 C2 25.1 2 48.2 2 72 C7.28 72 12.56 72 18 72 C18 48.9 18 25.8 18 2 C12.72 2 7.44 2 2 2 Z " fill="#3263C9" transform="translate(547,279)"/>
<path d="M0 0 C6.6 0 13.2 0 20 0 C20 24.42 20 48.84 20 74 C13.4 74 6.8 74 0 74 C-0.33 70.37 -0.66 66.74 -1 63 C-2.4540625 64.85625 -2.4540625 64.85625 -3.9375 66.75 C-8.57551304 71.98167871 -13.01068965 74.54749674 -19.99609375 75.33984375 C-26.09669417 75.53024951 -30.63649121 74.92555025 -36 72 C-32.98968256 71.06576355 -32.13349732 70.95550089 -29 72 C-26.68909583 72.0954687 -24.37537025 72.12985387 -22.0625 72.125 C-20.22365234 72.12886719 -20.22365234 72.12886719 -18.34765625 72.1328125 C-15.67237569 72.02667535 -13.53072572 71.79917654 -11 71 C-11 70.34 -11 69.68 -11 69 C-9.02709413 66.65130253 -7.99693138 65.99897713 -5 65 C-4.67 63.35 -4.34 61.7 -4 60 C-2.35 60 -0.7 60 1 60 C1 64.29 1 68.58 1 73 C6.94 73 12.88 73 19 73 C19 49.24 19 25.48 19 1 C12.73 1 6.46 1 0 1 C0 0.67 0 0.34 0 0 Z " fill="#4D78CC" transform="translate(628,279)"/>
<path d="M0 0 C6.6 0 13.2 0 20 0 C21.62607636 1.62607636 21.16590931 3.45683065 21.20532227 5.70336914 C21.22526749 6.70433121 21.24521271 7.70529327 21.26576233 8.73658752 C21.28247482 9.8251152 21.29918732 10.91364288 21.31640625 12.03515625 C21.33718735 13.14354355 21.35796844 14.25193085 21.37937927 15.39390564 C21.44499623 18.95003808 21.50381596 22.50624703 21.5625 26.0625 C21.60567368 28.46680493 21.64928758 30.87110199 21.69335938 33.27539062 C21.80068992 39.18351185 21.90243331 45.09170991 22 51 C21.34 51 20.68 51 20 51 C18.80208827 48.60417654 18.8793256 47.13222462 18.88647461 44.45849609 C18.88655014 43.51767181 18.88662567 42.57684753 18.88670349 41.60751343 C18.89444542 40.08089584 18.89444542 40.08089584 18.90234375 38.5234375 C18.9037587 37.48305328 18.90517365 36.44266907 18.90663147 35.37075806 C18.91224134 32.03880979 18.92479553 28.70692805 18.9375 25.375 C18.94251373 23.11979264 18.94707686 20.86458422 18.95117188 18.609375 C18.96221398 13.07289093 18.97948525 7.53645675 19 2 C13.39 2 7.78 2 2 2 C1.67 18.83 1.34 35.66 1 53 C0.67 53 0.34 53 0 53 C0 35.51 0 18.02 0 0 Z " fill="#507BCF" transform="translate(580,279)"/>
<path d="M0 0 C0.33 0 0.66 0 1 0 C1 17.49 1 34.98 1 53 C-5.6 53 -12.2 53 -19 53 C-19.33 49.04 -19.66 45.08 -20 41 C-21.32 42.98 -22.64 44.96 -24 47 C-24.33 45.68 -24.66 44.36 -25 43 C-24.01 42.505 -24.01 42.505 -23 42 C-22.67 41.01 -22.34 40.02 -22 39 C-20.35 39.33 -18.7 39.66 -17 40 C-17 43.63 -17 47.26 -17 51 C-11.72 51 -6.44 51 -1 51 C-0.67 34.17 -0.34 17.34 0 0 Z " fill="#5F88D7" transform="translate(500,300)"/>
<path d="M0 0 C0.73605469 0.43699219 1.47210937 0.87398438 2.23046875 1.32421875 C8.19783552 4.31052631 15.1285977 5.16291615 21.61523438 6.48632812 C29.21420371 8.1724494 36.66361332 10.46151652 41.46972656 16.99926758 C44.54427774 22.27669758 44.91784845 27.32200297 43.45703125 33.17578125 C42.11384759 37.23501584 40.89619995 39.85037244 37 42 C37 40.68 37 39.36 37 38 C37.66 38 38.32 38 39 38 C39 37.01 39 36.02 39 35 C39.66 35 40.32 35 41 35 C41.59289444 26.48001009 41.59289444 26.48001009 39.3125 18.4375 C34.00759836 12.84584692 29.62693837 11.03371987 22.25 9.375 C21.3940625 9.17132813 20.538125 8.96765625 19.65625 8.7578125 C16.26590321 7.9564578 12.88076856 7.16890988 9.45898438 6.51269531 C8.66298828 6.35639648 7.86699219 6.20009766 7.046875 6.0390625 C6.33885742 5.90967285 5.63083984 5.7802832 4.90136719 5.64697266 C2.59922145 4.86362826 1.50982213 3.88875556 0 2 C0 1.34 0 0.68 0 0 Z " fill="#4471CC" transform="translate(680,303)"/>
<path d="M0 0 C0 0.33 0 0.66 0 1 C-1.65 1 -3.3 1 -5 1 C-5.495 0.01 -5.495 0.01 -6 -1 C-10.80901133 -2.60300378 -15.7136407 -2.226131 -20.75 -2.25 C-21.8225 -2.270625 -22.895 -2.29125 -24 -2.3125 C-30.21073308 -2.34309474 -34.46945388 -1.80963573 -40 1 C-40.99 1 -41.98 1 -43 1 C-43 1.66 -43 2.32 -43 3 C-44.65 3.33 -46.3 3.66 -48 4 C-44.54874086 -1.91644424 -39.22675605 -3.17664537 -33 -5 C-22.10812378 -7.66739826 -9.37714853 -6.37099527 0 0 Z " fill="#4070CC" transform="translate(713,284)"/>
<path d="M0 0 C6.6 0 13.2 0 20 0 C20 0.33 20 0.66 20 1 C13.73 1 7.46 1 1 1 C1.02094727 2.41740479 1.04189453 3.83480957 1.06347656 5.29516602 C1.13606421 10.57110428 1.1818684 15.84699867 1.21972656 21.12329102 C1.2397992 23.40364005 1.26706343 25.68393789 1.30175781 27.96411133 C1.35046609 31.24833842 1.37301286 34.53188292 1.390625 37.81640625 C1.41127014 38.83021866 1.43191528 39.84403107 1.45318604 40.88856506 C1.45515802 47.15760888 0.63238115 50.84993711 -3 56 C-3.66 56 -4.32 56 -5 56 C-5 56.66 -5 57.32 -5 58 C-6.875 58.625 -6.875 58.625 -9 59 C-9.66 58.34 -10.32 57.68 -11 57 C-9.906875 56.46375 -8.81375 55.9275 -7.6875 55.375 C-3.74455831 53.44072672 -2.59918164 51.04641415 -1 47 C-0.53901398 43.37934433 -0.51165118 39.7795158 -0.48828125 36.1328125 C-0.47033005 35.09808807 -0.45237885 34.06336365 -0.43388367 32.99728394 C-0.37989031 29.70656353 -0.34591958 26.41598729 -0.3125 23.125 C-0.27931731 20.88800082 -0.24482677 18.65102064 -0.20898438 16.4140625 C-0.12416983 10.94281251 -0.05730589 5.47160447 0 0 Z " fill="#4B76C5" transform="translate(480,279)"/>
<path d="M0 0 C3 3 3 3 3.5 6.3125 C3.00222859 9.98356412 2.25250384 12.11040902 -0.30859375 14.83203125 C-3.58767677 17.09634031 -7.10622702 17.31150184 -11 17 C-14.68815794 15.47663042 -17.12906611 13.54492737 -19 10 C-19.1875 6.25 -19.1875 6.25 -19 3 C-17.79240115 5.4151977 -16.81472371 7.59056817 -16 10.1875 C-14.31720262 13.19884771 -14.31720262 13.19884771 -11.58203125 13.60546875 C-9.04347623 13.85252135 -6.54987354 13.99043199 -4 14 C-4 13.34 -4 12.68 -4 12 C-2.68 12 -1.36 12 0 12 C0 8.04 0 4.08 0 0 Z " fill="#446ECB" transform="translate(565,253)"/>
<path d="M0 0 C0.33 0 0.66 0 1 0 C1.33 15.18 1.66 30.36 2 46 C2.66 46 3.32 46 4 46 C4.33 47.65 4.66 49.3 5 51 C5.99 51.33 6.98 51.66 8 52 C9.6875 54.5625 9.6875 54.5625 11 57 C10.01 57 9.02 57 8 57 C2.00011029 50.85011305 -0.34208631 45.03360246 -0.33988953 36.49842834 C-0.32440567 35.57211105 -0.30892181 34.64579376 -0.29296875 33.69140625 C-0.28872391 32.72468491 -0.28447906 31.75796356 -0.28010559 30.76194763 C-0.26340522 27.69517351 -0.22576899 24.6290732 -0.1875 21.5625 C-0.172442 19.47461891 -0.15875555 17.38672745 -0.14648438 15.29882812 C-0.11352999 10.19896185 -0.06180751 5.0995949 0 0 Z " fill="#255BCC" transform="translate(581,292)"/>
<path d="M0 0 C6.6 0 13.2 0 20 0 C20.99 1.98 21.98 3.96 23 6 C22.01 6 21.02 6 20 6 C19.34 5.01 18.68 4.02 18 3 C15.22737745 2.61605333 12.65676472 2.39657752 9.875 2.3125 C9.12089844 2.27833984 8.36679687 2.24417969 7.58984375 2.20898438 C5.72708799 2.12645722 3.86356674 2.06155289 2 2 C2.33 4.64 2.66 7.28 3 10 C1 8 1 8 0 0 Z " fill="#416DCB" transform="translate(658,331)"/>
<path d="M0 0 C6.93 0 13.86 0 21 0 C21 1.65 21 3.3 21 5 C20.67 4.01 20.34 3.02 20 2 C14.06 2 8.12 2 2 2 C2.33 5.63 2.66 9.26 3 13 C-0.44098882 9.55901118 0.32850574 4.70858228 0 0 Z " fill="#4976CA" transform="translate(354,325)"/>
<path d="M0 0 C1.32 0 2.64 0 4 0 C4 0.66 4 1.32 4 2 C2.49609375 3.21875 2.49609375 3.21875 0.4375 4.5 C-0.22378906 4.9228125 -0.88507813 5.345625 -1.56640625 5.78125 C-7.9812075 8.99379894 -13.93437213 9.26346489 -20.9375 9.125 C-21.81212891 9.11597656 -22.68675781 9.10695313 -23.58789062 9.09765625 C-25.72538064 9.0742957 -27.86272786 9.03843247 -30 9 C-30 8.67 -30 8.34 -30 8 C-17.625 7.01 -17.625 7.01 -5 6 C-5 5.34 -5 4.68 -5 4 C-4.01 4 -3.02 4 -2 4 C-1.34 2.68 -0.68 1.36 0 0 Z " fill="#3F70D1" transform="translate(406,345)"/>
<path d="M0 0 C1.34050474 0.3032094 2.67200061 0.64601341 4 1 C6.24715161 1.37181132 8.49749604 1.72462441 10.75 2.0625 C11.92046875 2.23910156 13.0909375 2.41570312 14.296875 2.59765625 C15.63492188 2.79681641 15.63492188 2.79681641 17 3 C17 3.66 17 4.32 17 5 C18.546875 4.87625 18.546875 4.87625 20.125 4.75 C24.59017199 5.03807561 26.52326044 6.28644717 30 9 C29.67 9.66 29.34 10.32 29 11 C28.40445313 10.55785156 27.80890625 10.11570312 27.1953125 9.66015625 C22.62449708 7.28534384 17.89583931 6.46966995 12.875 5.4375 C10.892014 5.02533496 8.9101745 4.60760405 6.9296875 4.18359375 C6.05554199 4.00368896 5.18139648 3.82378418 4.28076172 3.63842773 C2 3 2 3 -1 1 C-0.67 0.67 -0.34 0.34 0 0 Z " fill="#4370CF" transform="translate(672,318)"/>
<path d="M0 0 C1.32 0.33 2.64 0.66 4 1 C2.73168307 1.81642254 1.46024069 2.62799105 0.1875 3.4375 C-0.87404297 4.11619141 -0.87404297 4.11619141 -1.95703125 4.80859375 C-7.25691594 7.89934869 -13.05123824 7.33701812 -19 7 C-22.75 6 -22.75 6 -25 5 C-22.14839609 4.18565857 -19.63373869 3.88118758 -16.671875 3.90234375 C-15.47304688 3.90717773 -15.47304688 3.90717773 -14.25 3.91210938 C-13.425 3.92048828 -12.6 3.92886719 -11.75 3.9375 C-10.90953125 3.94201172 -10.0690625 3.94652344 -9.203125 3.95117188 C-7.13538599 3.96292039 -5.06768376 3.98085478 -3 4 C-3 3.34 -3 2.68 -3 2 C-2.01 2 -1.02 2 0 2 C0 1.34 0 0.68 0 0 Z " fill="#4774D2" transform="translate(471,347)"/>
<path d="M0 0 C0.33 0 0.66 0 1 0 C1.36557502 7.43335872 1.36557502 7.43335872 -0.25 9.9375 C-3.91227723 12.16102546 -7.54776077 12.11252666 -11.75 12.0625 C-12.73484375 12.05347656 -13.7196875 12.04445313 -14.734375 12.03515625 C-15.48203125 12.02355469 -16.2296875 12.01195312 -17 12 C-17.66 10.68 -18.32 9.36 -19 8 C-18.43152344 8.17917969 -17.86304688 8.35835938 -17.27734375 8.54296875 C-13.03776931 9.7107981 -10.48311047 10.11688156 -6.125 9.0625 C-2.08764434 6.39784527 -1.45205734 4.52700229 0 0 Z " fill="#4170D2" transform="translate(398,327)"/>
<path d="M0 0 C0.33 1.32 0.66 2.64 1 4 C0.34 4 -0.32 4 -1 4 C-1 9.28 -1 14.56 -1 20 C-0.34 20 0.32 20 1 20 C1.33 21.32 1.66 22.64 2 24 C1.34 24.33 0.68 24.66 0 25 C-3.3040496 19.39748111 -4.88214347 13.88023918 -3.421875 7.45703125 C-1.485 1.485 -1.485 1.485 0 0 Z " fill="#4370CB" transform="translate(663,289)"/>
<path d="M0 0 C1.32 0.33 2.64 0.66 4 1 C-3.55332536 6.44661557 -9.4400148 9.39020348 -19 9 C-15.5980513 6.90649311 -12.94727588 6.82057837 -9 7 C-9 6.34 -9 5.68 -9 5 C-8.43410156 4.80664062 -7.86820313 4.61328125 -7.28515625 4.4140625 C-6.55167969 4.15367187 -5.81820312 3.89328125 -5.0625 3.625 C-4.33160156 3.36976563 -3.60070312 3.11453125 -2.84765625 2.8515625 C-0.81317884 2.14728587 -0.81317884 2.14728587 0 0 Z " fill="#3C6ECB" transform="translate(713,345)"/>
<path d="M0 0 C2.125 0.375 2.125 0.375 4 1 C4 1.66 4 2.32 4 3 C7.63 3 11.26 3 15 3 C15 3.66 15 4.32 15 5 C15.66 5.33 16.32 5.66 17 6 C9.88486245 6.53699151 4.55004254 4.69707634 -2 2 C-1.34 1.34 -0.68 0.68 0 0 Z " fill="#4372D4" transform="translate(671,348)"/>
<path d="M0 0 C2 2 2 2 2 6 C2.66 6 3.32 6 4 6 C4.33 7.65 4.66 9.3 5 11 C5.99 11.33 6.98 11.66 8 12 C9.6875 14.5625 9.6875 14.5625 11 17 C10.01 17 9.02 17 8 17 C3.16081931 12.03983979 0 7.12545859 0 0 Z " fill="#3D6DCB" transform="translate(581,332)"/>
<path d="M0 0 C3.66639248 -0.11728126 7.3322952 -0.18760891 11 -0.25 C12.02996094 -0.28351563 13.05992187 -0.31703125 14.12109375 -0.3515625 C20.92398736 -0.43822357 25.17438809 0.44301581 31 4 C31 4.33 31 4.66 31 5 C29.35 5 27.7 5 26 5 C25.67 4.34 25.34 3.68 25 3 C22.0804957 2.0268319 19.94555049 1.8070454 16.89453125 1.68359375 C15.42016602 1.62075195 15.42016602 1.62075195 13.91601562 1.55664062 C12.89185547 1.51732422 11.86769531 1.47800781 10.8125 1.4375 C9.77673828 1.39431641 8.74097656 1.35113281 7.67382812 1.30664062 C5.1160181 1.20055634 2.55811155 1.09849854 0 1 C0 0.67 0 0.34 0 0 Z " fill="#2B63DA" transform="translate(682,280)"/>
<path d="M0 0 C0.66 0.33 1.32 0.66 2 1 C0.68139111 5.61513112 -1.21355437 9.09897612 -4 13 C-4.66 12.67 -5.32 12.34 -6 12 C-5.75 9.625 -5.75 9.625 -5 7 C-3.66666667 6.33333333 -2.33333333 5.66666667 -1 5 C-0.18828772 2.44480079 -0.18828772 2.44480079 0 0 Z " fill="#386CD6" transform="translate(416,332)"/>
<path d="M0 0 C0.66 0.99 1.32 1.98 2 3 C0.35 3 -1.3 3 -3 3 C-3 2.34 -3 1.68 -3 1 C-8.21461466 1.4011242 -10.55991559 2.05027346 -14 6 C-14.66 6 -15.32 6 -16 6 C-15.01946718 3.41495894 -14.02862665 2.02515675 -11.9375 0.1875 C-7.90264305 -1.44361238 -4.16122902 -1.29169781 0 0 Z " fill="#426FC7" transform="translate(563,250)"/>
<path d="M0 0 C0.66 0 1.32 0 2 0 C2 0.66 2 1.32 2 2 C2.598125 2.28875 3.19625 2.5775 3.8125 2.875 C6 4 6 4 9 6 C10.32 6 11.64 6 13 6 C13 6.99 13 7.98 13 9 C14.32 9.33 15.64 9.66 17 10 C14 11 14 11 12.1328125 10.36328125 C1.6205813 4.86174391 1.6205813 4.86174391 0 0 Z " fill="#4172D1" transform="translate(359,342)"/>
<path d="M0 0 C0.6875 1.6875 0.6875 1.6875 1 4 C-0.3125 6.75 -0.3125 6.75 -2 9 C-2.66 9 -3.32 9 -4 9 C-4 9.66 -4 10.32 -4 11 C-5.875 11.625 -5.875 11.625 -8 12 C-8.66 11.34 -9.32 10.68 -10 10 C-8.906875 9.46375 -7.81375 8.9275 -6.6875 8.375 C-2.95532156 6.27470525 -1.55739859 4.030914 0 0 Z " fill="#406CCC" transform="translate(479,326)"/>
<path d="M0 0 C1.32 0.33 2.64 0.66 4 1 C2.73461631 1.84158536 1.46246221 2.67299748 0.1875 3.5 C-0.87404297 4.19609375 -0.87404297 4.19609375 -1.95703125 4.90625 C-4 6 -4 6 -7 6 C-7 5.34 -7 4.68 -7 4 C-5.68 4 -4.36 4 -3 4 C-3 3.34 -3 2.68 -3 2 C-2.01 2 -1.02 2 0 2 C0 1.34 0 0.68 0 0 Z " fill="#406ECE" transform="translate(471,347)"/>
<path d="M0 0 C0.99 0 1.98 0 3 0 C3.125 3.375 3.125 3.375 3 7 C2.34 7.66 1.68 8.32 1 9 C0.01 8.67 -0.98 8.34 -2 8 C-1.34 7.01 -0.68 6.02 0 5 C0.16713569 2.37468476 0.16713569 2.37468476 0 0 Z " fill="#3869CF" transform="translate(702,329)"/>
<path d="M0 0 C0.9075 0.78375 1.815 1.5675 2.75 2.375 C5.05190236 4.30052496 7.21577207 5.82205741 10 7 C3.56461405 7.36426713 3.56461405 7.36426713 1.0625 5.75 C0 4 0 4 0 0 Z " fill="#4876D1" transform="translate(602,330)"/>
<path d="M0 0 C1.98 0 3.96 0 6 0 C6 0.66 6 1.32 6 2 C6.66 2.33 7.32 2.66 8 3 C5.36 3 2.72 3 0 3 C0 2.01 0 1.02 0 0 Z " fill="#396AD5" transform="translate(680,351)"/>
<path d="M0 0 C0 0.99 0 1.98 0 3 C-3.63 2.34 -7.26 1.68 -11 1 C-11 0.67 -11 0.34 -11 0 C-7.01803543 -1.05404945 -4.01804691 -0.84098656 0 0 Z " fill="#4471CD" transform="translate(698,292)"/>
<path d="M0 0 C0.66 0 1.32 0 2 0 C2 0.66 2 1.32 2 2 C2.928125 2.37125 2.928125 2.37125 3.875 2.75 C6.35068687 4.20628639 6.95125002 5.37812506 8 8 C3.96615872 5.92856799 2.07143201 4.03384128 0 0 Z " fill="#4874CC" transform="translate(661,341)"/>
<path d="M0 0 C4.37113496 0.50827151 7.38995662 1.45173408 11 4 C11 4.33 11 4.66 11 5 C9.35 5 7.7 5 6 5 C5.67 4.34 5.34 3.68 5 3 C3.35636866 2.27840576 1.68949614 1.60648579 0 1 C0 0.67 0 0.34 0 0 Z " fill="#3F6CC7" transform="translate(702,280)"/>
<path d="M0 0 C3.16115776 1.36983503 3.9927092 1.9890638 6 5 C5.67 5.99 5.34 6.98 5 8 C2.74754119 5.31158141 1.11786042 3.35358125 0 0 Z " fill="#3B6BCC" transform="translate(435,339)"/>
<path d="M0 0 C1.32 0.33 2.64 0.66 4 1 C1.66666667 3.33333333 -0.66666667 5.66666667 -3 8 C-3 6.68 -3 5.36 -3 4 C-2.34 3.67 -1.68 3.34 -1 3 C-0.67 2.01 -0.34 1.02 0 0 Z " fill="#4272D3" transform="translate(478,339)"/>
</svg>