<?xml version="1.0" standalone="no"?>
<!DOCTYPE svg PUBLIC "-//W3C//DTD SVG 20010904//EN"
 "http://www.w3.org/TR/2001/REC-SVG-20010904/DTD/svg10.dtd">
<svg version="1.0" xmlns="http://www.w3.org/2000/svg"
 width="259.000000pt" height="194.000000pt" viewBox="0 0 259.000000 194.000000"
 preserveAspectRatio="xMidYMid meet">

<g transform="translate(0.000000,194.000000) scale(0.100000,-0.100000)"
fill="#000000" stroke="none">
<path d="M0 970 l0 -970 1295 0 1295 0 0 970 0 970 -1295 0 -1295 0 0 -970z
m890 220 c0 -6 -7 -13 -15 -16 -29 -11 -50 -94 -50 -194 0 -117 18 -161 73
-183 31 -13 34 -16 19 -22 -56 -22 -144 47 -167 131 -27 96 11 227 79 271 36
25 61 29 61 13z m-707 -7 c-20 -4 -23 -11 -23 -56 -1 -40 -3 -48 -11 -34 -15
25 -27 21 -43 -15 -14 -33 -14 -33 -15 34 -1 61 -3 67 -23 71 -13 2 13 4 57 4
44 0 70 -2 58 -4z m234 1 c-3 -3 -12 -4 -19 -1 -8 3 -5 6 6 6 11 1 17 -2 13
-5z m146 -1 c-13 -2 -33 -2 -45 0 -13 2 -3 4 22 4 25 0 35 -2 23 -4z m619 -88
c-3 -86 -2 -95 15 -95 17 -1 17 -1 1 -11 -15 -8 -18 -25 -18 -104 0 -65 4 -95
13 -98 6 -3 -10 -6 -38 -6 l-50 -1 3 205 3 205 37 0 37 0 -3 -95z m243 -102
c-2 -137 1 -200 9 -205 6 -4 -10 -8 -36 -8 l-47 0 -3 109 c-2 60 -2 153 0 205
l3 96 38 0 37 0 -1 -197z m175 102 c0 -83 2 -95 17 -95 15 0 15 -1 -1 -13 -15
-11 -17 -26 -14 -110 l3 -97 -40 0 -40 0 3 205 3 205 34 0 35 0 0 -95z m200
63 l0 -33 -25 27 c-14 15 -25 30 -25 33 0 3 11 5 25 5 22 0 25 -5 25 -32z
m141 -65 c2 -291 -3 -323 -44 -307 -15 5 -17 28 -17 205 l0 199 30 0 30 0 1
-97z m152 77 c51 -40 43 -126 -15 -156 l-30 -15 26 -24 c30 -27 47 -87 40
-135 -3 -19 -8 -37 -10 -39 -11 -11 -28 23 -46 91 -11 40 -26 77 -34 81 -18
10 -18 34 0 44 35 21 46 89 21 133 -8 14 -14 28 -15 33 0 14 38 7 63 -13z
m224 -96 c36 -104 44 -164 23 -164 -10 0 -120 237 -120 260 0 15 7 20 29 20
28 0 30 -4 68 -116z m-1627 86 c0 -11 -3 -20 -8 -20 -4 0 -13 9 -20 20 -11 18
-10 20 8 20 13 0 20 -7 20 -20z m330 -37 l0 -58 -20 44 c-24 53 -25 58 -2 64
9 3 18 5 20 6 1 0 2 -25 2 -56z m-536 25 c3 -13 6 -51 6 -85 0 -42 4 -63 12
-63 9 0 9 -3 0 -12 -17 -17 -16 -195 1 -201 6 -3 -12 -6 -40 -6 l-53 -1 0 85
c0 81 16 266 25 293 7 21 42 14 49 -10z m1214 -167 c-3 -18 -5 -18 -22 -5 -19
14 -19 14 0 32 21 20 28 11 22 -27z m-1108 5 l0 -34 -24 21 c-22 19 -23 22 -7
34 25 19 31 16 31 -21z m-439 -90 c0 -39 2 -81 3 -93 2 -20 -2 -23 -34 -23
-33 0 -37 3 -34 23 15 112 27 183 32 191 13 23 32 -33 33 -98z m206 -8 c-3 -8
-6 -5 -6 6 -1 11 2 17 5 13 3 -3 4 -12 1 -19z m663 -34 c0 -46 -3 -54 -13 -46
-10 9 -20 7 -37 -5 -24 -17 -24 -16 2 18 15 18 30 46 33 62 11 41 15 33 15
-29z m-330 -34 c0 -39 -1 -40 -36 -40 l-36 0 31 29 c17 16 31 34 31 40 0 6 2
11 5 11 3 0 5 -18 5 -40z m-340 -5 c0 -31 -3 -35 -25 -35 -14 0 -25 3 -25 6 0
6 42 62 48 63 1 1 2 -15 2 -34z m1450 -4 c0 -24 -13 -33 -35 -25 -15 6 -14 8
1 25 22 24 34 24 34 0z"/>
</g>
</svg>
