<?xml version="1.0" encoding="UTF-8"?>
<svg version="1.1" xmlns="http://www.w3.org/2000/svg" width="1290" height="251">
<path d="M0 0 C2.6232088 2.26057491 5.1029124 4.61463115 7.55078125 7.0625 C7.92847656 6.63839844 8.30617188 6.21429688 8.6953125 5.77734375 C19.00384275 -5.20715569 33.04388226 -12.16700512 48.109375 -13.17578125 C66.39805602 -13.52571573 81.59408814 -8.42212213 95.0390625 4.3515625 C105.27223806 15.39638962 110.91190945 29.15916325 110.77783203 44.140625 C110.77812408 45.00986099 110.77841614 45.87909698 110.77871704 46.77467346 C110.77733424 49.62072057 110.76182287 52.46649916 110.74609375 55.3125 C110.74235988 57.29646664 110.73951468 59.28043514 110.73751831 61.2644043 C110.72991128 66.46593386 110.71028812 71.66735032 110.68811035 76.86883545 C110.66758861 82.18467682 110.6585031 87.50053661 110.6484375 92.81640625 C110.62703931 103.23182832 110.59188121 113.64713702 110.55078125 124.0625 C101.97078125 124.0625 93.39078125 124.0625 84.55078125 124.0625 C84.52890747 120.46831177 84.52890747 120.46831177 84.5065918 116.80151367 C84.45606789 108.85060473 84.38944221 100.89988798 84.31506634 92.94916821 C84.27049641 88.13255196 84.23121138 83.31601769 84.2043457 78.49926758 C84.17817853 73.84363717 84.13768299 69.18832454 84.08759499 64.53289223 C84.07101645 62.76410208 84.05944642 60.99525707 84.05316734 59.22640038 C84.04795469 40.11325505 84.04795469 40.11325505 74.55078125 24.0625 C67.30466311 17.33614561 59.3527636 14.33300057 49.453125 14.65234375 C41.59958829 15.76219752 34.3352795 19.09119022 29.015625 25.03515625 C23.25173162 33.01238469 21.42106512 40.35217049 21.34545898 50.06567383 C21.33555939 50.85644318 21.32565979 51.64721252 21.31546021 52.46194458 C21.28398199 55.06444346 21.25914211 57.66696057 21.234375 60.26953125 C21.21379365 62.0784298 21.19279687 63.88732366 21.17140198 65.69621277 C21.11630328 70.44888509 21.06684035 75.20159993 21.01855469 79.9543457 C20.9682504 84.80749276 20.912611 89.66057834 20.85742188 94.51367188 C20.7499896 104.02989726 20.64900491 113.5461751 20.55078125 123.0625 C11.64078125 123.0625 2.73078125 123.0625 -6.44921875 123.0625 C-6.45856445 120.57025879 -6.46791016 118.07801758 -6.47753906 115.51025391 C-6.51140486 107.247988 -6.56700698 98.98596934 -6.63312149 90.72390175 C-6.67252108 85.71777722 -6.70474635 80.71182662 -6.72021484 75.70556641 C-6.73543105 70.86833389 -6.76996426 66.03157977 -6.81752777 61.194561 C-6.83229053 59.35516915 -6.84025682 57.51570898 -6.8411026 55.67625809 C-6.85275906 43.02945033 -7.27452743 32.53843955 -16.3828125 22.8203125 C-23.46901785 16.79234954 -31.4053828 14.68419908 -40.50390625 14.78125 C-47.69191908 15.46763849 -55.3265913 18.90229826 -60.44921875 24.0625 C-66.30123426 32.00934785 -68.7399109 39.68863828 -68.76806641 49.47631836 C-68.77811203 50.2868869 -68.78815765 51.09745544 -68.79850769 51.93258667 C-68.82918913 54.58916571 -68.84633266 57.24564467 -68.86328125 59.90234375 C-68.88200502 61.75322827 -68.90157933 63.60410437 -68.92196655 65.45497131 C-68.97316604 70.30952981 -69.0128568 75.16411595 -69.05010986 80.01879883 C-69.09022609 84.97939828 -69.1412836 89.93988397 -69.19140625 94.90039062 C-69.28802128 104.62102155 -69.37145994 114.34169993 -69.44921875 124.0625 C-78.35921875 124.0625 -87.26921875 124.0625 -96.44921875 124.0625 C-96.51730691 113.35205748 -96.57221382 102.64176142 -96.60465527 91.93115044 C-96.62023453 86.95645914 -96.64132941 81.98192507 -96.67553711 77.00732422 C-96.70840912 72.19622401 -96.72612978 67.38527393 -96.73385048 62.57406998 C-96.73934447 60.74908209 -96.75007106 58.92410134 -96.76640892 57.09917831 C-96.93810836 37.10433775 -94.34400048 19.2459371 -79.75390625 4.23828125 C-57.31828476 -16.9424665 -24.60124373 -19.46127096 0 0 Z " fill="#1D1B1B" transform="translate(96.44921875,119.9375)"/>
<path d="M0 0 C44.22 0 88.44 0 134 0 C134 44.55 134 89.1 134 135 C104.96 135 75.92 135 46 135 C46 119.82 46 104.64 46 89 C30.82 89 15.64 89 0 89 C0 59.63 0 30.26 0 0 Z M13 13 C13 23.89 13 34.78 13 46 C23.89 46 34.78 46 46 46 C46 35.11 46 24.22 46 13 C35.11 13 24.22 13 13 13 Z M88 13 C88 23.89 88 34.78 88 46 C99.22 46 110.44 46 122 46 C122 35.11 122 24.22 122 13 C110.78 13 99.56 13 88 13 Z M88 89 C88 99.89 88 110.78 88 122 C99.22 122 110.44 122 122 122 C122 111.11 122 100.22 122 89 C110.78 89 99.56 89 88 89 Z " fill="#C20F2F" transform="translate(1156,0)"/>
<path d="M0 0 C8.91 0 17.82 0 27 0 C27 19.14 27 38.28 27 58 C44.1410161 57.8818341 44.1410161 57.8818341 61.28173828 57.72973633 C76.11119502 57.63968274 90.00731879 57.5639266 103.375 64.8125 C104.04708496 65.1628833 104.71916992 65.5132666 105.41162109 65.87426758 C110.31267678 68.48550528 114.75801208 71.40740283 119 75 C120.4540625 76.051875 120.4540625 76.051875 121.9375 77.125 C134.52449548 87.89425499 142.31758415 105.53880996 143.87109375 121.8671875 C143.93490234 122.92292969 143.93490234 122.92292969 144 124 C144.07927734 125.30324219 144.07927734 125.30324219 144.16015625 126.6328125 C144.80296826 147.5940737 136.65553234 166.4976505 122.4375 181.65234375 C114.70141908 189.10328066 105.96862314 194.10714352 96 198 C95.12601563 198.34160156 94.25203125 198.68320313 93.3515625 199.03515625 C75.19398618 204.75931887 54.49002899 201.78583553 37.86499023 193.31958008 C20.6024322 184.0537551 9.33305126 169.0580271 2.87109375 150.8125 C0.09041742 141.14058232 -0.14266882 131.69872215 -0.11352539 121.69921875 C-0.11367142 120.38131851 -0.11381744 119.06341827 -0.1139679 117.70558167 C-0.11425337 114.11318092 -0.10839709 110.52081395 -0.10139394 106.92842102 C-0.09511875 103.16614964 -0.09455332 99.40387737 -0.09336853 95.64160156 C-0.09026746 88.52679273 -0.08207064 81.41199938 -0.07201904 74.29719734 C-0.06081981 66.19317783 -0.05533787 58.08915755 -0.05032361 49.98513222 C-0.03988694 33.32341101 -0.02155675 16.6617111 0 0 Z M27 85 C26.92332736 91.75855155 26.87114133 98.51698908 26.83520508 105.27587891 C26.82020849 107.5705179 26.79980449 109.86512867 26.77368164 112.15966797 C26.7368942 115.47630825 26.7201818 118.79256642 26.70703125 122.109375 C26.69154739 123.11925476 26.67606354 124.12913452 26.66011047 125.1696167 C26.65691169 139.00571133 30.60109061 151.42517574 40 161.75 C50.37913836 171.58100669 62.5414324 174.50316008 76.4375 174.27734375 C85.93537915 173.88549775 93.61911677 169.76719203 101 164 C101.61617187 163.52175781 102.23234375 163.04351562 102.8671875 162.55078125 C111.37616289 155.04397407 116.11107554 142.95509089 117.2109375 131.875 C117.78872316 119.43038588 112.95131837 107.59038611 104.671875 98.421875 C93.46169617 87.77573032 81.94845992 84.66244422 66.84375 84.8046875 C65.70087524 84.8075174 64.55800049 84.81034729 63.38049316 84.81326294 C59.75355268 84.82439975 56.12686504 84.84949259 52.5 84.875 C50.03125358 84.88503819 47.56250327 84.89416257 45.09375 84.90234375 C39.06241468 84.92431781 33.03122541 84.95773043 27 85 Z " fill="#1D1B1B" transform="translate(884,49)"/>
<path d="M0 0 C8.91 0 17.82 0 27 0 C27.09058698 17.84702862 27.16414782 35.69385845 27.20724869 53.54105377 C27.22780054 61.82937399 27.25577842 70.11754033 27.30175781 78.40576172 C27.34185325 85.6368434 27.3674863 92.86781354 27.37635398 100.09900331 C27.38153068 103.92150478 27.39353998 107.7436874 27.42292023 111.56608582 C27.60629002 136.41865025 26.4523311 158.49445348 9 178 C8.34515625 178.74765625 7.6903125 179.4953125 7.015625 180.265625 C-3.73935635 191.80564148 -19.52629616 200.12757338 -35.48852539 201.16113281 C-58.30103568 201.52828466 -58.30103568 201.52828466 -68 198 C-68.82886719 197.73316406 -69.65773438 197.46632812 -70.51171875 197.19140625 C-87.66887362 191.13118671 -102.07529068 177.19795909 -110 161 C-116.9703619 143.98636664 -119.38470063 123.59956609 -113 106 C-112.74476563 105.18273437 -112.48953125 104.36546875 -112.2265625 103.5234375 C-106.31786054 86.44783091 -92.59849795 73.39071146 -77 65 C-65.016439 59.34530015 -53.47906056 57.68105841 -40.33203125 57.8046875 C-39.30122437 57.80670166 -38.27041748 57.80871582 -37.20837402 57.81079102 C-33.40970316 57.82114352 -29.61109643 57.84906475 -25.8125 57.875 C-13.0353125 57.936875 -13.0353125 57.936875 0 58 C0 38.86 0 19.72 0 0 Z M-73 95 C-74.3303125 95.8971875 -74.3303125 95.8971875 -75.6875 96.8125 C-83.13459248 103.85704694 -88.57562669 114.43264906 -89.23828125 124.6875 C-89.62249726 139.50307597 -86.5172439 150.9338277 -76.12109375 162 C-65.94075315 171.54278392 -53.95228262 174.64624396 -40.29296875 174.3046875 C-29.57905688 173.73371928 -20.84277917 169.19222606 -13 162 C-5.07790355 153.09263441 0.14345222 142.81124369 0.11352539 130.75073242 C0.11344986 129.73005173 0.11337433 128.70937103 0.11329651 127.65776062 C0.10813522 126.5680043 0.10297394 125.47824799 0.09765625 124.35546875 C0.0962413 123.2305452 0.09482635 122.10562164 0.09336853 120.9466095 C0.08777931 117.36021241 0.07522872 113.77387816 0.0625 110.1875 C0.05748361 107.75325611 0.05292094 105.31901124 0.04882812 102.88476562 C0.0378134 96.92315571 0.02108594 90.96158234 0 85 C-7.02501847 84.89771671 -14.04984156 84.82816762 -21.07543945 84.78027344 C-23.46027808 84.7602856 -25.8450685 84.73308605 -28.22973633 84.69824219 C-45.15239196 84.45735029 -59.05314925 84.28294627 -73 95 Z " fill="#1D1B1B" transform="translate(482,49)"/>
<path d="M0 0 C2.21446144 1.66458672 4.30336408 3.40006909 6.375 5.23828125 C6.96410156 5.73457031 7.55320312 6.23085937 8.16015625 6.7421875 C12.16023199 10.37779165 15.16378745 14.61566972 18.125 19.11328125 C18.50205078 19.67797119 18.87910156 20.24266113 19.26757812 20.82446289 C22.16283937 25.3816507 23.85143275 30.07312407 25.375 35.23828125 C24.66593506 35.64554443 23.95687012 36.05280762 23.22631836 36.47241211 C6.67781051 45.95456143 6.67781051 45.95456143 -9.7265625 55.68237305 C-16.02369153 59.49008118 -22.35580027 63.23842798 -28.6875 66.98828125 C-29.85693722 67.68122761 -31.02637082 68.37418008 -32.19580078 69.06713867 C-37.80846667 72.39202199 -43.42452656 75.7110357 -49.046875 79.01953125 C-50.04323975 79.60637695 -51.03960449 80.19322266 -52.06616211 80.79785156 C-53.92545898 81.89246695 -55.78559483 82.98565903 -57.64672852 84.07714844 C-62.0643423 86.67850418 -66.39547618 89.34040196 -70.625 92.23828125 C-61.33710987 100.88562723 -50.16756709 102.73408466 -38.0234375 102.5078125 C-27.3013783 102.04053512 -18.44336653 97.46843211 -10.625 90.23828125 C-8.01956061 87.05183795 -5.74276372 83.76547817 -3.625 80.23828125 C2.03293464 82.94095538 7.20347779 85.95149469 12.375 89.48828125 C13.05433594 89.9471875 13.73367188 90.40609375 14.43359375 90.87890625 C16.08362784 91.99442225 17.72974087 93.11573466 19.375 94.23828125 C16.95631435 105.07291924 5.12440936 114.69163886 -3.75 120.48828125 C-20.93409613 130.61678968 -42.22680362 133.41279354 -61.625 128.73828125 C-79.93955299 122.90445582 -96.35511074 110.92427493 -105.5625 93.734375 C-114.46505185 76.16222674 -116.96565415 55.84166242 -111.00390625 36.85546875 C-103.69053772 17.67082495 -92.2755666 2.7628875 -73.375 -6.57421875 C-48.60094736 -16.76697184 -22.39246038 -15.02827326 0 0 Z M-70.625 24.23828125 C-71.31335937 24.79 -72.00171875 25.34171875 -72.7109375 25.91015625 C-79.63631905 32.11911902 -85.48119131 41.89011638 -86.625 51.23828125 C-86.71789522 53.97869035 -86.76487228 56.68680331 -86.75 59.42578125 C-86.75386719 60.14958984 -86.75773437 60.87339844 -86.76171875 61.61914062 C-86.82954326 65.55744627 -86.82954326 65.55744627 -85.625 69.23828125 C-81.85204244 67.82803432 -78.45996367 66.0965254 -74.9765625 64.078125 C-73.89705322 63.45429932 -72.81754395 62.83047363 -71.70532227 62.18774414 C-69.99493774 61.19182251 -69.99493774 61.19182251 -68.25 60.17578125 C-67.05859584 59.48480072 -65.86710767 58.79396501 -64.67553711 58.10327148 C-57.69623128 54.05225794 -50.74784686 49.95529021 -43.84375 45.77734375 C-37.64957354 42.03583033 -31.41431908 38.36260909 -25.1875 34.67578125 C-23.94539381 33.94018567 -22.70328768 33.20458997 -21.46118164 32.46899414 C-18.51603299 30.72500875 -15.57060017 28.98150393 -12.625 27.23828125 C-15.42240394 21.14985987 -21.03696384 18.8389143 -26.98046875 16.1875 C-42.16433643 10.8210074 -58.27485941 14.3396667 -70.625 24.23828125 Z " fill="#1D1B1B" transform="translate(1150.625,119.76171875)"/>
<path d="M0 0 C10.69934972 9.11816503 18.9235104 19.51827461 22.6875 33.1875 C21.82253906 33.66316406 20.95757812 34.13882813 20.06640625 34.62890625 C10.52087548 39.91941956 1.15157342 45.47698981 -8.19311523 51.11352539 C-16.9658649 56.39802391 -25.78992694 61.58939218 -34.63525391 66.75119019 C-41.32831972 70.65783814 -48.00507742 74.58742317 -54.63671875 78.59765625 C-55.22063385 78.95036591 -55.80454895 79.30307556 -56.40615845 79.66647339 C-59.18215349 81.34437887 -61.95462385 83.02773384 -64.72265625 84.71875 C-65.69460938 85.30785156 -66.6665625 85.89695312 -67.66796875 86.50390625 C-68.94643677 87.28423218 -68.94643677 87.28423218 -70.25073242 88.08032227 C-72.3125 89.1875 -72.3125 89.1875 -74.3125 89.1875 C-74.3125 89.8475 -74.3125 90.5075 -74.3125 91.1875 C-73.75175781 91.4659375 -73.19101562 91.744375 -72.61328125 92.03125 C-71.06270202 92.81048846 -69.51846977 93.60247057 -67.98046875 94.40625 C-67.16191406 94.8290625 -66.34335937 95.251875 -65.5 95.6875 C-64.68917969 96.1103125 -63.87835938 96.533125 -63.04296875 96.96875 C-53.09493889 101.40907234 -40.69276649 102.0812344 -30.3125 98.5625 C-19.82211123 94.0325594 -12.30609054 87.06222986 -5.3125 78.1875 C-2.77011841 79.76969472 -0.22858077 81.35321847 2.3125 82.9375 C3.02535156 83.3809375 3.73820312 83.824375 4.47265625 84.28125 C8.59156214 86.85084266 12.66378242 89.4711733 16.6875 92.1875 C11.44149263 106.77395951 -2.34489198 116.47674087 -15.75 122.9375 C-33.13311824 130.3040522 -53.57693921 130.98297584 -71.3125 124.1875 C-88.23268787 117.15599678 -102.09810451 104.63454519 -110.3125 88.1875 C-118.46514769 68.41560834 -119.20815717 46.78079606 -110.95703125 26.92578125 C-102.36663182 8.57042374 -87.21773008 -4.73276363 -68.3125 -11.8125 C-45.2357774 -19.6091132 -19.20714442 -14.64951693 0 0 Z M-79.3125 27.1875 C-88.95363363 39.87531203 -89.76451437 50.81901158 -89.3125 66.1875 C-85.22487274 66.1875 -84.22233946 65.84359524 -80.85546875 63.87890625 C-79.56974976 63.1365271 -79.56974976 63.1365271 -78.25805664 62.37915039 C-76.8928186 61.57272095 -76.8928186 61.57272095 -75.5 60.75 C-74.55439209 60.20013428 -73.60878418 59.65026855 -72.63452148 59.08374023 C-66.16660663 55.31211646 -59.73446805 51.48062219 -53.328125 47.60546875 C-40.73681107 40.00065298 -28.03577407 32.56914635 -15.3125 25.1875 C-17.74614502 19.06370845 -23.93831207 16.69273475 -29.66796875 14.13671875 C-47.13930549 7.96175719 -66.92424189 13.63328819 -79.3125 27.1875 Z " fill="#1D1B1B" transform="translate(338.3125,121.8125)"/>
<path d="M0 0 C13 13.26782884 13 13.26782884 13 19 C11.31933594 20.41040039 11.31933594 20.41040039 8.984375 21.84765625 C7.72560547 22.63172852 7.72560547 22.63172852 6.44140625 23.43164062 C5.55324219 23.96982422 4.66507813 24.50800781 3.75 25.0625 C2.87730469 25.60455078 2.00460937 26.14660156 1.10546875 26.70507812 C-2.53621714 28.95402766 -6.1447288 31.13435154 -10 33 C-10.53367187 32.21496094 -11.06734375 31.42992187 -11.6171875 30.62109375 C-19.51936025 19.47875674 -29.19960287 11.65007626 -43 9 C-57.7686619 8.09650539 -69.52159734 10.77951399 -81.1875 20.1875 C-89.21967846 27.53166317 -94.55917341 38.58224485 -95.203125 49.41796875 C-95.3822782 63.82487207 -91.9099065 75.35076509 -82.015625 86.1484375 C-72.09850472 95.25835032 -59.94892269 98.43473655 -46.828125 98.21484375 C-35.6074162 97.58511009 -24.68584378 92.23483262 -17 84 C-14.84354992 81.08974658 -12.87827669 78.09606047 -11 75 C-5.85498185 76.78137085 -1.33401553 79.58782415 3.3125 82.375 C4.56643555 83.09816406 4.56643555 83.09816406 5.84570312 83.8359375 C6.63525391 84.3103125 7.42480469 84.7846875 8.23828125 85.2734375 C8.96055908 85.70060059 9.68283691 86.12776367 10.42700195 86.56787109 C10.94609131 87.04047363 11.46518066 87.51307617 12 88 C12 95.40136019 5.57941318 101.53545056 0.625 106.75 C-13.78939045 120.35276936 -32.33084169 126.97925194 -52 127 C-73.00831794 125.85824359 -91.7289894 117.68049313 -106 102 C-119.21913045 86.36207103 -125.04372772 67.45113689 -123.75390625 47.12109375 C-121.34385226 26.32638013 -112.25723306 9.54833711 -96.4375 -4.125 C-86.66863604 -11.61496879 -75.14481917 -16.95547649 -63 -19 C-62.19691406 -19.14050781 -61.39382813 -19.28101562 -60.56640625 -19.42578125 C-38.68172591 -22.40842241 -15.98205567 -15.23159393 0 0 Z " fill="#1D1B1B" transform="translate(711,124)"/>
<path d="M0 0 C8.91 0 17.82 0 27 0 C27.0093457 2.45671143 27.01869141 4.91342285 27.02832031 7.44458008 C27.0622077 15.59508185 27.11782156 23.74533356 27.18390274 31.89563465 C27.22327849 36.83334931 27.25551533 41.77088826 27.27099609 46.70874023 C27.28622817 51.48114125 27.32078893 56.25305891 27.36830902 61.02524376 C27.38305558 62.83868883 27.39103712 64.65220294 27.39188385 66.46570778 C27.40461381 80.06906122 28.55365557 92.32406942 38 103 C47.96973445 111.8396248 56.89594803 114.82086982 70.0546875 114.34765625 C80.74382059 113.40574254 88.86706872 108.51128745 96.1875 100.875 C103.42989331 91.97041806 105.11433757 81.17729915 105.20532227 70.04516602 C105.21522186 69.28336533 105.22512146 68.52156464 105.23532104 67.73667908 C105.26666898 65.24245205 105.29158671 62.74820604 105.31640625 60.25390625 C105.3369989 58.51512687 105.35799595 56.77635223 105.37937927 55.0375824 C105.43436137 50.4789313 105.48387508 45.92023683 105.53222656 41.36151123 C105.5826167 36.70255713 105.63821102 32.0436654 105.69335938 27.38476562 C105.80064875 18.25656191 105.90167621 9.1283047 106 0 C114.91 0 123.82 0 133 0 C133.06813541 10.43240406 133.1230218 20.86465712 133.15543652 31.29723454 C133.1710043 36.14298419 133.19207743 40.98857198 133.22631836 45.83422852 C133.2592323 50.52214049 133.27691958 55.20989807 133.28463173 59.89791679 C133.29011837 61.67463036 133.30082988 63.45133676 133.31719017 65.22798347 C133.51863055 88.03817448 129.20825224 107.29895441 113.125 124.375 C98.06638392 138.51105264 80.07087595 142.73453177 60.0859375 142.37890625 C43.09076993 141.64285351 29.95227373 133.70958797 18 122 C17.37222656 121.40832031 16.74445312 120.81664062 16.09765625 120.20703125 C12.05375279 116.0530896 9.38148834 111.36638069 6.75 106.25 C6.2557251 105.30338501 6.2557251 105.30338501 5.75146484 104.33764648 C-0.34391426 91.9052556 -0.41039607 79.53577296 -0.29296875 66.015625 C-0.28736247 64.10463802 -0.28309726 62.19364667 -0.28010559 60.28265381 C-0.26873797 55.29154218 -0.2393418 50.30069908 -0.20599365 45.30969238 C-0.17511701 40.20129019 -0.16156292 35.09284393 -0.14648438 29.984375 C-0.11446312 19.98944733 -0.0617627 9.99478817 0 0 Z " fill="#1D1B1B" transform="translate(736,108)"/>
<path d="M0 0 C9.24 0 18.48 0 28 0 C28 50.82 28 101.64 28 154 C18.76 154 9.52 154 0 154 C0 103.18 0 52.36 0 0 Z " fill="#1D1B1B" transform="translate(536,91)"/>
<path d="M0 0 C9.24 0 18.48 0 28 0 C28 9.24 28 18.48 28 28 C18.76 28 9.52 28 0 28 C0 18.76 0 9.52 0 0 Z " fill="#1D1B1B" transform="translate(536,49)"/>
</svg>
