<?xml version="1.0" encoding="UTF-8"?>
<svg version="1.1" xmlns="http://www.w3.org/2000/svg" width="600" height="600">
<path d="M0 0 C198 0 396 0 600 0 C600 198 600 396 600 600 C402 600 204 600 0 600 C0 402 0 204 0 0 Z " fill="#FEFEFE" transform="translate(0,0)"/>
<path d="M0 0 C1.47652542 -0.00262848 1.47652542 -0.00262848 2.98287964 -0.00531006 C6.23355884 -0.00970749 9.48418353 -0.00679752 12.73486328 -0.00341797 C14.99781301 -0.00409172 17.26076267 -0.00506234 19.52371216 -0.00631714 C24.26646616 -0.00779134 29.00920132 -0.00564883 33.75195312 -0.00097656 C39.8236078 0.00471403 45.89521821 0.0014442 51.96687126 -0.00454903 C56.64063855 -0.00816765 61.31439539 -0.00700994 65.98816299 -0.00442123 C68.22641124 -0.00375523 70.46466044 -0.00456896 72.70290756 -0.00690079 C75.83581796 -0.00944792 78.96865737 -0.00555734 82.1015625 0 C83.02231567 -0.00202423 83.94306885 -0.00404846 84.89172363 -0.00613403 C89.75598617 0.00980336 94.36524344 0.34621692 99.18017578 1.12939453 C101.53681588 1.2375572 103.89552599 1.30582204 106.25439453 1.34033203 C107.64006753 1.36638432 109.02572802 1.39310781 110.41137695 1.42041016 C111.13634369 1.43370361 111.86131042 1.44699707 112.60824585 1.46069336 C126.85453754 1.73624058 140.97902485 2.55749542 155.16864014 3.83685303 C164.27552386 4.65781206 173.34944324 5.35306433 182.49267578 5.62939453 C192.01009282 5.92536863 201.45686739 6.70665103 210.93017578 7.62939453 C211.61528229 7.69537842 212.30038879 7.7613623 213.0062561 7.8293457 C224.5353061 8.94949841 224.5353061 8.94949841 229.18017578 10.12939453 C230.73822664 10.30355268 232.3002327 10.44416418 233.86376953 10.55908203 C234.78013184 10.63046387 235.69649414 10.7018457 236.640625 10.77539062 C237.62305176 10.85096191 238.60547852 10.9265332 239.61767578 11.00439453 C250.88689163 11.93332189 262.01272594 13.37469925 273.18017578 15.12939453 C274.28474121 15.30293457 275.38930664 15.47647461 276.52734375 15.65527344 C283.74796651 16.79484519 290.96530113 17.954003 298.18017578 19.12939453 C298.03833882 20.87972297 297.89154149 22.62964988 297.74267578 24.37939453 C297.66146484 25.35392578 297.58025391 26.32845703 297.49658203 27.33251953 C297.22942994 29.69401206 296.8264561 31.84840518 296.18017578 34.12939453 C297.07478516 34.18998047 297.96939453 34.25056641 298.89111328 34.31298828 C306.00167526 34.80572445 313.09377 35.36197271 320.18017578 36.12939453 C318.762102 40.60178106 317.06713204 44.84085759 315.18017578 49.12939453 C314.52017578 49.12939453 313.86017578 49.12939453 313.18017578 49.12939453 C312.85017578 50.77939453 312.52017578 52.42939453 312.18017578 54.12939453 C311.52017578 54.12939453 310.86017578 54.12939453 310.18017578 54.12939453 C309.92623047 54.83966797 309.67228516 55.54994141 309.41064453 56.28173828 C308.18017578 59.12939453 308.18017578 59.12939453 306.41845703 61.75830078 C299.96141252 71.59448827 300.2836054 80.78383955 302.18017578 92.12939453 C302.51919922 93.29857422 302.85822266 94.46775391 303.20751953 95.67236328 C304.38090263 99.84282128 304.62792606 103.75751071 304.80517578 108.06689453 C304.86318359 109.23575195 304.86318359 109.23575195 304.92236328 110.42822266 C305.01561706 112.32826832 305.09893541 114.22879731 305.18017578 116.12939453 C297.66757872 116.24457915 290.28554754 115.94172199 282.80517578 115.25439453 C281.79640381 115.16416016 280.78763184 115.07392578 279.74829102 114.98095703 C273.55840114 114.40696096 267.43296641 113.6674648 261.30126953 112.63330078 C256.18829893 111.8078024 251.04768904 111.21753993 245.90673828 110.59423828 C242.32578257 110.14755722 238.75261367 109.6397428 235.18017578 109.12939453 C235.51017578 103.84939453 235.84017578 98.56939453 236.18017578 93.12939453 C234.30652344 93.05591797 234.30652344 93.05591797 232.39501953 92.98095703 C218.94947885 92.41621563 205.57718123 91.39312414 192.18017578 90.12939453 C192.18017578 89.46939453 192.18017578 88.80939453 192.18017578 88.12939453 C191.28226318 88.14534668 190.38435059 88.16129883 189.45922852 88.17773438 C180.69991806 88.26479045 172.10201485 87.81473681 163.38122559 86.96136475 C143.01606472 84.99041148 122.62044793 83.93782805 102.18017578 83.12939453 C101.42806824 83.09910156 100.67596069 83.06880859 99.90106201 83.03759766 C54.89916487 81.24761528 9.6838877 81.40187582 -35.31982422 83.06689453 C-36.49705048 83.11037018 -37.67427673 83.15384583 -38.88717651 83.19863892 C-42.20874257 83.32466524 -45.52994472 83.45721882 -48.85107422 83.59423828 C-49.8064357 83.63283966 -50.76179718 83.67144104 -51.74610901 83.71121216 C-62.94817095 83.92331111 -62.94817095 83.92331111 -73.81982422 86.12939453 C-75.908734 86.3357243 -78.00234891 86.49579371 -80.09716797 86.62939453 C-81.33273438 86.71189453 -82.56830078 86.79439453 -83.84130859 86.87939453 C-85.13359375 86.96189453 -86.42587891 87.04439453 -87.75732422 87.12939453 C-90.30832031 87.29273995 -92.85911507 87.45926906 -95.40966797 87.62939453 C-96.54267334 87.70158203 -97.67567871 87.77376953 -98.84301758 87.84814453 C-101.30642093 88.08088796 -103.44349691 88.49765237 -105.81982422 89.12939453 C-108.44768351 89.33025002 -111.06366035 89.49904329 -113.69482422 89.62939453 C-118.47018407 89.86860551 -123.10202977 90.34092336 -127.81982422 91.12939453 C-129.61050228 91.19244658 -131.40320001 91.21610567 -133.19482422 91.19189453 C-134.06880859 91.18287109 -134.94279297 91.17384766 -135.84326172 91.16455078 C-136.49552734 91.15294922 -137.14779297 91.14134766 -137.81982422 91.12939453 C-137.48982422 92.11939453 -137.15982422 93.10939453 -136.81982422 94.12939453 C-136.75083322 96.1908456 -136.73514695 98.25440854 -136.75732422 100.31689453 C-136.76634766 101.40357422 -136.77537109 102.49025391 -136.78466797 103.60986328 C-136.79626953 104.44130859 -136.80787109 105.27275391 -136.81982422 106.12939453 C-152.14123764 108.89548838 -167.50387494 111.33199864 -182.89794922 113.65673828 C-185.80362144 114.12677349 -188.68237225 114.68408289 -191.56982422 115.25439453 C-196.40173461 116.16259502 -200.91060965 116.29035239 -205.81982422 116.12939453 C-205.41864984 109.67893278 -204.90929845 103.31613181 -203.81982422 96.94189453 C-203.66384766 95.86294922 -203.50787109 94.78400391 -203.34716797 93.67236328 C-203.07358895 91.83431757 -202.79261283 89.99574153 -202.421875 88.17480469 C-199.48160391 73.44547993 -205.20326744 64.04032711 -213.09375 51.80908203 C-214.83475782 49.10621048 -216.52473691 46.37896686 -218.19091797 43.62939453 C-218.67359131 42.83533203 -219.15626465 42.04126953 -219.65356445 41.22314453 C-220.81982422 39.12939453 -220.81982422 39.12939453 -221.81982422 36.12939453 C-216.60538826 34.44378186 -211.84443287 33.74426756 -206.38232422 33.50439453 C-205.65078125 33.46572266 -204.91923828 33.42705078 -204.16552734 33.38720703 C-202.3839889 33.29405469 -200.601943 33.21069167 -198.81982422 33.12939453 C-199.31482422 26.69439453 -199.31482422 26.69439453 -199.81982422 20.12939453 C-193.26909748 18.37991901 -186.69259158 17.1818123 -180.00732422 16.06689453 C-177.95878742 15.72398451 -175.91059219 15.37902587 -173.86279297 15.03173828 C-172.96584717 14.88212646 -172.06890137 14.73251465 -171.14477539 14.57836914 C-168.67673739 14.15426174 -168.67673739 14.15426174 -165.81982422 13.12939453 C-163.92175089 12.86833584 -162.01826918 12.64578678 -160.11279297 12.44580078 C-158.96746094 12.32269531 -157.82212891 12.19958984 -156.64208984 12.07275391 C-155.44261719 11.94707031 -154.24314453 11.82138672 -153.00732422 11.69189453 C-150.6672367 11.44550091 -148.32739128 11.19679715 -145.98779297 10.94580078 C-144.94905029 10.83695557 -143.91030762 10.72811035 -142.84008789 10.6159668 C-140.48200137 10.35146557 -138.14543039 10.02637118 -135.79911804 9.66793823 C-127.6652824 8.42828401 -119.60356834 7.66996122 -111.38815117 7.23828125 C-109.24280336 7.12555268 -107.09798472 7.00521434 -104.95314026 6.88330078 C-101.15581286 6.6686583 -97.35816714 6.46042619 -93.56036377 6.25439453 C-86.7909554 5.88697746 -80.02196088 5.51242391 -73.25341797 5.12939453 C-72.16741617 5.06823613 -72.16741617 5.06823613 -71.05947495 5.00584221 C-60.68357211 4.41649271 -50.35038502 3.60111855 -40.01147461 2.54003906 C-34.78847529 2.00911434 -29.56598079 1.73952087 -24.31982422 1.56689453 C-22.60094426 1.50669531 -20.88218193 1.44301447 -19.16357422 1.37548828 C-18.08366211 1.33959595 -18.08366211 1.33959595 -16.98193359 1.30297852 C-14.82459722 1.18886887 -14.82459722 1.18886887 -12.7984314 0.62663269 C-8.52802053 -0.08625461 -4.32223098 -0.00946062 0 0 Z " fill="#107C43" transform="translate(249.81982421875,241.87060546875)"/>
<path d="M0 0 C1.24040039 0.01353516 1.24040039 0.01353516 2.50585938 0.02734375 C4.52486708 0.05068488 6.54372356 0.08654712 8.5625 0.125 C10.64118966 8.33656128 12.16655173 16.52506445 13.43457031 24.89282227 C14.22459612 30.07801124 15.12037575 35.2273333 16.125 40.375 C17.57794122 47.93029437 18.63011888 55.49044403 19.5625 63.125 C22.83385678 62.67035384 26.10456058 62.2111982 29.375 61.75 C30.3446167 61.61352051 31.3142334 61.47704102 32.31323242 61.33642578 C37.02740633 60.66382119 41.70739362 59.95080871 46.375 59 C53.35248246 57.64514904 60.47728138 57.46281469 67.5625 57.125 C68.65756492 60.41019475 68.66210608 62.86163415 68.625 66.3125 C68.61597656 67.39917969 68.60695313 68.48585938 68.59765625 69.60546875 C68.58605469 70.43691406 68.57445313 71.26835937 68.5625 72.125 C53.24108658 74.89109384 37.87844928 77.32760411 22.484375 79.65234375 C19.57870278 80.12237896 16.69995197 80.67968835 13.8125 81.25 C8.98058961 82.15820048 4.47171457 82.28595785 -0.4375 82.125 C-0.03632562 75.67453825 0.47302577 69.31173728 1.5625 62.9375 C1.71847656 61.85855469 1.87445313 60.77960938 2.03515625 59.66796875 C2.30873527 57.82992304 2.58971139 55.991347 2.96044922 54.17041016 C5.90072031 39.4410854 0.17905677 30.03593257 -7.71142578 17.8046875 C-9.4524336 15.10181595 -11.14241269 12.37457233 -12.80859375 9.625 C-13.53260376 8.43390625 -13.53260376 8.43390625 -14.27124023 7.21875 C-15.4375 5.125 -15.4375 5.125 -16.4375 2.125 C-10.81492839 0.2080427 -5.91380615 -0.12389924 0 0 Z " fill="#146B3B" transform="translate(44.4375,275.875)"/>
<path d="M0 0 C8.01470585 0.54278267 16.01303902 1.13505261 24 2 C22.58192622 6.47238653 20.88695626 10.71146306 19 15 C18.34 15 17.68 15 17 15 C16.505 17.475 16.505 17.475 16 20 C15.34 20 14.68 20 14 20 C13.74605469 20.71027344 13.49210938 21.42054688 13.23046875 22.15234375 C12 25 12 25 10.23828125 27.62890625 C3.78123674 37.46509373 4.10342962 46.65444502 6 58 C6.33902344 59.16917969 6.67804688 60.33835937 7.02734375 61.54296875 C8.20072685 65.71342675 8.44775028 69.62811618 8.625 73.9375 C8.66367187 74.71673828 8.70234375 75.49597656 8.7421875 76.29882812 C8.83544127 78.19887379 8.91875962 80.09940278 9 82 C1.48740294 82.11518462 -5.89462825 81.81232746 -13.375 81.125 C-14.38377197 81.03476562 -15.39254395 80.94453125 -16.43188477 80.8515625 C-22.62177464 80.27756643 -28.74720937 79.53807027 -34.87890625 78.50390625 C-39.99187685 77.67840787 -45.13248674 77.0881454 -50.2734375 76.46484375 C-53.85675702 76.01786783 -57.42699247 75.52164063 -61 75 C-60.85816304 73.24967156 -60.71136571 71.49974466 -60.5625 69.75 C-60.48128906 68.77546875 -60.40007812 67.8009375 -60.31640625 66.796875 C-60.04925416 64.43538247 -59.64628032 62.28098935 -59 60 C-56.64499052 60.11517421 -54.29150927 60.24187978 -51.9375 60.375 C-50.62652344 60.44460938 -49.31554687 60.51421875 -47.96484375 60.5859375 C-44 61 -44 61 -40.84375 61.9375 C-35.16453392 63.50736461 -29.41099935 63.99962855 -23.5625 64.625 C-22.35400391 64.7590625 -21.14550781 64.893125 -19.90039062 65.03125 C-16.93414009 65.35953069 -13.96739719 65.68228061 -11 66 C-10.95101562 65.35748291 -10.90203125 64.71496582 -10.8515625 64.05297852 C-10.23600782 56.61790044 -9.20006689 49.2987799 -8 41.9375 C-7.82210937 40.81150391 -7.64421875 39.68550781 -7.4609375 38.52539062 C-6.12842447 30.25684894 -6.12842447 30.25684894 -5 28 C-4.73734148 26.57629388 -4.51533324 25.14493773 -4.31640625 23.7109375 C-4.19330078 22.85113281 -4.07019531 21.99132812 -3.94335938 21.10546875 C-3.69273445 19.30868081 -3.44271784 17.51180789 -3.19335938 15.71484375 C-2.42628544 10.36519858 -1.40528096 5.21961501 0 0 Z " fill="#126838" transform="translate(546,276)"/>
<path d="M0 0 C2.68893267 0.08771546 5.37485308 0.19467925 8.0625 0.3125 C9.19075195 0.34633789 9.19075195 0.34633789 10.34179688 0.38085938 C16.25883598 0.66262314 21.45448637 1.61871306 25.9375 5.8125 C27.31552396 8.64960815 27.21219778 10.88776587 27 14 C26.34 14 25.68 14 25 14 C24.9071875 15.175625 24.9071875 15.175625 24.8125 16.375 C24.544375 17.24125 24.27625 18.1075 24 19 C21.4375 20.3125 21.4375 20.3125 19 21 C19.8971875 22.299375 19.8971875 22.299375 20.8125 23.625 C22.30557205 25.83832159 23.40914023 27.86737729 24.5625 30.3125 C25.76668365 33.30410834 25.76668365 33.30410834 29 34 C29 35.32 29 36.64 29 38 C23.72432432 38.43243243 23.72432432 38.43243243 21 38 C19.1875 35.8125 19.1875 35.8125 18 33 C17.443125 32.113125 16.88625 31.22625 16.3125 30.3125 C15 28 15 28 15 26 C14.34 26 13.68 26 13 26 C13 25.01 13 24.02 13 23 C12.01 23 11.02 23 10 23 C10 26.3 10 29.6 10 33 C11.65 33 13.3 33 15 33 C15 34.32 15 35.64 15 37 C9.39 37 3.78 37 -2 37 C-1.67 35.35 -1.34 33.7 -1 32 C0.32 32 1.64 32 3 32 C2.98839844 31.23558594 2.97679687 30.47117187 2.96484375 29.68359375 C2.89227265 21.06836707 3.33511636 12.58412275 4 4 C2.68 4 1.36 4 0 4 C0 2.68 0 1.36 0 0 Z " fill="#EAF2EE" transform="translate(376,267)"/>
<path d="M0 0 C3.20802233 -0.11698258 6.41549025 -0.18750607 9.625 -0.25 C10.98044922 -0.30027344 10.98044922 -0.30027344 12.36328125 -0.3515625 C18.04085931 -0.43444685 21.64884855 -0.06294917 26 4 C27.8109435 8.27475933 27.30985442 12.18847651 25.6875 16.4375 C24 19 24 19 22 21 C22.90084261 22.65454759 23.82127608 24.2984402 24.75 25.9375 C25.26046875 26.85402344 25.7709375 27.77054687 26.296875 28.71484375 C27.78860295 31.14892513 27.78860295 31.14892513 30.203125 31.81640625 C31.09257812 31.90728516 31.09257812 31.90728516 32 32 C32 33.32 32 34.64 32 36 C25.64948454 36.36637589 25.64948454 36.36637589 22.5625 34.625 C21 33 21 33 21 31 C20.34 31 19.68 31 19 31 C17.63242962 29.01860265 16.49654964 26.94527788 15.31640625 24.84765625 C14.05288044 22.69032541 14.05288044 22.69032541 11 22 C11 25.63 11 29.26 11 33 C13.31 33 15.62 33 18 33 C17.67 34.32 17.34 35.64 17 37 C11.72 37 6.44 37 1 37 C1 35.68 1 34.36 1 33 C2.32 33 3.64 33 5 33 C5 23.76 5 14.52 5 5 C3.35 5 1.7 5 0 5 C0 3.35 0 1.7 0 0 Z " fill="#EDF3F0" transform="translate(223,265)"/>
<path d="M0 0 C5.28 0.33 10.56 0.66 16 1 C16 2.65 16 4.3 16 6 C14.35 6 12.7 6 11 6 C11.061875 7.051875 11.061875 7.051875 11.125 8.125 C11 11 11 11 9 17 C15.93 17.495 15.93 17.495 23 18 C23.33 14.37 23.66 10.74 24 7 C22.68 7 21.36 7 20 7 C20 5.35 20 3.7 20 2 C22.47960136 2.14024219 24.95852402 2.2869185 27.4375 2.4375 C28.14455078 2.47681641 28.85160156 2.51613281 29.58007812 2.55664062 C34.88671875 2.88671875 34.88671875 2.88671875 36 4 C36.04063832 5.66617115 36.042721 7.33388095 36 9 C34.02 9 32.04 9 30 9 C29.94465088 9.60473145 29.88930176 10.20946289 29.83227539 10.83251953 C29.57796135 13.59689466 29.32025918 16.36094407 29.0625 19.125 C28.97548828 20.07632812 28.88847656 21.02765625 28.79882812 22.0078125 C28.35804822 26.70946481 27.86831805 31.35332502 27 36 C28.32 36 29.64 36 31 36 C30.67 37.65 30.34 39.3 30 41 C25.38 40.34 20.76 39.68 16 39 C16 37.68 16 36.36 16 35 C17.65 35 19.3 35 21 35 C21 31.04 21 27.08 21 23 C16.71 22.67 12.42 22.34 8 22 C8.020625 23.2375 8.04125 24.475 8.0625 25.75 C8.06766681 28.6640825 7.93015558 31.20953327 7 34 C8.32 34 9.64 34 11 34 C11 35.32 11 36.64 11 38 C9.06257659 38.02703381 7.12504521 38.04641125 5.1875 38.0625 C4.10855469 38.07410156 3.02960938 38.08570313 1.91796875 38.09765625 C-1 38 -1 38 -4 37 C-4 35.35 -4 33.7 -4 32 C-2.35 31.67 -0.7 31.34 1 31 C1.99 22.09 2.98 13.18 4 4 C2.68 4 1.36 4 0 4 C0 2.68 0 1.36 0 0 Z " fill="#EAF2EE" transform="translate(480,277)"/>
<path d="M0 0 C0 1.32 0 2.64 0 4 C-1.65 4.33 -3.3 4.66 -5 5 C-5 7.64 -5 10.28 -5 13 C-4.34 13 -3.68 13 -3 13 C-2.01 25.375 -2.01 25.375 -1 38 C-6 38 -6 38 -7.88110352 36.6105957 C-8.45787842 35.97210693 -9.03465332 35.33361816 -9.62890625 34.67578125 C-10.27150391 33.97646484 -10.91410156 33.27714844 -11.57617188 32.55664062 C-12.23166016 31.81607422 -12.88714844 31.07550781 -13.5625 30.3125 C-14.5515332 29.2306543 -14.5515332 29.2306543 -15.56054688 28.12695312 C-18.25254114 25.16440667 -20.85531043 22.18285476 -23.33984375 19.04296875 C-24.842605 16.90698821 -24.842605 16.90698821 -27 16 C-26.855625 16.70125 -26.71125 17.4025 -26.5625 18.125 C-25.43902645 23.86719815 -24.7793285 29.15220515 -25 35 C-23.02 35 -21.04 35 -19 35 C-19 36.65 -19 38.3 -19 40 C-28.41002278 42.48063781 -28.41002278 42.48063781 -33 41 C-32.67 39.35 -32.34 37.7 -32 36 C-31.34 36 -30.68 36 -30 36 C-30.2165625 34.081875 -30.2165625 34.081875 -30.4375 32.125 C-30.62522621 30.41669151 -30.81271348 28.70835675 -31 27 C-31.09539062 26.16082031 -31.19078125 25.32164062 -31.2890625 24.45703125 C-31.85214909 19.26859055 -32.09664316 14.21873039 -32 9 C-33.65 9 -35.3 9 -37 9 C-36.67 7.35 -36.34 5.7 -36 4 C-29.16830376 3.28557425 -29.16830376 3.28557425 -26.21777344 5.08984375 C-24.49220522 6.64708903 -22.92921076 8.27178392 -21.375 10 C-20.81449951 10.59071289 -20.25399902 11.18142578 -19.67651367 11.79003906 C-15.77498996 15.96092793 -12.31119404 20.34643 -9 25 C-8.34 25.33 -7.68 25.66 -7 26 C-7.309375 25.319375 -7.61875 24.63875 -7.9375 23.9375 C-10.07193954 18.03640244 -10.10861888 12.19127603 -10 6 C-11.65 6 -13.3 6 -15 6 C-15 4.35 -15 2.7 -15 1 C-10.03926578 -0.32286246 -5.08888488 -0.08893197 0 0 Z " fill="#E7EFEB" transform="translate(114,274)"/>
<path d="M0 0 C4.62 0 9.24 0 14 0 C13.67 1.65 13.34 3.3 13 5 C12.01 5 11.02 5 10 5 C10.15855469 5.7940625 10.31710938 6.588125 10.48046875 7.40625 C11.11449576 11.79200075 11.26087806 16.07427885 11.3125 20.5 C11.34150391 21.32886719 11.37050781 22.15773438 11.40039062 23.01171875 C11.45741233 28.52966536 10.66909404 31.61878974 7 36 C3.14947191 39.39752478 -0.6731448 39.50348545 -5.6171875 39.36328125 C-8.9861773 38.84964838 -10.77052486 37.52673849 -13 35 C-13 34.34 -13 33.68 -13 33 C-13.66 33 -14.32 33 -15 33 C-17.69535011 24.91394966 -17.17190717 15.46165271 -17 7 C-18.65 6.67 -20.3 6.34 -22 6 C-22 4.68 -22 3.36 -22 2 C-14.08 1.505 -14.08 1.505 -6 1 C-6 2.65 -6 4.3 -6 6 C-7.32 6 -8.64 6 -10 6 C-9.75018064 9.56429886 -9.47145454 13.12577096 -9.1875 16.6875 C-9.11724609 17.69490234 -9.04699219 18.70230469 -8.97460938 19.74023438 C-8.50776234 26.9050713 -8.50776234 26.9050713 -5 33 C-2 33.83333333 -2 33.83333333 1 33 C5.23491805 28.3702178 4.33401977 22.55956144 4.1875 16.6875 C4.17396484 15.66076172 4.16042969 14.63402344 4.14648438 13.57617188 C4.11123883 11.05024091 4.061967 8.5253934 4 6 C1.525 5.505 1.525 5.505 -1 5 C-0.67 3.35 -0.34 1.7 0 0 Z " fill="#DEEAE3" transform="translate(204,265)"/>
<path d="M0 0 C9.24 0 18.48 0 28 0 C28 2.97 28 5.94 28 9 C26.68 9 25.36 9 24 9 C23.67 8.01 23.34 7.02 23 6 C17.555 5.505 17.555 5.505 12 5 C12 8.63 12 12.26 12 16 C13.98 16 15.96 16 18 16 C18.33 14.35 18.66 12.7 19 11 C20.32 11.33 21.64 11.66 23 12 C23 16.29 23 20.58 23 25 C21.35 24.67 19.7 24.34 18 24 C18 23.01 18 22.02 18 21 C16.35 21 14.7 21 13 21 C13 24.63 13 28.26 13 32 C16.63 32 20.26 32 24 32 C24.66 30.68 25.32 29.36 26 28 C27.32 28 28.64 28 30 28 C30 29.32 30 30.64 30 32 C29.34 32 28.68 32 28 32 C28 33.65 28 35.3 28 37 C19.42 37 10.84 37 2 37 C2 35.35 2 33.7 2 32 C3.32 32 4.64 32 6 32 C6 22.76 6 13.52 6 4 C4.02 4 2.04 4 0 4 C0 2.68 0 1.36 0 0 Z " fill="#E9F1EC" transform="translate(256,264)"/>
<path d="M0 0 C2.3046875 0.1796875 2.3046875 0.1796875 5 1 C6.6953125 3.2578125 6.6953125 3.2578125 8.125 6.125 C8.87910156 7.61386719 8.87910156 7.61386719 9.6484375 9.1328125 C11.18509366 12.39265534 12.61406261 15.67375025 14 19 C14.66 19.99 15.32 20.98 16 22 C16 22.99 16 23.98 16 25 C16.66 25 17.32 25 18 25 C18.2475 25.804375 18.495 26.60875 18.75 27.4375 C19.72238859 30.171081 19.72238859 30.171081 22.125 30.8125 C23.053125 30.9053125 23.053125 30.9053125 24 31 C24 32.65 24 34.3 24 36 C20.84493858 36.93619813 18.03413498 37.1057123 14.75 37.0625 C13.85796875 37.05347656 12.9659375 37.04445313 12.046875 37.03515625 C11.37140625 37.02355469 10.6959375 37.01195312 10 37 C10.12568359 36.06027344 10.12568359 36.06027344 10.25390625 35.1015625 C10.35574219 34.28429687 10.45757812 33.46703125 10.5625 32.625 C10.66691406 31.81289063 10.77132812 31.00078125 10.87890625 30.1640625 C11.18237328 27.95100814 11.18237328 27.95100814 10 26 C6.04 26 2.08 26 -2 26 C-2.33 28.64 -2.66 31.28 -3 34 C-1.68 34 -0.36 34 1 34 C0.505 36.475 0.505 36.475 0 39 C-3.67410785 40.17571451 -7.16929183 40.07366746 -11 40 C-11.33 38.35 -11.66 36.7 -12 35 C-10.515 34.505 -10.515 34.505 -9 34 C-8.11882073 31.12069515 -7.41875778 28.37442971 -6.8125 25.4375 C-6.63525391 24.63119141 -6.45800781 23.82488281 -6.27539062 22.99414062 C-5.83850399 20.9986314 -5.41773327 18.99960644 -5 17 C-4.34 17 -3.68 17 -3 17 C-2.95101562 16.35933594 -2.90203125 15.71867187 -2.8515625 15.05859375 C-2.3959855 9.78803915 -1.6402621 5.03013712 0 0 Z " fill="#E7F0EB" transform="translate(130,271)"/>
<path d="M0 0 C5.44693314 -0.09688221 10.63904667 -0.12862175 16 1 C16 2.65 16 4.3 16 6 C14.35 6 12.7 6 11 6 C10.94215292 10.12494151 10.90645593 14.24977944 10.875 18.375 C10.85824219 19.550625 10.84148437 20.72625 10.82421875 21.9375 C10.81455078 23.61972656 10.81455078 23.61972656 10.8046875 25.3359375 C10.78897705 26.89127197 10.78897705 26.89127197 10.77294922 28.47802734 C10.74384974 31.17108623 10.74384974 31.17108623 13 33 C15.65537372 33.56520003 18.29144713 33.73788198 21 34 C21.33 32.68 21.66 31.36 22 30 C22.66 30 23.32 30 24 30 C24.09087891 28.40671875 24.09087891 28.40671875 24.18359375 26.78125 C25.00202111 12.84328379 25.00202111 12.84328379 26 6 C24.68 6 23.36 6 22 6 C22 5.01 22 4.02 22 3 C26.62 3 31.24 3 36 3 C36 4.32 36 5.64 36 7 C34.35 7 32.7 7 31 7 C30.95101563 8.19496094 30.90203125 9.38992188 30.8515625 10.62109375 C30.13852619 26.30130573 30.13852619 26.30130573 28 34 C27.34 34 26.68 34 26 34 C25.67 34.99 25.34 35.98 25 37 C20.3413446 40.10577027 15.45635205 39.61853384 10 39 C6.92634214 37.19196596 5.56980268 36.13960536 4 33 C3.90461412 31.57281123 3.86926523 30.14130876 3.8671875 28.7109375 C3.86589844 27.85113281 3.86460937 26.99132812 3.86328125 26.10546875 C3.86714844 25.20441406 3.87101562 24.30335938 3.875 23.375 C3.87113281 22.49714844 3.86726563 21.61929687 3.86328125 20.71484375 C3.87119992 15.3855804 4.22563568 10.27305226 5 5 C3.68 4.67 2.36 4.34 1 4 C0.67 2.68 0.34 1.36 0 0 Z " fill="#EEF4F0" transform="translate(408,269)"/>
<path d="M0 0 C2.4375 1.5625 2.4375 1.5625 3.4375 2.5625 C3.625 5 3.625 5 3.4375 7.5625 C1.4375 9.5625 1.4375 9.5625 -1.0625 9.8125 C-3.5625 9.5625 -3.5625 9.5625 -5.5625 7.5625 C-5.5625 6.2425 -5.5625 4.9225 -5.5625 3.5625 C-8.2025 3.8925 -10.8425 4.2225 -13.5625 4.5625 C-12.68482518 8.23324587 -12.11129496 10.12956175 -9.1015625 12.50390625 C-8.13992188 13.03886719 -7.17828125 13.57382812 -6.1875 14.125 C-2.03571223 16.45828235 0.84164816 18.50878825 3.4375 22.5625 C3.85641808 25.71485858 3.36702942 28.52837566 2.4375 31.5625 C0.5 33.625 0.5 33.625 -1.5625 34.5625 C-2.2225 34.5625 -2.8825 34.5625 -3.5625 34.5625 C-3.5625 35.2225 -3.5625 35.8825 -3.5625 36.5625 C-7.5225 36.5625 -11.4825 36.5625 -15.5625 36.5625 C-15.5625 35.9025 -15.5625 35.2425 -15.5625 34.5625 C-16.490625 34.376875 -16.490625 34.376875 -17.4375 34.1875 C-19.5625 33.5625 -19.5625 33.5625 -21.5625 31.5625 C-21.6875 28.4375 -21.6875 28.4375 -21.5625 25.5625 C-18.6875 24.9375 -18.6875 24.9375 -15.5625 24.5625 C-13.5625 26.5625 -13.5625 26.5625 -13.4375 29.1875 C-13.47875 29.97125 -13.52 30.755 -13.5625 31.5625 C-10.9225 31.5625 -8.2825 31.5625 -5.5625 31.5625 C-5.5625 30.9025 -5.5625 30.2425 -5.5625 29.5625 C-4.9025 29.2325 -4.2425 28.9025 -3.5625 28.5625 C-3.56964672 26.19035875 -3.56964672 26.19035875 -4.5625 23.5625 C-6.69677816 21.98383971 -8.62463105 20.74366552 -10.9375 19.5 C-18.455379 15.3553178 -18.455379 15.3553178 -20.5625 11.5625 C-21.15532965 8.82800649 -21.08145797 6.30959272 -20.5625 3.5625 C-15.69720938 -2.98047705 -7.05086338 -2.84508522 0 0 Z " fill="#EBF2EE" transform="translate(322.5625,265.4375)"/>
<path d="M0 0 C6.60246686 -0.1074664 13.00121203 0.28754907 19.5625 1 C20.93245117 1.14308594 20.93245117 1.14308594 22.33007812 1.2890625 C24.55382138 1.5219152 26.77697717 1.76036712 29 2 C29 4.97 29 7.94 29 11 C27.68 11 26.36 11 25 11 C25 10.01 25 9.02 25 8 C22.69 7.67 20.38 7.34 18 7 C18 8.98 18 10.96 18 13 C17.34 13 16.68 13 16 13 C16.01160156 13.67804688 16.02320313 14.35609375 16.03515625 15.0546875 C16.09708351 21.44204207 15.77018868 27.65969676 15 34 C16.32 34.33 17.64 34.66 19 35 C19 36.32 19 37.64 19 39 C14.05 38.67 9.1 38.34 4 38 C3.67 36.68 3.34 35.36 3 34 C5.475 33.505 5.475 33.505 8 33 C8.09087891 31.28490234 8.09087891 31.28490234 8.18359375 29.53515625 C8.26798428 28.04425695 8.35263302 26.55337225 8.4375 25.0625 C8.47681641 24.30775391 8.51613281 23.55300781 8.55664062 22.77539062 C8.88671875 17.11328125 8.88671875 17.11328125 10 16 C10.07205511 14.31391034 10.08386068 12.62499341 10.0625 10.9375 C10.04896484 9.55884766 10.04896484 9.55884766 10.03515625 8.15234375 C10.02355469 7.44207031 10.01195312 6.73179687 10 6 C7.03 5.505 7.03 5.505 4 5 C3.67 6.32 3.34 7.64 3 9 C1.68 8.67 0.36 8.34 -1 8 C-0.67 5.36 -0.34 2.72 0 0 Z " fill="#E5EFEA" transform="translate(447,273)"/>
<path d="M0 0 C10.38437692 -0.09776087 20.66192051 -0.1555538 31 1 C31 3.97 31 6.94 31 10 C29.35 10 27.7 10 26 10 C26 8.68 26 7.36 26 6 C23.36 6 20.72 6 18 6 C17.67 15.24 17.34 24.48 17 34 C18.65 34 20.3 34 22 34 C22 35.32 22 36.64 22 38 C16.72 38 11.44 38 6 38 C6.33 36.35 6.66 34.7 7 33 C8.32 33 9.64 33 11 33 C10.98839844 32.319375 10.97679687 31.63875 10.96484375 30.9375 C10.8840013 22.25271113 11.38478793 13.65691267 12 5 C9.69 5.33 7.38 5.66 5 6 C4.67 6.99 4.34 7.98 4 9 C2.68 9 1.36 9 0 9 C0 6.03 0 3.06 0 0 Z " fill="#E9F1EC" transform="translate(342,265)"/>
<path d="M0 0 C0.33 2.64 0.66 5.28 1 8 C-0.32 8 -1.64 8 -3 8 C-3 7.01 -3 6.02 -3 5 C-5.31 5 -7.62 5 -10 5 C-9.9278125 5.84820312 -9.855625 6.69640625 -9.78125 7.5703125 C-9.10755866 16.08502245 -8.88315219 24.45712664 -9 33 C-7.35 33 -5.7 33 -4 33 C-4 34.32 -4 35.64 -4 37 C-8.95 37.33 -13.9 37.66 -19 38 C-19 36.68 -19 35.36 -19 34 C-18.01 34 -17.02 34 -16 34 C-16.0721875 32.98421875 -16.144375 31.9684375 -16.21875 30.921875 C-16.78748769 22.60066466 -17.14226164 14.34601611 -17 6 C-19.64 6 -22.28 6 -25 6 C-25 7.65 -25 9.3 -25 11 C-26.32 11 -27.64 11 -29 11 C-29 8.03 -29 5.06 -29 2 C-19.70861372 -0.32284657 -9.5448333 -0.20212588 0 0 Z " fill="#EAF1ED" transform="translate(179,268)"/>
<path d="M0 0 C1.09506492 3.28519475 1.09960608 5.73663415 1.0625 9.1875 C1.05347656 10.27417969 1.04445312 11.36085938 1.03515625 12.48046875 C1.02355469 13.31191406 1.01195312 14.14335937 1 15 C-1.76047543 15.92015848 -3.63362269 16.19267245 -6.5 16.25 C-7.2734375 16.27578125 -8.046875 16.3015625 -8.84375 16.328125 C-11 16 -11 16 -12.30371094 14.55029297 C-14.56061238 12.48763837 -16.29147108 12.32983321 -19.296875 11.8671875 C-20.3384375 11.70089844 -21.38 11.53460938 -22.453125 11.36328125 C-23.54109375 11.20214844 -24.6290625 11.04101562 -25.75 10.875 C-27.35875 10.62169922 -27.35875 10.62169922 -29 10.36328125 C-34.32676073 9.53015488 -39.66059065 8.74751731 -45 8 C-40.63136052 5.43021207 -36.04159731 5.19800332 -31.09375 4.5625 C-28.111017 4.17592853 -28.111017 4.17592853 -26.078125 3.0078125 C-22.95005117 1.49081429 -19.66391676 1.26207978 -16.25 0.875 C-15.57195312 0.78863281 -14.89390625 0.70226562 -14.1953125 0.61328125 C-9.43552392 0.0431925 -4.79279099 -0.07522318 0 0 Z " fill="#1F5D38" transform="translate(112,333)"/>
<path d="M0 0 C2.35500948 0.11517421 4.70849073 0.24187978 7.0625 0.375 C8.37347656 0.44460938 9.68445313 0.51421875 11.03515625 0.5859375 C15 1 15 1 18.359375 1.9765625 C23.7932149 3.50410119 29.27043591 3.77154248 34.88085938 4.2109375 C35.73873047 4.28570312 36.59660156 4.36046875 37.48046875 4.4375 C38.25285889 4.49808594 39.02524902 4.55867188 39.82104492 4.62109375 C42.18421 5.03203293 43.91794722 5.83038059 46 7 C46 7.33 46 7.66 46 8 C33.63728874 10.2715118 21.32486789 12.36712513 8.8125 13.60546875 C5.18627636 13.98072345 1.60432183 14.46029035 -2 15 C-1.85816304 13.24967156 -1.71136571 11.49974466 -1.5625 9.75 C-1.48128906 8.77546875 -1.40007812 7.8009375 -1.31640625 6.796875 C-1.04925416 4.43538247 -0.64628032 2.28098935 0 0 Z " fill="#1F5D37" transform="translate(487,336)"/>
<path d="M0 0 C4.29 0.33 8.58 0.66 13 1 C13 4.96 13 8.92 13 13 C9.38026598 14.31626692 6.90432869 15 3 15 C3 14.01 3 13.02 3 12 C1.68 12 0.36 12 -1 12 C-0.67 8.04 -0.34 4.08 0 0 Z " fill="#21824F" transform="translate(488,299)"/>
<path d="M0 0 C2.375 1 2.375 1 4 3 C4.5659239 7.45665069 4.82483134 9.73102871 2.375 13.5 C-0.72140596 15.45562482 -2.39853135 15.60024477 -6 15 C-8.375 13.4375 -8.375 13.4375 -10 11 C-10.56783945 7.02512383 -10.62340519 4.93510779 -8.375 1.5625 C-5.30182885 -0.45932313 -3.61752119 -0.52755517 0 0 Z " fill="#C7D6CC" transform="translate(529,284)"/>
<path d="M0 0 C3.63 0 7.26 0 11 0 C11.33 1.32 11.66 2.64 12 4 C13.32 4.33 14.64 4.66 16 5 C14.68 5 13.36 5 12 5 C12 9.62 12 14.24 12 19 C11.67 19 11.34 19 11 19 C10.67 15.04 10.34 11.08 10 7 C9.01 7 8.02 7 7 7 C6.67 8.32 6.34 9.64 6 11 C4.02 11 2.04 11 0 11 C0 7.37 0 3.74 0 0 Z " fill="#408961" transform="translate(268,269)"/>
<path d="M0 0 C4.40114397 0.50298788 6.71195019 2.08772731 10 5 C9.67 6.65 9.34 8.3 9 10 C8.34 10 7.68 10 7 10 C7 10.66 7 11.32 7 12 C4.36 12 1.72 12 -1 12 C-2.42857143 3.42857143 -2.42857143 3.42857143 0 0 Z " fill="#267C4D" transform="translate(310,285)"/>
<path d="M0 0 C2.64 0 5.28 0 8 0 C8.03738281 0.61488281 8.07476563 1.22976563 8.11328125 1.86328125 C8.21189453 3.07564453 8.21189453 3.07564453 8.3125 4.3125 C8.39951172 5.51326172 8.39951172 5.51326172 8.48828125 6.73828125 C9.10001846 9.44206631 9.74727616 10.402614 12 12 C14.05363606 12.3606631 14.05363606 12.3606631 16.1875 12.1875 C17.445625 12.125625 18.70375 12.06375 20 12 C21.41377341 9.36095629 22.37240135 6.92879371 23 4 C23.66 4 24.32 4 25 4 C24.52238806 11.1641791 24.52238806 11.1641791 22.4375 14.5 C19.00553622 16.61197771 15.86626224 16.78245783 12 16 C9.1899654 14.20636089 7.49059532 12.98119065 6 10 C5.86584528 7.3276379 5.95681459 4.67749512 6 2 C4.02 2.33 2.04 2.66 0 3 C0 2.01 0 1.02 0 0 Z " fill="#266841" transform="translate(511,286)"/>
<path d="M0 0 C0.66 0.33 1.32 0.66 2 1 C2 1.66 2 2.32 2 3 C3.32 3 4.64 3 6 3 C5.67 5.97 5.34 8.94 5 12 C0.83861737 12.08159574 -2.9472484 11.98248524 -7 11 C-6.01 10.34 -5.02 9.68 -4 9 C-4.33 6.69 -4.66 4.38 -5 2 C-3.35 2 -1.7 2 0 2 C0 1.34 0 0.68 0 0 Z " fill="#0D723B" transform="translate(497,282)"/>
<path d="M0 0 C1.65 0 3.3 0 5 0 C5.33 0.99 5.66 1.98 6 3 C8.50447516 4.21869929 8.50447516 4.21869929 11 5 C11 6.98 11 8.96 11 11 C7.37 11 3.74 11 0 11 C0 7.37 0 3.74 0 0 Z " fill="#0D7A41" transform="translate(269,285)"/>
<path d="M0 0 C0.66 1.65 1.32 3.3 2 5 C5.62885324 5.15149298 5.62885324 5.15149298 9 4 C9 5.65 9 7.3 9 9 C8.67 8.34 8.34 7.68 8 7 C5.69 7 3.38 7 1 7 C1.33 8.65 1.66 10.3 2 12 C-1.98907894 10.63231579 -5.00182346 8.99817654 -8 6 C-8.3125 3.25 -8.3125 3.25 -8 1 C-5.29120665 -0.35439668 -2.99066732 -0.06501451 0 0 Z " fill="#308356" transform="translate(317,269)"/>
<path d="M0 0 C1.98 0 3.96 0 6 0 C8 2 8 2 8.375 5.4375 C8 9 8 9 6.25 10.9375 C4 12 4 12 0 12 C0 8.04 0 4.08 0 0 Z " fill="#20804D" transform="translate(234,270)"/>
<path d="M0 0 C-1.52744106 4.27683498 -4.00075302 6.00037651 -8 8 C-14.03718267 8.89185653 -18.75903259 8.31008468 -24 5 C-23.67 4.34 -23.34 3.68 -23 3 C-17.72 3.33 -12.44 3.66 -7 4 C-7 3.34 -7 2.68 -7 2 C-4.35261084 0.5393715 -3.10551666 0 0 0 Z " fill="#2D6A46" transform="translate(326,298)"/>
<path d="M0 0 C6.75 0.75 6.75 0.75 9 3 C8.54545455 8.45454545 8.54545455 8.45454545 6 11 C2.875 11.125 2.875 11.125 0 11 C0 7.37 0 3.74 0 0 Z " fill="#1E7F4B" transform="translate(387,273)"/>
<path d="M0 0 C8.58 0 17.16 0 26 0 C26 0.99 26 1.98 26 3 C17.42 3 8.84 3 0 3 C0 2.01 0 1.02 0 0 Z " fill="#1A5D35" transform="translate(258,302)"/>
<path d="M0 0 C4 1 4 1 6.25 3.9375 C8 7 8 7 8 9 C8.66 9 9.32 9 10 9 C9.34 10.98 8.68 12.96 8 15 C7.34 14.67 6.68 14.34 6 14 C6.33 13.01 6.66 12.02 7 11 C4.69 11 2.38 11 0 11 C0 7.37 0 3.74 0 0 Z " fill="#549672" transform="translate(234,287)"/>
<path d="M0 0 C2.375 -0.125 2.375 -0.125 5 0 C7 2 7 2 7.4375 4.25 C6.78250087 8.3671374 4.93818558 10.06181442 2 13 C1.01 13 0.02 13 -1 13 C-1.02708567 11.39592672 -1.04643483 9.7917215 -1.0625 8.1875 C-1.07410156 7.29417969 -1.08570313 6.40085937 -1.09765625 5.48046875 C-1 3 -1 3 0 0 Z " fill="#E9F1ED" transform="translate(291,262)"/>
<path d="M0 0 C2 2 2 2 2.125 5.625 C2.08375 6.73875 2.0425 7.8525 2 9 C1.01 8.67 0.02 8.34 -1 8 C-1 7.01 -1 6.02 -1 5 C-1.99 5 -2.98 5 -4 5 C-4 5.66 -4 6.32 -4 7 C-3.34 7 -2.68 7 -2 7 C-1.67 8.32 -1.34 9.64 -1 11 C-5.75 10.125 -5.75 10.125 -8 9 C-8.1875 5.625 -8.1875 5.625 -8 2 C-4.77626323 -0.14915785 -3.73296326 -0.38286803 0 0 Z " fill="#769B84" transform="translate(529,286)"/>
<path d="M0 0 C0.33 0 0.66 0 1 0 C1.495 8.415 1.495 8.415 2 17 C-5.72500678 17.08893922 -13.30542327 16.79539875 -21 16.125 C-22.02222656 16.04636719 -23.04445313 15.96773438 -24.09765625 15.88671875 C-25.07605469 15.80292969 -26.05445313 15.71914063 -27.0625 15.6328125 C-27.94035156 15.55949707 -28.81820312 15.48618164 -29.72265625 15.41064453 C-32 15 -32 15 -35 13 C-33.20369141 13.10828125 -33.20369141 13.10828125 -31.37109375 13.21875 C-21.22532638 13.80559148 -11.16276448 14.10062143 -1 14 C-0.67 9.38 -0.34 4.76 0 0 Z " fill="#6AA384" transform="translate(553,341)"/>
<path d="M0 0 C3.33510304 1.11170101 4.10364173 1.99468142 6.3125 4.625 C7.22128906 5.69621094 7.22128906 5.69621094 8.1484375 6.7890625 C8.75945312 7.51867187 9.37046875 8.24828125 10 9 C11.14453013 10.33445216 12.29025017 11.66788527 13.4375 13 C14.283125 13.99 15.12875 14.98 16 16 C15.01 16.33 14.02 16.66 13 17 C11.89263314 15.91993807 10.78925419 14.83578674 9.6875 13.75 C9.07261719 13.14671875 8.45773438 12.5434375 7.82421875 11.921875 C6 10 6 10 3 6 C3 10.29 3 14.58 3 19 C2.67 19 2.34 19 2 19 C1.34 12.73 0.68 6.46 0 0 Z " fill="#2F6B47" transform="translate(87,290)"/>
<path d="M0 0 C0.66386719 0.48082031 1.32773437 0.96164062 2.01171875 1.45703125 C5.62376172 3.32207305 8.83345814 3.55423066 12.8125 3.6875 C13.85180664 3.73874023 13.85180664 3.73874023 14.91210938 3.79101562 C16.60752849 3.87286344 18.30373458 3.93812365 20 4 C19.67 4.66 19.34 5.32 19 6 C18.34 6 17.68 6 17 6 C17 6.66 17 7.32 17 8 C11.54513151 8.19139889 7.21444984 7.87720194 2 6 C1.34 5.34 0.68 4.68 0 4 C0 2.68 0 1.36 0 0 Z " fill="#26643F" transform="translate(413,304)"/>
<path d="M0 0 C0 0.99 0 1.98 0 3 C-5.35938791 6.57292527 -8.54642102 7.72862988 -15 7 C-18 5.5625 -18 5.5625 -20 4 C-20 3.67 -20 3.34 -20 3 C-19.05898437 2.95101563 -18.11796875 2.90203125 -17.1484375 2.8515625 C-15.28058594 2.73941406 -15.28058594 2.73941406 -13.375 2.625 C-12.14523438 2.55539062 -10.91546875 2.48578125 -9.6484375 2.4140625 C-6.16346145 2.0185513 -3.26950399 1.23738151 0 0 Z " fill="#266941" transform="translate(212,301)"/>
<path d="M0 0 C7.425 0.99 7.425 0.99 15 2 C15 2.99 15 3.98 15 5 C9.87416389 5.10251672 5.05002222 5.03590199 0 4 C0 2.68 0 1.36 0 0 Z " fill="#1D6239" transform="translate(476,314)"/>
<path d="M0 0 C4.62 0 9.24 0 14 0 C14 0.99 14 1.98 14 3 C10.85069107 4.04976964 8.61185544 4.10131595 5.3125 4.0625 C4.31863281 4.05347656 3.32476562 4.04445313 2.30078125 4.03515625 C1.16189453 4.01775391 1.16189453 4.01775391 0 4 C0 2.68 0 1.36 0 0 Z " fill="#1E633A" transform="translate(81,315)"/>
<path d="M0 0 C5.61 0 11.22 0 17 0 C17 0.99 17 1.98 17 3 C11.39 3 5.78 3 0 3 C0 2.01 0 1.02 0 0 Z " fill="#22603B" transform="translate(374,305)"/>
<path d="M0 0 C0.33 0 0.66 0 1 0 C1 1.65 1 3.3 1 5 C-0.65 5 -2.3 5 -4 5 C-3.01 7.97 -2.02 10.94 -1 14 C1.31 14.33 3.62 14.66 6 15 C6.33 14.01 6.66 13.02 7 12 C7 13.32 7 14.64 7 16 C-2.41002278 16.18451025 -2.41002278 16.18451025 -7 15 C-7.24042276 10.91281305 -6.42258812 7.82320557 -5 4 C-3.35 4 -1.7 4 0 4 C0 2.68 0 1.36 0 0 Z " fill="#469169" transform="translate(496,279)"/>
<path d="M0 0 C-0.33 0.99 -0.66 1.98 -1 3 C-6.28 3 -11.56 3 -17 3 C-17 2.01 -17 1.02 -17 0 C-14.54203147 -0.19436491 -12.08390706 -0.3807742 -9.625 -0.5625 C-8.92632812 -0.61857422 -8.22765625 -0.67464844 -7.5078125 -0.73242188 C-2.2265625 -1.11328125 -2.2265625 -1.11328125 0 0 Z " fill="#1C6038" transform="translate(241,303)"/>
<path d="M0 0 C3.96 0 7.92 0 12 0 C12 1.32 12 2.64 12 4 C8.37 3.67 4.74 3.34 1 3 C1.33 5.31 1.66 7.62 2 10 C1.34 10 0.68 10 0 10 C0 6.7 0 3.4 0 0 Z " fill="#1B6439" transform="translate(489,300)"/>
<path d="M0 0 C4.95 0 9.9 0 15 0 C15 0.99 15 1.98 15 3 C10.05 3 5.1 3 0 3 C0 2.01 0 1.02 0 0 Z " fill="#1B5F36" transform="translate(348,304)"/>
<path d="M0 0 C4.95 0.33 9.9 0.66 15 1 C15 1.99 15 2.98 15 4 C9.84828377 4.09038099 5.08086796 3.84681133 0 3 C0 2.01 0 1.02 0 0 Z " fill="#196036" transform="translate(451,312)"/>
<path d="M0 0 C0.33 0 0.66 0 1 0 C1.05447822 2.52113092 1.09389852 5.0410585 1.125 7.5625 C1.14175781 8.26697266 1.15851563 8.97144531 1.17578125 9.69726562 C1.22022044 14.51891822 0.52768004 18.42297438 -1 23 C-1.66 23 -2.32 23 -3 23 C-3.33 24.65 -3.66 26.3 -4 28 C-5.32 27.34 -6.64 26.68 -8 26 C-6.71034824 24.62437146 -5.37310707 23.29233607 -4 22 C-3.34 22 -2.68 22 -2 22 C-1.34 14.74 -0.68 7.48 0 0 Z " fill="#468863" transform="translate(438,281)"/>
<path d="M0 0 C3.3 0 6.6 0 10 0 C10 0.66 10 1.32 10 2 C9.0409375 2.1546875 9.0409375 2.1546875 8.0625 2.3125 C7.381875 2.539375 6.70125 2.76625 6 3 C5.67 3.99 5.34 4.98 5 6 C3.35 6 1.7 6 0 6 C0 4.02 0 2.04 0 0 Z " fill="#0B7A40" transform="translate(269,273)"/>
<path d="M0 0 C0.99 0 1.98 0 3 0 C3.66 3.3 4.32 6.6 5 10 C3.35 10 1.7 10 0 10 C0 6.7 0 3.4 0 0 Z " fill="#116F3C" transform="translate(386,290)"/>
<path d="M0 0 C1.93784265 0.14120714 3.87526955 0.28812873 5.8125 0.4375 C7.43091797 0.55931641 7.43091797 0.55931641 9.08203125 0.68359375 C12 1 12 1 15 2 C15 2.66 15 3.32 15 4 C9.87416389 4.10251672 5.05002222 4.03590199 0 3 C0 2.01 0 1.02 0 0 Z " fill="#1E5E37" transform="translate(495,317)"/>
<path d="M0 0 C0 0.99 0 1.98 0 3 C-4.67201205 4.20568053 -9.21496292 4.09382426 -14 4 C-14 3.01 -14 2.02 -14 1 C-12.04175306 0.83232136 -10.08339945 0.66588795 -8.125 0.5 C-6.48917969 0.36078125 -6.48917969 0.36078125 -4.8203125 0.21875 C-3.21670436 0.09437042 -1.60842449 0 0 0 Z " fill="#185F35" transform="translate(154,308)"/>
<path d="M0 0 C8.57142857 1 8.57142857 1 12 2 C12 2.66 12 3.32 12 4 C13.32 4.33 14.64 4.66 16 5 C9.86946489 5.32712342 5.37330889 5.39366878 0 2 C0 1.34 0 0.68 0 0 Z " fill="#1A6238" transform="translate(302,301)"/>
<path d="M0 0 C4 2 4 2 5 3 C5.04080783 4.99958364 5.04254356 7.00045254 5 9 C3.35 9 1.7 9 0 9 C0 6.03 0 3.06 0 0 Z " fill="#1A7040" transform="translate(235,287)"/>
<path d="M0 0 C1.32 0 2.64 0 4 0 C3.8583467 2.87526069 3.71181468 5.75013536 3.5625 8.625 C3.50352539 9.83736328 3.50352539 9.83736328 3.44335938 11.07421875 C3.21203918 15.45150865 2.83079083 19.68547281 2 24 C1.67 24 1.34 24 1 24 C1.00785522 23.06933716 1.00785522 23.06933716 1.01586914 22.11987305 C1.03665466 19.30909233 1.04966517 16.49832779 1.0625 13.6875 C1.07087891 12.71103516 1.07925781 11.73457031 1.08789062 10.72851562 C1.09111328 9.79072266 1.09433594 8.85292969 1.09765625 7.88671875 C1.10289307 7.02264404 1.10812988 6.15856934 1.11352539 5.26831055 C1.09335523 2.83271286 1.09335523 2.83271286 0 0 Z " fill="#5B9A77" transform="translate(430,275)"/>
<path d="M0 0 C0 0.99 0 1.98 0 3 C-4.95 3 -9.9 3 -15 3 C-15 2.34 -15 1.68 -15 1 C-9.92928099 0.28832014 -5.11791642 -0.10662326 0 0 Z " fill="#1E5C36" transform="translate(175,306)"/>
<path d="M0 0 C2.86697492 1.28519565 4.97607712 2.57129254 7 5 C7 5.66 7 6.32 7 7 C8.65 7 10.3 7 12 7 C12 7.99 12 8.98 12 10 C9.73828125 10.2421875 9.73828125 10.2421875 7 10 C4.98046875 8.3203125 4.98046875 8.3203125 3.1875 6.125 C2.28064453 5.04605469 2.28064453 5.04605469 1.35546875 3.9453125 C0 2 0 2 0 0 Z " fill="#195E35" transform="translate(101,306)"/>
<path d="M0 0 C-3.63423209 2.32590854 -6.77088331 2.16265833 -11 2 C-11 2.99 -11 3.98 -11 5 C-9.68 5.33 -8.36 5.66 -7 6 C-7.99 7.485 -7.99 7.485 -9 9 C-10.32 9 -11.64 9 -13 9 C-12.67 6.36 -12.34 3.72 -12 1 C-7.9472484 0.01751476 -4.16138263 -0.08159574 0 0 Z " fill="#55926F" transform="translate(140,296)"/>
<path d="M0 0 C0.66 0 1.32 0 2 0 C2.33 1.98 2.66 3.96 3 6 C3.66 6 4.32 6 5 6 C5.33 7.32 5.66 8.64 6 10 C1.25 9.125 1.25 9.125 -1 8 C-1.04241723 5.66705225 -1.04092937 3.33297433 -1 1 C-0.67 0.67 -0.34 0.34 0 0 Z " fill="#648D73" transform="translate(522,287)"/>
<path d="M0 0 C1.65 0 3.3 0 5 0 C5 7.26 5 14.52 5 22 C4.67 22 4.34 22 4 22 C4 16.06 4 10.12 4 4 C2.68 3.34 1.36 2.68 0 2 C0 1.34 0 0.68 0 0 Z " fill="#1A7040" transform="translate(256,269)"/>
<path d="M0 0 C3 1 3 1 4.1875 2.875 C5 5 5 5 5 8 C3.02 8 1.04 8 -1 8 C-0.67 5.36 -0.34 2.72 0 0 Z " fill="#397F58" transform="translate(132,284)"/>
<path d="M0 0 C1.65 0 3.3 0 5 0 C5.33 0.99 5.66 1.98 6 3 C8.01508358 3.73323796 8.01508358 3.73323796 10 4 C10 4.99 10 5.98 10 7 C8.35 7 6.7 7 5 7 C5 6.01 5 5.02 5 4 C3.35 3.67 1.7 3.34 0 3 C0 2.01 0 1.02 0 0 Z " fill="#21623B" transform="translate(269,285)"/>
<path d="M0 0 C2.31 0 4.62 0 7 0 C7 0.99 7 1.98 7 3 C8.32 3.33 9.64 3.66 11 4 C7.37 4 3.74 4 0 4 C0 2.68 0 1.36 0 0 Z " fill="#397250" transform="translate(169,273)"/>
<path d="M0 0 C-0.33 1.32 -0.66 2.64 -1 4 C-2.32 4 -3.64 4 -5 4 C-5 7.63 -5 11.26 -5 15 C-5.33 15 -5.66 15 -6 15 C-6 10.38 -6 5.76 -6 1 C-2 0 -2 0 0 0 Z " fill="#0D6A36" transform="translate(286,273)"/>
<path d="M0 0 C3.3 0 6.6 0 10 0 C10 0.99 10 1.98 10 3 C6.7 3 3.4 3 0 3 C0 2.01 0 1.02 0 0 Z " fill="#225D39" transform="translate(269,269)"/>
<path d="M0 0 C-0.33 0.99 -0.66 1.98 -1 3 C-4.63 3 -8.26 3 -12 3 C-12 2.34 -12 1.68 -12 1 C-7.95858806 0.36605303 -4.0934693 -0.12404452 0 0 Z " fill="#205C37" transform="translate(131,310)"/>
<path d="M0 0 C6.93 0.495 6.93 0.495 14 1 C11.47982574 3.52017426 10.48500151 3.29730377 7 3.3125 C6.113125 3.32925781 5.22625 3.34601563 4.3125 3.36328125 C3.549375 3.24339844 2.78625 3.12351562 2 3 C1.34 2.01 0.68 1.02 0 0 Z " fill="#195C34" transform="translate(192,304)"/>
<path d="M0 0 C3.3 0.33 6.6 0.66 10 1 C9.67 1.99 9.34 2.98 9 4 C6.69 4 4.38 4 2 4 C1.34 2.68 0.68 1.36 0 0 Z " fill="#1C5C35" transform="translate(245,301)"/>
<path d="M0 0 C4.75 -0.125 4.75 -0.125 7 1 C7 2.32 7 3.64 7 5 C4.59454362 6.20272819 3.05003047 6.10071472 0.375 6.0625 C-0.85089844 6.04896484 -0.85089844 6.04896484 -2.1015625 6.03515625 C-3.04128906 6.01775391 -3.04128906 6.01775391 -4 6 C-4.33 5.34 -4.66 4.68 -5 4 C-2.03 4.33 0.94 4.66 4 5 C4 3.68 4 2.36 4 1 C2.68 0.67 1.36 0.34 0 0 Z " fill="#6CA687" transform="translate(251,296)"/>
<path d="M0 0 C0 0.99 0 1.98 0 3 C-3.63 3.33 -7.26 3.66 -11 4 C-11 3.01 -11 2.02 -11 1 C-7.26513121 0.4254048 -3.78706732 0 0 0 Z " fill="#1E5C36" transform="translate(140,297)"/>
<path d="M0 0 C2.97 0.495 2.97 0.495 6 1 C6 2.32 6 3.64 6 5 C4.35 4.67 2.7 4.34 1 4 C0.67 4.99 0.34 5.98 0 7 C0 4.69 0 2.38 0 0 Z " fill="#186237" transform="translate(388,273)"/>
<path d="M0 0 C0.33 0 0.66 0 1 0 C1 2.31 1 4.62 1 7 C0.360625 7.12375 -0.27875 7.2475 -0.9375 7.375 C-1.9584375 7.684375 -1.9584375 7.684375 -3 8 C-3.33 8.66 -3.66 9.32 -4 10 C-4 8.02 -4 6.04 -4 4 C-3.01 3.67 -2.02 3.34 -1 3 C-0.67 2.01 -0.34 1.02 0 0 Z " fill="#327850" transform="translate(218,266)"/>
<path d="M0 0 C0.99 0.33 1.98 0.66 3 1 C3 6.94 3 12.88 3 19 C2.67 19 2.34 19 2 19 C1.34 12.73 0.68 6.46 0 0 Z " fill="#77AB8F" transform="translate(87,290)"/>
<path d="M0 0 C1.64826111 2.96687001 2.44271087 5.65626525 3 9 C2.01 8.67 1.02 8.34 0 8 C-1.1875 4.9375 -1.1875 4.9375 -2 2 C-1.34 1.34 -0.68 0.68 0 0 Z " fill="#32895A" transform="translate(104,291)"/>
<path d="M0 0 C5.41538462 -0.36923077 5.41538462 -0.36923077 8.375 1.5 C8.91125 1.995 9.4475 2.49 10 3 C9.67 4.98 9.34 6.96 9 9 C8.67 9 8.34 9 8 9 C7.79375 8.05125 7.5875 7.1025 7.375 6.125 C6.29166667 2.70833333 6.29166667 2.70833333 2.875 1.625 C1.451875 1.315625 1.451875 1.315625 0 1 C0 0.67 0 0.34 0 0 Z " fill="#B0C6B8" transform="translate(523,284)"/>
<path d="M0 0 C0 1.32 0 2.64 0 4 C-2.31 4 -4.62 4 -7 4 C-7 3.34 -7 2.68 -7 2 C-4 0 -4 0 0 0 Z " fill="#1B5E36" transform="translate(317,269)"/>
<path d="M0 0 C0.66 0 1.32 0 2 0 C1.609375 5.95703125 1.609375 5.95703125 1 8 C-0.32 8.99 -1.64 9.98 -3 11 C-2.01 7.37 -1.02 3.74 0 0 Z " fill="#1F6139" transform="translate(534,290)"/>
<path d="M0 0 C1.98 0 3.96 0 6 0 C6.33 1.32 6.66 2.64 7 4 C4.69 3.67 2.38 3.34 0 3 C0 2.01 0 1.02 0 0 Z " fill="#1A5F37" transform="translate(235,271)"/>
<path d="M0 0 C2.97 0.495 2.97 0.495 6 1 C6 1.99 6 2.98 6 4 C4.02 4 2.04 4 0 4 C0 2.68 0 1.36 0 0 Z " fill="#1B6038" transform="translate(465,280)"/>
<path d="M0 0 C0.66 0 1.32 0 2 0 C2 1.98 2 3.96 2 6 C2.99 6.33 3.98 6.66 5 7 C3.35 7.33 1.7 7.66 0 8 C0 5.36 0 2.72 0 0 Z " fill="#06753A" transform="translate(269,288)"/>
<path d="M0 0 C3.36720387 1.39332574 4.9859524 2.9789286 7 6 C4 6 4 6 1.8125 4.125 C0 2 0 2 0 0 Z " fill="#24633D" transform="translate(101,306)"/>
<path d="M0 0 C2.31 0 4.62 0 7 0 C6.67 0.99 6.34 1.98 6 3 C3.03 2.505 3.03 2.505 0 2 C0 1.34 0 0.68 0 0 Z " fill="#1E5D36" transform="translate(318,276)"/>
<path d="M0 0 C0 0.99 0 1.98 0 3 C-2.53184488 5.35723489 -3.47190093 6 -7 6 C-7 5.01 -7 4.02 -7 3 C-5.5459375 2.5359375 -5.5459375 2.5359375 -4.0625 2.0625 C-1.15934208 1.30476658 -1.15934208 1.30476658 0 0 Z " fill="#1B6238" transform="translate(296,273)"/>
<path d="M0 0 C1.98 0 3.96 0 6 0 C6 0.99 6 1.98 6 3 C4.02 3 2.04 3 0 3 C0 2.01 0 1.02 0 0 Z " fill="#1A5B34" transform="translate(155,275)"/>
<path d="M0 0 C1.98 0 3.96 0 6 0 C6 0.99 6 1.98 6 3 C4.02 3 2.04 3 0 3 C0 2.01 0 1.02 0 0 Z " fill="#165C33" transform="translate(361,272)"/>
<path d="M0 0 C1.98 0 3.96 0 6 0 C6 0.99 6 1.98 6 3 C4.02 3 2.04 3 0 3 C0 2.01 0 1.02 0 0 Z " fill="#1D5C35" transform="translate(347,271)"/>
<path d="M0 0 C2.64 0.33 5.28 0.66 8 1 C8 1.66 8 2.32 8 3 C2.25 3.125 2.25 3.125 0 2 C0 1.34 0 0.68 0 0 Z " fill="#1F5B35" transform="translate(397,306)"/>
<path d="M0 0 C0.66 0 1.32 0 2 0 C2 0.99 2 1.98 2 3 C-1.6441774 5.4294516 -3.71241272 5.16179575 -8 5 C-8 4.67 -8 4.34 -8 4 C-7.05125 3.896875 -6.1025 3.79375 -5.125 3.6875 C-1.70892499 3.31460705 -1.70892499 3.31460705 0 0 Z " fill="#13713E" transform="translate(256,301)"/>
</svg>
