<?xml version="1.0" encoding="UTF-8"?>
<svg version="1.1" xmlns="http://www.w3.org/2000/svg" width="2000" height="517">
<path d="M0 0 C2.77607657 0.01610908 5.55182143 0.00586464 8.32790852 -0.00371742 C30.24214734 -0.06422094 51.83321166 1.3418992 73.25958252 6.19952393 C74.41603271 6.45556396 75.57248291 6.711604 76.76397705 6.97540283 C101.88760804 12.67641553 127.64791632 20.37174917 150.69708252 32.07452393 C151.36795898 32.4137085 152.03883545 32.75289307 152.7300415 33.10235596 C166.42312617 40.09007224 179.60437543 47.6211448 192.19708252 56.44952393 C193.14841064 57.11596924 194.09973877 57.78241455 195.07989502 58.46905518 C197.81461524 60.42641323 200.51075113 62.42629818 203.19708252 64.44952393 C204.25024658 65.23456299 205.30341064 66.01960205 206.38848877 66.82843018 C221.46599902 78.25493283 235.85984119 91.5556845 247.69317627 106.33233643 C249.43339121 108.49878186 251.18869585 110.63350557 252.98223877 112.75421143 C273.74601503 137.58076658 288.51310303 167.354258 297.19708252 198.44952393 C297.377229 199.09308838 297.55737549 199.73665283 297.74298096 200.39971924 C299.85339336 208.07429308 301.54062808 215.79200293 302.88458252 223.63702393 C303.00398193 224.32457764 303.12338135 225.01213135 303.24639893 225.72052002 C310.45091459 270.23003865 302.92774681 317.05332597 283.19708252 357.44952393 C282.83920654 358.18445068 282.48133057 358.91937744 282.11260986 359.67657471 C271.92905973 380.32379802 258.96012969 399.18009249 243.35333252 416.10577393 C241.93478082 417.64767795 240.5380264 419.20997329 239.16583252 420.79327393 C228.4541715 433.10369032 216.18168033 443.62826563 203.19708252 453.44952393 C202.49583252 453.99737549 201.79458252 454.54522705 201.07208252 455.10968018 C190.13378331 463.57271771 178.31122333 470.81657719 166.19708252 477.44952393 C165.55045654 477.80901123 164.90383057 478.16849854 164.23760986 478.53887939 C153.20499726 484.65925774 141.94274829 489.84855092 130.19708252 494.44952393 C129.34517334 494.78339111 128.49326416 495.1172583 127.61553955 495.46124268 C107.79354943 503.13569389 87.63282873 508.8177121 66.75958252 512.76202393 C65.48163818 513.00452881 64.20369385 513.24703369 62.88702393 513.49688721 C58.99792699 514.20195731 55.10357761 514.85010123 51.19708252 515.44952393 C49.91720459 515.64675049 48.63732666 515.84397705 47.31866455 516.04718018 C33.66565188 517.9390329 19.89950895 517.82423768 6.14337158 517.82012939 C3.36706118 517.81996813 0.59141978 517.83367932 -2.18475342 517.86114502 C-38.29870829 518.2123994 -73.4430569 512.90053334 -107.80291748 501.44952393 C-108.65063721 501.16915283 -109.49835693 500.88878174 -110.37176514 500.59991455 C-150.3090461 487.20617901 -186.21445001 466.19628054 -217.80291748 438.44952393 C-218.70139404 437.66448486 -219.59987061 436.8794458 -220.52557373 436.07061768 C-230.49997735 427.23433935 -239.53526166 417.89934913 -247.80291748 407.44952393 C-248.75037842 406.32030518 -248.75037842 406.32030518 -249.71697998 405.16827393 C-260.33872017 392.40470135 -269.02352163 378.08248336 -276.80291748 363.44952393 C-277.35592529 362.41440674 -277.90893311 361.37928955 -278.47869873 360.31280518 C-289.06486781 339.82432807 -296.28808166 317.22541816 -299.80291748 294.44952393 C-299.97951904 293.31925781 -300.15612061 292.1889917 -300.33807373 291.0244751 C-301.91829353 279.84794732 -302.20352395 268.78950791 -302.17791748 257.51202393 C-302.17704132 256.56587219 -302.17616516 255.61972046 -302.17526245 254.64489746 C-302.12929629 239.56131802 -301.33065923 225.17588308 -297.80291748 210.44952393 C-297.56685791 209.43906006 -297.33079834 208.42859619 -297.08758545 207.38751221 C-284.21470946 153.79617742 -251.36896096 104.19118746 -207.80291748 70.44952393 C-206.11485327 69.07521666 -204.42734812 67.7002224 -202.74041748 66.32452393 C-197.89672261 62.47672893 -192.94998267 58.88090072 -187.80291748 55.44952393 C-187.1999585 55.04282471 -186.59699951 54.63612549 -185.97576904 54.21710205 C-175.69233272 47.32814957 -165.02804813 41.27777406 -154.05291748 35.57452393 C-153.45611176 35.26200684 -152.85930603 34.94948975 -152.24441528 34.62750244 C-143.29655629 29.95870641 -134.21341699 26.05085745 -124.80291748 22.44952393 C-123.92071533 22.10534424 -123.03851318 21.76116455 -122.12957764 21.40655518 C-110.8585399 17.03222288 -99.52255425 13.40518318 -87.80291748 10.44952393 C-86.87189209 10.20846924 -85.9408667 9.96741455 -84.98162842 9.71905518 C-56.75248425 2.47562776 -29.01548772 -0.2390892 0 0 Z M-46.80291748 45.44952393 C-47.48998779 45.9831958 -48.17705811 46.51686768 -48.88494873 47.06671143 C-72.13626634 65.91913111 -83.3257184 96.19391634 -89.80291748 124.44952393 C-90.12582764 125.77790283 -90.12582764 125.77790283 -90.45526123 127.13311768 C-92.4105144 135.36801604 -92.95949787 143.54378053 -92.97088623 151.98858643 C-92.97421463 152.87251068 -92.97754303 153.75643494 -92.98097229 154.66714478 C-92.98600338 156.52770473 -92.98838181 158.38827358 -92.98822021 160.24884033 C-92.99039558 163.04636106 -93.00856192 165.84347952 -93.02752686 168.64093018 C-93.1195218 197.53167108 -86.67402279 225.05213829 -72.80291748 250.44952393 C-72.32209717 251.34928955 -71.84127686 252.24905518 -71.34588623 253.17608643 C-59.30558974 274.48081854 -41.09919721 291.4887407 -17.80291748 299.44952393 C-0.13717049 304.34695873 19.90552894 301.89201665 35.86895752 292.95343018 C64.49842082 275.44416802 81.52387834 247.2869648 90.19708252 215.44952393 C90.47938721 214.52655518 90.76169189 213.60358643 91.05255127 212.65264893 C101.73833121 176.85257398 99.06063028 135.26757408 86.19708252 100.44952393 C85.78885254 99.34205811 85.78885254 99.34205811 85.37237549 98.21221924 C79.53427403 82.67352019 71.64244069 69.33688563 61.19708252 56.44952393 C60.70981689 55.79596924 60.22255127 55.14241455 59.72052002 54.46905518 C47.54911767 38.75077177 27.49601143 29.23065554 8.19708252 26.44952393 C-11.69505557 24.23158518 -31.98747639 32.46782112 -46.80291748 45.44952393 Z " fill="#E60011" transform="translate(301.80291748046875,-0.44952392578125)"/>
<path d="M0 0 C7.79153378 8.80086359 11.01256661 20.89485122 14.5390625 31.87109375 C16.62949471 38.35329129 18.91758579 44.7595045 21.22265625 51.16796875 C21.84370239 52.9005896 21.84370239 52.9005896 22.47729492 54.66821289 C24.31292795 59.78712035 26.15267347 64.90453716 27.99511719 70.02099609 C29.2843353 73.60237024 30.5686472 77.18547561 31.85021973 80.76959229 C32.34605954 82.15333599 32.84368248 83.53644212 33.34313965 84.91888428 C34.03908016 86.84544276 34.7291572 88.7740083 35.41796875 90.703125 C35.81516113 91.80793213 36.21235352 92.91273926 36.62158203 94.05102539 C37.47265625 96.79296875 37.47265625 96.79296875 37.47265625 99.79296875 C38.13265625 99.79296875 38.79265625 99.79296875 39.47265625 99.79296875 C39.73965332 98.50825684 40.00665039 97.22354492 40.28173828 95.89990234 C41.40563633 90.8541081 42.91033053 85.98861316 44.52734375 81.08203125 C44.82509705 80.16772339 45.12285034 79.25341553 45.42962646 78.31140137 C46.39740634 75.34529529 47.37191537 72.38146474 48.34765625 69.41796875 C48.84637238 67.89861725 48.84637238 67.89861725 49.35516357 66.34857178 C51.39252447 60.14262065 53.44030179 53.94018418 55.49584961 47.74023438 C56.42283511 44.94329137 57.34731469 42.14553064 58.27148438 39.34765625 C59.61752221 35.27867452 60.97603725 31.21408227 62.34576416 27.15301514 C62.84144393 25.67957593 63.33383291 24.205025 63.82269287 22.72930908 C70.37740115 2.98223484 70.37740115 2.98223484 78.47265625 -2.20703125 C83.77736047 -3.99516734 89.62640611 -3.43150725 95.15234375 -3.44726562 C97.20224152 -3.45693495 99.25111995 -3.48796765 101.30078125 -3.51953125 C116.33395199 -3.57871696 116.33395199 -3.57871696 122.49609375 1.44140625 C123.16511719 2.29605469 123.16511719 2.29605469 123.84765625 3.16796875 C124.53988281 4.01488281 124.53988281 4.01488281 125.24609375 4.87890625 C128.02855242 9.22095959 128.72510456 12.94488796 128.74681091 18.06622314 C128.75678604 19.33062729 128.76676117 20.59503143 128.77703857 21.89775085 C128.77793429 23.2915343 128.7785979 24.68531791 128.77905273 26.07910156 C128.78667773 27.55290648 128.79510582 29.02670743 128.80427551 30.50050354 C128.82619608 34.49862585 128.83501631 38.49667169 128.84010196 42.4948473 C128.84374895 44.99537114 128.84999084 47.49587506 128.85710335 49.9963913 C128.88159105 58.72758359 128.89464791 67.45871654 128.89819336 76.18994141 C128.90182633 84.31580385 128.93170613 92.44128806 128.97359794 100.56703496 C129.00834612 107.55321897 129.02374259 114.53927793 129.02443939 121.52554774 C129.02523078 125.69373688 129.03390511 129.86154071 129.06243706 134.0296402 C129.08869518 137.95326115 129.09078042 141.87617952 129.07478142 145.79984856 C129.07297293 147.23448919 129.07960327 148.66917094 129.09560013 150.10372353 C129.18264332 158.42105545 128.86277076 165.13426386 123.47265625 171.79296875 C119.02270819 176.01376914 115.09658785 177.14154128 108.97265625 177.41796875 C102.98311055 177.15453966 98.78733412 176.04644552 94.47265625 171.79296875 C89.15165788 165.05837181 88.32554266 159.44577625 88.26733398 150.98535156 C88.25743439 150.09719254 88.24753479 149.20903351 88.23733521 148.29396057 C88.20577437 145.36136532 88.18098415 142.42875387 88.15625 139.49609375 C88.1356758 137.46156394 88.1146792 135.42703836 88.09327698 133.39251709 C88.03810446 128.03976875 87.9886739 122.68698215 87.94042969 117.33416748 C87.89017949 111.87118121 87.83451179 106.40825045 87.77929688 100.9453125 C87.67177424 90.22791202 87.57031615 79.51046332 87.47265625 68.79296875 C87.18086487 69.9005101 86.88907349 71.00805145 86.58843994 72.14915466 C83.8309508 82.61163021 81.06547665 93.07196679 78.29227066 103.53028774 C76.86696322 108.90643614 75.44443072 114.28328629 74.02832031 119.66186523 C72.66033421 124.85724081 71.28495431 130.05060804 69.90453339 135.24269295 C69.38045928 137.21901466 68.8590051 139.19603314 68.34027863 141.17376518 C67.6105089 143.95426833 66.87126768 146.73209624 66.12988281 149.50952148 C65.91984619 150.31873047 65.70980957 151.12793945 65.4934082 151.96166992 C61.45815395 166.93342705 61.45815395 166.93342705 55.53515625 171.73046875 C54.88675781 172.27574219 54.23835938 172.82101562 53.5703125 173.3828125 C46.59115535 178.07457364 38.53300349 177.68326351 30.47265625 176.79296875 C26.76657245 175.40446353 24.27471299 173.55894751 21.47265625 170.79296875 C20.91320313 170.2825 20.35375 169.77203125 19.77734375 169.24609375 C14.36958239 163.32201347 13.11806885 155.19689868 11.21484375 147.64697266 C9.78397269 142.14470861 8.17475791 136.69222476 6.59765625 131.23046875 C1.52609898 113.52703227 -3.4675124 95.80555852 -8.2421875 78.01953125 C-8.71972473 76.24316284 -8.71972473 76.24316284 -9.20690918 74.4309082 C-9.98084599 71.55171794 -10.7543178 68.67240367 -11.52734375 65.79296875 C-11.53320999 66.99486847 -11.53907623 68.19676819 -11.54512024 69.43508911 C-11.60234627 80.76478336 -11.6751075 92.09428564 -11.76305866 103.42378426 C-11.80777598 109.24832906 -11.84702931 115.0728037 -11.8737793 120.89746094 C-11.89979839 126.51913644 -11.9401914 132.14054212 -11.99053001 137.76205063 C-12.00720807 139.90619423 -12.01871649 142.05038451 -12.02495766 144.19458389 C-12.03458831 147.19918316 -12.06263599 150.20309064 -12.0949707 153.20751953 C-12.09353561 154.09296951 -12.09210052 154.97841949 -12.09062195 155.89070129 C-12.18901202 162.36014467 -13.52160352 166.52331533 -17.90234375 171.48046875 C-23.59773074 176.49783348 -27.71101 177.47046688 -35.23046875 177.2578125 C-40.56443165 176.50574901 -43.74009852 174.52829205 -47.52734375 170.79296875 C-53.05094554 163.12319089 -53.24712904 155.37757103 -53.17431641 146.23046875 C-53.18110518 144.78709821 -53.19001534 143.34373634 -53.2008667 141.90039062 C-53.22351762 138.00765438 -53.21488336 134.11558617 -53.19897127 130.22283936 C-53.18623794 126.13291739 -53.19807289 122.04304942 -53.2059021 117.953125 C-53.21497717 111.08713603 -53.20306732 104.2214167 -53.17919922 97.35546875 C-53.15199187 89.43793628 -53.16080757 81.52104776 -53.18833125 73.60353088 C-53.21108271 66.78364076 -53.21419304 59.96394355 -53.2011379 53.14402771 C-53.1933764 49.080449 -53.19221004 45.01717213 -53.20882034 40.95361328 C-53.22335434 37.13161347 -53.21308294 33.31043703 -53.18434906 29.48852539 C-53.17778547 28.09303143 -53.17955422 26.69746714 -53.19066238 25.30200195 C-53.25268865 16.71247874 -52.48367197 9.99414951 -47.52734375 2.79296875 C-38.11305532 -6.39170289 -10.31020555 -9.00350253 0 0 Z " fill="#000000" transform="translate(1871.52734375,161.20703125)"/>
<path d="M0 0 C0.80026611 0.00563965 1.60053223 0.0112793 2.42504883 0.01708984 C10.78486525 0.18921123 16.81872007 1.53527905 23.25805664 7.20654297 C27.45788449 11.79058891 30.28012273 17.41978211 33.3125 22.8125 C34.06362901 24.12506616 34.81617068 25.43682485 35.57006836 26.74780273 C37.08078303 29.37691822 38.58570004 32.00921426 40.08642578 34.64404297 C42.91133977 39.5918393 45.83046491 44.48264389 48.75 49.375 C54.44050607 58.95886799 59.96863599 68.63377551 65.45727539 78.33422852 C69.37201361 85.22952316 73.41886506 92.01668775 77.61010742 98.74584961 C79.1875 101.3125 79.1875 101.3125 80.1875 103.3125 C80.19114563 102.24254288 80.19479126 101.17258575 80.19854736 100.07020569 C80.2355668 89.96283775 80.29341535 79.85577253 80.37140274 69.74863529 C80.41082984 64.55303285 80.44304174 59.35759868 80.45849609 54.16186523 C80.47369401 49.14309697 80.50819533 44.12479149 80.55580902 39.10622978 C80.57059049 37.19623282 80.57853915 35.28616977 80.57938385 33.3761158 C80.58176503 30.69043367 80.60893624 28.00601863 80.64160156 25.32055664 C80.63405602 24.14882149 80.63405602 24.14882149 80.62635803 22.95341492 C80.75065141 16.30311191 82.58248203 10.07251904 87.22265625 5.15625 C88.22619141 4.49109375 88.22619141 4.49109375 89.25 3.8125 C89.92160156 3.3484375 90.59320312 2.884375 91.28515625 2.40625 C96.28115518 -0.46619291 101.59884902 -0.11307256 107.1875 0.3125 C113.22480754 2.24899487 116.99298133 6.75425138 120.25184059 12.03824902 C121.45995542 14.974741 121.44532058 17.34137199 121.45492554 20.516922 C121.46772049 22.42842293 121.46772049 22.42842293 121.48077393 24.37854004 C121.48007491 25.78857434 121.47915186 27.19860855 121.47802734 28.60864258 C121.48401254 30.0953963 121.49081806 31.58214691 121.49838257 33.06889343 C121.51605221 37.10620452 121.52073839 41.14343082 121.52201414 45.18077683 C121.52343592 47.70422831 121.52770605 50.22765824 121.53300858 52.75110435 C121.55151306 61.55779768 121.55967879 70.36443046 121.55810547 79.17114258 C121.55690442 87.37479041 121.57799843 95.57817499 121.6095928 103.78175622 C121.63576475 110.82903428 121.64647236 117.87622642 121.64519465 124.92355269 C121.64468522 129.13075271 121.65035746 133.33771885 121.67155075 137.54487038 C121.6909484 141.50369378 121.69104746 145.46206062 121.67651749 149.42090034 C121.67443006 150.87088438 121.67912646 152.32089711 121.6912384 153.77083206 C121.76094286 162.69594769 121.64083288 168.59610104 115.3359375 175.2734375 C114.45808594 175.97339844 114.45808594 175.97339844 113.5625 176.6875 C112.67691406 177.41066406 112.67691406 177.41066406 111.7734375 178.1484375 C107.14147644 181.54825128 101.46587819 180.57846483 95.9375 180.625 C94.80441406 180.65400391 93.67132812 180.68300781 92.50390625 180.71289062 C81.84555035 180.79410905 81.84555035 180.79410905 77.1875 176.3125 C71.68447812 170.17429786 67.97259842 162.82609793 64.0625 155.625 C62.72923083 153.19254204 61.39171096 150.76242712 60.0546875 148.33203125 C59.55808624 147.42718491 59.55808624 147.42718491 59.05145264 146.50405884 C56.15793584 141.23778662 53.18675864 136.01904076 50.1875 130.8125 C45.0529326 121.87937843 40.03515011 112.88403754 35.05273438 103.86523438 C28.84150407 92.63750984 22.51097907 81.47727054 16.1875 70.3125 C16.18163376 71.44287689 16.17576752 72.57325378 16.16972351 73.73788452 C16.11237597 84.41882846 16.03955172 95.09957115 15.95178509 105.78030968 C15.90716089 111.27067964 15.86788727 116.76097676 15.84106445 122.25146484 C15.81495215 127.55545639 15.77449383 132.85916642 15.72431374 138.16298294 C15.70769853 140.18101103 15.69615111 142.19908776 15.68988609 144.21717453 C15.68018665 147.05572396 15.65205824 149.89356176 15.61987305 152.73193359 C15.62130814 153.55624878 15.62274323 154.38056396 15.6242218 155.2298584 C15.51301184 162.21786383 14.46562187 169.37312553 10.1015625 175.00390625 C9.34617187 175.62136719 8.59078125 176.23882812 7.8125 176.875 C7.06226563 177.51566406 6.31203125 178.15632812 5.5390625 178.81640625 C0.13045008 182.25743376 -6.1716824 181.68975966 -12.3125 180.8125 C-18.14431205 178.31315198 -22.41019599 173.18528601 -24.8125 167.3125 C-25.07256222 164.45319748 -25.07256222 164.45319748 -25.08665466 161.07684326 C-25.10161736 159.15488884 -25.10161736 159.15488884 -25.11688232 157.19410706 C-25.1177781 155.77621472 -25.11844168 154.35832223 -25.11889648 152.94042969 C-25.12651906 151.44544562 -25.13494673 149.95046547 -25.14411926 148.45549011 C-25.1660644 144.39539439 -25.17486343 140.33537398 -25.17994571 136.27522564 C-25.18358994 133.73702541 -25.18983042 131.19884488 -25.1969471 128.66065216 C-25.22144382 119.80094029 -25.2344935 110.94128697 -25.23803711 102.08154297 C-25.24167026 93.83128383 -25.27154905 85.58139719 -25.31344169 77.33125186 C-25.34817201 70.24234457 -25.36358604 63.15356053 -25.36428314 56.06456876 C-25.36507518 51.83324191 -25.37377907 47.60229433 -25.40228081 43.3710556 C-25.42850801 39.38835824 -25.43064125 35.40635328 -25.41462517 31.42360878 C-25.41281421 29.9659734 -25.41946961 28.5082978 -25.43544388 27.05074883 C-25.5191359 18.91504916 -25.43512838 12.56895328 -19.8125 6.3125 C-14.00796326 0.65679754 -7.74700225 -0.05655336 0 0 Z " fill="#000000" transform="translate(735.8125,157.6875)"/>
<path d="M0 0 C0.72574219 -0.01224609 1.45148438 -0.02449219 2.19921875 -0.03710938 C11.15934904 -0.06106694 18.22409917 1.83209498 24.75 8.1875 C25.91267355 9.81432854 27.01634577 11.4843189 28.0703125 13.18359375 C28.67593018 14.15917236 29.28154785 15.13475098 29.90551758 16.13989258 C32.84655512 20.99931967 35.71993937 25.89492229 38.5625 30.8125 C39.79920787 32.94286585 41.036188 35.07307367 42.2734375 37.203125 C42.86995117 38.23115234 43.46646484 39.25917969 44.08105469 40.31835938 C46.26689452 44.07611093 48.47544774 47.82014426 50.6875 51.5625 C55.65653753 59.98012733 60.52908857 68.4535125 65.39819336 76.92919922 C68.64486819 82.57300014 71.92442414 88.19132545 75.30175781 93.75805664 C77.16111861 96.87715632 78.95104651 100.03314992 80.75 103.1875 C80.75879936 101.62014854 80.75879936 101.62014854 80.76777649 100.02113342 C80.8251168 90.14925491 80.89793725 80.27759429 80.98571491 70.40593815 C81.03034471 65.33143276 81.06961705 60.2570063 81.09643555 55.18237305 C81.12254233 50.28037248 81.16299667 45.37867682 81.21318626 40.47686577 C81.2298052 38.61152389 81.24135033 36.74612934 81.24761391 34.88072395 C81.25730936 32.25748237 81.28543254 29.63501213 81.31762695 27.01196289 C81.31547432 25.86827995 81.31547432 25.86827995 81.3132782 24.70149231 C81.42787091 18.05180135 83.00405963 12.09740061 86.4375 6.375 C92.12173519 0.99802077 97.40584744 -0.26031697 105.13671875 -0.1484375 C111.60274926 0.68277121 115.9161635 3.83223172 119.86801147 8.90774536 C123.07105921 14.7417217 122.32403979 21.50862461 122.29931641 27.97607422 C122.3080196 29.47973642 122.31838889 30.98338975 122.33029175 32.48703003 C122.35699994 36.55743849 122.35823725 40.62747473 122.35316515 44.6979537 C122.35102065 48.1023865 122.36080546 51.50674476 122.37037599 54.91116154 C122.39254181 62.94652806 122.39345524 70.98170757 122.38134766 79.01708984 C122.3692705 87.29192065 122.39388845 95.56607111 122.43648779 103.84078586 C122.471777 110.95867477 122.48371356 118.07634768 122.47721231 125.1943208 C122.47359503 129.43964024 122.47877301 133.68447439 122.50664139 137.9297142 C122.5318833 141.92408746 122.52783298 145.91740429 122.50181961 149.91176224 C122.49710697 151.37219355 122.50248997 152.8327002 122.51906586 154.29304504 C122.61239293 163.15895394 122.0118053 169.55637853 115.75 176.1875 C110.17496932 181.04816653 104.00942532 180.85648536 96.875 180.8125 C95.83730469 180.84472656 94.79960938 180.87695312 93.73046875 180.91015625 C86.23171752 180.91961243 81.25332144 179.39160339 75.75 174.1875 C73.79684152 171.83748198 72.35694373 169.38708123 70.9375 166.6875 C70.52918945 165.95539307 70.12087891 165.22328613 69.70019531 164.46899414 C68.36058494 162.05361313 67.05390923 159.62231705 65.75 157.1875 C64.81504398 155.46677255 63.87881722 153.74673503 62.94140625 152.02734375 C61.45874405 149.30643879 59.9781699 146.5845649 58.50610352 143.85791016 C54.07440372 135.67924886 49.40440919 127.65014557 44.64550781 119.65795898 C41.25321838 113.921933 38.17198961 108.10873837 35.23242188 102.12890625 C32.89190885 97.48488436 30.29772598 92.99632476 27.6875 88.5 C26.67525714 86.74639618 25.66353343 84.99249258 24.65234375 83.23828125 C24.21398193 82.48200439 23.77562012 81.72572754 23.32397461 80.9465332 C21.09863859 77.04572316 18.92528481 73.11638707 16.75 69.1875 C16.74413376 70.35990234 16.73826752 71.53230469 16.73222351 72.74023438 C16.67493974 83.8044173 16.60214837 94.86840474 16.51428509 105.93238831 C16.46961211 111.62011287 16.43034904 117.30776631 16.40356445 122.99560547 C16.37750109 128.48761551 16.33707678 133.9793514 16.28681374 139.47119141 C16.27016561 141.5634418 16.25863857 143.65573959 16.25238609 145.74804688 C16.24272281 148.68518621 16.21463637 151.62162743 16.18237305 154.55859375 C16.18380814 155.4181517 16.18524323 156.27770966 16.1867218 157.16331482 C16.08705152 163.60501722 15.13870331 169.42984845 10.77734375 174.46484375 C10.08769531 175.01269531 9.39804688 175.56054688 8.6875 176.125 C7.99527344 176.69089844 7.30304688 177.25679687 6.58984375 177.83984375 C1.21869947 181.7741214 -5.90270209 180.86218698 -12.25 180.1875 C-17.82701729 177.94177684 -20.76290324 174.15908271 -23.37981796 168.79833794 C-25.23873755 163.22095577 -24.82192304 157.28817467 -24.79931641 151.46899414 C-24.80802237 149.9848885 -24.81839257 148.50079184 -24.83029175 147.01670837 C-24.85696763 143.00420689 -24.85824108 138.99208336 -24.85316515 134.97951055 C-24.85101883 131.62224845 -24.86080988 128.26506175 -24.87037599 124.90781587 C-24.89252979 116.98414031 -24.89346148 109.0606544 -24.88134766 101.13696289 C-24.86926633 92.97855521 -24.89390177 84.82083721 -24.93648779 76.66254717 C-24.97177781 69.64230123 -24.98371359 62.62227427 -24.97721231 55.60194296 C-24.97359578 51.41588053 -24.97876586 47.23031031 -25.00664139 43.04432869 C-25.03188538 39.10657061 -25.02783118 35.16988407 -25.00181961 31.23214149 C-24.99710772 29.79267252 -25.00248724 28.35312709 -25.01906586 26.91374588 C-25.11321476 18.09956758 -24.45848555 11.78373547 -18.25 5.1875 C-12.66848418 0.27856287 -7.16902755 0.00623394 0 0 Z " fill="#000000" transform="translate(1087.25,157.8125)"/>
<path d="M0 0 C2.50789088 1.92640829 4.83939715 3.94637122 7.1640625 6.08984375 C8.05480469 6.8890625 8.94554687 7.68828125 9.86328125 8.51171875 C20.15263646 18.21270079 28.09093201 29.86068039 33.1640625 43.08984375 C33.51984375 43.98445313 33.875625 44.8790625 34.2421875 45.80078125 C43.18220082 70.15231006 42.68337742 98.07402932 32.63671875 122.0078125 C27.92152497 131.87595014 22.47247179 140.90171852 15.1640625 149.08984375 C14.42671875 149.92128906 13.689375 150.75273437 12.9296875 151.609375 C6.44787028 158.5042492 -0.73668011 163.33762887 -8.8359375 168.08984375 C-9.55523438 168.52167969 -10.27453125 168.95351563 -11.015625 169.3984375 C-12.92004468 170.44872904 -14.81534362 171.28534804 -16.8359375 172.08984375 C-18.12757813 172.64478516 -18.12757813 172.64478516 -19.4453125 173.2109375 C-36.56748162 179.36554804 -58.26259425 178.41530194 -74.8359375 171.08984375 C-75.75761719 170.70570313 -76.67929687 170.3215625 -77.62890625 169.92578125 C-84.3026434 166.88379874 -90.05714597 162.56056774 -95.8359375 158.08984375 C-96.45082031 157.64253906 -97.06570313 157.19523438 -97.69921875 156.734375 C-115.18975916 143.16772671 -126.79312182 117.90187491 -129.60449219 96.48876953 C-132.46728391 66.81599374 -126.26797603 40.43221134 -107.7734375 16.71484375 C-106.4765203 15.16004533 -105.16517115 13.61710609 -103.8359375 12.08984375 C-103.04316406 11.17138672 -103.04316406 11.17138672 -102.234375 10.234375 C-75.63170568 -18.39953262 -31.63696149 -21.30919307 0 0 Z M-73.0234375 40.77734375 C-85.19993932 58.33180053 -87.47959127 77.49996595 -83.8359375 98.08984375 C-81.18236846 110.26989048 -75.58279187 119.29596328 -66.8359375 128.08984375 C-66.34351563 128.61707031 -65.85109375 129.14429688 -65.34375 129.6875 C-59.98659659 134.87030818 -52.05571871 136.62987501 -44.8984375 137.65234375 C-34.04008159 136.92995833 -24.84903638 131.05366202 -17.8359375 123.08984375 C-5.93959168 107.41869589 -2.86386879 89.27386171 -5.07470703 70.00927734 C-6.20557815 62.61110729 -8.24063564 55.65416908 -11.8359375 49.08984375 C-12.31804687 48.19523437 -12.80015625 47.300625 -13.296875 46.37890625 C-18.95483866 36.68333472 -26.31380927 30.11365937 -37.1171875 26.71484375 C-51.17897132 23.48224977 -64.19222364 29.77264461 -73.0234375 40.77734375 Z " fill="#000000" transform="translate(1004.8359375,165.91015625)"/>
<path d="M0 0 C9.7305674 7.48843365 21.13316126 17.06782141 23.25 29.8125 C23.44505523 34.42880718 22.67834795 38.26421553 20.1875 42.1875 C15.32081183 47.41843094 11.31977326 50.28384613 4.0625 50.625 C-2.38892764 50.50631408 -6.19711394 48.65037766 -10.8125 44.1875 C-12.97840339 41.51015508 -15.04645581 38.79608115 -17.08007812 36.01904297 C-23.19713337 27.77050219 -31.30184215 21.66786155 -41.5078125 19.65625 C-51.94561698 18.37696477 -61.00036767 20.68603515 -69.32421875 27.1328125 C-81.46707133 37.55134372 -89.54788325 52.35942889 -91.1315918 68.42431641 C-91.28588283 71.89322189 -91.3310517 75.34023975 -91.3125 78.8125 C-91.30750488 80.04218506 -91.30250977 81.27187012 -91.29736328 82.53881836 C-90.9496938 100.78187534 -85.29046281 116.31623146 -72.60546875 129.73046875 C-64.39552124 136.95292607 -55.35222854 139.53147796 -44.6484375 139.40234375 C-40.34133211 139.07604789 -36.74604782 137.92557927 -32.8125 136.1875 C-32.06097656 135.85878906 -31.30945312 135.53007812 -30.53515625 135.19140625 C-18.71859551 129.35382325 -13.40821445 118.48310444 -7.8125 107.1875 C-8.57393311 107.16768066 -9.33536621 107.14786133 -10.11987305 107.12744141 C-13.58025472 107.03200078 -17.04004855 106.92239788 -20.5 106.8125 C-21.69818359 106.7815625 -22.89636719 106.750625 -24.13085938 106.71875 C-25.28779297 106.68007813 -26.44472656 106.64140625 -27.63671875 106.6015625 C-29.23132935 106.55443115 -29.23132935 106.55443115 -30.8581543 106.50634766 C-37.87446146 105.74911295 -41.18540127 102.26754679 -45.625 97.0625 C-47.53710771 92.43318659 -47.64620793 88.10706581 -46.8125 83.1875 C-44.30110115 77.64954357 -40.69738458 74.70815959 -35.24679565 72.04740906 C-30.61710554 70.41198221 -25.90926923 70.66060526 -21.05078125 70.7265625 C-19.94196091 70.72747894 -18.83314056 70.72839539 -17.6907196 70.7293396 C-15.3584665 70.7353562 -13.02622042 70.75104329 -10.6940918 70.77587891 C-7.12584985 70.81249128 -3.55864501 70.81689712 0.00976562 70.81640625 C2.28125897 70.82623457 4.55274529 70.83789033 6.82421875 70.8515625 C8.42120857 70.85490097 8.42120857 70.85490097 10.05046082 70.85830688 C11.54274956 70.87744644 11.54274956 70.87744644 13.06518555 70.89697266 C14.37135078 70.90840805 14.37135078 70.90840805 15.7039032 70.92007446 C19.89099934 71.37092721 22.3808491 72.43064137 25.46665955 75.32597351 C27.62814518 78.92023374 27.758003 81.89768055 27.72094727 85.97192383 C27.72956284 86.74008926 27.73817841 87.5082547 27.74705505 88.29969788 C27.76970186 90.83165481 27.76297713 93.36250331 27.75390625 95.89453125 C27.75914376 97.66184313 27.76542071 99.42915221 27.77268982 101.19645691 C27.78309265 104.89941565 27.77853637 108.60199012 27.76391602 112.30493164 C27.74675938 117.03620426 27.77018482 121.76625887 27.80540562 126.49739552 C27.82743697 130.14788265 27.82592381 133.79808119 27.8176403 137.44861412 C27.81682332 139.19202698 27.82363821 140.93546157 27.83841133 142.67881203 C27.95916923 159.51392307 27.95916923 159.51392307 22.1875 166.1875 C18.18366722 170.19133278 13.90708281 172.12262356 8.171875 172.22265625 C3.26242893 171.8385202 -0.02055888 170.46235824 -3.8125 167.1875 C-6.04023737 164.06297378 -7.59668991 160.83493027 -8.8125 157.1875 C-9.39515625 157.83976563 -9.9778125 158.49203125 -10.578125 159.1640625 C-20.67647558 169.92928529 -30.90534328 174.39712596 -45.51953125 175.3671875 C-67.37699204 175.943226 -86.81555759 168.27808675 -102.63623047 153.32128906 C-123.4188538 133.14277139 -133.71763966 107.98993946 -134.1875 79.0625 C-134.16463317 53.96742168 -125.1041575 28.68909103 -107.3671875 10.734375 C-106.52414062 9.89390625 -105.68109375 9.0534375 -104.8125 8.1875 C-104.19632813 7.51203125 -103.58015625 6.8365625 -102.9453125 6.140625 C-93.62902769 -3.93344374 -79.99243765 -10.53173854 -66.8125 -13.8125 C-65.83446411 -14.06628418 -65.83446411 -14.06628418 -64.83666992 -14.32519531 C-41.62334019 -19.99477535 -19.21825805 -13.29444839 0 0 Z " fill="#000000" transform="translate(1361.8125,167.8125)"/>
<path d="M0 0 C6.69873235 5.82670802 13.41329186 12.16651601 14.6015625 21.41015625 C14.7209058 29.65677836 13.13424017 34.58675802 7.640625 40.734375 C2.51277348 43.86806204 -2.18747149 44.35968944 -8.09765625 43.421875 C-15.4773021 41.38259463 -21.04368945 36.64564836 -25.109375 30.234375 C-28.83805372 24.64135691 -35.04707527 21.89170082 -41.109375 19.421875 C-51.91784113 17.55834636 -62.85252691 18.1365548 -72.0703125 24.453125 C-75.01605026 26.83184281 -76.46918598 28.93676344 -77.0078125 32.71484375 C-77.22823751 37.2335564 -76.64598325 40.18246476 -73.734375 43.796875 C-64.37247055 52.14443457 -51.08200798 54.29426435 -39.171875 56.796875 C-17.26907018 61.42261998 3.85898655 69.634792 16.73046875 89.109375 C23.76705723 101.42788105 26.52389153 114.60301767 23.4296875 128.5703125 C18.44530715 143.72416685 7.94657048 155.60954576 -5.9296875 163.390625 C-28.37636979 174.64522893 -53.50647085 177.53650862 -77.578125 169.578125 C-96.2035971 162.90599251 -110.61206837 151.2852735 -119.8671875 133.63671875 C-122.44044643 127.80631676 -121.9983997 122.59578166 -120.01171875 116.625 C-117.79409429 111.51774366 -114.69801773 108.33312227 -109.734375 105.796875 C-103.16513911 103.81466843 -97.86781744 104.64649029 -91.80078125 107.61328125 C-86.05066224 110.90682767 -83.43116102 115.88994463 -80.1953125 121.43359375 C-76.11745616 128.03012606 -69.37563393 132.94045335 -61.921875 135.109375 C-51.52939351 137.21623285 -40.60362141 135.94111415 -31.234375 130.921875 C-27.75784122 127.96682129 -24.08334245 124.60577693 -23.49609375 119.87890625 C-23.31557741 114.35890666 -23.9590695 110.06461165 -27.734375 105.796875 C-36.02750093 98.36165865 -46.84759229 96.43963112 -57.38012695 94.0456543 C-78.38786448 89.24426156 -99.45967987 81.37762266 -112.421875 63.0390625 C-119.03919258 51.73447829 -121.34507394 40.06692785 -119.30859375 27.08203125 C-115.37614394 12.19662306 -105.51396879 0.7978753 -92.734375 -7.203125 C-63.6886746 -23.81828506 -26.0599816 -20.99689946 0 0 Z " fill="#000000" transform="translate(1521.734375,171.203125)"/>
<path d="M0 0 C5.798183 4.82963776 8.55615207 11.29683106 9.25765991 18.73025513 C9.34495009 21.76356479 9.33802554 24.78222764 9.29296875 27.81640625 C9.28994751 28.79025269 9.28692627 29.76409912 9.28381348 30.76745605 C9.26825152 34.3659136 9.22636873 37.96421873 9.1875 41.5625 C9.125625 49.626875 9.06375 57.69125 9 66 C30.12 66 51.24 66 73 66 C72.92099358 49.53106148 72.92099358 49.53106148 72.81982422 33.06225586 C72.81397958 30.98812059 72.80888395 28.91398301 72.8046875 26.83984375 C72.79445557 25.77447388 72.78422363 24.709104 72.77368164 23.6114502 C72.77158159 14.62216842 73.70092819 8.47633758 80.01171875 1.734375 C84.15982084 -1.88400875 88.63467509 -3.10256091 94.0625 -3.375 C100.44068453 -2.76755385 105.40487782 -0.46747989 110 4 C113.18601505 9.46174008 114.12303787 13.74785132 114.14044189 20.00787354 C114.14615204 21.23869156 114.15186218 22.46950958 114.15774536 23.73762512 C114.15899063 25.09884633 114.16011575 26.46006766 114.16113281 27.82128906 C114.16576301 29.25715766 114.17078794 30.69302504 114.17617798 32.12889099 C114.18928546 36.0278268 114.19574382 39.92674541 114.20018864 43.82569981 C114.20312231 46.26338748 114.20722769 48.70107048 114.21169281 51.1387558 C114.225364 58.77083923 114.23503225 66.40291194 114.2388947 74.03500676 C114.24337329 82.83547317 114.26091345 91.6357841 114.2898953 100.43620324 C114.31153683 107.24484837 114.32160032 114.05344983 114.32293582 120.86212897 C114.32398217 124.92568681 114.32985354 128.98909841 114.34775543 133.05261993 C114.36427875 136.87759073 114.3663711 140.70230603 114.35761642 144.52729988 C114.3568483 145.92687478 114.3611591 147.32646366 114.37107468 148.72600365 C114.47944879 164.9831314 114.47944879 164.9831314 109.02734375 171.27734375 C108.33769531 171.82519531 107.64804688 172.37304688 106.9375 172.9375 C106.24527344 173.50339844 105.55304688 174.06929687 104.83984375 174.65234375 C101.14651501 177.35764824 98.30584331 177.22763625 93.75 177.3125 C92.44546875 177.34988281 91.1409375 177.38726562 89.796875 177.42578125 C84.4699999 176.82842591 81.53053852 174.53053852 77.8125 170.8125 C72.70095161 162.88078698 72.58765913 154.86655539 72.70703125 145.65234375 C72.71005249 144.54088989 72.71307373 143.42943604 72.71618652 142.28430176 C72.73177469 138.16860548 72.77365791 134.05304251 72.8125 129.9375 C72.874375 120.718125 72.93625 111.49875 73 102 C51.88 102 30.76 102 9 102 C9.1184529 120.35352823 9.1184529 120.35352823 9.27026367 138.70678711 C9.2790324 141.02196842 9.28667542 143.33715439 9.29296875 145.65234375 C9.30831665 146.83703247 9.32366455 148.02172119 9.33947754 149.24230957 C9.34199402 157.2673789 8.59412446 163.97463446 4.1875 170.8125 C-0.7306753 175.7306753 -3.92741212 177.28441935 -10.9375 177.5 C-17.95027036 177.25665466 -21.68392 176.55285893 -26.57984829 171.30734539 C-31.97258828 164.29315364 -31.83602898 157.5824159 -31.72875977 149.02856445 C-31.73198366 147.52959448 -31.73780779 146.0306282 -31.74601746 144.53167725 C-31.76048282 140.48404148 -31.73770142 136.43740748 -31.70715833 132.38989282 C-31.68069144 128.14464078 -31.68609151 123.89941625 -31.6872406 119.65409851 C-31.68443681 112.52989052 -31.65846474 105.40606744 -31.61743164 98.28198242 C-31.57020697 90.05266035 -31.55443955 81.82375886 -31.5566383 73.59431106 C-31.55866629 64.81770959 -31.53784033 56.04126955 -31.51029849 47.26471686 C-31.50391371 44.74122803 -31.50177625 42.21776535 -31.50058174 39.69426918 C-31.49756264 35.7271658 -31.479202 31.7604138 -31.44908333 27.79342651 C-31.44034114 26.33982178 -31.43662559 24.8861766 -31.43836594 23.43254662 C-31.43984491 21.44480511 -31.42096651 19.45707981 -31.40113831 17.46943665 C-31.39611077 16.35838216 -31.39108324 15.24732767 -31.38590336 14.10260487 C-30.6964167 8.55923603 -28.25928231 4.75597325 -24.0625 1.1875 C-23.39347656 0.60355469 -22.72445313 0.01960937 -22.03515625 -0.58203125 C-15.65383026 -5.02813746 -6.43960094 -3.7464345 0 0 Z " fill="#000000" transform="translate(1597,161)"/>
<path d="M0 0 C5.23347607 4.2598061 8.56155226 9.34897318 9.36849785 16.06854248 C9.5131417 19.83791004 9.5299277 23.59626391 9.50170898 27.3671875 C9.50549724 28.81350224 9.51100144 30.25981335 9.51808167 31.70611572 C9.53198779 35.61530114 9.52090094 39.52404402 9.50437045 43.43320465 C9.49046791 47.53473717 9.49698594 51.63624535 9.50050354 55.73779297 C9.50320156 62.62409553 9.48976526 69.51022339 9.46655273 76.39648438 C9.43994552 84.34455664 9.43819741 92.29233692 9.4499411 100.24043846 C9.46074092 107.90351451 9.45451455 115.5664855 9.44038582 123.22955322 C9.4346451 126.48295593 9.43469357 129.73628128 9.43945122 132.98968506 C9.44424297 136.82460662 9.43402904 140.65921071 9.41249657 144.49407196 C9.40695831 145.8968575 9.40643602 147.29967373 9.41144943 148.70246124 C9.46053864 164.4147863 9.46053864 164.4147863 4.28125 171.27734375 C3.6934375 171.82519531 3.105625 172.37304688 2.5 172.9375 C1.9121875 173.50339844 1.324375 174.06929687 0.71875 174.65234375 C-4.49917696 178.74367285 -12.72275908 177.58578706 -19 177 C-24.3359891 174.98707403 -27.24182064 170.87985579 -30 166 C-31.0828187 162.7515439 -31.13389445 160.37908137 -31.14717102 156.96052551 C-31.15432632 155.69742554 -31.16148163 154.43432556 -31.16885376 153.13294983 C-31.17169401 151.73031641 -31.17440574 150.32768272 -31.17700195 148.92504883 C-31.18326755 147.44991903 -31.18991444 145.9747908 -31.19691467 144.49966431 C-31.21794866 139.65213112 -31.22831747 134.80459764 -31.23828125 129.95703125 C-31.24232926 128.2871518 -31.2464462 126.61727252 -31.25063133 124.94739342 C-31.26968274 117.10066717 -31.28391303 109.25395033 -31.2922433 101.4072054 C-31.30201138 92.35595394 -31.32831979 83.30494731 -31.36874419 74.25378209 C-31.39893099 67.25407704 -31.41371467 60.25444206 -31.41702431 53.25467318 C-31.41937218 49.07591462 -31.42829792 44.89741763 -31.45348549 40.71872902 C-31.47681582 36.78455859 -31.48097974 32.85082103 -31.47072411 28.91659927 C-31.47022981 27.4767036 -31.47651893 26.03678626 -31.49028015 24.59695625 C-31.57047059 15.70546178 -31.50042476 8.63227314 -25 1.94140625 C-24.34 1.48636719 -23.68 1.03132812 -23 0.5625 C-22.34 0.08941406 -21.68 -0.38367188 -21 -0.87109375 C-14.17575807 -4.72305843 -6.61668113 -3.62044817 0 0 Z " fill="#000000" transform="translate(1777,161)"/>
</svg>
