<?xml version="1.0" standalone="no"?>
<!DOCTYPE svg PUBLIC "-//W3C//DTD SVG 20010904//EN"
 "http://www.w3.org/TR/2001/REC-SVG-20010904/DTD/svg10.dtd">
<svg version="1.0" xmlns="http://www.w3.org/2000/svg"
 width="311.000000pt" height="162.000000pt" viewBox="0 0 311.000000 162.000000"
 preserveAspectRatio="xMidYMid meet">

<g transform="translate(0.000000,162.000000) scale(0.100000,-0.100000)"
fill="#000000" stroke="none">
<path d="M2562 933 l3 -378 58 -3 57 -3 0 163 c0 184 8 215 70 256 47 32 127
27 166 -9 47 -43 54 -75 54 -249 l0 -160 56 0 56 0 -4 193 c-3 177 -5 195 -26
235 -68 127 -262 157 -349 54 l-23 -27 0 153 0 152 -60 0 -60 0 2 -377z"/>
<path d="M231 1090 c-90 -19 -173 -91 -201 -174 -6 -20 -11 -145 -13 -309 l-2
-277 58 0 57 0 0 152 0 152 33 -32 c114 -111 321 -62 393 93 43 92 26 230 -38
305 -61 72 -185 111 -287 90z m148 -120 c107 -54 117 -220 18 -293 -19 -15
-47 -22 -90 -25 -52 -3 -67 0 -96 20 -53 36 -74 71 -79 131 -6 78 34 150 98
176 41 16 108 12 149 -9z"/>
<path d="M867 1090 c-133 -23 -220 -131 -219 -272 1 -115 49 -195 147 -246 41
-21 64 -26 130 -26 70 -1 88 3 140 29 40 20 71 45 94 75 l34 45 -61 3 c-50 2
-66 -1 -97 -23 -30 -20 -50 -25 -97 -25 -85 0 -148 39 -163 103 l-7 27 221 0
221 0 0 43 c0 178 -156 299 -343 267z m143 -118 c31 -15 80 -72 80 -93 0 -5
-72 -9 -160 -9 -88 0 -160 4 -160 9 0 4 10 23 23 42 29 43 80 69 137 69 25 0
61 -8 80 -18z"/>
<path d="M1496 1090 c-144 -25 -247 -178 -217 -321 32 -147 124 -221 277 -223
71 -1 87 3 139 29 38 19 72 46 93 75 l35 45 -61 3 c-50 2 -66 -1 -97 -23 -30
-20 -50 -25 -97 -25 -32 0 -72 7 -87 15 -37 19 -81 71 -81 96 0 18 10 19 220
19 l220 0 0 48 c-2 174 -158 294 -344 262z m144 -118 c31 -15 80 -72 80 -93 0
-5 -72 -9 -161 -9 l-160 0 6 23 c25 81 148 123 235 79z"/>
<path d="M2126 1090 c-216 -37 -299 -327 -135 -474 131 -119 355 -90 438 56
42 73 41 78 -23 78 -50 0 -56 -3 -81 -36 -69 -91 -208 -86 -279 9 -16 22 -21
43 -21 96 0 59 4 72 29 105 33 44 79 66 136 66 52 0 117 -33 138 -71 16 -27
21 -29 75 -29 33 0 57 4 57 10 0 6 -9 27 -19 48 -55 106 -183 164 -315 142z"/>
</g>
</svg>
