<?xml version="1.0" standalone="no"?>
<!DOCTYPE svg PUBLIC "-//W3C//DTD SVG 20010904//EN"
 "http://www.w3.org/TR/2001/REC-SVG-20010904/DTD/svg10.dtd">
<svg version="1.0" xmlns="http://www.w3.org/2000/svg"
 width="225.000000pt" height="225.000000pt" viewBox="0 0 225.000000 225.000000"
 preserveAspectRatio="xMidYMid meet">

<g transform="translate(0.000000,225.000000) scale(0.100000,-0.100000)"
fill="#000000" stroke="none">
<path d="M317 1490 c-26 -16 -47 -36 -47 -44 0 -16 43 -31 125 -41 l50 -7 -34
19 c-42 22 -43 35 -7 48 22 8 36 5 67 -12 35 -19 38 -19 29 -3 -5 10 -23 30
-41 44 -41 35 -83 34 -142 -4z"/>
<path d="M623 1505 c-12 -9 -32 -29 -43 -46 l-22 -30 33 20 c40 24 82 27 99 6
16 -19 6 -33 -33 -45 -26 -8 -21 -9 28 -4 73 7 127 28 120 46 -3 7 -25 25 -49
41 -48 30 -100 35 -133 12z"/>
<path d="M186 1364 c-9 -23 -7 -157 2 -171 5 -8 39 -13 95 -14 48 -1 87 -5 87
-10 0 -5 -34 -9 -75 -9 l-75 0 2 -212 3 -213 913 -2 913 -3 9 26 c15 38 12 91
-6 109 -13 13 -37 15 -152 11 -76 -2 -146 -6 -157 -8 -17 -3 -19 1 -16 27 3
17 5 45 5 63 1 20 7 34 17 37 30 10 51 91 31 122 -14 22 -63 33 -143 33 l-80
0 7 35 c7 42 -8 65 -42 65 -26 0 -29 9 -14 59 15 54 0 71 -65 71 -39 0 -57 -4
-63 -16 -8 -14 -10 -14 -21 0 -16 19 -126 23 -136 6 -5 -7 -11 -8 -19 -1 -7 6
-125 10 -295 10 -274 1 -283 0 -268 -17 21 -23 21 -38 -2 -81 l-18 -34 -22 44
c-12 24 -31 55 -42 68 -19 23 -20 23 -40 5 -12 -11 -32 -40 -45 -66 -13 -27
-26 -48 -28 -48 -3 0 -12 20 -22 45 -16 43 -16 46 1 65 18 20 17 20 -107 20
-106 0 -127 -3 -132 -16z m795 -35 c22 -22 19 -50 -11 -84 -12 -14 -15 -26
-10 -40 16 -37 11 -45 -25 -45 -30 0 -36 4 -44 33 l-9 32 -7 -32 c-7 -29 -11
-33 -41 -33 -19 0 -34 4 -34 9 0 9 29 148 35 169 3 8 25 12 65 12 47 0 64 -4
81 -21z m195 -1 c-3 -13 -6 -26 -6 -30 0 -5 -21 -9 -47 -10 l-48 -1 43 -4 c42
-4 47 -9 36 -37 -4 -11 -19 -16 -45 -16 -21 0 -39 -4 -39 -10 0 -5 18 -10 41
-10 36 0 40 -2 37 -22 -3 -21 -9 -23 -80 -26 -52 -2 -78 1 -78 8 0 12 28 146
35 168 3 8 28 12 81 12 74 0 76 -1 70 -22z m171 -58 c18 -112 18 -110 -22
-110 -19 0 -35 5 -35 10 0 6 -13 10 -29 10 -17 0 -33 -4 -36 -10 -3 -5 -22
-10 -41 -10 l-35 0 37 68 c65 116 71 123 113 120 l36 -3 12 -75z m129 48 c-22
-101 -22 -98 18 -98 35 0 37 -2 34 -27 -3 -28 -4 -28 -81 -31 -72 -3 -78 -1
-74 15 3 10 13 53 22 96 l17 77 35 0 c35 0 35 -1 29 -32z m-811 -124 c74 -35
93 -130 42 -217 -35 -60 -86 -87 -161 -87 -59 0 -59 1 -72 -73 -7 -44 -27 -57
-84 -57 -28 0 -43 5 -47 16 -7 20 53 354 73 402 l13 32 101 0 c72 0 112 -5
135 -16z m294 -99 c57 -29 61 -124 7 -174 l-24 -23 21 -60 c24 -67 19 -78 -39
-78 -37 0 -48 11 -65 68 -6 23 -18 42 -24 42 -7 0 -18 -21 -25 -47 -6 -26 -17
-51 -23 -55 -17 -11 -75 -10 -82 2 -7 11 40 282 55 318 9 20 16 22 90 22 52 0
91 -5 109 -15z m211 -10 c0 -57 -53 -301 -68 -312 -18 -15 -78 -17 -86 -5 -8
13 52 312 65 328 6 8 29 14 50 14 35 0 39 -3 39 -25z m313 -8 c-1 -20 -28 -58
-87 -125 l-84 -97 61 -5 62 -5 -2 -34 c-1 -18 -7 -38 -15 -42 -7 -5 -68 -9
-134 -9 -169 0 -171 13 -36 165 l80 90 -57 5 c-48 4 -56 8 -59 27 -2 12 2 31
8 43 10 19 18 20 138 18 l127 -3 -2 -28z m267 0 c0 -45 -15 -57 -76 -57 -38 0
-53 -4 -58 -16 -9 -24 -9 -24 39 -24 44 0 45 -1 45 -33 0 -44 -15 -57 -67 -57
-36 0 -43 -3 -43 -20 0 -16 8 -19 58 -22 l57 -3 -2 -34 c-1 -18 -7 -38 -15
-42 -7 -5 -57 -9 -111 -9 -75 0 -99 3 -103 14 -5 14 50 308 61 327 4 5 53 9
111 9 l104 0 0 -33z m157 -249 c9 -7 13 -7 13 1 0 12 107 13 115 1 3 -5 2 -22
-1 -39 -8 -39 -34 -41 -35 -3 l-1 27 -7 -25 c-4 -14 -15 -26 -25 -28 -16 -3
-18 1 -12 25 l6 28 -15 -27 c-16 -28 -35 -37 -35 -18 0 7 -6 7 -17 2 -24 -12
-115 -13 -130 -1 -7 7 -14 6 -18 -1 -9 -15 -25 -12 -25 5 0 8 7 15 15 15 8 0
15 6 15 13 0 7 5 18 11 24 15 15 129 15 146 1z"/>
<path d="M897 1293 c-12 -11 -8 -23 8 -23 8 0 15 7 15 15 0 16 -12 20 -23 8z"/>
<path d="M1266 1255 c-3 -9 0 -15 9 -15 16 0 20 16 6 24 -5 3 -11 -1 -15 -9z"/>
<path d="M525 1068 c-4 -18 -9 -41 -11 -50 -4 -14 1 -18 25 -18 51 0 82 68 42
90 -34 18 -49 12 -56 -22z"/>
<path d="M846 1004 c-11 -28 -6 -44 13 -44 24 0 45 25 37 45 -7 20 -42 19 -50
-1z"/>
<path d="M1780 800 c0 -5 9 -10 20 -10 11 0 20 5 20 10 0 6 -9 10 -20 10 -11
0 -20 -4 -20 -10z"/>
<path d="M1850 800 c0 -5 7 -10 15 -10 8 0 15 5 15 10 0 6 -7 10 -15 10 -8 0
-15 -4 -15 -10z"/>
</g>
</svg>
