<?xml version="1.0" encoding="UTF-8"?>
<svg version="1.1" xmlns="http://www.w3.org/2000/svg" width="640" height="242">
<path d="M0 0 C5.14163033 3.51725104 9.58189585 7.65425987 13.9921875 12.046875 C11.92969405 16.1718619 5.50400484 16.97083535 1.33837891 18.37255859 C0.02938258 18.82034753 -1.2742459 19.28416175 -2.57177734 19.76416016 C-13.38801133 23.76272207 -13.38801133 23.76272207 -17.36450195 22.00537109 C-19.13018998 20.46355496 -20.51828865 18.84804369 -22.0078125 17.046875 C-27.52006061 14.46667376 -33.20438936 14.11240062 -39.0078125 16.046875 C-39.6678125 16.376875 -40.3278125 16.706875 -41.0078125 17.046875 C-41.44470626 20.91696064 -41.39121652 22.54298981 -38.99169922 25.6965332 C-38.06631348 26.57140381 -37.14092773 27.44627441 -36.1875 28.34765625 C-35.69122101 28.82833054 -35.19494202 29.30900482 -34.68362427 29.804245 C-33.09697672 31.33762942 -31.49184268 32.84952169 -29.8828125 34.359375 C-9.14519887 54.00236245 -9.14519887 54.00236245 -8.5703125 67.484375 C-8.77340484 74.21411648 -10.9426118 78.56863416 -15.1953125 83.671875 C-29.63489794 95.86530271 -44.69718267 97.04525845 -63.0078125 96.046875 C-70.93442896 95.18878391 -78.37670759 92.79183694 -85.703125 89.71875 C-89.74611197 88.54011651 -91.81763821 89.94314357 -95.4453125 91.921875 C-110.12845448 99.34471799 -127.568384 98.4851205 -143.0078125 94.046875 C-154.9812388 89.93235467 -166.67669125 83.81439646 -175.0078125 74.046875 C-175.0078125 73.386875 -175.0078125 72.726875 -175.0078125 72.046875 C-170.98756372 70.75338411 -166.96651115 69.4624096 -162.9453125 68.171875 C-161.2447168 67.62466797 -161.2447168 67.62466797 -159.50976562 67.06640625 C-157.31396994 66.36221522 -155.11642564 65.6634485 -152.91699219 64.97070312 C-151.18729388 64.42142666 -149.46189737 63.85775019 -147.74707031 63.26367188 C-145.89453125 62.6484375 -145.89453125 62.6484375 -143.0078125 62.046875 C-139.8828125 64.296875 -139.8828125 64.296875 -137.0078125 67.046875 C-132.47064244 69.67365767 -128.99642678 68.96145428 -124.0078125 68.046875 C-122.70856095 66.95308296 -122.70856095 66.95308296 -122.67138672 64.28613281 C-123.10402335 60.12051391 -124.35916729 59.04532458 -127.390625 56.21875 C-128.31101563 55.33574219 -129.23140625 54.45273438 -130.1796875 53.54296875 C-131.16273356 52.62617712 -132.14711757 51.71081809 -133.1328125 50.796875 C-141.94287677 42.54788529 -150.23560389 34.45233524 -152.0078125 22.046875 C-152.10183909 14.30983002 -149.79281629 9.29604609 -144.7578125 3.421875 C-136.1004518 -4.05493652 -125.4617157 -8.12011386 -114.0078125 -8.953125 C-113.22148438 -9.01628906 -112.43515625 -9.07945313 -111.625 -9.14453125 C-104.80291469 -9.43907811 -98.42166423 -8.45920001 -91.7578125 -7.140625 C-90.91839111 -6.9753833 -90.07896973 -6.8101416 -89.21411133 -6.63989258 C-85.2102715 -5.79958052 -81.49746303 -4.81269851 -77.7109375 -3.25390625 C-72.98014579 -1.59214081 -70.99371803 -2.03679881 -66.578125 -4.07421875 C-64.95304165 -4.94906394 -63.32804111 -5.82406297 -61.703125 -6.69921875 C-42.75634994 -15.51358802 -17.44451666 -10.03170678 0 0 Z M-107.0078125 24.046875 C-106.93154858 30.69291696 -102.91537264 33.84778712 -98.46484375 38.21875 C-97.70362717 38.98237854 -96.94241058 39.74600708 -96.15812683 40.53277588 C-94.54758064 42.14234386 -92.93082177 43.74571603 -91.30834961 45.34326172 C-88.83091773 47.7864165 -86.3783324 50.2526188 -83.92773438 52.72265625 C-82.35820016 54.28529112 -80.78728136 55.84653677 -79.21484375 57.40625 C-78.48336624 58.14268738 -77.75188873 58.87912476 -76.99824524 59.63787842 C-72.56347034 63.97189865 -69.00713437 66.9714161 -62.5234375 67.09375 C-61.77578125 66.99578125 -61.028125 66.8978125 -60.2578125 66.796875 C-59.49984375 66.70921875 -58.741875 66.6215625 -57.9609375 66.53125 C-55.78741924 66.17055488 -55.78741924 66.17055488 -54.0078125 64.046875 C-53.87516309 59.17277137 -54.89868526 56.77248752 -58.16308594 53.1628418 C-59.54858584 51.75809709 -60.9510768 50.36997445 -62.3671875 48.99609375 C-63.47927582 47.88606743 -63.47927582 47.88606743 -64.61383057 46.75361633 C-66.18046404 45.19602564 -67.75436239 43.64571238 -69.33496094 42.10229492 C-71.75122739 39.74081081 -74.14260277 37.35618165 -76.53125 34.96679688 C-78.05848778 33.45430606 -79.58708898 31.94319046 -81.1171875 30.43359375 C-81.83195251 29.72216721 -82.54671753 29.01074066 -83.28314209 28.27775574 C-83.96024231 27.61979507 -84.63734253 26.96183441 -85.33496094 26.28393555 C-85.92484802 25.70548386 -86.51473511 25.12703217 -87.12249756 24.53105164 C-91.409637 21.1560865 -95.63902882 20.6806348 -100.9140625 20.77734375 C-103.62133499 21.12585457 -105.13091988 22.08837835 -107.0078125 24.046875 Z " fill="#040404" transform="translate(188.0078125,86.953125)"/>
<path d="M0 0 C9.8017786 7.1653266 16.18990716 16.30990091 18.3046875 28.35546875 C18.52002774 31.52941108 18.49699953 34.67626974 18.4296875 37.85546875 C18.42066406 38.67789063 18.41164063 39.5003125 18.40234375 40.34765625 C18.37905615 42.35038958 18.34319709 44.35297029 18.3046875 46.35546875 C16.3246875 46.35546875 14.3446875 46.35546875 12.3046875 46.35546875 C12.3046875 54.27546875 12.3046875 62.19546875 12.3046875 70.35546875 C-0.63791544 74.97782694 -12.39546213 76.70413871 -26.1328125 76.66796875 C-27.35291016 76.68408203 -28.57300781 76.70019531 -29.83007812 76.71679688 C-45.86187817 76.72531989 -59.58924709 73.08914363 -71.42578125 61.9609375 C-79.18290543 53.05559872 -81.08034158 43.44272777 -80.97265625 31.9921875 C-80.16446178 21.39459516 -74.71292143 11.96083144 -67.1328125 4.66796875 C-49.50772387 -9.8786495 -19.47190134 -11.88068183 0 0 Z M-49.6953125 22.35546875 C-50.0253125 23.01546875 -50.3553125 23.67546875 -50.6953125 24.35546875 C-37.1653125 24.35546875 -23.6353125 24.35546875 -9.6953125 24.35546875 C-12.21376309 19.31856756 -14.6311477 18.34496207 -19.6953125 16.35546875 C-30.29659758 13.70514748 -41.09233809 15.51720704 -49.6953125 22.35546875 Z M-50.6953125 46.35546875 C-42.40115227 54.64962898 -34.31885109 54.60214657 -23.16040039 54.60644531 C-12.00524302 54.46574003 -1.87029874 51.9740685 8.3046875 47.35546875 C8.3046875 47.02546875 8.3046875 46.69546875 8.3046875 46.35546875 C-11.1653125 46.35546875 -30.6353125 46.35546875 -50.6953125 46.35546875 Z " fill="#050505" transform="translate(499.6953125,107.64453125)"/>
<path d="M0 0 C8.34312958 7.09505166 13.79865924 16.15641817 15.40234375 27.04296875 C15.51531563 29.98204217 15.49688775 32.9148159 15.46484375 35.85546875 C15.46033203 36.64373047 15.45582031 37.43199219 15.45117188 38.24414062 C15.43945687 40.17711636 15.42152373 42.11005268 15.40234375 44.04296875 C13.75234375 44.37296875 12.10234375 44.70296875 10.40234375 45.04296875 C10.07234375 52.96296875 9.74234375 60.88296875 9.40234375 69.04296875 C-12.85764287 74.8694082 -12.85764287 74.8694082 -21.59765625 75.04296875 C-22.82613281 75.08164063 -24.05460937 75.1203125 -25.3203125 75.16015625 C-42.33274077 75.53857583 -59.1125441 73.41014082 -72.59765625 62.04296875 C-81.17817431 52.98255594 -83.93641419 42.59319443 -83.8125 30.39453125 C-83.28677128 22.19316317 -80.36656902 15.63948881 -75.59765625 9.04296875 C-74.85515625 8.01171875 -74.11265625 6.98046875 -73.34765625 5.91796875 C-55.62343344 -12.61190056 -20.79835626 -14.66831442 0 0 Z M-53.59765625 21.04296875 C-53.59765625 21.70296875 -53.59765625 22.36296875 -53.59765625 23.04296875 C-40.06765625 23.04296875 -26.53765625 23.04296875 -12.59765625 23.04296875 C-14.87946591 18.47934943 -17.42459029 16.1513685 -22.30859375 14.4453125 C-33.28388718 12.51620802 -45.24257555 12.94898433 -53.59765625 21.04296875 Z M-53.59765625 44.04296875 C-48.45357119 50.47307507 -45.14727279 51.40947784 -37.203125 52.515625 C-23.79076177 53.73748427 -10.10218129 52.30310578 2.40234375 47.04296875 C3.39234375 46.05296875 4.38234375 45.06296875 5.40234375 44.04296875 C-14.06765625 44.04296875 -33.53765625 44.04296875 -53.59765625 44.04296875 Z " fill="#040404" transform="translate(270.59765625,107.95703125)"/>
<path d="M0 0 C5.16771129 5.16771129 6.29459535 10.90647866 6.32644653 17.95133972 C6.32341019 19.06403984 6.32341019 19.06403984 6.3203125 20.19921875 C6.32126923 20.96804886 6.32222595 21.73687897 6.32321167 22.52900696 C6.32389056 24.14865196 6.32205663 25.76829972 6.31787109 27.38793945 C6.3124967 29.87652622 6.31783714 32.3649343 6.32421875 34.85351562 C6.32355835 36.42708373 6.32227797 38.00065173 6.3203125 39.57421875 C6.32233673 40.32209152 6.32436096 41.06996429 6.32644653 41.84049988 C6.30246623 47.07253377 6.30246623 47.07253377 5.1875 48.1875 C2.38756403 48.28853255 -0.38718644 48.32720088 -3.1875 48.3203125 C-4.02716309 48.32126923 -4.86682617 48.32222595 -5.73193359 48.32321167 C-7.51074295 48.32389348 -9.28955477 48.32203917 -11.06835938 48.31787109 C-13.80083776 48.31252283 -16.53315176 48.31781605 -19.265625 48.32421875 C-20.9895837 48.32355797 -22.71354229 48.32227681 -24.4375 48.3203125 C-25.26040527 48.32233673 -26.08331055 48.32436096 -26.93115234 48.32644653 C-32.69754946 48.30245054 -32.69754946 48.30245054 -33.8125 47.1875 C-33.96905027 45.70111008 -34.06316943 44.20800873 -34.12890625 42.71484375 C-34.17080078 41.81572266 -34.21269531 40.91660156 -34.25585938 39.99023438 C-34.29517578 39.04470703 -34.33449219 38.09917969 -34.375 37.125 C-34.41818359 36.17560547 -34.46136719 35.22621094 -34.50585938 34.24804688 C-34.61229276 31.89468647 -34.71431008 29.54121646 -34.8125 27.1875 C-38.22906024 27.02072718 -38.22906024 27.02072718 -41.8125 27.1875 C-44.35225988 29.72725988 -44.08028159 30.66443 -44.13134766 34.18798828 C-44.15121735 35.22891632 -44.17108704 36.26984436 -44.19155884 37.34231567 C-44.20888565 39.0329866 -44.20888565 39.0329866 -44.2265625 40.7578125 C-44.24592865 41.90917694 -44.2652948 43.06054138 -44.2852478 44.24679565 C-44.34517372 47.93528769 -44.39148126 51.62381072 -44.4375 55.3125 C-44.47566777 57.80860759 -44.51471878 60.30470185 -44.5546875 62.80078125 C-44.65255318 68.9296193 -44.73201997 75.05831 -44.8125 81.1875 C-59.6625 81.1875 -74.5125 81.1875 -89.8125 81.1875 C-89.85260881 60.51363705 -89.85260881 60.51363705 -89.86132812 51.73242188 C-89.86731664 45.72972739 -89.87441715 39.72704809 -89.88793945 33.72436523 C-89.8987681 28.88740306 -89.90477679 24.05045716 -89.90737724 19.21348381 C-89.90923153 17.36381715 -89.91285222 15.51415143 -89.91823006 13.66449165 C-89.9254402 11.08302986 -89.92649095 8.50163618 -89.92602539 5.92016602 C-89.92962067 5.14764999 -89.93321594 4.37513397 -89.93692017 3.57920837 C-89.92655216 -1.69844784 -89.92655216 -1.69844784 -88.8125 -2.8125 C-85.70998799 -2.90124135 -82.6298188 -2.92768455 -79.52734375 -2.91015625 C-78.59652481 -2.9087413 -77.66570587 -2.90732635 -76.7066803 -2.90586853 C-73.72108809 -2.90025172 -70.73556971 -2.8876964 -67.75 -2.875 C-65.73112087 -2.86998716 -63.71224057 -2.86542388 -61.69335938 -2.86132812 C-56.73304428 -2.85027683 -51.77278468 -2.83300095 -46.8125 -2.8125 C-46.3175 4.6125 -46.3175 4.6125 -45.8125 12.1875 C-44.86375 10.82625 -43.915 9.465 -42.9375 8.0625 C-32.54984451 -5.29005311 -14.33408284 -9.23752005 0 0 Z " fill="#040404" transform="translate(615.8125,103.8125)"/>
<path d="M0 0 C0 7.59 0 15.18 0 23 C3.4340625 22.9690625 3.4340625 22.9690625 6.9375 22.9375 C9.29166332 22.91629132 11.64686445 22.92728259 14 23 C15.55073147 24.55073147 15.12969128 26.03062253 15.1328125 28.18359375 C15.13474609 29.45106445 15.13474609 29.45106445 15.13671875 30.74414062 C15.13285156 31.63294922 15.12898438 32.52175781 15.125 33.4375 C15.13080078 34.76491211 15.13080078 34.76491211 15.13671875 36.11914062 C15.13542969 36.96541016 15.13414062 37.81167969 15.1328125 38.68359375 C15.13168457 39.46275146 15.13055664 40.24190918 15.12939453 41.04467773 C15 43 15 43 14 45 C9.38 45 4.76 45 0 45 C0.33 55.89 0.66 66.78 1 78 C4.76844054 79.88422027 5.77193194 80.22430033 9.6875 80.0625 C11.12413346 80.00842051 12.56249394 79.97958916 14 80 C15 81 15 81 15.09765625 84.81640625 C15.09098089 86.39846682 15.07901875 87.98051159 15.0625 89.5625 C15.05798828 90.36880859 15.05347656 91.17511719 15.04882812 92.00585938 C15.03700518 94.00393756 15.01906914 96.00197783 15 98 C7.9186692 101.78768857 2.12793946 102.20338497 -5.75 102.25 C-6.6059375 102.270625 -7.461875 102.29125 -8.34375 102.3125 C-15.84111819 102.3579386 -22.0165194 100.97022304 -28.3125 96.8125 C-35.28778021 89.51278815 -36.16664366 81.5769077 -36.09765625 71.7578125 C-36.0962413 70.98944061 -36.09482635 70.22106873 -36.09336853 69.42941284 C-36.08780683 66.99456761 -36.0752616 64.55981706 -36.0625 62.125 C-36.05748004 60.46614717 -36.05291801 58.80729288 -36.04882812 57.1484375 C-36.03784998 53.0989223 -36.02061206 49.04947716 -36 45 C-36.78246094 45.01160156 -37.56492187 45.02320313 -38.37109375 45.03515625 C-39.38300781 45.04417969 -40.39492188 45.05320313 -41.4375 45.0625 C-42.44683594 45.07410156 -43.45617187 45.08570313 -44.49609375 45.09765625 C-47 45 -47 45 -48 44 C-48.09880797 42.52347336 -48.13079245 41.04232764 -48.1328125 39.5625 C-48.13410156 38.66789062 -48.13539063 37.77328125 -48.13671875 36.8515625 C-48.13091797 35.44003906 -48.13091797 35.44003906 -48.125 34 C-48.12886719 33.05898437 -48.13273437 32.11796875 -48.13671875 31.1484375 C-48.13542969 30.25382812 -48.13414062 29.35921875 -48.1328125 28.4375 C-48.13112061 27.19806641 -48.13112061 27.19806641 -48.12939453 25.93359375 C-48 24 -48 24 -47 23 C-45.14712498 22.92773498 -43.29166122 22.9161878 -41.4375 22.9375 C-40.42558594 22.94652344 -39.41367187 22.95554687 -38.37109375 22.96484375 C-37.19740234 22.98224609 -37.19740234 22.98224609 -36 23 C-36.08701172 21.64455078 -36.08701172 21.64455078 -36.17578125 20.26171875 C-36.22089844 19.08222656 -36.26601563 17.90273437 -36.3125 16.6875 C-36.37050781 15.51574219 -36.42851562 14.34398438 -36.48828125 13.13671875 C-36 10 -36 10 -33.89208984 8.43383789 C-30.71213856 6.8572843 -27.65887973 5.86952864 -24.23828125 4.921875 C-23.29048042 4.65833221 -23.29048042 4.65833221 -22.3235321 4.38946533 C-20.99754595 4.02288007 -19.67051971 3.66003812 -18.3425293 3.30078125 C-16.30521281 2.74802286 -14.27274356 2.17952579 -12.24023438 1.609375 C-10.94817617 1.25426281 -9.65586667 0.90006337 -8.36328125 0.546875 C-7.19063721 0.22557617 -6.01799316 -0.09572266 -4.80981445 -0.42675781 C-2 -1 -2 -1 0 0 Z " fill="#080808" transform="translate(402,82)"/>
<path d="M0 0 C0 7.92 0 15.84 0 24 C3.4340625 23.9690625 3.4340625 23.9690625 6.9375 23.9375 C9.29166332 23.91629132 11.64686445 23.92728259 14 24 C15.58937556 25.58937556 15.12981143 27.23899846 15.1328125 29.4375 C15.13474609 30.77941406 15.13474609 30.77941406 15.13671875 32.1484375 C15.13285156 33.08945313 15.12898438 34.03046875 15.125 35 C15.13080078 36.41152344 15.13080078 36.41152344 15.13671875 37.8515625 C15.13542969 38.74617188 15.13414062 39.64078125 15.1328125 40.5625 C15.13168457 41.38878906 15.13055664 42.21507812 15.12939453 43.06640625 C15 45 15 45 14 46 C9.38 46 4.76 46 0 46 C0.33 56.89 0.66 67.78 1 79 C4.86790003 80.93395001 6.1500459 81.23289353 10.25 81.125 C11.8175 81.08375 13.385 81.0425 15 81 C15 86.94 15 92.88 15 99 C4.49075265 104.25462368 -7.89293154 104.69897562 -19.4296875 102.28125 C-26.63318298 99.56625474 -30.82430361 95.10256849 -34.15759277 88.2746582 C-35.606427 84.36253285 -35.49282139 80.59548989 -35.390625 76.46875 C-35.38496521 75.59222778 -35.37930542 74.71570557 -35.37347412 73.81262207 C-35.35126636 71.04116812 -35.3011016 68.27105635 -35.25 65.5 C-35.22991474 63.60939381 -35.21166754 61.71876714 -35.1953125 59.828125 C-35.15145307 55.21824094 -35.08253652 50.6093472 -35 46 C-38.96 46 -42.92 46 -47 46 C-47 38.74 -47 31.48 -47 24 C-43.04 24 -39.08 24 -35 24 C-35 19.38 -35 14.76 -35 10 C-28.3329572 7.37994086 -21.56485015 5.30780631 -14.6875 3.3125 C-13.60404297 2.99216797 -12.52058594 2.67183594 -11.40429688 2.34179688 C-10.36724609 2.03951172 -9.33019531 1.73722656 -8.26171875 1.42578125 C-7.32287842 1.15161377 -6.38403809 0.87744629 -5.41674805 0.5949707 C-3 0 -3 0 0 0 Z " fill="#060505" transform="translate(335,81)"/>
<path d="M0 0 C0.66 0.33 1.32 0.66 2 1 C-1.63 4.63 -5.26 8.26 -9 12 C-9 8.47601214 -8.44884893 7.98495633 -6.1875 5.4375 C-5.40439453 4.53837891 -5.40439453 4.53837891 -4.60546875 3.62109375 C-3 2 -3 2 0 0 Z " fill="#2E2E2D" transform="translate(581,104)"/>
<path d="M0 0 C0.66 0.33 1.32 0.66 2 1 C-0.97 3.97 -3.94 6.94 -7 10 C-7.66 9.67 -8.32 9.34 -9 9 C-6.21000549 5.51250686 -3.74764169 2.49842779 0 0 Z " fill="#292928" transform="translate(204,108)"/>
</svg>
