<?xml version="1.0" encoding="UTF-8"?>
<svg version="1.1" xmlns="http://www.w3.org/2000/svg" width="400" height="160">
<path d="M0 0 C0.9075 0.00257812 1.815 0.00515625 2.75 0.0078125 C4.11125 0.00394531 4.11125 0.00394531 5.5 0 C7.75 0.1328125 7.75 0.1328125 8.75 1.1328125 C8.84370624 2.91273174 8.86744271 4.69637989 8.86352539 6.47875977 C8.86344986 7.6198671 8.86337433 8.76097443 8.86329651 9.93666077 C8.85813522 11.1783049 8.85297394 12.41994904 8.84765625 13.69921875 C8.8462413 14.96297836 8.84482635 16.22673798 8.84336853 17.52879333 C8.83870582 20.89406139 8.8297148 24.2592624 8.81866455 27.62451172 C8.80844846 31.0563092 8.80387049 34.48811359 8.79882812 37.91992188 C8.7877738 44.65757314 8.77049637 51.39518361 8.75 58.1328125 C4.79 58.1328125 0.83 58.1328125 -3.25 58.1328125 C-3.58 57.1428125 -3.91 56.1528125 -4.25 55.1328125 C-5.219375 55.7928125 -6.18875 56.4528125 -7.1875 57.1328125 C-11.53627483 59.6065083 -15.34715067 59.85882858 -20.25 59.1328125 C-26.14862115 57.0909821 -29.49981052 53.28315357 -32.5 47.8828125 C-34.8573563 39.23917275 -34.87606686 31.84162205 -30.4375 23.8828125 C-27.4689654 20.15094043 -24.80043042 17.64962264 -20.25 16.1328125 C-14.48105563 15.5614123 -10.28101794 15.98842628 -5.25 19.1328125 C-4.92 19.4628125 -4.59 19.7928125 -4.25 20.1328125 C-4.22494385 19.56248291 -4.1998877 18.99215332 -4.17407227 18.40454102 C-4.05843451 15.83455093 -3.93556376 13.26495723 -3.8125 10.6953125 C-3.77318359 9.79748047 -3.73386719 8.89964844 -3.69335938 7.97460938 C-3.65146484 7.12060547 -3.60957031 6.26660156 -3.56640625 5.38671875 C-3.52974854 4.59595947 -3.49309082 3.8052002 -3.45532227 2.99047852 C-3.15069565 0.23435016 -2.78011024 0.16410373 0 0 Z M-18.0625 24.1953125 C-21.6677116 30.07749985 -22.22520209 36.96482549 -20.6796875 43.5703125 C-19.21460503 48.69241379 -19.21460503 48.69241379 -15.25 52.1328125 C-12.33559301 52.80002786 -12.33559301 52.80002786 -9.25 52.1328125 C-4.42681786 47.41681219 -3.12365441 43.86369192 -3 37.3203125 C-3.04990731 32.49356278 -3.88538921 29.33656502 -6.25 25.1328125 C-10.01958429 22.61975631 -13.94220066 21.77996461 -18.0625 24.1953125 Z " fill="#202020" transform="translate(252.25,49.8671875)"/>
<path d="M0 0 C4.47325795 5.68224659 5.12875186 9.64457668 5.09765625 16.734375 C5.09443359 18.02988281 5.09121094 19.32539062 5.08789062 20.66015625 C5.07953598 22.02343817 5.07107104 23.38671942 5.0625 24.75 C5.05748168 26.12890465 5.05291935 27.50781104 5.04882812 28.88671875 C5.03704093 32.25785659 5.02058635 35.62890628 5 39 C1.04 39 -2.92 39 -7 39 C-7.01981934 38.07662842 -7.03963867 37.15325684 -7.06005859 36.2019043 C-7.13817739 32.77438826 -7.22486997 29.34731202 -7.31738281 25.92016602 C-7.35565347 24.43717788 -7.39050978 22.95409752 -7.421875 21.47094727 C-7.467568 19.33836928 -7.52555338 17.20642509 -7.5859375 15.07421875 C-7.63306885 13.14968872 -7.63306885 13.14968872 -7.68115234 11.1862793 C-7.76379228 7.84612541 -7.76379228 7.84612541 -10 5 C-13.40614946 5.02126462 -13.40614946 5.02126462 -17 6 C-20.26196037 10.89294056 -21.09196449 15.65051537 -21.31640625 21.421875 C-21.35830078 22.44667969 -21.40019531 23.47148438 -21.44335938 24.52734375 C-21.48267578 25.59082031 -21.52199219 26.65429688 -21.5625 27.75 C-21.60568359 28.82894531 -21.64886719 29.90789062 -21.69335938 31.01953125 C-21.79928901 33.67954211 -21.90013456 36.33975456 -22 39 C-25.63 39 -29.26 39 -33 39 C-33 25.47 -33 11.94 -33 -2 C-29.37 -2 -25.74 -2 -22 -2 C-21.67 -1.01 -21.34 -0.02 -21 1 C-20.13375 0.2884375 -20.13375 0.2884375 -19.25 -0.4375 C-13.26099579 -4.5965307 -5.94719888 -3.96479926 0 0 Z " fill="#1A1A1A" transform="translate(348,69)"/>
<path d="M0 0 C4.72042451 4.30145192 8.60879387 8.76917817 9.2109375 15.28125 C9.4917587 22.45299138 7.90574219 27.22306138 3.8125 33.1875 C-1.12724297 38.12724297 -5.53271304 40.21570974 -12.5625 40.4375 C-18.89278859 40.17483242 -22.91969991 38.84390235 -27.75 34.5625 C-34.18099358 27.23831287 -34.61887735 21.6568221 -34 12 C-32.982683 6.74541771 -29.92549097 3.43593045 -25.8125 0.22265625 C-18.51029193 -4.70318669 -7.48182766 -4.67807858 0 0 Z M-18.875 5.3125 C-23.38929911 11.02176064 -22.44676147 18.03992657 -22 25 C-21.00017526 29.24753132 -19.72133913 31.51910725 -16 34 C-12.07856954 34.59673942 -10.52262434 34.3682126 -7.25 32.0625 C-2.83182102 26.0488675 -2.51814256 19.56374973 -3.4453125 12.3046875 C-4.36341016 8.49005638 -6.21853506 5.78146494 -9 3 C-13.45581892 2.48586705 -15.31685424 2.45051319 -18.875 5.3125 Z " fill="#1D1D1D" transform="translate(121,69)"/>
<path d="M0 0 C5.00456146 4.36887814 6.93567235 8.50760132 8 15 C8 16.32 8 17.64 8 19 C-1.24 19 -10.48 19 -20 19 C-18.85612404 27.18243409 -18.85612404 27.18243409 -14 32 C-10.38117216 32.92115618 -7.83594918 33.18576648 -4.1875 32.375 C-1.41771208 30.63399045 -0.8940192 29.08842997 0 26 C2.31 26 4.62 26 7 26 C6.5806338 30.75281689 4.47018934 33.86330938 1 37 C-4.55736084 40.26903579 -9.71152772 40.73145396 -16 40 C-21.55793865 38.3043577 -26.30654758 35.52162345 -30 31 C-33.28620379 24.48386303 -33.55571623 18.04359712 -32 11 C-30.0734726 5.22041781 -25.91960339 1.42766992 -21 -2 C-14.10166088 -4.41441869 -6.20703553 -3.70034811 0 0 Z M-19 6 C-19.33 8.31 -19.66 10.62 -20 13 C-15.05 13 -10.1 13 -5 13 C-4.43531608 7.34568791 -4.43531608 7.34568791 -6.625 4.625 C-10.97652269 1.64764237 -15.49901409 1.98034951 -19 6 Z " fill="#222222" transform="translate(300,69)"/>
<path d="M0 0 C15.51 0 31.02 0 47 0 C47 1.98 47 3.96 47 6 C41.39 6 35.78 6 30 6 C30 22.5 30 39 30 56 C25.71 56 21.42 56 17 56 C17 39.5 17 23 17 6 C11.39 6 5.78 6 0 6 C0 4.02 0 2.04 0 0 Z " fill="#1E1E1E" transform="translate(47,52)"/>
<path d="M0 0 C3.96 0 7.92 0 12 0 C12.33 1.32 12.66 2.64 13 4 C13.66 3.34 14.32 2.68 15 2 C19.01858853 -0.67905902 21.25305716 -0.32182663 26 0 C26 2.97 26 5.94 26 9 C23.8653125 9.185625 23.8653125 9.185625 21.6875 9.375 C18.19426202 9.67875982 17.03525486 9.97649676 14 12 C12.94163339 15.17509982 12.79756211 17.64282383 12.68359375 20.98046875 C12.64169922 22.14384766 12.59980469 23.30722656 12.55664062 24.50585938 C12.51732422 25.72080078 12.47800781 26.93574219 12.4375 28.1875 C12.39431641 29.41404297 12.35113281 30.64058594 12.30664062 31.90429688 C12.20046986 34.93606192 12.09972236 37.968016 12 41 C8.04 41 4.08 41 0 41 C0 27.47 0 13.94 0 0 Z " fill="#202020" transform="translate(168,67)"/>
<path d="M0 0 C1.51400391 0.01740234 1.51400391 0.01740234 3.05859375 0.03515625 C4.07050781 0.04417969 5.08242187 0.05320312 6.125 0.0625 C7.29869141 0.07990234 7.29869141 0.07990234 8.49609375 0.09765625 C8.82609375 1.41765625 9.15609375 2.73765625 9.49609375 4.09765625 C10.15609375 3.43765625 10.81609375 2.77765625 11.49609375 2.09765625 C15.51468228 -0.58140277 17.74915091 -0.22417038 22.49609375 0.09765625 C22.49609375 3.06765625 22.49609375 6.03765625 22.49609375 9.09765625 C20.25 9.26041667 18.00390625 9.42317708 15.7578125 9.5859375 C13.0762275 10.1926519 12.16075645 10.94127779 10.49609375 13.09765625 C9.45894853 16.20909192 9.29577514 18.59233721 9.1796875 21.859375 C9.13779297 22.97763672 9.09589844 24.09589844 9.05273438 25.24804688 C9.01341797 26.41529297 8.97410156 27.58253906 8.93359375 28.78515625 C8.89041016 29.96400391 8.84722656 31.14285156 8.80273438 32.35742188 C8.69658199 35.27071508 8.59453133 38.18409382 8.49609375 41.09765625 C6.68367323 41.12452904 4.87114142 41.1439934 3.05859375 41.16015625 C2.04925781 41.17175781 1.03992188 41.18335938 0 41.1953125 C-2.50390625 41.09765625 -2.50390625 41.09765625 -3.50390625 40.09765625 C-3.60497499 37.22501569 -3.64360297 34.37691997 -3.63671875 31.50390625 C-3.63767548 30.64204712 -3.6386322 29.78018799 -3.63961792 28.89221191 C-3.64029975 27.06632413 -3.63844529 25.24043394 -3.63427734 23.41455078 C-3.62892911 20.60964547 -3.63422224 17.8049003 -3.640625 15 C-3.63996422 13.23046839 -3.63868306 11.46093689 -3.63671875 9.69140625 C-3.63874298 8.8466272 -3.64076721 8.00184814 -3.64285278 7.13146973 C-3.61451195 0.1409716 -3.61451195 0.1409716 0 0 Z " fill="#202020" transform="translate(139.50390625,66.90234375)"/>
<path d="M0 0 C3.63 0 7.26 0 11 0 C11 13.53 11 27.06 11 41 C7.37 41 3.74 41 0 41 C0 27.47 0 13.94 0 0 Z " fill="#141414" transform="translate(200,67)"/>
<path d="M0 0 C3.63 0 7.26 0 11 0 C11 3.63 11 7.26 11 11 C7.37 11 3.74 11 0 11 C0 7.37 0 3.74 0 0 Z " fill="#252525" transform="translate(200,51)"/>
</svg>
