<?xml version="1.0" encoding="UTF-8"?>
<svg version="1.1" xmlns="http://www.w3.org/2000/svg" width="416" height="416">
<path d="M0 0 C7.59 0 15.18 0 23 0 C23 0.33 23 0.66 23 1 C20.69 1.66 18.38 2.32 16 3 C16.45363171 4.58468677 16.91311452 6.16769924 17.375 7.75 C17.63023438 8.63171875 17.88546875 9.5134375 18.1484375 10.421875 C19.03139792 13.30300107 19.03139792 13.30300107 21 17 C22.98 11.72 24.96 6.44 27 1 C28.32 1 29.64 1 31 1 C32.17495143 3.93425371 33.33850852 6.87289513 34.5 9.8125 C34.83386719 10.64587891 35.16773438 11.47925781 35.51171875 12.33789062 C35.98544922 13.54155273 35.98544922 13.54155273 36.46875 14.76953125 C36.76201172 15.50792236 37.05527344 16.24631348 37.35742188 17.00708008 C38 19 38 19 38 22 C38.66 22 39.32 22 40 22 C40.12246094 21.30261719 40.24492188 20.60523438 40.37109375 19.88671875 C41.05221372 16.76033577 42.01493472 13.835045 43.0625 10.8125 C44.49594778 6.98647126 44.49594778 6.98647126 45 3 C42.03 2.34 39.06 1.68 36 1 C36 0.67 36 0.34 36 0 C42.6 0 49.2 0 56 0 C54.31732557 1.12178296 52.6340252 2.24263306 50.94848633 3.36010742 C47.53099696 6.23634801 46.36035134 10.2603464 44.6875 14.3125 C44.31560547 15.15490234 43.94371094 15.99730469 43.56054688 16.86523438 C39.82985378 25.75081438 42.32345174 31.53619525 45.6875 40.1875 C46.01427734 41.08919922 46.34105469 41.99089844 46.67773438 42.91992188 C48.80295793 48.40088873 48.80295793 48.40088873 53.26953125 52.11328125 C54.17058594 52.40589844 55.07164063 52.69851562 56 53 C56 53.33 56 53.66 56 54 C48.41 54 40.82 54 33 54 C33 53.67 33 53.34 33 53 C35.64 52.34 38.28 51.68 41 51 C40.79503906 50.41992188 40.59007812 49.83984375 40.37890625 49.2421875 C38.85990187 44.8378016 37.5952849 40.64322223 37 36 C36.34 36 35.68 36 35 36 C34.82984375 36.54527344 34.6596875 37.09054688 34.484375 37.65234375 C32.67459186 43.28384978 30.49654622 48.63939569 28 54 C27.34 54 26.68 54 26 54 C22.535 45.09 22.535 45.09 19 36 C18.01 36 17.02 36 16 36 C15.29911844 37.74468372 14.61475991 39.49601161 13.9375 41.25 C13.55464844 42.22453125 13.17179687 43.1990625 12.77734375 44.203125 C11.69864157 47.19271828 11.69864157 47.19271828 13 51 C15.64 51.66 18.28 52.32 21 53 C21 53.33 21 53.66 21 54 C14.07 54 7.14 54 0 54 C1.79207036 52.80528643 3.58577226 51.61300619 5.3828125 50.42578125 C11.41123401 44.83824429 15.23825564 36.15333747 16 28 C14.75239392 20.52246485 11.41817981 13.7071429 7.953125 7.02099609 C7 5 7 5 7 3 C4.69 2.34 2.38 1.68 0 1 C0 0.67 0 0.34 0 0 Z M23.25 17.0625 C21.69136141 19.07149225 21.69136141 19.07149225 22.125 22.25 C23.04007827 26.17176402 24.29458118 29.36671642 26 33 C28.97 33 31.94 33 35 33 C34.21563093 30.5391169 33.42291109 28.08149031 32.625 25.625 C32.40328125 24.92632812 32.1815625 24.22765625 31.953125 23.5078125 C30.62845587 19.37952197 30.62845587 19.37952197 28 16 C25.08617835 15.74051093 25.08617835 15.74051093 23.25 17.0625 Z M17 31 C18 33 18 33 18 33 Z M27 35 C27.99 36.485 27.99 36.485 29 38 C30.97536745 37.65213292 30.97536745 37.65213292 33 37 C33.33 36.34 33.66 35.68 34 35 C31.69 35 29.38 35 27 35 Z " fill="#2A2A2A" transform="translate(48,181)"/>
<path d="M0 0 C0.84111328 0.71349609 0.84111328 0.71349609 1.69921875 1.44140625 C1.69921875 2.10140625 1.69921875 2.76140625 1.69921875 3.44140625 C2.27800781 3.66957031 2.85679688 3.89773437 3.453125 4.1328125 C12.15389535 9.20195696 17.0910841 21.979391 19.8125 31.22265625 C20.85061104 35.58179939 21.04491195 39.78581302 21.01171875 44.25390625 C21.00434692 45.43629883 21.00434692 45.43629883 20.99682617 46.64257812 C20.68109831 62.43220933 13.72105 75.7594385 2.41796875 86.63671875 C-11.14680686 98.21962779 -25.98478448 101.49188746 -43.30078125 100.44140625 C-58.14308554 98.47435387 -71.34633042 90.25198434 -80.5546875 78.5859375 C-90.32655133 64.67497849 -93.22031297 49.71186967 -90.8046875 33.01171875 C-87.27714941 17.66593156 -78.40564554 5.16500091 -65.30078125 -3.55859375 C-43.79732202 -15.68389235 -20.24312124 -13.71308213 0 0 Z M-73.30078125 6.44140625 C-73.30078125 7.10140625 -73.30078125 7.76140625 -73.30078125 8.44140625 C-74.29078125 8.77140625 -75.28078125 9.10140625 -76.30078125 9.44140625 C-86.71943716 22.76084803 -89.61269731 36.91197887 -88.30078125 53.44140625 C-86.71554499 62.06509151 -83.17838942 69.22254616 -78.30078125 76.44140625 C-77.64078125 77.43140625 -76.98078125 78.42140625 -76.30078125 79.44140625 C-75.64078125 79.44140625 -74.98078125 79.44140625 -74.30078125 79.44140625 C-74.07132813 80.02019531 -73.841875 80.59898437 -73.60546875 81.1953125 C-68.92818336 89.24752537 -57.74672128 93.62205951 -49.30078125 96.44140625 C-35.51379623 100.0622306 -20.39544742 97.59002665 -8.11328125 90.75390625 C4.03517979 82.81901192 13.65391208 71.8384012 17.296875 57.45703125 C19.67934641 39.60006111 16.91807836 24.9219754 6.109375 10.2890625 C-0.65958156 1.9911181 -9.21493969 -3.2134563 -19.30078125 -6.55859375 C-20.49703125 -6.97109375 -21.69328125 -7.38359375 -22.92578125 -7.80859375 C-41.11260571 -11.84196208 -59.86572036 -6.28654618 -73.30078125 6.44140625 Z " fill="#5B5B5B" transform="translate(111.30078125,163.55859375)"/>
<path d="M0 0 C0.99 0 1.98 0 3 0 C3.42297363 1.07258057 3.84594727 2.14516113 4.28173828 3.25024414 C5.88049415 7.3040992 7.47973215 11.35776392 9.07910156 15.41137695 C9.76575255 17.15188654 10.45227999 18.89244486 11.13867188 20.63305664 C11.46931641 21.47151123 11.79996094 22.30996582 12.140625 23.17382812 C12.63474884 24.42720474 12.63474884 24.42720474 13.13885498 25.7059021 C13.8009523 27.3823683 14.46472789 29.05817267 15.13018799 30.73330688 C16.68170336 34.64038693 18.21479952 38.55135883 19.69042969 42.48779297 C19.95387177 43.17844345 20.21731384 43.86909393 20.48873901 44.58067322 C21.19179385 46.4263025 21.88321711 48.27635095 22.57373047 50.12670898 C24.06085185 53.12258909 25.27762867 54.17914598 28 56 C28 56.66 28 57.32 28 58 C21.4 58 14.8 58 8 58 C8 57.34 8 56.68 8 56 C9.65 55.34 11.3 54.68 13 54 C12.34309381 50.21760329 11.279869 46.78158474 9.9375 43.1875 C9.39416016 41.72376953 9.39416016 41.72376953 8.83984375 40.23046875 C8.56269531 39.49441406 8.28554688 38.75835937 8 38 C5.20865148 37.80574127 2.41716313 37.61930483 -0.375 37.4375 C-1.56609375 37.35338867 -1.56609375 37.35338867 -2.78125 37.26757812 C-7.01590885 36.84647196 -7.01590885 36.84647196 -11 38 C-12.17904444 40.394417 -12.17904444 40.394417 -13.1875 43.25 C-13.55230469 44.20390625 -13.91710937 45.1578125 -14.29296875 46.140625 C-15.06028606 49.24380882 -15.04628007 50.99326585 -14 54 C-11.52363988 55.37466625 -11.52363988 55.37466625 -9 56 C-9 56.66 -9 57.32 -9 58 C-14.28 58 -19.56 58 -25 58 C-24 55 -24 55 -22.171875 53.37548828 C-19.07984363 49.99357897 -17.8446588 46.24483063 -16.25 41.9921875 C-15.91000977 41.11152618 -15.57001953 40.23086487 -15.21972656 39.32351685 C-14.1364438 36.5110788 -13.06794431 33.69329347 -12 30.875 C-11.28224267 29.00222342 -10.56350246 27.12982321 -9.84375 25.2578125 C-8.82238439 22.60032165 -7.80239317 19.94240113 -6.79003906 17.28146362 C-4.58861002 11.49556581 -2.31532601 5.74125169 0 0 Z M-2 12 C-3.33600613 15.47814628 -4.66835642 18.95768139 -6 22.4375 C-6.3815625 23.43072266 -6.763125 24.42394531 -7.15625 25.44726562 C-7.5171875 26.39150391 -7.878125 27.33574219 -8.25 28.30859375 C-8.58515625 29.18314209 -8.9203125 30.05769043 -9.265625 30.95874023 C-10.0564207 32.79526915 -10.0564207 32.79526915 -10 34 C-4.39 34 1.22 34 7 34 C4.60309494 26.55697903 1.84737559 19.28162848 -1 12 C-1.33 12 -1.66 12 -2 12 Z " fill="#1D1D1D" transform="translate(366,179)"/>
<path d="M0 0 C0.99 0 1.98 0 3 0 C4.62985545 3.95635021 6.2533733 7.91527021 7.875 11.875 C8.3687915 13.07833984 8.86258301 14.28167969 9.37133789 15.52148438 C11.94133267 21.80887857 14.4418636 28.11248539 16.81640625 34.4765625 C17.25807129 35.65621582 17.69973633 36.83586914 18.15478516 38.05126953 C18.99730457 40.31648257 19.82935881 42.58562092 20.64990234 44.85888672 C21.03227051 45.8851416 21.41463867 46.91139648 21.80859375 47.96875 C22.30057251 49.32129883 22.30057251 49.32129883 22.80249023 50.70117188 C24.16147834 53.30998573 25.62704195 54.33075104 28 56 C28 56.66 28 57.32 28 58 C21.4 58 14.8 58 8 58 C8 57.34 8 56.68 8 56 C9.65 55.34 11.3 54.68 13 54 C12.00267443 49.13008048 10.89731633 44.60776823 9 40 C9 39.01 9 38.02 9 37 C6.04160645 36.97310551 3.08345573 36.95321259 0.125 36.9375 C-1.13763672 36.92493164 -1.13763672 36.92493164 -2.42578125 36.91210938 C-3.23144531 36.90888672 -4.03710938 36.90566406 -4.8671875 36.90234375 C-5.98262939 36.89448853 -5.98262939 36.89448853 -7.12060547 36.88647461 C-9.09132568 36.88213364 -9.09132568 36.88213364 -11 38 C-12.18027284 40.66012966 -12.18027284 40.66012966 -13.1875 43.8125 C-13.55230469 44.87082031 -13.91710937 45.92914063 -14.29296875 47.01953125 C-14.98138696 49.92153729 -15.22936424 51.31154184 -14 54 C-11.50965614 55.29660434 -11.50965614 55.29660434 -9 56 C-9 56.66 -9 57.32 -9 58 C-14.28 58 -19.56 58 -25 58 C-24 55 -24 55 -22.0925293 53.15332031 C-19.72970424 50.72185175 -18.77362185 48.68513835 -17.51953125 45.546875 C-17.08165283 44.46317627 -16.64377441 43.37947754 -16.19262695 42.26293945 C-15.73718506 41.10366943 -15.28174316 39.94439941 -14.8125 38.75 C-14.33707764 37.56172607 -13.86165527 36.37345215 -13.37182617 35.14916992 C-8.737993 23.50013171 -4.32103837 11.76831318 0 0 Z M-2 12 C-4.64 19.26 -7.28 26.52 -10 34 C-4.39 34 1.22 34 7 34 C4.87460394 26.39331935 2.14771471 19.24098798 -1 12 C-1.33 12 -1.66 12 -2 12 Z " fill="#232323" transform="translate(289,179)"/>
<path d="M0 0 C6.27 0 12.54 0 19 0 C18.67 0.99 18.34 1.98 18 3 C16.68 3 15.36 3 14 3 C15.30173951 8.60242321 16.95024546 13.86463545 19.0390625 19.21875 C19.32478119 19.96209595 19.61049988 20.70544189 19.90487671 21.47131348 C20.80721235 23.81592285 21.71598151 26.15797465 22.625 28.5 C23.24261688 30.10139697 23.85980837 31.70295806 24.4765625 33.3046875 C25.97946829 37.20503802 27.48814413 41.10311047 29 45 C30.84262642 40.28970743 32.67535766 35.57572588 34.49926758 30.8581543 C35.12029977 29.25588155 35.74396093 27.65462507 36.37036133 26.05444336 C37.27348113 23.74599155 38.16688993 21.43397545 39.05859375 19.12109375 C39.3377916 18.41351425 39.61698944 17.70593475 39.90464783 16.97691345 C41.5682325 12.62811711 42.51041232 8.63388124 43 4 C40.69 3.34 38.38 2.68 36 2 C36 1.34 36 0.68 36 0 C41.28 0 46.56 0 52 0 C52 0.99 52 1.98 52 3 C51.27296875 3.64195312 50.5459375 4.28390625 49.796875 4.9453125 C45.57979557 8.93404093 44.17491202 14.53975574 42.25 19.875 C41.38363058 22.20342956 40.51642445 24.53154794 39.6484375 26.859375 C39.21241211 28.04080078 38.77638672 29.22222656 38.32714844 30.43945312 C36.24411799 36.02792185 34.06079749 41.57609896 31.875 47.125 C31.12223538 49.04420791 30.36961525 50.9634725 29.6171875 52.8828125 C29.07824161 54.25525413 28.5392285 55.62766938 28 57 C26.68 57 25.36 57 24 57 C21.95455907 51.82655457 19.90991782 46.65279402 17.8659668 41.47875977 C17.1728187 39.7244445 16.47946498 37.97021047 15.78588867 36.21606445 C15.11215293 34.51202379 14.43879996 32.80783174 13.76583862 31.10348511 C13.10330743 29.42675172 12.43935341 27.75057982 11.7739563 26.07498169 C10.31390036 22.38782291 8.87570619 18.69929929 7.53662109 14.96630859 C6.90554443 13.22534912 6.90554443 13.22534912 6.26171875 11.44921875 C5.91455811 10.45623779 5.56739746 9.46325684 5.2097168 8.44018555 C3.85197933 5.70141945 2.43158451 4.76212422 0 3 C0 2.01 0 1.02 0 0 Z " fill="#232323" transform="translate(219,179)"/>
<path d="M0 0 C6.6 0 13.2 0 20 0 C20 0.66 20 1.32 20 2 C18.35 2.66 16.7 3.32 15 4 C15.61452225 10.13480687 18.02475831 15.52488177 20.3125 21.1875 C23.33807738 28.74895121 26.2634973 36.32857356 29 44 C32.0467197 39.42992045 33.78610509 34.34623327 35.7956543 29.25024414 C36.5544183 27.33292166 37.32670637 25.42142391 38.09960938 23.50976562 C40.55798902 17.29343681 42.65435717 11.70209878 43 5 C41.02 4.01 39.04 3.02 37 2 C37 1.34 37 0.68 37 0 C42.28 0 47.56 0 53 0 C52 3 52 3 50.20141602 4.54736328 C46.8638491 8.26580592 45.52162341 12.60547516 43.77734375 17.2421875 C43.19721275 18.74387985 43.19721275 18.74387985 42.60536194 20.27590942 C41.37268959 23.47184879 40.15452138 26.67307183 38.9375 29.875 C37.71428021 33.06870868 36.48804863 36.26122562 35.25892639 39.45266724 C34.49581394 41.43669786 33.73655098 43.42221462 32.98167419 45.40939331 C31.19650877 50.07538015 29.34388092 54.58631174 27 59 C24.20585056 56.58255595 23.07233181 54.21866727 21.73046875 50.80078125 C21.31941895 49.76381104 20.90836914 48.72684082 20.48486328 47.65844727 C20.0567334 46.55428467 19.62860352 45.45012207 19.1875 44.3125 C18.74390137 43.18577881 18.30030273 42.05905762 17.84326172 40.89819336 C14.07130997 31.28404803 10.38454412 21.63306287 6.890625 11.9140625 C6.55546875 11.01429688 6.2203125 10.11453125 5.875 9.1875 C5.46894531 8.06408203 5.46894531 8.06408203 5.0546875 6.91796875 C3.76591327 4.57430894 2.14302542 3.55169268 0 2 C0 1.34 0 0.68 0 0 Z " fill="#1F1F1F" transform="translate(140,179)"/>
<path d="M0 0 C6.93 0 13.86 0 21 0 C20.67 0.99 20.34 1.98 20 3 C17.9375 3.6875 17.9375 3.6875 16 4 C15.83151294 9.83477175 15.67105131 15.66969039 15.51782227 21.50488281 C15.4646566 23.48736415 15.40934948 25.46978932 15.35180664 27.45214844 C15.26918066 30.31172579 15.19441589 33.17142075 15.12109375 36.03125 C15.08054115 37.34736267 15.08054115 37.34736267 15.03916931 38.69006348 C14.91424837 43.91326751 15.22314977 48.83146108 16 54 C17.65 54.66 19.3 55.32 21 56 C21 56.66 21 57.32 21 58 C14.07 58 7.14 58 0 58 C0 57.34 0 56.68 0 56 C1.65 55.34 3.3 54.68 5 54 C5 37.17 5 20.34 5 3 C3.35 3 1.7 3 0 3 C0 2.01 0 1.02 0 0 Z " fill="#151515" transform="translate(318,179)"/>
<path d="M0 0 C6.93 0 13.86 0 21 0 C21 0.99 21 1.98 21 3 C19.35 3.33 17.7 3.66 16 4 C16 20.5 16 37 16 54 C17.65 54.66 19.3 55.32 21 56 C21 56.66 21 57.32 21 58 C14.07 58 7.14 58 0 58 C0 57.34 0 56.68 0 56 C0.804375 55.731875 1.60875 55.46375 2.4375 55.1875 C3.7059375 54.5996875 3.7059375 54.5996875 5 54 C5.92833112 51.21500665 6.12640788 49.54331755 6.12939453 46.66796875 C6.13254669 45.79696533 6.13569885 44.92596191 6.13894653 44.02856445 C6.1369223 43.09101318 6.13489807 42.15346191 6.1328125 41.1875 C6.13376923 40.22223389 6.13472595 39.25696777 6.13571167 38.26245117 C6.1363922 36.22151626 6.13454675 34.18057919 6.13037109 32.13964844 C6.12502108 29.01232043 6.13032039 25.88513604 6.13671875 22.7578125 C6.13605795 20.77604135 6.13477674 18.79427029 6.1328125 16.8125 C6.13483673 15.87494873 6.13686096 14.93739746 6.13894653 13.97143555 C6.13579437 13.10043213 6.13264221 12.22942871 6.12939453 11.33203125 C6.12859894 10.56608643 6.12780334 9.8001416 6.12698364 9.01098633 C6.07298522 6.79259947 6.07298522 6.79259947 5 4 C2.49552484 2.78130071 2.49552484 2.78130071 0 2 C0 1.34 0 0.68 0 0 Z " fill="#191919" transform="translate(195,179)"/>
<path d="M0 0 C0.84111328 0.71349609 0.84111328 0.71349609 1.69921875 1.44140625 C1.69921875 2.10140625 1.69921875 2.76140625 1.69921875 3.44140625 C2.27800781 3.66957031 2.85679688 3.89773437 3.453125 4.1328125 C11.45654443 8.79567426 16.67451212 20.68071696 19.25 29.28051758 C19.75691206 31.71892989 19.81205868 33.93565706 19.796875 36.42578125 C19.79204102 37.82763672 19.79204102 37.82763672 19.78710938 39.2578125 C19.77454102 40.70994141 19.77454102 40.70994141 19.76171875 42.19140625 C19.75720703 43.17496094 19.75269531 44.15851563 19.74804688 45.171875 C19.73628358 47.59511416 19.71984559 50.01822898 19.69921875 52.44140625 C19.36921875 52.44140625 19.03921875 52.44140625 18.69921875 52.44140625 C18.60125 51.28125 18.50328125 50.12109375 18.40234375 48.92578125 C16.89298756 32.56857236 13.08843295 17.16691255 0.69921875 5.44140625 C-5.45455439 0.39873104 -11.76513168 -3.05926997 -19.30078125 -5.55859375 C-20.49703125 -5.97109375 -21.69328125 -6.38359375 -22.92578125 -6.80859375 C-36.47059792 -9.81248454 -50.9340825 -7.50114073 -62.86328125 -0.55859375 C-76.30627495 8.01510067 -83.82074057 20.16222223 -87.7421875 35.44921875 C-88.79055307 41.06493924 -89.05948797 46.74189246 -89.30078125 52.44140625 C-89.63078125 52.44140625 -89.96078125 52.44140625 -90.30078125 52.44140625 C-91.13849693 33.29766975 -89.66599847 20.28011791 -76.30078125 5.44140625 C-54.77335287 -15.54465189 -24.54099232 -16.62454318 0 0 Z " fill="#505050" transform="translate(111.30078125,163.55859375)"/>
<path d="M0 0 C6.6 0 13.2 0 20 0 C18.31732557 1.12178296 16.6340252 2.24263306 14.94848633 3.36010742 C11.53099696 6.23634801 10.36035134 10.2603464 8.6875 14.3125 C8.31560547 15.15490234 7.94371094 15.99730469 7.56054688 16.86523438 C3.82985378 25.75081438 6.32345174 31.53619525 9.6875 40.1875 C10.17766602 41.54004883 10.17766602 41.54004883 10.67773438 42.91992188 C12.80295793 48.40088873 12.80295793 48.40088873 17.26953125 52.11328125 C18.17058594 52.40589844 19.07164063 52.69851562 20 53 C20 53.33 20 53.66 20 54 C12.41 54 4.82 54 -3 54 C-3 53.67 -3 53.34 -3 53 C-0.36 52.34 2.28 51.68 5 51 C4.79503906 50.41992188 4.59007813 49.83984375 4.37890625 49.2421875 C2.85990187 44.8378016 1.5952849 40.64322223 1 36 C0.34 36 -0.32 36 -1 36 C-1.33 36.66 -1.66 37.32 -2 38 C-2.33 37.34 -2.66 36.68 -3 36 C-5.31 36 -7.62 36 -10 36 C-10 35.01 -10 34.02 -10 33 C-7.36 32.67 -4.72 32.34 -2 32 C-1.896875 31.360625 -1.79375 30.72125 -1.6875 30.0625 C-1.460625 29.381875 -1.23375 28.70125 -1 28 C-0.01 27.67 0.98 27.34 2 27 C2 25.35 2 23.7 2 22 C2.66 22 3.32 22 4 22 C4.18369141 20.95392578 4.18369141 20.95392578 4.37109375 19.88671875 C5.05221372 16.76033577 6.01493472 13.835045 7.0625 10.8125 C8.49594778 6.98647126 8.49594778 6.98647126 9 3 C6.03 2.34 3.06 1.68 0 1 C0 0.67 0 0.34 0 0 Z " fill="#2F2F2F" transform="translate(84,181)"/>
<path d="M0 0 C0.3449145 1.33038449 0.67516582 2.66457061 1 4 C1.2475 4.845625 1.495 5.69125 1.75 6.5625 C1.87375 7.7690625 1.87375 7.7690625 2 9 C1.01122505 10.01110044 0.00971541 11.00981073 -1 12 C-1.93277664 13.80823918 -1.93277664 13.80823918 -2.60546875 15.79296875 C-2.84160889 16.43516357 -3.07774902 17.0773584 -3.32104492 17.73901367 C-3.6069751 18.54701416 -3.89290527 19.35501465 -4.1875 20.1875 C-5.115625 22.765625 -6.04375 25.34375 -7 28 C-1.39 28 4.22 28 10 28 C10.495 30.475 10.495 30.475 11 33 C9.72382813 32.91621094 8.44765625 32.83242187 7.1328125 32.74609375 C5.46355965 32.64293768 3.79428779 32.54008901 2.125 32.4375 C1.28324219 32.38142578 0.44148438 32.32535156 -0.42578125 32.26757812 C-1.23144531 32.21923828 -2.03710938 32.17089844 -2.8671875 32.12109375 C-3.61081543 32.0739624 -4.35444336 32.02683105 -5.12060547 31.97827148 C-7.09247077 31.86421725 -7.09247077 31.86421725 -9 33 C-10.17904444 35.394417 -10.17904444 35.394417 -11.1875 38.25 C-11.55230469 39.20390625 -11.91710937 40.1578125 -12.29296875 41.140625 C-13.06028606 44.24380882 -13.04628007 45.99326585 -12 49 C-9.52363988 50.37466625 -9.52363988 50.37466625 -7 51 C-7 51.66 -7 52.32 -7 53 C-12.28 53 -17.56 53 -23 53 C-22 50 -22 50 -20.17626953 48.38647461 C-17.0491128 44.95726696 -15.79658948 41.12312969 -14.1796875 36.81640625 C-13.83495392 35.92388657 -13.49022034 35.03136688 -13.13504028 34.11180115 C-12.03832811 31.26576886 -10.9564503 28.41436193 -9.875 25.5625 C-9.14030692 23.64740867 -8.40464018 21.73269057 -7.66796875 19.81835938 C-6.31666335 16.30380238 -4.97136577 12.78706889 -3.63232422 9.26782227 C-2.45058514 6.16643868 -1.24750298 3.0756861 0 0 Z " fill="#5F5F5F" transform="translate(364,184)"/>
<path d="M0 0 C1.42603626 2.27625977 2.11478947 3.41809429 1.58447266 6.10644531 C1.2807373 6.83959961 0.97700195 7.57275391 0.6640625 8.328125 C0.18066406 9.52695313 0.18066406 9.52695313 -0.3125 10.75 C-0.8384375 11.9875 -0.8384375 11.9875 -1.375 13.25 C-1.71789062 14.09046875 -2.06078125 14.9309375 -2.4140625 15.796875 C-3.26226987 17.87027079 -4.12935189 19.93592691 -5 22 C0.28 22.33 5.56 22.66 11 23 C10.67 21.68 10.34 20.36 10 19 C10.99 19.33 11.98 19.66 13 20 C13 21.98 13 23.96 13 26 C11.08574219 25.98259766 11.08574219 25.98259766 9.1328125 25.96484375 C7.46354313 25.95546583 5.79427217 25.94636563 4.125 25.9375 C3.28324219 25.92912109 2.44148438 25.92074219 1.57421875 25.91210938 C0.76855469 25.90888672 -0.03710938 25.90566406 -0.8671875 25.90234375 C-1.61081543 25.89710693 -2.35444336 25.89187012 -3.12060547 25.88647461 C-5.09132568 25.88213364 -5.09132568 25.88213364 -7 27 C-8.18027284 29.66012966 -8.18027284 29.66012966 -9.1875 32.8125 C-9.55230469 33.87082031 -9.91710937 34.92914063 -10.29296875 36.01953125 C-10.98138696 38.92153729 -11.22936424 40.31154184 -10 43 C-7.50965614 44.29660434 -7.50965614 44.29660434 -5 45 C-5 45.66 -5 46.32 -5 47 C-10.28 47 -15.56 47 -21 47 C-20 44 -20 44 -18.10131836 42.17749023 C-15.65453328 39.64201027 -14.67655273 37.42745843 -13.37890625 34.16015625 C-12.91806641 33.01353516 -12.45722656 31.86691406 -11.98242188 30.68554688 C-11.51384766 29.48994141 -11.04527344 28.29433594 -10.5625 27.0625 C-10.09779297 25.90169922 -9.63308594 24.74089844 -9.15429688 23.54492188 C-6.03353346 15.72342696 -3.00717757 7.86574333 0 0 Z " fill="#5A5A5A" transform="translate(285,190)"/>
<path d="M0 0 C3 1 3 1 3.96728516 2.63891602 C4.37406494 3.68583618 4.37406494 3.68583618 4.7890625 4.75390625 C5.09070313 5.52669922 5.39234375 6.29949219 5.703125 7.09570312 C6.00734375 7.90974609 6.3115625 8.72378906 6.625 9.5625 C6.93695313 10.34947266 7.24890625 11.13644531 7.5703125 11.94726562 C9.50424545 17.00299982 10.54278088 21.60605006 11 27 C9.02 27.66 7.04 28.32 5 29 C4.69707031 28.14535156 4.39414063 27.29070312 4.08203125 26.41015625 C3.45361328 24.75306641 3.45361328 24.75306641 2.8125 23.0625 C2.40644531 21.96035156 2.00039062 20.85820312 1.58203125 19.72265625 C0.26277925 16.7579143 0.26277925 16.7579143 -2.67578125 16.12109375 C-3.44277344 16.08113281 -4.20976563 16.04117188 -5 16 C-4.49228528 10.03435204 -2.61407872 5.36190101 0 0 Z " fill="#212121" transform="translate(76,181)"/>
<path d="M0 0 C2.09720297 2.09720297 2.61249701 3.28653276 3.5859375 6.02734375 C4.02292969 7.21553711 4.02292969 7.21553711 4.46875 8.42773438 C5.07077119 10.09496978 5.66717278 11.76424555 6.2578125 13.43554688 C8.36903266 19.15548867 8.36903266 19.15548867 13 23 C13 23.66 13 24.32 13 25 C6.4 25 -0.2 25 -7 25 C-7 24.34 -7 23.68 -7 23 C-5.35 22.34 -3.7 21.68 -2 21 C-2.82187261 16.61667943 -3.90154282 12.32059823 -5 8 C-4.01 8 -3.02 8 -2 8 C-1.855625 7.4225 -1.71125 6.845 -1.5625 6.25 C-1.04166667 4.16666667 -0.52083333 2.08333333 0 0 Z " fill="#292929" transform="translate(381,212)"/>
<path d="M0 0 C1.32 0 2.64 0 4 0 C5.60355101 3.50776784 6.22036864 6.14354879 6 10 C8.64 10.33 11.28 10.66 14 11 C13.49487476 17.22987798 10.67395877 22.45474233 8 28 C7.34 28 6.68 28 6 28 C4.7838848 24.84360164 3.60758614 21.67371937 2.4375 18.5 C1.92413086 17.1696875 1.92413086 17.1696875 1.40039062 15.8125 C-0.71517986 10.00002351 -1.29783243 6.0707353 0 0 Z " fill="#212121" transform="translate(68,207)"/>
<path d="M0 0 C5.28 0 10.56 0 16 0 C16 0.99 16 1.98 16 3 C14.91525391 3.94746094 14.91525391 3.94746094 13.80859375 4.9140625 C9.47564301 9.00451441 8.03823106 14.90475755 6.0625 20.375 C5.19214447 22.71381652 4.32105355 25.0523595 3.44921875 27.390625 C3.0320459 28.52177734 2.61487305 29.65292969 2.18505859 30.81835938 C0.6470239 34.94766885 -0.97098467 39.0410242 -2.625 43.125 C-3.09164062 44.28257812 -3.55828125 45.44015625 -4.0390625 46.6328125 C-4.51472656 47.80457031 -4.51472656 47.80457031 -5 49 C-5.99 48.67 -6.98 48.34 -8 48 C-6.56317314 43.55530797 -4.9397041 39.21951403 -3.21484375 34.87890625 C-2.67867158 33.5177218 -2.14287576 32.15638904 -1.60742188 30.79492188 C-0.77273698 28.67618189 0.06412499 26.55842415 0.9074707 24.44311523 C1.72784441 22.38272525 2.53847386 20.31871271 3.34765625 18.25390625 C4.07480835 16.41807983 4.07480835 16.41807983 4.81665039 14.54516602 C6.02243366 10.93279159 6.58668336 7.76755176 7 4 C4.69 3.34 2.38 2.68 0 2 C0 1.34 0 0.68 0 0 Z " fill="#595959" transform="translate(255,179)"/>
<path d="M0 0 C5.28 0 10.56 0 16 0 C15 3 15 3 13.19433594 4.57519531 C9.94031735 8.17097998 8.60577575 12.30435447 6.890625 16.796875 C6.51895203 17.74564514 6.14727905 18.69441528 5.76434326 19.67193604 C4.58299714 22.69420854 3.41634948 25.72191261 2.25 28.75 C1.45018231 30.80376093 0.64941189 32.85715109 -0.15234375 34.91015625 C-2.11262584 39.93585911 -4.06088036 44.9660967 -6 50 C-7.05940247 48.20977783 -7.05940247 48.20977783 -8 46 C-7.26299623 43.39729569 -6.44982836 41.1372302 -5.38671875 38.671875 C-5.09771194 37.9640387 -4.80870514 37.25620239 -4.51094055 36.5269165 C-3.58430547 34.26163193 -2.63767814 32.00550011 -1.6875 29.75 C-0.75003143 27.50809088 0.18258972 25.26456941 1.10380554 23.01593018 C1.67705355 21.6182197 2.25968192 20.22430519 2.85334778 18.83514404 C4.76381441 14.19836161 5.55581763 9.99905166 6 5 C4.02 4.01 2.04 3.02 0 2 C0 1.34 0 0.68 0 0 Z " fill="#595959" transform="translate(177,179)"/>
<path d="M0 0 C1.485 0.99 1.485 0.99 3 2 C3.37109375 5.01953125 3.37109375 5.01953125 3.4375 8.8125 C3.88261204 19.65574265 6.74824797 28.85935513 12.73046875 37.9765625 C14 40 14 40 15 43 C15.66 43 16.32 43 17 43 C18.71230248 44.61974559 20.37163262 46.2958946 22 48 C22.928125 48.928125 23.85625 49.85625 24.8125 50.8125 C25.534375 51.534375 26.25625 52.25625 27 53 C25.296875 53.73046875 25.296875 53.73046875 23 54 C10.99231167 46.42372046 3.90575643 33.08775478 0.40625 19.734375 C-0.16682564 15.87713512 -0.104922 12.08053472 -0.0625 8.1875 C-0.05573242 7.00510742 -0.05573242 7.00510742 -0.04882812 5.79882812 C-0.03711312 3.86585239 -0.01917998 1.93291607 0 0 Z " fill="#5E5E5E" transform="translate(20,200)"/>
<path d="M0 0 C0.33 0 0.66 0 1 0 C1.57600929 19.3923128 -1.3924089 34.25618857 -15 49 C-16.99609375 50.84765625 -16.99609375 50.84765625 -19 52 C-21.25 51.6875 -21.25 51.6875 -23 51 C-22.443125 50.58492187 -21.88625 50.16984375 -21.3125 49.7421875 C-11.93066755 42.1669917 -5.04116818 31.00066119 -3 19 C-2.5111928 14.33677934 -2.19573777 9.68420727 -2 5 C-1.67 5 -1.34 5 -1 5 C-0.67 3.35 -0.34 1.7 0 0 Z " fill="#676767" transform="translate(131,199)"/>
<path d="M0 0 C2.22189824 2.22189824 2.92598892 4.08482708 4 7 C2.68 7 1.36 7 0 7 C-0.70088156 8.74468372 -1.38524009 10.49601161 -2.0625 12.25 C-2.44535156 13.22453125 -2.82820313 14.1990625 -3.22265625 15.203125 C-4.30135843 18.19271828 -4.30135843 18.19271828 -3 22 C-0.36 22.66 2.28 23.32 5 24 C5 24.33 5 24.66 5 25 C-1.93 25 -8.86 25 -16 25 C-14.20869612 23.80579742 -12.40617769 22.62778182 -10.58203125 21.484375 C-6.90957466 17.95081616 -5.51417541 13.94320401 -3.6875 9.25 C-3.32849609 8.36183594 -2.96949219 7.47367188 -2.59960938 6.55859375 C-1.72002666 4.37722861 -0.85410104 2.19143928 0 0 Z " fill="#696969" transform="translate(64,210)"/>
<path d="M0 0 C1.32 0 2.64 0 4 0 C5.60355101 3.50776784 6.22036864 6.14354879 6 10 C6.99 10.33 7.98 10.66 9 11 C7.75453595 14.73639216 6.36595047 15.18756513 3 17 C0.20758434 14.20758434 -0.19234017 11.85191613 -1 8 C-0.88012687 5.25250791 -0.4770918 2.71942327 0 0 Z " fill="#181818" transform="translate(68,207)"/>
<path d="M0 0 C6.6 0 13.2 0 20 0 C18.32826615 1.11448923 16.6521241 2.22268887 14.95996094 3.3059082 C12.55709231 5.38282716 11.79858769 7.15947544 10.640625 10.10546875 C10.05087891 11.57983398 10.05087891 11.57983398 9.44921875 13.08398438 C9.05347656 14.10814453 8.65773438 15.13230469 8.25 16.1875 C7.63318359 17.74114258 7.63318359 17.74114258 7.00390625 19.32617188 C5.991763 21.88006822 4.9909866 24.4378365 4 27 C2 24 2 24 2 22 C2.66 22 3.32 22 4 22 C4.12246094 21.30261719 4.24492188 20.60523438 4.37109375 19.88671875 C5.05221372 16.76033577 6.01493472 13.835045 7.0625 10.8125 C8.49594778 6.98647126 8.49594778 6.98647126 9 3 C4.545 2.01 4.545 2.01 0 1 C0 0.67 0 0.34 0 0 Z " fill="#454545" transform="translate(84,181)"/>
<path d="M0 0 C6.93 0 13.86 0 21 0 C20.67 0.99 20.34 1.98 20 3 C18.68 3.33 17.36 3.66 16 4 C15.67 17.53 15.34 31.06 15 45 C14.67 45 14.34 45 14 45 C13.98018066 43.8039917 13.96036133 42.6079834 13.93994141 41.37573242 C13.86391728 36.94192306 13.77519503 32.50844326 13.68261719 28.07495117 C13.64431423 26.15542096 13.60946367 24.23581865 13.578125 22.31616211 C13.53250298 19.5581687 13.4745042 16.80067223 13.4140625 14.04296875 C13.40251129 13.18350143 13.39096008 12.32403412 13.37905884 11.43852234 C13.35918915 10.63791885 13.33931946 9.83731537 13.31884766 9.01245117 C13.30552399 8.3085173 13.29220032 7.60458344 13.2784729 6.87931824 C13.08755815 4.66902536 13.08755815 4.66902536 11 2 C8.3443272 1.41651248 8.3443272 1.41651248 5.375 1.3125 C4.37210937 1.24675781 3.36921875 1.18101562 2.3359375 1.11328125 C1.56507813 1.07589844 0.79421875 1.03851563 0 1 C0 0.67 0 0.34 0 0 Z " fill="#9A9A9A" transform="translate(318,179)"/>
<path d="M0 0 C4.34962183 0.57521002 7.9315663 1.66351885 11.9375 3.4375 C21.0829506 7.32179787 29.10095318 8.47827492 39 9 C39 9.33 39 9.66 39 10 C24.343558 10.51677954 12.12649851 10.34678538 0 1 C0 0.67 0 0.34 0 0 Z " fill="#3E3E3E" transform="translate(44,253)"/>
<path d="M0 0 C5.28 0 10.56 0 16 0 C15 3 15 3 13.0625 4.875 C10.85208757 7.15239462 9.99430634 9.01708098 9 12 C8.34 12 7.68 12 7 12 C6.95875 10.906875 6.9175 9.81375 6.875 8.6875 C6.39434602 4.75003667 6.39434602 4.75003667 2.9375 3.0625 C1.968125 2.711875 0.99875 2.36125 0 2 C0 1.34 0 0.68 0 0 Z " fill="#2C2C2C" transform="translate(177,179)"/>
<path d="M0 0 C0.66 0 1.32 0 2 0 C2.226875 1.11375 2.45375 2.2275 2.6875 3.375 C3.60623658 7.16038373 3.60623658 7.16038373 6.625 8.4375 C7.40875 8.623125 8.1925 8.80875 9 9 C9 9.66 9 10.32 9 11 C3.72 11 -1.56 11 -7 11 C-5.87092799 7.61278396 -4.48555675 6.48555675 -2 4 C-0.76487921 1.86690808 -0.76487921 1.86690808 0 0 Z " fill="#404040" transform="translate(271,226)"/>
<path d="M0 0 C0.99 0 1.98 0 3 0 C3.3403125 1.175625 3.3403125 1.175625 3.6875 2.375 C4.78125 5.21875 4.78125 5.21875 7.625 6.3125 C8.800625 6.6528125 8.800625 6.6528125 10 7 C10 7.66 10 8.32 10 9 C4.72 9 -0.56 9 -6 9 C-4.87952194 5.63856582 -3.50292817 4.42471166 -1 2 C-0.67 1.34 -0.34 0.68 0 0 Z " fill="#212121" transform="translate(347,228)"/>
<path d="M0 0 C5.28 0 10.56 0 16 0 C16 3 16 3 13.6875 5.6875 C11 8 11 8 8 8 C7.67 7.01 7.34 6.02 7 5 C3.49705129 3.28432339 3.49705129 3.28432339 0 2 C0 1.34 0 0.68 0 0 Z " fill="#464646" transform="translate(255,179)"/>
<path d="M0 0 C3.47528641 1.25496454 6.11978169 2.69582535 9 5 C9.99 5.66 10.98 6.32 12 7 C4.41 7 -3.18 7 -11 7 C-11 6.67 -11 6.34 -11 6 C-10.43410156 5.87882813 -9.86820312 5.75765625 -9.28515625 5.6328125 C-8.55167969 5.46523437 -7.81820312 5.29765625 -7.0625 5.125 C-5.96615234 4.88136719 -5.96615234 4.88136719 -4.84765625 4.6328125 C-2.79299706 4.17038477 -2.79299706 4.17038477 -2 2 C-1.34 2 -0.68 2 0 2 C0 1.34 0 0.68 0 0 Z " fill="#272727" transform="translate(92,228)"/>
<path d="M0 0 C1.485 0.99 1.485 0.99 3 2 C3.44140625 5.125 3.44140625 5.125 3.5625 9 C3.82268363 15.16212687 4.54663183 21.0030925 6 27 C5.01 27.33 4.02 27.66 3 28 C-0.39925415 18.63181742 -0.31042285 9.80706267 0 0 Z " fill="#727272" transform="translate(20,200)"/>
<path d="M0 0 C0.66 0.66 1.32 1.32 2 2 C1.79296875 4.49609375 1.79296875 4.49609375 1.1875 7.4375 C0.99542969 8.40558594 0.80335937 9.37367188 0.60546875 10.37109375 C0 13 0 13 -1 16 C-1.22560676 18.39254576 -1.40848595 20.78928123 -1.5625 23.1875 C-1.64628906 24.45980469 -1.73007812 25.73210937 -1.81640625 27.04296875 C-1.87699219 28.01878906 -1.93757813 28.99460938 -2 30 C-2.33 30 -2.66 30 -3 30 C-3.08803772 26.50016197 -3.14073608 23.00061362 -3.1875 19.5 C-3.21263672 18.51773438 -3.23777344 17.53546875 -3.26367188 16.5234375 C-3.32622356 10.26826941 -2.58892681 5.70787013 0 0 Z " fill="#3C3C3C" transform="translate(24,186)"/>
<path d="M0 0 C1.42603626 2.27625977 2.11478947 3.41809429 1.58447266 6.10644531 C1.2807373 6.83959961 0.97700195 7.57275391 0.6640625 8.328125 C0.18066406 9.52695313 0.18066406 9.52695313 -0.3125 10.75 C-0.8384375 11.9875 -0.8384375 11.9875 -1.375 13.25 C-1.88933594 14.51070312 -1.88933594 14.51070312 -2.4140625 15.796875 C-3.26242958 17.87066119 -4.124667 19.93748473 -5 22 C-6.42603626 19.72374023 -7.11478947 18.58190571 -6.58447266 15.89355469 C-6.2807373 15.16040039 -5.97700195 14.42724609 -5.6640625 13.671875 C-5.34179688 12.87265625 -5.01953125 12.0734375 -4.6875 11.25 C-4.1615625 10.0125 -4.1615625 10.0125 -3.625 8.75 C-3.28210938 7.90953125 -2.93921875 7.0690625 -2.5859375 6.203125 C-1.73757042 4.12933881 -0.875333 2.06251527 0 0 Z " fill="#5E5E5E" transform="translate(285,190)"/>
<path d="M0 0 C0.33 0.66 0.66 1.32 1 2 C-1.24976352 2.64665663 -3.49981967 3.29229523 -5.75 3.9375 C-7.00296875 4.29714844 -8.2559375 4.65679687 -9.546875 5.02734375 C-11.25617187 5.50880859 -11.25617187 5.50880859 -13 6 C-13.76828125 6.24878906 -14.5365625 6.49757812 -15.328125 6.75390625 C-15.87984375 6.83511719 -16.4315625 6.91632813 -17 7 C-17.66 6.34 -18.32 5.68 -19 5 C-17.06305322 4.18618205 -15.12542289 3.37399084 -13.1875 2.5625 C-12.10855469 2.11003906 -11.02960937 1.65757812 -9.91796875 1.19140625 C-3.68802902 -1.35227731 -3.68802902 -1.35227731 0 0 Z " fill="#5C5C5C" transform="translate(67,154)"/>
<path d="M0 0 C0.33 0.99 0.66 1.98 1 3 C4.3 3.66 7.6 4.32 11 5 C11 5.33 11 5.66 11 6 C4.07 6 -2.86 6 -10 6 C-9.01 5.34 -8.02 4.68 -7 4 C-6.154375 3.29875 -5.30875 2.5975 -4.4375 1.875 C-2 0 -2 0 0 0 Z " fill="#373737" transform="translate(58,229)"/>
<path d="M0 0 C3 2 3 2 3.68139648 3.81347656 C4.03444888 6.23641702 4.11258906 8.5353939 4.09765625 10.984375 C4.09282227 12.38623047 4.09282227 12.38623047 4.08789062 13.81640625 C4.07951172 14.78449219 4.07113281 15.75257813 4.0625 16.75 C4.05798828 17.73355469 4.05347656 18.71710938 4.04882812 19.73046875 C4.03706483 22.15370791 4.02062684 24.57682273 4 27 C3.67 27 3.34 27 3 27 C2 18 1 9 0 0 Z " fill="#2E2E2E" transform="translate(127,189)"/>
<path d="M0 0 C6.6 0 13.2 0 20 0 C19.67 0.66 19.34 1.32 19 2 C15.7 1.67 12.4 1.34 9 1 C9 1.66 9 2.32 9 3 C8.34 3 7.68 3 7 3 C6.34 4.32 5.68 5.64 5 7 C3.29115995 5.37660195 1.62553283 3.70680947 0 2 C0 1.34 0 0.68 0 0 Z " fill="#5C5C5C" transform="translate(140,179)"/>
<path d="M0 0 C5.30128046 4.73328612 8.30569242 9.88334735 9 17 C4.78458709 13.2529663 1.90736716 9.35980829 0 4 C0 2.68 0 1.36 0 0 Z " fill="#4D4D4D" transform="translate(24,226)"/>
<path d="M0 0 C0.99 0.33 1.98 0.66 3 1 C1.45730076 5.72065967 -0.07794619 10.41664092 -2 15 C-2.99 14.67 -3.98 14.34 -5 14 C-3.46527032 9.27775484 -1.76054874 4.64144669 0 0 Z " fill="#707070" transform="translate(252,213)"/>
<path d="M0 0 C2.12115604 3.41258542 2.12115604 3.41258542 1.58447266 6.01464844 C1.2807373 6.7059082 0.97700195 7.39716797 0.6640625 8.109375 C0.34179688 8.86347656 0.01953125 9.61757812 -0.3125 10.39453125 C-0.8384375 11.56048828 -0.8384375 11.56048828 -1.375 12.75 C-1.88933594 13.93916016 -1.88933594 13.93916016 -2.4140625 15.15234375 C-3.26214637 17.10764822 -4.12927477 19.05467242 -5 21 C-7 18 -7 18 -7 16 C-6.34 16 -5.68 16 -5 16 C-4.87753906 15.29488281 -4.75507812 14.58976563 -4.62890625 13.86328125 C-3.96594799 10.84496817 -3.01824425 8.08110558 -1.9375 5.1875 C-1.57527344 4.21167969 -1.21304688 3.23585937 -0.83984375 2.23046875 C-0.42412109 1.12638672 -0.42412109 1.12638672 0 0 Z " fill="#797979" transform="translate(93,187)"/>
<path d="M0 0 C3 1 3 1 4.421875 3.21484375 C4.86015625 4.11332031 5.2984375 5.01179687 5.75 5.9375 C6.19859375 6.83339844 6.6471875 7.72929687 7.109375 8.65234375 C7.40328125 9.42707031 7.6971875 10.20179688 8 11 C7 13 7 13 5 14 C4.15973604 12.23244474 3.32801278 10.46082737 2.5 8.6875 C2.0359375 7.70136719 1.571875 6.71523437 1.09375 5.69921875 C0 3 0 3 0 0 Z " fill="#4F4F4F" transform="translate(121,177)"/>
<path d="M0 0 C0 0.66 0 1.32 0 2 C-2.1171875 3.7265625 -2.1171875 3.7265625 -4.875 5.625 C-6.23238281 6.57246094 -6.23238281 6.57246094 -7.6171875 7.5390625 C-10 9 -10 9 -12 9 C-9.94195865 3.44328837 -5.88351438 0 0 0 Z " fill="#4F4F4F" transform="translate(50,160)"/>
<path d="M0 0 C5.28 0 10.56 0 16 0 C15.67 0.66 15.34 1.32 15 2 C13.35 1.67 11.7 1.34 10 1 C9.67 1.66 9.34 2.32 9 3 C6.24305242 4.18154896 5.13229609 4.04510094 2.25 3.0625 C1.5075 2.711875 0.765 2.36125 0 2 C0 1.34 0 0.68 0 0 Z " fill="#606060" transform="translate(177,179)"/>
<path d="M0 0 C1.28132813 0.00902344 2.56265625 0.01804688 3.8828125 0.02734375 C4.87023437 0.03894531 5.85765625 0.05054688 6.875 0.0625 C6.875 0.7225 6.875 1.3825 6.875 2.0625 C-2.53 2.5575 -2.53 2.5575 -12.125 3.0625 C-7.63412831 0.06858554 -5.41982037 -0.04927109 0 0 Z " fill="#484848" transform="translate(76.125,151.9375)"/>
<path d="M0 0 C3.465 1.485 3.465 1.485 7 3 C7 3.66 7 4.32 7 5 C1.72 5 -3.56 5 -9 5 C-8.67 4.34 -8.34 3.68 -8 3 C-5.36 3.33 -2.72 3.66 0 4 C0 2.68 0 1.36 0 0 Z " fill="#676767" transform="translate(350,232)"/>
<path d="M0 0 C6.93 0 13.86 0 21 0 C21 0.99 21 1.98 21 3 C19.35 3 17.7 3 16 3 C16 2.34 16 1.68 16 1 C8.08 1.495 8.08 1.495 0 2 C0 1.34 0 0.68 0 0 Z " fill="#838383" transform="translate(195,179)"/>
<path d="M0 0 C-1.48985569 3.79235994 -3.58658047 5.80565887 -7 8 C-9.1640625 7.60546875 -9.1640625 7.60546875 -11 7 C-9.73742767 5.82439821 -8.46462916 4.65977135 -7.1875 3.5 C-6.12595703 2.52546875 -6.12595703 2.52546875 -5.04296875 1.53125 C-3 0 -3 0 0 0 Z " fill="#575757" transform="translate(119,243)"/>
<path d="M0 0 C0.99 0.33 1.98 0.66 3 1 C2.01 4.3 1.02 7.6 0 11 C-0.99 11 -1.98 11 -3 11 C-2.44894091 7.0507432 -1.61064629 3.65079826 0 0 Z " fill="#686868" transform="translate(351,217)"/>
<path d="M0 0 C2.35953094 2.35953094 2.49141413 3.77895617 3 7 C2.01 7 1.02 7 0 7 C-0.28875 7.61875 -0.5775 8.2375 -0.875 8.875 C-2 11 -2 11 -4 13 C-4.33 11.35 -4.66 9.7 -5 8 C-4.01 8 -3.02 8 -2 8 C-1.7834375 7.13375 -1.7834375 7.13375 -1.5625 6.25 C-1.04166667 4.16666667 -0.52083333 2.08333333 0 0 Z " fill="#3E3E3E" transform="translate(381,212)"/>
<path d="M0 0 C2.475 0.495 2.475 0.495 5 1 C5 1.66 5 2.32 5 3 C-1.93 3 -8.86 3 -16 3 C-16 2.67 -16 2.34 -16 2 C-8.08 1.505 -8.08 1.505 0 1 C0 0.67 0 0.34 0 0 Z " fill="#7E7E7E" transform="translate(334,234)"/>
<path d="M0 0 C0.66 0 1.32 0 2 0 C1.5317879 4.77576339 0.75668002 8.04476345 -2 12 C-3.12377697 8.69564916 -2.89554742 6.9493138 -1.5625 3.75 C-1.27503906 3.04359375 -0.98757812 2.3371875 -0.69140625 1.609375 C-0.46324219 1.07828125 -0.23507813 0.5471875 0 0 Z " fill="#4F4F4F" transform="translate(256,203)"/>
<path d="M0 0 C0.66 0 1.32 0 2 0 C1.46930939 3.82097239 0.50298434 6.06171403 -2 9 C-2.99 8.67 -3.98 8.34 -5 8 C-4.21718695 6.66144944 -3.42348123 5.32926356 -2.625 4 C-2.18414062 3.2575 -1.74328125 2.515 -1.2890625 1.75 C-0.86367187 1.1725 -0.43828125 0.595 0 0 Z " fill="#494949" transform="translate(122,234)"/>
<path d="M0 0 C2.22189824 2.22189824 2.92598892 4.08482708 4 7 C2.68 7 1.36 7 0 7 C-0.33 7.66 -0.66 8.32 -1 9 C-1.66 9 -2.32 9 -3 9 C-2.01 6.03 -1.02 3.06 0 0 Z " fill="#8C8C8C" transform="translate(64,210)"/>
<path d="M0 0 C0.75929472 2.98613386 1.4118332 5.97514219 2 9 C0.68 9.99 -0.64 10.98 -2 12 C-3.12377697 8.69564916 -2.89554742 6.9493138 -1.5625 3.75 C-1.27503906 3.04359375 -0.98757813 2.3371875 -0.69140625 1.609375 C-0.46324219 1.07828125 -0.23507812 0.5471875 0 0 Z " fill="#6A6A6A" transform="translate(364,184)"/>
<path d="M0 0 C1.65 1.65 3.3 3.3 5 5 C4.34 6.32 3.68 7.64 3 9 C1.35 6.69 -0.3 4.38 -2 2 C-1.34 2 -0.68 2 0 2 C0 1.34 0 0.68 0 0 Z " fill="#6B6B6B" transform="translate(117,170)"/>
<path d="M0 0 C1.32 0 2.64 0 4 0 C3.67 2.31 3.34 4.62 3 7 C2.34 7 1.68 7 1 7 C0.67 4.69 0.34 2.38 0 0 Z " fill="#303030" transform="translate(73,228)"/>
<path d="M0 0 C0.33 0.99 0.66 1.98 1 3 C1.66 3 2.32 3 3 3 C2.45276317 6.37462715 1.9451 8.08235 0 11 C-1.05404945 7.01803543 -0.84098656 4.01804691 0 0 Z " fill="#616161" transform="translate(262,184)"/>
<path d="M0 0 C0 0.66 0 1.32 0 2 C-3.13498292 3.85776765 -5.37471432 4.20140476 -9 4 C-9 3.34 -9 2.68 -9 2 C-5.86501708 0.14223235 -3.62528568 -0.20140476 0 0 Z " fill="#1A1A1A" transform="translate(192,180)"/>
<path d="M0 0 C2.64 0 5.28 0 8 0 C7.34 1.98 6.68 3.96 6 6 C5.34 5.01 4.68 4.02 4 3 C1.94074861 2.27617533 1.94074861 2.27617533 0 2 C0 1.34 0 0.68 0 0 Z " fill="#404040" transform="translate(196,180)"/>
<path d="M0 0 C2 3 2 3 1.7578125 5.04296875 C1.171875 7.02864583 0.5859375 9.01432292 0 11 C-0.66 10.34 -1.32 9.68 -2 9 C-1.7578125 6.8359375 -1.7578125 6.8359375 -1.125 4.375 C-0.92132813 3.55773437 -0.71765625 2.74046875 -0.5078125 1.8984375 C-0.34023437 1.27195313 -0.17265625 0.64546875 0 0 Z " fill="#5F5F5F" transform="translate(183,188)"/>
<path d="M0 0 C0.66 0 1.32 0 2 0 C1.25 6.75 1.25 6.75 -1 9 C-2.0326802 6.21176345 -2.04509293 5.1322726 -1.0625 2.25 C-0.711875 1.5075 -0.36125 0.765 0 0 Z " fill="#535353" transform="translate(171,220)"/>
<path d="M0 0 C0.99 0.33 1.98 0.66 3 1 C1.86695008 4.39914975 0.87481525 5.05254451 -2 7 C-2.6875 5.1875 -2.6875 5.1875 -3 3 C-1.5625 1.25 -1.5625 1.25 0 0 Z " fill="#5F5F5F" transform="translate(36,168)"/>
<path d="M0 0 C0.66 0 1.32 0 2 0 C2 1.32 2 2.64 2 4 C2.99 4 3.98 4 5 4 C4.67 4.66 4.34 5.32 4 6 C1.9375 6.625 1.9375 6.625 0 7 C0 4.69 0 2.38 0 0 Z " fill="#505050" transform="translate(277,210)"/>
<path d="M0 0 C5.53846154 -0.36923077 5.53846154 -0.36923077 7.875 1.5 C8.24625 1.995 8.6175 2.49 9 3 C7.68 3.33 6.36 3.66 5 4 C5 3.34 5 2.68 5 2 C3.35 2 1.7 2 0 2 C0 1.34 0 0.68 0 0 Z " fill="#393939" transform="translate(318,180)"/>
<path d="M0 0 C0.66 0 1.32 0 2 0 C1.67 2.31 1.34 4.62 1 7 C0.01 6.67 -0.98 6.34 -2 6 C-1.34 4.02 -0.68 2.04 0 0 Z " fill="#5A5A5A" transform="translate(249,221)"/>
<path d="M0 0 C0.99 0 1.98 0 3 0 C2.25 1.9375 2.25 1.9375 1 4 C-1.125 4.75 -1.125 4.75 -3 5 C-1.125 1.125 -1.125 1.125 0 0 Z " fill="#404040" transform="translate(41,164)"/>
<path d="M0 0 C2.9375 1.1875 2.9375 1.1875 3.9375 3.1875 C-2.8125 2.4375 -2.8125 2.4375 -5.0625 0.1875 C-3.0625 -0.8125 -3.0625 -0.8125 0 0 Z " fill="#5B5B5B" transform="translate(103.0625,158.8125)"/>
<path d="" fill="#E2E2E2" transform="translate(0,0)"/>
</svg>
